<svg width="147" height="98" viewBox="0 0 147 98" fill="none" xmlns="http://www.w3.org/2000/svg"><path d="M15.854 8.074c.183.088.06.232.19.386.13.155.228.074.358.232.13.158.039.232.169.386.13.155.161.13.291.285.13.154.194.102.323.256.13.155.092.19.222.345.13.154.175.115.305.274.13.158.095.182.225.337.13.154.046.225.176.38.13.154.15.14.28.294.13.155.127.158.257.313.13.154.134.15.264.305s.224.078.354.232c.13.155.106.176.236.334.13.158.042.232.168.386.127.155.165.127.292.281.126.155.176.12.306.278.13.158.137.15.27.305s.18.12.31.274c.129.155-.012.39.192.39.204 0 .07-.221.2-.38.13-.157.197-.098.327-.256s.102-.179.232-.333c.13-.155.18-.113.31-.27.129-.159.097-.183.227-.338.13-.154.102-.18.232-.337.13-.158.102-.18.232-.334.13-.154.26-.046.39-.2.13-.155.126-.158.256-.313.13-.154.074-.203.204-.358.13-.155.116-.168.246-.323s.137-.148.267-.306.137-.15.267-.309c.13-.158.07-.204.2-.362s.155-.137.285-.291c.13-.155.19-.106.32-.26.13-.155.164-.127.294-.281.13-.155.046-.225.176-.383s.137-.151.27-.309c.134-.158.11-.158.296-.25.186-.09.161-.014.358-.014.197 0 .193.025.39.025.196 0 .193-.032.386-.032s.193.029.39.029.197-.151.39-.151.197.144.39.144.19-.141.323 0c.14.15.074.144.074.35 0 .208-.039.208-.039.415 0 .208.025.208.025.415s.06.207.06.414-.057.207-.057.415c0 .207.032.207.032.414 0 .208.031.208.031.415s-.08.207-.08.414.112.207.112.418c0 .21-.165.207-.165.415 0 .207.052.207.052.414s-.014.207-.014.415c0 .207.088.207.088.414s.039.207.039.415c0 .207-.095.207-.095.414s-.088.207-.088.418c0 .21.092.207.092.415 0 .207-.007.207-.007.414s-.025.207-.025.415c0 .207-.039.207-.039.418 0 .21.018.207.018.418 0 .21-.046.207-.046.414s.162.207.162.418c0 .21-.155.207-.155.418 0 .21.11.207.11.418 0 .21.006.207.006.418 0 .21-.123.207-.123.415v.418c0 .21.032.207.032.414s.109.207.109.415c0 .207-.028.207-.028.418v.417c0 .211.06.208.06.418 0 .211-.011.208-.011.418 0 .211-.028.208-.028.418 0 .211-.067.208-.067.418 0 .211-.025.211-.025.418 0 .208.225.299.074.443-.15.144-.239-.105-.456-.105-.218 0-.218.13-.436.13s-.218-.13-.436-.13c-.217 0-.217.084-.435.084s-.218-.102-.436-.102-.218.193-.439.193-.326.106-.488-.042c-.151-.14.056-.256.056-.463 0-.208-.053-.204-.053-.412 0-.207.134-.203.134-.41 0-.208-.18-.204-.18-.412 0-.207.18-.207.18-.41 0-.204-.074-.204-.074-.411 0-.208-.007-.204-.007-.411 0-.208-.098-.204-.098-.411 0-.208.172-.208.172-.411 0-.204-.172-.208-.172-.411 0-.204.032-.204.032-.411s.028-.204.028-.411.06-.207.06-.411.03-.204.03-.411.018-.204.018-.408c0-.203-.098-.203-.098-.41v-.412c0-.203.109-.203.109-.41 0-.208-.127-.204-.127-.412 0-.207-.028-.207-.028-.41 0-.204-.007-.208-.007-.412 0-.203.123-.207.123-.41 0-.204-.066-.208-.066-.411 0-.204-.043-.208-.043-.411 0-.204.074-.208.074-.411 0-.204-.116-.208-.116-.415s.176-.221.134-.421c-.01-.046-.155-.088-.186-.06-.158.144-.116.197-.25.358-.133.162-.137.162-.27.323-.134.162-.148.151-.281.316-.134.166-.067.218-.2.383-.134.165-.148.151-.281.316-.134.166-.081.208-.215.373-.133.165-.224.091-.358.253-.133.161-.098.193-.232.358-.133.165-.088.2-.221.365-.134.165-.14.158-.274.324-.134.165-.176.13-.31.295-.133.165-.203.108-.336.27-.134.162-.008.27-.14.432-.134.162-.145.158-.278.32-.134.161-.155.147-.288.312-.134.165-.173.134-.31.299-.137.165-.08.221-.274.313-.193.09-.245.154-.439.063-.193-.092-.091-.225-.224-.387-.134-.161-.172-.13-.31-.295-.137-.165-.052-.232-.186-.393-.133-.162-.242-.074-.375-.239l-.268-.327c-.133-.165-.045-.235-.179-.4-.133-.165-.245-.074-.379-.235-.134-.162-.102-.19-.235-.355-.134-.165-.088-.2-.222-.365-.133-.166-.112-.183-.249-.345-.137-.161-.204-.105-.34-.27-.138-.165-.11-.186-.247-.348-.137-.162-.112-.183-.245-.344-.134-.162-.194-.116-.327-.281-.134-.165-.127-.172-.26-.337-.134-.165-.102-.194-.235-.359-.134-.165-.07-.235-.229-.376-.035-.031-.19-.01-.2.032-.046.2.042.218.042.425s.084.204.084.411.036.204.036.411-.14.204-.14.411v.411c0 .204.13.204.13.411s-.113.204-.113.411-.039.204-.039.41c0 .208.067.208.067.412s.028.207.028.41c0 .205-.039.205-.039.412s.053.204.053.41c0 .208-.018.208-.018.412s-.02.204-.02.41c0 .208.052.205.052.408 0 .204-.05.204-.05.411s-.055.207-.055.411.042.204.042.411-.078.204-.078.411.081.207.081.411.018.207.018.411v.411c0 .204-.106.207-.106.411s.162.207.162.411.01.207.01.41c0 .205-.154.208-.154.415 0 .208.158.2.007.345-.158.15-.151.123-.369.123s-.218-.085-.435-.085c-.218 0-.218-.045-.436-.045s-.218.116-.435.116c-.218 0-.218.049-.436.049s-.218-.01-.44-.01c-.22 0-.33.13-.487-.022-.151-.144.105-.263.105-.47 0-.208.042-.208.042-.415s-.172-.207-.172-.415c0-.207.137-.207.137-.414s-.01-.207-.01-.414c0-.208-.141-.208-.141-.415s.12-.207.12-.415c0-.207-.085-.207-.085-.414s.109-.207.109-.418c0-.21-.074-.207-.074-.414 0-.208-.049-.208-.049-.415s.14-.207.14-.414c0-.208-.07-.208-.07-.415s-.031-.207-.031-.414c0-.208.024-.208.024-.415s-.084-.207-.084-.418c0-.21.12-.207.12-.414 0-.208-.06-.208-.06-.415s.091-.207.091-.414.042-.207.042-.418-.147-.208-.147-.418v-.415c0-.207.024-.207.024-.418 0-.21.074-.207.074-.418 0-.21-.091-.207-.091-.418 0-.21-.053-.207-.053-.418 0-.21.123-.207.123-.414s.053-.207.053-.418-.067-.207-.067-.415c0-.207.035-.207.035-.414s.014-.207.014-.418-.084-.207-.084-.418-.014-.207-.014-.418-.064-.207-.064-.418.183-.207.183-.418-.133-.207-.133-.418c0-.21.024-.21.024-.418 0-.207-.08-.229.063-.38.134-.144.155-.017.352-.017.196 0 .196.067.393.067s.197-.01.394-.01c.196 0 .196-.166.393-.166s.197.018.393.018c.197 0 .215.186.408.15.207-.038.214-.19.393-.105l-.014.01zM37.327 13.1c.15 0 .298-.003.446.004.147.007.291.084.439.102.147.017.302 0 .446.028.144.028.28.109.421.147.14.039.292.053.432.102.14.05.302.042.44.102.136.06.249.169.382.235.123.063.222.169.337.24.116.07.267.094.376.175.11.08.165.235.267.323.102.088.264.12.359.214.094.095.193.197.28.302.088.106.148.236.225.348.078.112.144.232.215.351.07.123.182.222.242.348.06.127.105.264.155.394.049.13.13.252.172.39.042.136-.007.29.024.428.032.137.106.263.123.404.018.14-.07.284-.06.428.011.144.137.274.137.415 0 .14-.056.288-.066.428-.01.14.074.299.056.44-.018.14-.14.27-.165.41-.025.14-.144.257-.18.394-.034.137.029.305-.02.439-.05.133-.155.242-.215.372s-.087.274-.158.397c-.07.12-.221.18-.302.295-.08.116-.133.236-.221.34-.088.106-.169.212-.267.31s-.105.292-.21.383c-.106.091-.275.095-.39.176-.117.08-.24.133-.359.207-.12.074-.21.182-.334.246-.116.06-.217.154-.337.207-.12.053-.246.095-.369.14-.123.046-.235.13-.362.166-.126.035-.277-.014-.403.014-.127.028-.253.073-.383.094-.13.021-.264-.007-.394.007s-.26-.031-.393-.024c-.134.007-.257.175-.386.175-.13 0-.264-.087-.39-.094-.127-.007-.27.056-.397.042-.127-.014-.253-.091-.383-.113-.13-.02-.274.018-.4-.01-.127-.028-.236-.14-.362-.18-.127-.038-.25-.073-.373-.119-.123-.045-.263-.049-.383-.102-.119-.052-.175-.231-.291-.295-.123-.063-.278-.063-.394-.133-.115-.07-.21-.18-.32-.256-.108-.078-.305-.06-.407-.148-.101-.088-.182-.218-.277-.313a4.663 4.663 0 01-.281-.305c-.088-.106-.077-.285-.155-.397-.077-.113-.13-.236-.196-.355-.07-.123-.211-.207-.274-.337a3.99 3.99 0 01-.169-.394c-.05-.133-.183-.242-.221-.383-.039-.14-.056-.284-.085-.424-.028-.141-.045-.285-.066-.429-.021-.144.133-.295.126-.443-.007-.147-.126-.277-.126-.421 0-.144-.053-.292-.043-.429.011-.137.134-.274.151-.414.018-.14.07-.274.102-.411.032-.137-.02-.299.018-.432.039-.134.214-.221.267-.355.053-.133-.06-.334 0-.46s.242-.19.316-.313c.07-.12.07-.28.151-.393.08-.113.21-.186.299-.292.087-.105.2-.186.298-.28.099-.095.116-.282.221-.37.106-.087.31-.049.422-.13.112-.08.2-.186.316-.256.116-.07.2-.204.323-.267.13-.066.306-.035.443-.091.137-.056.256-.144.393-.19.137-.045.278-.088.418-.126.14-.039.278-.095.422-.123.144-.028.28-.095.428-.113.148-.017.302.11.45.102.147-.007.284-.137.435-.137l-.006-.007zm-2.839 5.476c0 .134.014.257.021.383.007.134-.042.267-.024.39.017.13.08.25.109.372.028.123.017.267.056.387s.116.235.169.348c.052.112.168.196.235.305.067.11.098.239.179.337.084.106.144.229.239.317.095.087.239.122.348.193.108.07.182.214.305.27.123.056.274.018.4.053.127.035.25.052.383.07.134.018.253.056.39.056s.274.004.4-.01c.138-.014.26-.088.387-.116.127-.028.26-.056.38-.105.119-.05.22-.141.333-.208.113-.066.267-.077.37-.165.101-.088.157-.214.245-.32.088-.105.25-.147.32-.26.07-.112.024-.284.08-.407.057-.123.151-.218.19-.348.039-.123-.021-.27.007-.404.028-.122.148-.235.165-.368.018-.127.116-.253.123-.39.007-.13-.102-.267-.102-.4 0-.155.053-.306.042-.447-.01-.154-.073-.298-.094-.439-.025-.15.035-.323 0-.46-.043-.148-.123-.285-.18-.418a3.1 3.1 0 00-.217-.397c-.078-.123-.278-.158-.376-.267-.092-.098-.113-.26-.214-.344-.102-.085-.2-.183-.313-.25-.113-.066-.257-.08-.38-.13-.122-.049-.256-.045-.386-.077a2.819 2.819 0 00-.383-.07c-.126-.014-.256.025-.393.025s-.264-.081-.39-.067c-.133.017-.256.06-.38.091-.122.032-.263.035-.382.088-.12.053-.267.07-.376.14-.109.07-.113.278-.21.366-.1.088-.243.116-.331.214-.095.112-.12.27-.197.393-.077.123-.196.218-.256.355-.06.137-.046.288-.088.429-.042.14-.151.256-.18.404a3.663 3.663 0 00-.048.435c-.01.14.017.288.017.44l.007.006zm16.927-5.455c.127 0 .243.07.37.092.126.02.252-.007.375.031.123.039.228.102.344.155.106.049.225.088.341.158.102.06.257.06.365.133.099.067.194.162.295.24.095.073.148.207.25.29-.028.219-.078.204-.162.408s-.116.19-.197.394c-.08.203-.049.217-.133.418-.084.2-.144.179-.225.379-.08.2-.042.221-.126.425-.084.204-.053.207-.2.369-.123-.091-.176-.158-.288-.235-.127-.088-.281-.12-.4-.19-.134-.078-.282-.098-.405-.155-.144-.067-.235-.228-.365-.263-.155-.042-.31-.116-.44-.116-.154 0-.308.109-.46.147a2.099 2.099 0 00-.435.159c-.13.066-.225.2-.355.302-.109.084-.298.077-.397.175-.098.099-.049.32-.133.429-.084.109-.256.147-.327.267-.07.12-.042.28-.102.407-.06.127-.231.2-.277.327-.046.126.053.302.017.432-.035.13-.052.26-.07.393-.017.134-.109.26-.109.397 0 .2.014.2.014.4s.07.2.07.401c0 .2-.094.2-.094.4s.074.2.074.4c0 .201-.13.201-.13.401s.094.2.094.4c0 .201-.003.201-.003.401s-.053.2-.053.404c0 .204.021.2.021.4s.007.2.007.405c0 .203-.098.2-.098.404 0 .203.221.252.08.396-.14.145-.192-.066-.39-.066-.196 0-.2.116-.396.116-.197 0-.2-.078-.397-.078s-.2.123-.397.123-.2-.073-.397-.073-.2-.074-.4-.074-.24.186-.38.042.007-.183.007-.386c0-.204.007-.204.007-.404 0-.2-.017-.204-.017-.408s.053-.204.053-.407c0-.204-.07-.204-.07-.408s.003-.204.003-.404c0-.2.063-.204.063-.407 0-.204-.007-.204-.007-.408 0-.203.025-.203.025-.407 0-.204-.18-.204-.18-.408 0-.203.046-.203.046-.407 0-.204.042-.204.042-.408 0-.203-.02-.203-.02-.407 0-.204-.011-.204-.011-.404 0-.2-.032-.204-.032-.404 0-.2.12-.204.12-.407 0-.204-.134-.204-.134-.408 0-.203.095-.203.095-.407 0-.204-.032-.204-.032-.408 0-.203.078-.203.078-.407 0-.204-.155-.204-.155-.408 0-.203.186-.203.186-.407 0-.204-.035-.204-.035-.407v-.408c0-.204-.05-.204-.05-.407 0-.204-.213-.324-.07-.468.145-.144.26.11.457.11s.2.01.397.01.2.02.397.02.2-.147.397-.147.2.116.397.116.2-.063.4-.063.32-.186.464-.05c.144.138-.098.26-.098.45s-.042.194-.042.383c0 .19.073.19.073.383s.014.193.014.383.063.193.063.386v.387c0 .193-.193.207-.168.397 0 .02.193.063.21.045.06-.119.124-.253.183-.365.063-.116.074-.256.137-.365.067-.116.186-.193.253-.299.07-.112.134-.221.204-.323.077-.109.053-.284.13-.383.084-.105.207-.172.288-.263.091-.099.221-.144.313-.225.119-.105.22-.218.347-.299.134-.087.278-.123.418-.182.14-.06.246-.257.397-.285.151-.028.32.018.478.018l.003.01zm13.419.194c.144.133.007.22.007.418 0 .196.007.196.007.393s-.11.197-.11.393v.394c0 .196.236.28.088.407-.168.148-.238-.095-.463-.095-.225 0-.225.053-.453.053-.229 0-.229-.01-.453-.01-.225 0-.264-.12-.482-.057.088.11.137.345.211.446.08.113.232.172.292.281.066.123.19.222.231.334.06.155.032.351.06.52.028.168.074.334.074.506 0 .144-.056.288-.074.428-.017.14-.074.274-.112.411-.039.137.02.313-.035.443-.056.13-.162.242-.236.369-.073.126-.12.267-.207.382-.088.116-.214.197-.313.303-.087.094-.179.196-.288.28-.098.081-.249.095-.368.166-.11.066-.18.218-.303.277-.115.053-.235.127-.365.172-.12.043-.28-.017-.414.021-.123.035-.24.106-.373.137-.126.028-.27-.031-.407-.007-.127.021-.25.092-.383.11-.13.017-.239.143-.355.16-.133.022-.253.04-.365.06a4.324 4.324 0 00-.358.081c-.148.039-.31-.052-.394-.01a.734.734 0 00-.267.235c-.063.091-.01.214-.01.34 0 .127-.067.282.02.37.071.07.233.063.363.112.123.05.277.07.46.116.137.035.277.14.453.172.144.028.295.116.464.144.14.021.291-.046.425-.021.133.025.277.042.41.07.134.028.289.01.419.042.137.036.267.095.397.134.136.039.28.05.41.091.138.046.246.151.373.2.133.053.27.088.39.145.13.06.232.165.348.231.126.07.27.099.379.176.116.08.158.246.256.337.106.095.306.098.39.2.084.102.113.267.18.387.066.12.136.246.178.376.043.13-.038.284-.017.425.021.14.102.256.102.4 0 .151.02.295.007.436-.018.147-.095.28-.13.418-.035.137-.099.27-.155.4-.056.13-.035.31-.112.432-.077.123-.148.263-.246.372-.098.11-.26.155-.372.25-.113.095-.264.12-.387.2-.112.074-.15.281-.274.344-.123.064-.291.018-.421.07-.13.053-.215.2-.348.243a8.545 8.545 0 01-.397.112c-.133.035-.291-.073-.428-.049-.137.025-.257.084-.394.105-.137.021-.256.148-.393.162-.137.014-.285-.158-.422-.148-.137.011-.263.11-.404.116-.14.008-.27-.038-.41-.038-.141 0-.275.133-.405.13-.13-.004-.267-.13-.397-.137-.13-.007-.267-.032-.396-.046-.13-.014-.267-.028-.397-.046-.13-.017-.264-.052-.394-.077-.13-.024-.288.053-.414.021-.127-.031-.267-.063-.39-.102-.123-.038-.242-.133-.365-.182-.123-.05-.229-.148-.348-.204-.12-.056-.288-.035-.4-.102-.12-.07-.145-.274-.25-.351-.112-.08-.285-.08-.38-.169-.101-.095-.143-.235-.224-.34-.081-.106-.236-.17-.299-.285a2.397 2.397 0 01-.175-.372c-.043-.127.031-.285.01-.418-.021-.134-.15-.257-.15-.394 0-.147.143-.277.164-.414.021-.137-.077-.316-.028-.446.05-.13.2-.225.274-.348.074-.123.13-.25.225-.358.095-.11.144-.26.256-.355.106-.088.243-.155.366-.235.115-.074.224-.18.358-.246.123-.064.274-.081.407-.137.127-.053.253-.13.394-.176.13-.046.298-.024.439-.063-.127-.056-.299-.028-.404-.091-.12-.067-.155-.257-.25-.33-.108-.085-.266-.11-.34-.204a1.232 1.232 0 01-.193-.352c-.043-.12.01-.263.01-.393 0-.148.039-.274.088-.404.05-.13.046-.299.144-.411.088-.098.232-.162.358-.246.11-.074.197-.228.337-.291.123-.053.267-.106.411-.151.13-.043.316.045.464.01.021-.01.028-.116.01-.13-.13-.035-.294.007-.414-.035s-.19-.218-.305-.274c-.116-.056-.3.007-.408-.06-.109-.066-.246-.116-.348-.196-.102-.081-.147-.232-.242-.323a3.348 3.348 0 01-.267-.282c-.095-.115-.2-.22-.278-.344-.077-.123-.073-.291-.133-.425-.06-.133-.242-.228-.281-.369-.039-.14.032-.309.014-.456-.017-.148-.05-.288-.05-.44 0-.133-.048-.27-.034-.396.014-.127.161-.243.186-.37.024-.126-.07-.287-.028-.41.042-.123.179-.214.232-.33a3.31 3.31 0 01.179-.344c.067-.113.116-.236.2-.338.084-.101.112-.253.207-.347.095-.095.281-.078.387-.162.101-.084.158-.232.267-.306.108-.073.207-.175.326-.238.12-.064.27-.053.394-.106.123-.053.249-.088.376-.13a4.8 4.8 0 01.382-.105c.13-.032.264-.007.397-.028.134-.021.25-.102.383-.116.134-.014.257-.11.394-.116.137-.007.267-.042.404-.042.21 0 .21.15.417.15.208 0 .208-.076.419-.076.21 0 .21-.074.417-.074.208 0 .208.088.418.088.211 0 .208-.011.418-.011.211 0 .211.028.419.028.207 0 .21.077.418.077.207 0 .21-.112.418-.112.207 0 .21.067.418.067.207 0 .21-.099.417-.099.208 0 .211.074.419.074.207 0 .235.105.438.056.229-.052.271-.249.426-.105l-.014-.003zm-8.192 12.673c0 .158.021.288.07.421.05.134.134.243.243.348.098.095.158.27.298.344.12.064.267.123.422.169.13.039.299-.018.453.014.137.025.27.144.425.162.14.014.292-.029.446-.022.14.008.288.022.443.022.137 0 .274.056.404.049.137-.007.27-.05.397-.067.137-.018.249-.137.372-.165.133-.032.235-.13.351-.172.13-.046.274-.025.383-.088.137-.077.228-.183.327-.274.112-.105.228-.19.284-.313.056-.123.116-.27.116-.421 0-.165-.137-.281-.2-.415-.063-.133-.109-.263-.239-.368-.109-.092-.25-.134-.404-.204-.13-.06-.246-.155-.4-.197-.137-.038-.281-.063-.44-.091-.14-.025-.28-.12-.438-.134-.145-.014-.302.078-.46.07-.145-.006-.296.011-.45.011-.155 0-.313-.102-.457-.088-.158.014-.302.078-.446.106-.155.031-.327-.01-.464.038-.147.053-.27.169-.396.243-.134.077-.173.25-.267.34a.966.966 0 00-.232.313c-.06.13-.14.228-.14.376v-.007zm.668-8.827c0 .133.007.256.028.376.024.13.063.242.112.358.05.116.018.284.095.393.077.11.165.211.263.299.099.091.26.102.37.169.108.066.185.22.308.266.123.046.27.032.4.053.13.021.26.042.394.042s.285.05.408.025c.133-.021.267-.091.386-.137.12-.046.197-.197.306-.27.108-.074.154-.2.245-.296.095-.098.232-.144.303-.253.07-.108.098-.238.144-.361.045-.123.122-.232.144-.366.02-.126.06-.256.06-.393 0-.127-.12-.232-.145-.351-.024-.12-.014-.24-.063-.352-.05-.112-.137-.186-.21-.288-.075-.101-.11-.21-.204-.298a1.672 1.672 0 00-.306-.218c-.109-.063-.19-.19-.31-.232-.119-.042-.263.025-.389 0-.127-.024-.239-.01-.369-.01s-.27-.099-.393-.074c-.123.024-.246.098-.366.147-.119.05-.28.035-.393.11-.112.073-.183.196-.281.29-.095.092-.084.257-.154.356a1.598 1.598 0 00-.285.65c-.025.122-.095.228-.095.358l-.003.007zm13.84-3.927c.14 0 .28-.158.414-.148.133.01.284-.01.418.004.133.014.26.133.393.161.134.029.281.025.408.06.126.035.256.113.383.162.126.049.267.08.39.14.122.06.228.155.344.225.116.07.175.221.284.306.11.084.278.09.376.182.098.091.19.197.285.299.094.102.19.197.27.302.08.105.148.225.221.34.074.117.204.197.267.317.064.12.07.267.123.393.053.127.035.274.078.4.042.127.161.232.196.362.035.13.05.264.078.4.028.138.031.268.049.405.017.137 0 .27.01.404.01.133-.038.267-.035.407.004.14.18.264.18.4 0 .211.003.211-.145.362-.147.151-.147.007-.355.007h-.414c-.207 0-.207.046-.414.046-.208 0-.208.021-.415.021s-.207.077-.415.077c-.207 0-.207-.056-.414-.056s-.207-.112-.414-.112c-.208 0-.208-.004-.415-.004s-.207.01-.414.01c-.208 0-.208.152-.415.152s-.207.014-.414.014c-.208 0-.208-.028-.415-.028s-.207-.127-.414-.127c-.208 0-.208.095-.418.095-.211 0-.208.056-.415.056s-.207-.137-.418-.137c-.21 0-.207.127-.418.127-.21 0-.25-.232-.446-.162.018.14.112.348.14.482.029.14.008.284.05.414s.035.291.091.415c.056.122.225.196.295.312.07.116.092.278.18.383.087.105.252.137.358.225.108.095.249.13.375.203.127.074.172.288.306.348.133.06.302.018.443.06.133.039.267.102.414.126.14.025.281.102.429.113.14.01.291-.151.442-.151.13 0 .26.045.39.038.13-.007.253-.066.38-.084.126-.017.252-.032.382-.06.13-.028.288.081.415.043.126-.04.242-.11.365-.155.134-.05.27-.102.408-.162.137-.06.203-.235.333-.305s.313-.028.44-.106c.126-.077.203-.22.326-.302.123-.08.197-.095.316-.182.07.193.113.182.113.39 0 .207.031.207.031.414s-.126.207-.126.415c0 .207-.032.207-.032.414s.162.221.116.422c-.109.077-.27.112-.383.182-.112.07-.25.092-.365.155-.116.063-.225.13-.344.186-.12.056-.18.253-.302.302-.123.05-.275.025-.4.067-.127.042-.268.02-.398.06-.13.038-.25.077-.38.105-.13.028-.256.046-.39.067-.133.02-.248.116-.382.133-.133.018-.26.08-.393.091-.134.01-.27-.137-.408-.133-.137.003-.26.017-.393.017-.134 0-.27.018-.404.011-.134-.007-.278.067-.411.053-.134-.014-.257-.123-.39-.144-.133-.021-.285.042-.415.01-.13-.031-.256-.095-.386-.137-.13-.042-.27-.049-.397-.098-.126-.05-.25-.113-.372-.172-.123-.06-.19-.218-.306-.285-.116-.067-.214-.154-.323-.232-.109-.077-.28-.07-.386-.154-.106-.084-.137-.25-.236-.34-.098-.096-.288-.096-.376-.194-.087-.098-.122-.25-.203-.355-.081-.105-.232-.168-.302-.28-.07-.113-.172-.219-.236-.338-.063-.12-.12-.25-.172-.372-.053-.123-.007-.288-.049-.415-.042-.126-.154-.235-.19-.369-.035-.133-.01-.274-.035-.407-.024-.134-.028-.267-.042-.4a7.538 7.538 0 01-.031-.405c-.007-.137.024-.267.024-.403 0-.148-.123-.295-.112-.436.01-.14.172-.277.19-.418.017-.14-.113-.313-.088-.45.024-.137.108-.277.144-.414.035-.137.136-.263.182-.397.046-.134.134-.256.193-.386.06-.13.025-.31.095-.436s.151-.25.232-.369c.08-.12.2-.21.292-.323.09-.112.246-.162.347-.267.099-.102.127-.277.232-.369.106-.091.281-.098.397-.182.116-.085.243-.134.362-.208.12-.073.214-.182.34-.246.127-.063.271-.066.405-.115.133-.05.214-.236.35-.274.138-.039.282-.039.422-.067a5.52 5.52 0 01.418-.07c.14-.018.288.077.429.07.14-.007.274-.01.418-.01l.003-.011zm2.465 4.352c-.014-.137-.126-.348-.147-.474-.025-.134-.085-.246-.123-.37-.039-.13.007-.28-.042-.396-.053-.123-.148-.218-.215-.327-.066-.109-.123-.232-.21-.33-.102-.112-.229-.19-.352-.27-.123-.081-.239-.176-.38-.232-.14-.056-.263-.18-.417-.204-.14-.021-.306.067-.464.067-.158 0-.312 0-.46.024a2.49 2.49 0 00-.442.123 2.24 2.24 0 00-.418.183c-.127.077-.2.225-.31.334-.094.095-.217.154-.298.267-.08.112-.207.19-.267.316-.056.12-.032.277-.077.41-.042.124-.092.25-.123.387-.028.127-.078.246-.095.386.186.07.197.036.397.036s.2.06.4.06.2-.173.4-.173.2.169.401.169c.2 0 .2-.032.4-.032h.401c.2 0 .2-.045.4-.045s.2-.021.404-.021c.204 0 .2-.078.4-.078.201 0 .201.056.405.056.204 0 .19.06.386.11.225.055.264.087.453.02l-.007.004zM84.5 13.125c.148 0 .296-.018.436-.004.148.014.281.102.418.13.137.028.267.106.4.151.134.046.289.043.419.102.13.06.298.063.418.14.119.078.193.226.305.317.113.091.176.221.274.33.088.098.225.158.302.263.078.106.13.232.194.348.063.116.15.222.203.34.053.12.176.222.215.349.038.126-.081.295-.05.425.032.13.158.235.176.369.018.133.028.263.039.4.01.137-.036.263-.036.4 0 .211-.028.211-.028.418 0 .208.074.211.074.422 0 .21-.08.21-.08.418 0 .207.049.21.049.421s.035.211.035.418c0 .208.045.211.045.422 0 .21-.112.21-.112.418 0 .207-.007.21-.007.418 0 .207.024.21.024.421s.043.211.043.418c0 .208.07.211.07.422 0 .21-.021.21-.021.421s.01.211.01.422c0 .21-.063.21-.063.421s.056.211.056.422c0 .21.077.28-.067.436-.133.144-.214.042-.41.042-.197 0-.197.028-.397.028s-.197-.07-.397-.07-.197-.018-.397-.018-.197-.056-.397-.056-.2-.018-.397-.018-.313.274-.453.134.049-.257.049-.457-.021-.2-.021-.404c0-.204-.039-.2-.039-.4s-.007-.2-.007-.4c0-.201.116-.201.116-.401s-.109-.2-.109-.404c0-.204.06-.2.06-.4s-.077-.2-.077-.401c0-.2.168-.2.168-.404 0-.204-.066-.2-.066-.404 0-.204-.092-.2-.092-.404 0-.204.085-.2.085-.404 0-.204-.032-.2-.032-.404 0-.204-.077-.2-.077-.404 0-.204-.004-.204-.004-.404 0-.2.085-.203.085-.404 0-.15-.022-.295-.036-.432-.017-.15-.084-.277-.123-.41-.038-.145.025-.324-.038-.447-.067-.133-.186-.235-.278-.344-.084-.102-.203-.155-.302-.228-.098-.074-.193-.158-.309-.207-.116-.05-.235-.057-.365-.078-.12-.02-.24-.007-.37-.007-.143 0-.305-.144-.445-.116-.14.028-.278.116-.408.172-.13.057-.22.19-.34.27-.113.078-.215.177-.338.282-.105.091-.193.207-.302.323-.098.102-.263.151-.365.27-.091.11-.183.24-.277.362-.035.204-.007.211-.007.415 0 .203.01.207.01.41 0 .204-.074.208-.074.415s.035.207.035.415c0 .207.141.203.141.41 0 .208-.155.208-.155.412 0 .203-.01.207-.01.414s.07.207.07.411.08.207.08.411-.133.207-.133.415c0 .207.134.207.134.414s-.099.207-.099.415c0 .207.074.207.074.414s.025.207.025.415c0 .207-.018.207-.018.414s-.017.207-.017.414c0 .208.133.292-.01.443-.145.151-.23-.063-.426-.063-.197 0-.2.056-.397.056-.196 0-.2.056-.397.056-.196 0-.2-.105-.397-.105-.196 0-.2.024-.397.024-.196 0-.2-.056-.4-.056s-.32.26-.46.116c-.14-.144.017-.263.017-.463s.022-.204.022-.405c0-.2-.032-.203-.032-.407 0-.204.102-.204.102-.407 0-.204-.12-.204-.12-.408s.134-.204.134-.404c0-.2-.032-.203-.032-.407 0-.204-.091-.204-.091-.408s-.014-.204-.014-.407c0-.204.133-.204.133-.408 0-.203-.09-.203-.09-.407 0-.204-.043-.204-.043-.408 0-.203.165-.203.165-.407 0-.204-.05-.204-.05-.404 0-.2.022-.204.022-.404 0-.2-.08-.204-.08-.407 0-.204.034-.204.034-.408s.078-.204.078-.407c0-.204-.014-.204-.014-.408s-.11-.204-.11-.407c0-.204.127-.204.127-.408 0-.203-.003-.203-.003-.407 0-.204-.07-.204-.07-.408 0-.203.003-.203.003-.407 0-.204-.074-.204-.074-.408 0-.203-.112-.277.028-.425.14-.147.214-.038.415-.038.2 0 .2.046.397.046.196 0 .2.056.396.056.197 0 .2.024.397.024s.2-.049.397-.049.2.06.4.06.296-.264.443-.127c.137.127.028.232.028.418 0 .187-.119.187-.119.37v.371c0 .187-.021.197.042.373.091-.109.148-.253.239-.351.098-.102.274-.12.372-.208.106-.095.123-.288.229-.369.112-.087.288-.073.404-.143.119-.074.182-.25.302-.31.137-.066.309-.06.453-.108.144-.05.309-.007.456-.04.148-.03.274-.196.425-.21.151-.014.31.042.46.042l.015.01zm16.186.2c.144.134-.084.214-.084.411 0 .197.112.197.112.393 0 .197-.056.197-.056.394s-.042.197-.042.393c0 .197.193.253.042.383-.168.148-.214.102-.442.102-.229 0-.225-.091-.453-.091-.229 0-.229-.028-.454-.028-.224 0-.228-.014-.446.049.088.109.106.225.18.327.08.112.136.224.196.333.067.123.148.221.19.334.06.154.2.291.228.46.028.169.077.34.077.513 0 .144-.098.288-.115.425-.018.137.007.295-.032.432s-.225.221-.281.351c-.056.13-.039.288-.112.415-.074.126-.106.27-.194.386a4.982 4.982 0 01-.274.334c-.088.095-.218.15-.323.235-.098.08-.239.105-.355.176-.109.066-.224.112-.347.168-.116.053-.204.18-.33.229-.12.042-.246.09-.376.13-.123.035-.27-.011-.4.017-.127.028-.257.035-.39.056-.127.021-.24.155-.377.172-.13.018-.252.04-.368.057-.134.02-.264-.004-.376.017-.137.025-.246.11-.352.137-.147.039-.263.06-.35.099-.117.056-.212.105-.271.193-.064.091-.186.196-.186.32 0 .122.084.273.175.361.07.07.25.007.38.06.123.05.235.193.418.239.137.035.291.095.463.13.144.028.323-.05.492-.021.14.02.27.091.404.116.133.024.263.105.397.133.133.028.28.028.41.063.138.035.278.046.408.081.137.039.25.148.376.19.137.045.264.091.386.14.134.053.271.074.394.13.13.06.214.19.33.257.127.07.327.007.436.084.116.08.203.204.302.295.105.095.242.165.326.27.085.106.092.278.158.397.067.12.187.222.232.355.046.134 0 .285.018.425.017.14.007.267.007.408 0 .15.084.302.07.442-.017.148 0 .31-.035.446-.035.137-.165.26-.221.394-.056.133-.169.235-.246.358-.077.123-.12.27-.218.38-.098.108-.232.171-.348.266-.116.095-.2.208-.326.288-.113.074-.215.172-.338.236-.123.063-.238.133-.368.186-.13.052-.257.088-.39.133-.134.046-.285-.02-.422.014-.137.036-.256.074-.393.102-.137.028-.264.046-.4.067-.138.021-.264.07-.401.084-.137.014-.27.004-.407.014-.138.01-.267.102-.408.106-.14.003-.274-.137-.41-.137-.138 0-.271.042-.401.038-.13-.003-.267-.056-.397-.066-.13-.01-.278.087-.408.073-.13-.014-.267-.038-.397-.056-.13-.017-.274 0-.404-.028s-.256-.091-.386-.123-.278-.02-.4-.06c-.123-.038-.236-.154-.355-.2a4.913 4.913 0 01-.369-.15c-.116-.057-.256-.092-.369-.159-.12-.07-.214-.175-.32-.253-.112-.08-.154-.232-.252-.32-.102-.094-.24-.136-.324-.242-.084-.105-.21-.19-.273-.305-.064-.116-.053-.27-.095-.4s-.183-.236-.204-.37c-.021-.133.028-.277.028-.414 0-.148.021-.288.046-.425.024-.137.052-.285.102-.415.049-.13.087-.277.158-.4.07-.123.186-.218.28-.327.095-.109.211-.179.324-.274.105-.088.218-.165.34-.246.116-.073.24-.137.37-.203.122-.064.235-.148.372-.204.126-.053.239-.165.376-.214.13-.046.347-.025.488-.067-.127-.056-.32-.102-.425-.162-.12-.066-.257-.109-.352-.186-.108-.084-.101-.274-.175-.369-.085-.105-.2-.172-.243-.288-.042-.116-.154-.246-.154-.376 0-.147.091-.295.14-.425.05-.13.165-.22.264-.333.088-.099.147-.25.274-.334.109-.074.27-.084.41-.148.124-.052.24-.15.384-.196.13-.042.295-.014.442-.05.021-.01-.028-.03-.049-.041a3.987 3.987 0 01-.365-.113c-.123-.046-.26-.077-.376-.133-.116-.057-.253-.102-.362-.169-.109-.067-.137-.27-.239-.348-.102-.077-.277-.074-.372-.165-.095-.091-.137-.232-.221-.333-.095-.116-.253-.19-.33-.313a3.357 3.357 0 01-.204-.404c-.06-.134-.137-.278-.176-.418-.038-.14-.007-.306-.025-.453-.017-.148-.066-.295-.066-.446 0-.134-.007-.274.003-.4.01-.127.07-.264.095-.39.025-.127.127-.243.169-.366.042-.123.02-.277.077-.393.056-.116.098-.253.169-.366.07-.112.224-.165.309-.267.084-.102.154-.207.25-.302.094-.095.203-.161.305-.246.102-.084.14-.267.25-.34.108-.074.234-.14.354-.207.12-.067.253-.102.376-.155.123-.053.26-.074.39-.116.13-.042.277 0 .407-.028.13-.028.246-.106.38-.13.133-.025.252-.112.39-.127.136-.014.273.095.41.088.137-.007.264-.063.4-.063.212 0 .212.05.419.05s.207-.011.418-.011c.21 0 .21-.11.418-.11.207 0 .207.04.418.04.21 0 .207.105.418.105.21 0 .21-.007.418-.007.207 0 .21-.14.418-.14.207 0 .21.09.418.09.207 0 .21-.056.418-.056.207 0 .21.057.418.057.207 0 .21.035.418.035.207 0 .235.091.442.045.225-.052.264-.249.415-.105l.01.014zm-8.195 12.666c0 .159-.06.327-.007.457s.229.197.338.306c.098.095.179.221.32.295.119.063.245.158.396.204.13.038.285.038.44.066.136.025.294-.06.449-.046.14.015.277.117.428.123.14.008.288.036.443.036.137 0 .267-.057.397-.064.137-.007.277.07.404.053.137-.017.274-.031.397-.06.133-.031.26-.098.38-.14.13-.046.206-.193.315-.253.137-.077.222-.18.32-.27.112-.106.26-.159.316-.285.056-.127.035-.27.035-.422 0-.165.11-.358.042-.495-.066-.137-.242-.221-.368-.326-.11-.092-.267-.127-.422-.197a2.567 2.567 0 00-.422-.151c-.136-.039-.27-.12-.428-.148-.14-.024-.285-.105-.443-.12-.144-.013-.298-.038-.456-.045-.144-.007-.302.074-.457.074a4.7 4.7 0 00-.453.028c-.158.014-.323-.046-.467-.014-.155.032-.316.056-.453.109-.148.053-.24.225-.366.298a1.581 1.581 0 00-.33.257c-.109.105-.225.193-.28.316-.06.13-.057.27-.057.418l-.01-.004zm.668-8.827c0 .134-.077.274-.056.394.024.13.168.221.217.337.05.116.064.253.137.358.074.106.13.232.225.323.099.092.228.144.337.215.11.07.267.031.39.077s.215.165.345.186c.13.021.252.06.39.06.136 0 .263-.063.386-.085.133-.02.284.029.404-.02.12-.05.256-.106.365-.18.109-.073.197-.186.292-.28.095-.099.098-.26.168-.373.07-.112.095-.232.14-.355.046-.123.162-.218.187-.351.021-.127-.025-.256-.025-.397 0-.126.137-.267.113-.386-.025-.12-.148-.225-.197-.338-.05-.112-.154-.186-.228-.288a1.731 1.731 0 00-.243-.267c-.094-.087-.165-.2-.27-.267-.106-.066-.204-.179-.323-.224a2.324 2.324 0 00-.376-.116c-.127-.025-.26.053-.394.053-.133 0-.263.017-.39.042-.126.024-.284-.018-.403.031-.12.05-.26.099-.37.172-.108.074-.14.246-.238.341-.095.091-.165.19-.239.288-.074.105-.176.19-.225.306-.049.116-.031.25-.056.375-.024.127-.06.24-.06.366l-.003.003zm15.16-4.071c.127 0 .239.127.366.144.126.018.242.021.362.056.119.036.228.081.344.134.105.05.27.004.386.074.102.06.151.221.26.295.098.067.186.154.292.235.094.074.165.098.267.183-.029.217.042.235-.039.439-.081.204-.19.158-.271.362-.08.203-.091.196-.175.4-.084.204.01.242-.07.443-.081.2-.173.165-.257.369-.084.203.053.284-.098.446-.123-.092-.214-.27-.327-.348-.126-.088-.323-.056-.439-.123-.133-.077-.235-.193-.358-.25-.144-.066-.292-.08-.418-.115a1.613 1.613 0 00-.422-.067c-.154 0-.295.039-.446.077-.144.039-.327 0-.467.077-.13.067-.246.187-.376.285-.109.084-.179.21-.277.306a3.166 3.166 0 00-.271.305c-.088.109-.204.19-.277.306-.074.116-.088.26-.148.386-.06.127-.084.26-.13.386-.045.127-.095.253-.13.383s-.003.27-.021.404c-.017.134-.081.26-.081.397 0 .2-.028.2-.028.4s.078.2.078.401c0 .2-.029.2-.029.4s-.073.2-.073.4c0 .201.08.201.08.401s-.151.2-.151.4v.401c0 .2.05.2.05.404 0 .204.116.2.116.4s-.099.2-.099.405c0 .203.067.2.067.403 0 .204.088.26-.053.404-.14.145-.2.07-.397.07-.196 0-.2.008-.397.008-.196 0-.2-.102-.397-.102-.196 0-.2.046-.396.046-.197 0-.201.031-.397.031h-.401c-.2 0-.211.035-.351-.105-.141-.14-.053-.158-.053-.358 0-.2.078-.204.078-.404v-.408c0-.204-.127-.204-.127-.407 0-.204.049-.204.049-.408s.053-.204.053-.404v-.407c0-.204-.081-.204-.081-.408 0-.203.067-.203.067-.407 0-.204-.088-.204-.088-.408 0-.203.13-.203.13-.407 0-.204-.14-.204-.14-.407 0-.204.108-.204.108-.408s-.056-.204-.056-.404c0-.2.07-.204.07-.404 0-.2-.024-.204-.024-.407 0-.204.028-.204.028-.408 0-.203-.018-.203-.018-.407 0-.204-.059-.204-.059-.408s.028-.204.028-.407c0-.204.01-.204.01-.408 0-.203.064-.203.064-.407 0-.204-.12-.204-.12-.408 0-.203.063-.203.063-.407 0-.204-.087-.204-.087-.407 0-.204-.043-.218.101-.366.144-.147.151-.049.352-.049.2 0 .2-.042.397-.042.196 0 .2.05.397.05.196 0 .2-.026.396-.026.197 0 .201.05.397.05.197 0 .201.07.401.07s.305-.285.449-.144c.144.14.05.242.05.435 0 .194-.071.194-.071.383 0 .19-.08.19-.08.383s.14.193.14.383-.172.193-.172.386c0 .194.105.194.105.387s.035.186.056.376c0 .02-.035.035-.021.017.06-.12.173-.207.229-.32.063-.115.116-.231.179-.34.067-.116.046-.278.112-.383.071-.112.155-.214.229-.316.077-.109.151-.214.228-.313.084-.105.214-.161.295-.253.091-.098.109-.267.2-.347.12-.106.274-.176.401-.257.133-.088.323-.046.463-.105.141-.06.246-.25.397-.281.151-.032.316-.035.474-.035v.024zm6.281.288c.144.148.003.162.003.366 0 .203.042.203.042.407 0 .204-.091.204-.091.408 0 .203.183.203.183.407 0 .204-.081.204-.081.407 0 .204.049.204.049.408s-.123.204-.123.407c0 .204.042.204.042.408 0 .203.064.203.064.41 0 .208.017.204.017.408s-.095.204-.095.408c0 .203.127.203.127.41 0 .208-.064.204-.064.408v.411c0 .207.06.204.06.411s-.098.204-.098.411c0 .147 0 .291.017.425.018.148 0 .302.039.429.042.14.077.295.144.414.07.127.197.225.295.327.088.091.246.095.351.165.106.07.197.137.317.183.119.045.217.126.347.147.12.017.246.091.38.091.161 0 .34 0 .495-.035.154-.035.305-.133.453-.196.14-.064.211-.264.348-.355.112-.074.284-.064.386-.151.102-.088.183-.197.274-.302.091-.106.098-.253.172-.37.074-.115.127-.196.19-.319.024-.204.169-.197.169-.404 0-.207-.032-.207-.032-.41 0-.204-.077-.208-.077-.412s-.028-.207-.028-.41c0-.205.007-.205.007-.412s-.032-.203-.032-.41c0-.208.014-.208.014-.412 0-.203.028-.207.028-.41 0-.204.112-.208.112-.412 0-.203-.01-.207-.01-.41 0-.204-.091-.208-.091-.412 0-.203.042-.207.042-.41 0-.204-.039-.208-.039-.415s-.067-.207-.067-.411-.007-.207-.007-.414c0-.208.074-.208.074-.415s-.19-.313-.046-.464c.144-.15.25-.014.45-.014s.2-.028.397-.028.2.007.397.007.2.032.397.032.2.123.397.123c.196 0 .2-.081.4-.081s.299-.172.439-.032c.141.14-.056.243-.056.447 0 .203-.081.203-.081.403s.018.204.018.408.056.204.056.407c0 .204.095.204.095.408s-.137.204-.137.404c0 .2-.007.204-.007.407 0 .204.102.204.102.408 0 .203.038.203.038.407 0 .204-.063.204-.063.408 0 .203-.003.203-.003.407 0 .204-.057.204-.057.408 0 .203.092.203.092.407 0 .204-.025.204-.025.404 0 .2-.038.204-.038.404v.407c0 .204-.057.204-.057.408 0 .203.039.203.039.407 0 .204.018.204.018.408s.049.204.049.407c0 .204.07.204.07.408 0 .203-.095.203-.095.407 0 .204.077.204.077.408 0 .203-.116.203-.116.407 0 .204-.031.204-.031.407 0 .204.186.236.042.38-.144.144-.169.052-.369.052h-.397c-.196 0-.2-.031-.397-.031-.196 0-.2-.032-.397-.032-.196 0-.2.081-.396.081-.197 0-.201-.123-.401-.123s-.344.295-.471.14c-.154-.182.018-.298.018-.54 0-.243.053-.24.053-.478 0-.239.105-.26.045-.492-.095.106-.253.2-.351.295-.098.095-.249.14-.351.229-.102.087-.207.182-.316.263-.109.08-.134.31-.253.38-.12.07-.257.136-.38.196s-.309-.007-.439.039c-.13.045-.235.197-.368.228-.134.032-.299-.102-.44-.088-.14.014-.267.194-.407.194-.148 0-.292-.127-.432-.141-.141-.014-.281-.067-.422-.091-.14-.025-.288-.032-.425-.074-.137-.042-.326.02-.456-.039-.13-.06-.179-.277-.302-.355-.123-.077-.222-.168-.334-.26-.112-.09-.256-.136-.355-.245-.091-.095-.119-.24-.196-.341-.078-.102-.166-.193-.236-.31-.07-.115-.274-.154-.326-.273-.053-.12-.095-.253-.137-.38-.043-.126.066-.291.035-.421-.032-.13-.18-.228-.201-.362-.021-.133.043-.267.032-.404-.011-.137.018-.26.018-.393 0-.21.031-.21.031-.422 0-.21-.007-.21-.007-.421 0-.21-.105-.21-.105-.422 0-.21.126-.21.126-.421s-.052-.211-.052-.422c0-.21-.067-.21-.067-.421s.028-.211.028-.422c0-.21.095-.21.095-.421s-.007-.211-.007-.425c0-.215-.088-.211-.088-.422 0-.21-.028-.21-.028-.421s-.067-.211-.067-.425c0-.215.028-.211.028-.422 0-.21.067-.21.067-.425 0-.214-.046-.21-.046-.425 0-.214-.042-.214.106-.369.133-.144.137.032.333.032.197 0 .197-.046.397-.046s.197-.06.397-.06.197.102.397.102.197-.052.397-.052.2-.007.397-.042c.197-.036.218-.095.355.049v-.004zm0-4.362c.179 0 .333.007.484.07.151.063.313.12.44.246.126.126.137.305.2.46.063.154.27.288.27.467 0 .18-.112.351-.179.506-.067.154-.123.334-.249.464-.127.13-.338.126-.489.193-.151.066-.298.133-.477.133s-.366.028-.52-.038a1.38 1.38 0 01-.446-.288c-.127-.13-.151-.327-.218-.478-.067-.151-.221-.31-.221-.488 0-.18.098-.362.161-.513a1.33 1.33 0 01.295-.432c.13-.127.26-.285.415-.348.154-.063.358.05.537.05l-.003-.004zm4.524 0c.183 0 .334.007.488.07.155.063.313.123.443.25.126.126.14.305.203.456.064.15.274.284.274.464 0 .179-.115.354-.179.509-.063.154-.13.337-.26.464-.13.126-.337.123-.491.186-.155.063-.299.133-.478.133s-.358.028-.509-.035a1.494 1.494 0 01-.447-.274c-.087-.084-.087-.235-.147-.334-.06-.098-.221-.168-.249-.284-.029-.109.017-.246.017-.369 0-.18.032-.362.095-.513.063-.15.123-.348.249-.474.127-.126.334-.151.489-.214.154-.063.319-.039.498-.039l.004.004zm11.472 4.127c.148 0 .292-.01.432 0 .148.014.278.105.415.133.137.028.302-.014.435.028.134.043.257.137.383.197s.27.099.393.18c.123.08.201.207.309.302.109.094.264.136.362.245.088.099.148.225.225.33.077.106.144.222.211.338.067.116.109.235.165.358.056.123.13.232.172.358.042.127.025.264.056.397.032.134.028.257.046.39.017.134.07.253.081.39.01.137.056.26.056.397 0 .21-.074.21-.074.418 0 .207-.014.21-.014.421s.113.211.113.418c0 .208-.106.211-.106.422 0 .21.098.21.098.418 0 .207.06.21.06.421s-.154.211-.154.418c0 .208-.025.211-.025.418 0 .208.007.211.007.422 0 .21.095.21.095.418 0 .207-.021.21-.021.422 0 .21-.07.21-.07.421 0 .21.13.21.13.422 0 .21-.025.21-.025.421 0 .21-.025.21-.025.422 0 .21.169.305.025.456-.134.144-.235.039-.432.039s-.197-.032-.397-.032-.197.032-.397.032-.197-.05-.397-.05-.197.022-.397.022-.2-.014-.397-.014c-.196 0-.242.09-.379-.05s-.028-.182-.028-.386c0-.204-.011-.2-.011-.404 0-.204-.052-.2-.052-.4s.031-.2.031-.4c0-.201.137-.201.137-.401s-.193-.2-.193-.404c0-.204.028-.2.028-.4s.095-.2.095-.401c0-.2-.07-.2-.07-.404 0-.204.017-.2.017-.404 0-.204.018-.2.018-.404 0-.204-.049-.2-.049-.404 0-.204.109-.2.109-.404 0-.204-.067-.2-.067-.404 0-.203.056-.203.056-.404 0-.2.028-.203.028-.404 0-.15 0-.305-.017-.442a3.36 3.36 0 00-.074-.44c-.039-.143-.141-.273-.204-.396-.067-.134-.246-.18-.337-.292-.084-.102-.134-.207-.232-.284-.098-.078-.207-.116-.327-.165-.119-.05-.193-.218-.323-.243-.119-.02-.256-.045-.39-.045-.144 0-.291.066-.432.095-.14.028-.246.15-.379.207-.134.056-.264.091-.383.175a3.76 3.76 0 00-.348.27c-.105.092-.274.134-.383.25-.098.102-.091.306-.193.425-.091.11-.207.18-.302.302-.035.204.007.2.007.408 0 .207-.077.207-.077.41 0 .204-.025.208-.025.415s.148.207.148.415c0 .207-.172.204-.172.41 0 .208.066.208.066.412v.414c0 .207-.024.207-.024.411s.074.207.074.411-.014.207-.014.415c0 .207-.018.207-.018.414s.084.207.084.415c0 .207-.126.207-.126.414s.07.207.07.415c0 .207-.021.207-.021.414s.06.207.06.415c0 .207.077.267-.067.414-.144.147-.2-.063-.397-.063s-.2.109-.397.109-.2-.004-.397-.004c-.196 0-.2-.06-.397-.06-.196 0-.2.035-.397.035-.196 0-.2-.105-.4-.105s-.2.176-.341.035c-.14-.14.035-.144.035-.348 0-.203-.059-.203-.059-.403s.007-.204.007-.408-.025-.204-.025-.407c0-.204-.102-.204-.102-.408s.007-.204.007-.404c0-.2.134-.204.134-.407 0-.204.021-.204.021-.408 0-.203.014-.203.014-.407 0-.204-.07-.204-.07-.408 0-.203.038-.203.038-.407 0-.204-.091-.204-.091-.408 0-.203.053-.203.053-.407 0-.204-.028-.204-.028-.404 0-.2.031-.204.031-.404 0-.2-.105-.204-.105-.407 0-.204.168-.204.168-.408 0-.203-.154-.203-.154-.407v-.408c0-.203.105-.203.105-.407 0-.204-.088-.204-.088-.408 0-.203.046-.203.046-.407 0-.204.077-.204.077-.407 0-.204-.038-.204-.038-.408s-.021-.204-.021-.407c0-.204-.158-.253-.014-.4.144-.148.189 0 .386 0s.2.07.397.07.2-.032.397-.032c.196 0 .2-.021.397-.021.196 0 .2-.088.397-.088.196 0 .2.053.4.053s.316-.19.464-.057c.137.127-.042.253-.042.44 0 .186-.046.186-.046.368 0 .183.123.186.123.373 0 .186-.176.203-.113.376.092-.11.218-.2.31-.3.098-.101.186-.203.284-.294.105-.095.172-.229.278-.313.112-.088.217-.182.33-.253.119-.074.256-.123.376-.182.137-.067.298-.074.442-.123.144-.05.274-.148.422-.183.147-.035.302-.05.453-.063.151-.014.302.028.456.028l.025.007z" fill="#37473D"/><path d="M67.177 73.742s-.106-.04-.12-.066c.04.013.107.04.12.066zm-.006-.041l.067.053s-.04 0-.053-.013c-.014-.013-.04-.04-.014-.04zm.164-.921s-.013 0-.013-.026c.038 0 .063.013.013.025zm2.25-6.563h-.054s0-.013.014-.027c.013 0 .027 0 .04.027zm.59.023s-.012.013-.025.013v-.025s.013.013.025.013z" fill="#3F5146"/><path d="M70.011 66.367s.05-.076.088-.05c.026 0-.277-.215-.277-.19-.026.088.214.24.19.24zm-1.856 4.847s.202-.1.19-.1c-.025 0-.14.328-.126.34.012 0-.064-.24-.064-.24zm-.808 2.121s.064.126.064.114c0-.013.189.05.189.05 0-.088-.252-.164-.252-.164zm-2.7 20.526l.731-1.263c.366-.63.253-.694.619-1.338.366-.643.177-.744.543-1.376.366-.63.694-.441 1.047-1.085.354-.644-.025-.859.341-1.49.366-.63.682-.442 1.048-1.073.366-.63.013-.833.379-1.464s.568-.518.934-1.149c.366-.631.618-.492.984-1.123.367-.632-.037-.871.329-1.502.366-.632.48-.569.845-1.2.367-.63.202-.732.569-1.363.365-.631.593-.505.959-1.136.366-.631.492-.556.858-1.2.366-.643.29-.681.657-1.312.366-.631.315-.67.681-1.3.366-.632.568-.518.934-1.162.367-.644.266-.694.632-1.338.366-.644.353-.58.353-1.313 0-.732-.177-.58-.555-1.237-.379-.656-.493-.58-.871-1.237-.379-.656-.177-.77-.556-1.426-.379-.657-.366-.67-.745-1.313-.378-.644-.353-.67-.732-1.313-.378-.644-.1-.808-.48-1.464-.378-.657-.378-.644-.757-1.3-.379-.657-.795-.417-1.174-1.074-.379-.656-.139-.795-.517-1.439-.38-.644-.53-.568-.91-1.212-.378-.643-.264-.72-.643-1.376-.379-.656-.215-.757-.593-1.4-.38-.645-.758-.443-1.136-1.099-.38-.656-.013-.858-.392-1.515-.379-.656-.53-.568-.909-1.224-.378-.657-.315-.695-.694-1.351-.379-.656-.669-.492-1.048-1.149-.379-.656-.454-.618-.833-1.275-.303-.53-.543-.934-1.048-1.123-.53-.19-1.06-.202-1.59 0s-1.212.328-1.515.858c-.379.657-.164.77-.543 1.427-.379.656-.315.681-.694 1.338-.379.656-.379.656-.745 1.3s-.707.454-1.085 1.11c-.38.657-.051.847-.43 1.49-.379.644-.517.581-.883 1.225-.367.644-.417.631-.796 1.287-.378.657 0 .871-.378 1.528-.38.656-.606.517-.985 1.174-.379.656-.43.618-.808 1.275-.379.656-.088.82-.467 1.464s-.72.455-1.098 1.111c-.379.657-.127.795-.505 1.452-.379.656-.278.707-.657 1.363-.378.656-.454.606-.833 1.262-.378.657-.795.417-1.174 1.073-.378.657-.303.695-.681 1.351-.38.657-.505.58-.884 1.237-.379.657.088.922-.29 1.578-.38.657-.278.707-.657 1.364-.379.656-.656.492-1.022 1.148-.366.657-.265.72-.644 1.376-.379.657-.467.606-.846 1.25-.379.644-.303.694-.669 1.35-.366.657-.467.607-.833 1.263-.366.656-.644.505-1.023 1.161-.378.657-.088.82-.467 1.477-.378.657-.404.644-.782 1.288-.379.644-.341.682-.72 1.338-.379.657-.416.631-.795 1.288-.379.656-.164.782-.543 1.439-.379.656-.53.555-.909 1.212-.379.656-.58.542-.96 1.199-.378.656-.138.795-.517 1.451-.379.657-.416.632-.808 1.3-.391.67-.429.632-.808 1.288-.303.53-.505 1.099-.404 1.629.102.555.303 1.275.733 1.64.429.367 1.136.064 1.742.064.732 0 .732.555 1.464.555s.732-.113 1.464-.113h1.465c.732 0 .732-.152 1.464-.152s.732-.063 1.464-.063c.733 0 .733-.252 1.465-.252.732 0 .732.189 1.464.189s.732.366 1.464.366.732.013 1.452.013.732-.038 1.464-.038.732-.492 1.465-.492c.732 0 .732-.051 1.464-.051s.732.101 1.464.101.732.43 1.465.43c.732 0 .732-.316 1.464-.316s.732-.19 1.464-.19.732.455 1.465.455c.732 0 .732-.43 1.464-.43s.732.556 1.464.556.732-.442 1.477-.442c.745 0 .732.202 1.477.202-.517 0-.808-.416-1.161-.707-.366-.303-.897-.53-.985-.997-.076-.442.24-.871.492-1.325l.013-.013zm1.994-19.175s-.013-.05.037-.05c-.025-.064-.201.025-.24-.064-.1-.114.165-.063.089-.151-.025-.013.076.075.063.063.038.012.025-.202.038-.202-.063-.076.227-.215.164-.265.025.012-.177.378-.151.378.088.038.126-.429.24-.328-.114-.1.05.14-.152.026 0 0 .1-.127.088-.127v.215c.026-.013-.063-.253-.037-.253 0 0 .088.202.088.19.012-.025.025-.29.1-.278.013.025-.125.454-.1.48.088 0 0-.556.012-.581.064.025 0 .391.076.417.025-.013-.025-.228-.025-.253.013 0 .05.24.063.24.101-.025-.164-.164-.025-.151.038 0 .088-.253.063-.278.038 0-.126.24-.088.29 0-.013.063-.1.025-.139-.05 0 .025-.063-.05-.088-.026-.038.037-.013.037-.063.013 0-.038.315-.038.328.227-.013-.113-.644.164-.644-.063-.012.064.076.026.05.037-.025-.038-.264 0-.277.025 0 .214.265.214.24-.025-.101-.29-.24-.24-.278.026 0-.1-.038-.088-.025 0-.038.34.063.202 0 0 0-.088-.025-.076-.038.05-.063.063-.063.076-.164.101.025-.025.303.101.328.05-.038-.24-.555-.177-.606-.025-.013.152-.227.152-.24.05.013 0 .392.038.392-.026-.026.126-.215.1-.24.013 0-.227.391-.189.404-.088-.063.328-.568.24-.631.025.012-.013.227.025.24.013 0-.265.063-.265.05 0-.025.253 0 .24-.025.05 0 .202.126.215.126.038-.038 0-.316-.063-.379 0-.038-.278.114-.266.088-.025-.012-.025-.037-.05-.05-.025-.013 0-.19.013-.19.113.039.037.165.176.228.076-.05-.252-.353-.252-.417 0-.025.215 0 .227 0 .038-.025.253-.202.19-.24.025.013-.266.089-.24.102.025-.038-.05.113-.064.05.013.013-.063.013-.05.013-.013-.013.177-.089.177-.101.214.113-.013.214.151.303-.038-.026-.025-.278-.113-.29l.1-.051c-.05-.101.089-.114.051-.227.025.012-.139.025-.114 0 .064-.076.026-.102 0-.203.14.051.051.316.19.38 0-.09-.05-.316-.089-.455.228.05-.075-.164.114-.164-.076-.026-.1-.114-.088-.152.05.038.29-.227.328-.202-.05-.038-.164.278-.076.29-.05-.037.025-.24-.038-.29.05-.012-.012-.1.038-.126-.075-.025.063.063.063.038 0 0-.1-.24-.1-.227.075.012-.102.138-.051.126.038 0 .139-.076.151-.101-.05-.013-.151-.164-.075-.164 0 .012-.303.24-.278.252-.063-.151.328-.328.252-.492 0-.05.101.114.164.126.152-.038-.088-.126-.05-.19.1-.138.088-.277.076-.454-.013-.012.366-.025.366-.037 0-.013-.29.189-.303.176-.025 0 .038-.076.063-.088.164-.025-.101-.442.151-.417-.063-.088.341-.1.24-.227.05-.012-.277.164-.252.126 0-.063.151-.1.126-.151-.101-.114.379-.202.29-.328 0 0-.176.126-.164.126.026.025-.05.227-.063.215-.025-.013.126-.266.088-.266-.037-.1-.012-.05 0-.113.051.05 0-.177.089-.152-.05-.038.164.038.126-.025.013-.05.126-.126.164-.177a1.055 1.055 0 00-.24-.1c.026-.064-.277-.114-.252-.19v.328c-.076-.038.215-.265.215-.29.025 0-.14 0-.114.025 0-.025.467-.025.467-.05.025.025-.152.088-.126.063-.013-.013-.215-.013-.215-.038 0-.013.063-.088.063-.101 0-.025 0 .038-.038.05.026-.075.064.038.114-.025.025 0 0 .088.038.076 0-.038-.05-.366 0-.366-.025-.013-.076.025-.101.012-.063-.05.24.127.24.114.012 0 .151-.215.164-.202-.013-.063-.404.013-.404-.05.038.012.164.05.139 0-.026-.013.05-.114.038-.102a.545.545 0 01-.064-.164c.064 0 .026.19.05.14.026-.051-.05.012-.024-.039.012-.05.063.329.126.329-.013-.038.025-.215.025-.228.088-.063-.24 0-.139-.037-.176-.064.303-.266.177-.316.164-.038.164-.088.24-.177 0 0-.088-.315-.076-.315.088-.013-.139.063-.088.025.012 0 .025.202.05.202.114-.038.05-.253-.012-.341.012.013-.026.05 0 .05-.038-.025 0 .076.037.051.013.013.102-.24.127-.24-.038-.038-.14.114-.14.063.09-.063.455-.113.43-.214a3.95 3.95 0 00-.416-.114c0-.063.113-.139.113-.202.063-.025.05-.151.114-.151 0-.038-.127.214-.026.214.013 0-.012-.202.026-.177.1-.037-.076.19-.05.14.062 0 .025.113.088.126.088-.013-.101-.089-.177-.127-.126-.1.1.114.013 0-.051-.025.113-.227.05-.252.05-.05.063.038.114-.013.037.013.05-.151.063-.126.038.038-.14.088-.063.088 0 .038.012-.025.05 0 .101-.012.025-.075.139-.05.025-.013-.177.063-.19.025.013 0 .19-.126.228-.126.012 0-.126.278-.126.29.012 0 .328-.151.34-.151-.012-.026-.025-.114-.037-.14-.026-.024-.228 0-.278 0 0 0-.101.051-.101.064 0 0 0 .126-.025.114-.026-.013.366-.29.353-.303-.05-.076-.139-.064-.215-.127.026.013.215.266.228.266 0-.026-.392-.253-.404-.29.063 0 .176.125.164.075-.025-.013-.152.063-.177.05-.025-.05.114-.113.202-.126-.088-.05-.063.114-.215.063.102.013.24-.113.316-.126-.063-.013-.088-.05-.151-.088.075.025 0 0 .113 0-.076-.038 0-.038-.113-.089.037-.012.075.303.1.29.013 0 .064-.328.076-.328-.063-.063-.063-.201-.214-.277.164.063.075.126.227.227 0-.025.038-.43 0-.454.139.05-.063.176.025.176-.076-.025 0 0-.038-.05.013.012.013.025.063.038-.05-.05-.05-.127.026-.127-.038-.037 0 .064-.063.026 0-.026.164.038.164 0s-.05.012-.038-.026c0-.037-.05.127 0 .114 0 0-.038-.101-.025-.114.037 0-.114.013-.114-.012 0-.05.265.038.29 0 .126-.038.101-.14.253-.089.025 0 .088-.075.1-.063.051.013.039.417.051.404.026 0 .05-.151.063-.113-.037.063.114-.063.064-.026 0 .05-.165.05-.152.114 0 .025-.076-.114-.101-.114-.025 0 .038.278 0 .278-.063-.025-.088-.025-.101 0 .025.025.139-.139.164-.114.114.114-.353.24-.303.329.05.05.379-.089.379-.026 0 .05-.177.127-.227.14.05.037.189.113.151.15-.215.09.038.342-.113.455.012.013-.202-.416-.228-.416-.24.05.253.643.05.707-.012 0-.062-.253-.075-.24 0 .063.177-.152.114-.127.1.026.1.228.113.278-.012 0-.404.253-.404.24-.038-.013.114-.353.127-.328.151.088.227.404.252.467-.076-.013-.316.126-.442.113.025.013.227-.214.278-.189-.05 0-.126.114-.088.139.025 0-.19-.139-.177-.164 0 0-.089.025-.089.012 0-.012.24.064.228.064.075 0 .05-.05.126-.026 0 .026.038-.038-.025-.063 0 .013.202.354.176.354.013.012 0 0 0 .012l-.227.013c-.012 0 .038-.114.025-.101-.05.025.05-.152.101-.101-.1-.063-.176.114-.252.088-.025-.025-.19.089-.164.05-.013-.024.164-.29.139-.29-.101.013.075.266 0 .303-.013 0-.038-.164-.076-.176-.025.012.038.088.076.113-.076-.025.038-.075.063-.038.05.038-.101.354-.114.38-.025 0 .013-.367-.012-.38-.026.013-.24.253-.228.303a2.435 2.435 0 01.43-.012c.012.05-.266.088-.152.151.025.05 0 .089-.05.089.037.038.088.025.037.025.127.038-.088 0-.1.038 0-.013-.152.214-.177.202.1.113.214-.013.202.063-.076.013-.076-.114-.152-.114 0 .038.202 0 .202.038-.038 0 .038.19.013.215 0 .076-.05.164-.101.214-.038 0-.05-.075-.089-.075.026.037 0-.253.038-.215-.227-.025.127.555-.126.555-.076.051-.038.026.025.064-.012.025.063 0-.075-.026 0 0 .05-.063.037-.063-.1-.038-.265.089-.265.114.013.038.303.063.329.063-.114.05 0 .303-.165.303.026.1.24.278.19.366l-.164.013c-.038.025-.101.164-.228.113 0 .076.102-.139.026-.075-.038 0 .025-.114 0-.127-.025.013.214.038.24.063a2.87 2.87 0 01-.29-.126c-.051.013.012.53.025.556-.026 0 0-.064-.038-.064-.114.038.176.14.126.215-.013-.013-.076-.416-.101-.416.139.075 0 .429 0 .467 0 .012-.328-.215-.328-.202 0 .05.126.012.189.113.038.025-.038.177 0 .177-.025.013-.088.038 0 .05-.063.013-.1-.29-.139-.252-.038-.013.101.467.038.467-.05 0-.114-.379-.164-.366-.013 0 0-.025 0-.025s.063-.076.076-.05c.176.062-.215.428-.025.454-.013.1-.152-.177-.102-.076-.176-.025.038.34-.201.252-.013.026.227-.075.252-.037-.013-.013-.038.164-.05.151 0 .05-.152.05-.127.088-.063 0-.113-.151-.176-.113.075.063.063-.114.164-.038.012 0-.101.202-.089.214-.025.064.038.026.038.101-.025.026.05-.126.013-.126-.025.013.1.215-.025.202-.013 0 0 .025-.013 0-.088-.025-.126 0-.164 0 0 .013.088-.063.1-.063.013.05-.189.19-.126.265-.037.038.203-.164.127-.139v.177c-.114-.013.025.391-.177.328-.05.013.05-.265-.05-.278-.076.038.126-.05.05-.025 0-.012.05.19.038.19-.013.037-.05.025-.038.063-.164 0-.025.252-.19.252.026.013.329-.025.341 0-.012.025-.48.05-.454.063-.025 0 .316-.038.328-.025 0 .013.013.038.013.063.013.013-.076.05-.076.076a.965.965 0 00-.19-.202c-.037.05.215.366.165.416-.038.013-.29-.063-.278-.025.114.05.19 0 .227.013-.037 0-.05.114-.126.088.025.026 0-.315.076-.277.025 0-.088.138-.101.151-.076.05.177.101.088.126-.1-.012-.1.038-.19.013-.087.013.064.227 0 .227.039.013.14-.34.178-.303.012-.012-.026.025-.026 0 .05.025-.151.025-.088.013.05 0-.063.177-.038.139.05.05.253-.127.328-.114.038.063-.189.215-.138.278-.026.012.025-.038-.013-.038.05.063-.114-.139-.076-.088 0 0-.151.201-.19.201.013.026-.037.026 0 .064.013 0-.125.1-.113.113-.012.025.05-.303 0-.29.013.013.404.114.417.139 0 0-.215.126-.227.126-.013.05.151.19.05.202-.013 0 .088.088.076.088-.013.013-.366-.176-.366-.164 0-.05.227-.113.277-.164-.1-.025.064.063.026.076.05.038-.089.088-.05.113-.013 0 .062-.24.05-.227.038.013-.152.53-.114.543 0 .013.139-.303.152-.29-.013-.013-.114.252-.127.252-.025.013-.138-.177-.075-.113-.013-.026.025-.076-.026-.064.026.064.127.202.063.215 0 .05.14.063.076.114 0 .012-.164-.19-.139-.19-.05.025 0 .076-.025.114.013 0 .025.164.025.177-.037 0-.176-.354-.202-.341a.836.836 0 00.063.19c.013 0-.088.062-.1.05l.075-.038c-.012 0-.126.038-.139.038-.038-.05.228-.14.202-.114.013.05-.391-.038-.353-.038-.05.038.353.076.29.101-.012.013-.025.088-.05.126.075.05.025.164.088.215-.24-.025.05.24-.114.278-.05 0 0-.329-.05-.354a.85.85 0 00-.076.19c.025 0 .025.012.063.025.013.025-.05-.013-.113-.063.063.075.265-.14.227-.114.025-.038-.151.05-.19 0-.063.025.051.467.064.518-.038-.026-.392-.152-.404-.14.063.051-.05-.125-.013-.075 0 .025.19.038.177.05.013.064.164.102.164.165 0 .012-.379.164-.366.176 0 0 .139-.378.151-.378 0 0-.012.315 0 .315.101.026.228 0 .253.038-.025 0-.076-.214-.05-.19.05.026.025.316.037.354-.038 0-.126-.151-.139-.113.013.025-.075.164-.038.176-.05-.012-.088-.252-.113-.227-.013-.025-.025.164-.038.139-.05-.025-.038.202-.088.177-.013.012.05-.24 0-.227.025.025.126.05.151.063-.076.025 0-.076 0-.038-.038 0-.088.429-.139.429.013.025.202-.303.24-.278 0 0-.114.164-.126.164-.025-.025 0 .05-.076.026.013.038-.214-.038-.126 0-.063.025.202.214.151.189.013.038-.353.025-.34.05 0 0 .138-.012.138 0 .013 0 .05-.29.064-.29.012 0 .227.101.24.114.012.038-.569.214-.43.29-.088 0 .114 0 .038-.038-.076 0 .076.24-.088.19.012.025-.076-.48-.063-.48-.038.013.063.227-.026.227.038.025-.075.215-.05.24-.013 0 .202-.139.19-.126.037.025.113.025.062.025-.113 0-.202-.328-.315-.29.076.088.1.126.113.202-.1-.026.177.403.089.416 0-.013-.366-.126-.392-.139 0 .025.05.114.064.14 0 0 .29-.165.277-.165-.076-.013.025.013-.038.025-.012-.025.026-.05-.012-.05.038.05.05.202 0 .227a.385.385 0 01-.202.038c-.025.025.19.025 0-.025-.013 0 .151-.114.139-.127 0 0 .025-.1 0-.1-.026-.038-.19.126-.202.088.025.025.025.265.05.278.05-.013-.164-.48-.151-.505.025 0-.076.189-.05.201-.026-.037.189 0 .252-.012l.1.139zm-19.29 6.097s-.188-.038-.226-.05c-.013 0-.303.075-.303.088 0 .012.252-.025.252-.025-.038 0 .025.05 0 .075.025.026-.1.202-.063.228.177.138-.088-.228-.013-.127.064.05 0 .05 0 .127 0 .063.038-.026-.037-.013.063.05.151-.101.088-.076-.265.013-.013.505-.215.556.013 0-.012-.101 0-.101-.277 0 .278.277 0 .252-.025 0-.1-.063-.113-.05 0 .063.05.037-.038.037.114.05-.076.101-.063.14-.013 0 .252-.19.24-.203-.026-.012-.29.202-.278.227.215.114.24.14.278.215-.089-.038-.202-.278-.367-.316.038.013-.151.165-.088.203-.076 0 .202-.038.253 0 .025 0 .214.164.214.151 0 0-.278.025-.29.025-.013 0-.152.152-.152.14 0-.014.202-.051.202-.051.101.025-.038.063.076.126-.012.013.227-.417.177-.43 0 0-.139.266-.139.253-.013-.013.025-.063 0-.05.013.012-.139-.165-.152-.152-.012.013.341.177.329.177.012.012-.177.139-.19.139 0 0-.025-.076-.037-.076-.013-.013 0 .126-.026.126-.038 0 .152.127.227.19-.1-.05-.303-.127-.404-.164.013 0-.151-.165-.138-.19-.013 0 .214.076.176.063-.126-.012.114.152 0 .164-.012 0-.075-.05-.113-.075-.038.012.088-.114.151-.089-.1-.038-.202 0-.164.05.076.051.088.152.063.178-.038 0-.076.138-.113.126-.076 0 .151-.025.088-.013 0-.012-.366-.177-.391-.177.025.05.606-.151.757-.063.05.05-.227.379-.29.392.05.063.1.037-.05-.026.252.089.214.14.201.164 0-.012-.088-.214-.113-.227.126.114-.101.202-.127.265-.088 0-.1.101-.189.089.05.05.114-.127.164-.076-.013.025.139.076.114.1 0 .064-.026-.1-.076-.075-.063 0-.076-.139-.139-.139.038.05.088.05.126.089-.303-.089 0 .176-.353.113-.114.026.1.404.202.467-.013.026-.038.253-.215.202 0 0 .05-.139.05-.151-.163-.076.203.088.152.088.013.025-.075-.34-.038-.328-.139.013-.1.139-.303.088.038.101.215.404.165.48 0 0 .037.252.025.252-.038.013-.114-.075-.303-.164.012.076.24.228.139.253-.038 0 .05-.303.025-.316-.025 0 .151.114.177.14-.013 0-.278.214-.29.214-.076-.013 0 .05.025.063-.038 0 .025-.265 0-.278-.14-.013-.026.114-.089.164-.012-.025.164-.1.126-.1.202.113.026.138.05.176-.037-.013-.226.202-.201.24.1.114-.215-.025-.114.088.05.038.064.101.127.114-.038 0 .113-.152.202-.101a.609.609 0 00-.278.05c-.05-.025-.025-.113-.101-.126-.088 0-.126.278-.215.265-.012-.012-.05-.139-.038-.126.253.114.101-.152.367-.063-.013.076-.253.151-.165.278-.265-.089-.139.303-.454.164-.025.025.1-.114.215-.038l-.089.19c.038.024.063 0 .05.024-.063-.063-.075-.138-.176-.202.013.038.164-.05.202 0-.089-.025-.089.013-.177.038.101.089-.315.19-.164.278.025.013-.05-.164-.038-.139-.025.038.265-.278.265-.214-.038.012.101.164.076.151 0 .013-.164.139-.139.164-.013 0 .164-.038.126-.05 0 0-.189.24-.202.227-.113-.05 0-.025-.075-.038 0 .013-.101-.076-.063-.05-.013 0-.152-.152-.177-.165.025.05.088.316.177.392l.138-.202c0 .038.278-.05.19-.076 0 0-.101.278-.114.278-.164-.038.177-.025-.1-.14-.051 0 0 .064-.152.026-.063.013-.026.076.025.126-.013.038.038.329.05.366-.24-.063.114-.403-.164-.48.05.013.177.203.202.228 0 .013.05.063.076.1 0 .014-.252.24-.252.266.05.025.063.05.05.076-.05-.063-.038-.202-.114-.265-.05.038.215-.089.152-.063-.063 0-.265.277-.24.328.152.075.114 0 .177.025-.063-.013 0-.05-.076-.088.025.025-.088.075 0 .126.025 0-.1-.202-.114-.19-.088.026.354.215.228.203-.127-.051-.14 0-.265-.051-.089-.013.1.366.038.366.025.013-.026-.227.037-.19 0-.012.14-.264.14-.277.062.05-.114.278-.039.29.05 0-.038.076 0 .05.076.064.177-.29.278-.252.063.064-.353.29-.278.367-.038-.013-.139-.102-.202-.102.063.051-.063-.012-.063 0h.152c.012.026-.076-.164 0-.126 0 0 .038.101.05.101-.012.013-.025.114-.1.126.025.013.226 0 .252.026-.013 0-.164.202-.177.19 0 .012-.151.012-.114.062-.012 0 .29-.278.29-.265-.037-.038-.315.126-.264.101-.114-.05-.266.177-.29.177.075.063.492-.139.542-.101-.038-.013-.126 0-.151 0 .05.025.025.088.063.113 0 0-.101.202-.101.215-.013 0 .176-.555.164-.555-.025.012-.392.378-.328.467-.026-.026.088-.177.025-.177.038.063-.088.025-.164 0 0 .038.24.063.151.1-.012.051 0 .051.038.051-.05.013.013.101-.025.127 0 0-.177-.215-.164-.202-.026 0 .063-.202.038-.202 0 0 0 .126-.013.126-.025 0-.354.177-.366.164.013 0 .48.013.48 0-.013-.013-.215.076-.24.076-.063-.05.177-.24.151-.227.038.05-.34 0-.29.025-.076.025.416.555.328.568-.063 0-.063-.328-.114-.328.013 0-.025.24.026.265-.303-.089.126.126-.05.1-.077-.024.024-.328-.051-.353-.013.013 0 0 0 .025.038.013 0 .051.05.064.025.025.076.252-.025.189.088.088 0-.114-.05-.101.025-.025-.026-.076-.089-.139-.076.013-.126.164-.114.202-.037-.025-.265.19-.277.19.076.063.467-.076.505-.026 0 .026-.026.038-.026.05.026.064-.315-.012-.315.026 0 .013-.328.202-.29.227 0 0 .328-.24.328-.227a.887.887 0 01-.076.114c.126.038 0 .1.063.139-.025-.013.152-.354.139-.354.114.063-.088.316-.038.353-.05-.012-.454-.151-.467-.113 0 .013.353.025.404.05a.17.17 0 00-.139 0c-.012-.012.126-.075.139-.088-.05-.025-.151 0-.202-.013.013.013 0 .127.025.165.038.025-.038-.215-.012-.203-.089.013.05.682.05.707-.063-.012 0-.29-.063-.315.013.012.227-.14.265-.114 0 0-.1-.025-.114-.025-.037-.038-.113.076-.214.025.013.038.088.025.202.101-.063 0-.152.341-.19.316.013.038-.214-.089-.189-.05 0 .012.278-.291.303-.278 0 0-.076.214-.063.227 0 0-.013-.025 0-.025.025.037-.05-.152.114-.051-.101-.025-.265.151-.379.101-.05-.013-.076.038-.05.088-.013 0 .025-.214 0-.214-.051 0-.266.177-.354.164.076.05.24.202.316.278.025.025.113.126.075.126-.164-.05-.1-.164-.265-.164.101.1.19-.089.227 0-.126-.05.152-.114.026-.127 0-.012-.253-.075-.29-.088-.013 0 .176.152.15.152-.1-.026-.062.492-.163.48-.013-.026-.076-.316-.114-.329.05.063.24 0 .164.025-.088.026-.151.19-.24.164-.025.013.215.202-.012.101-.013 0 .315-.454.303-.467-.025-.025-.341-.037-.341-.025-.013-.013-.025.152-.025.126.038.026.063-.063.113-.025-.025-.025-.151-.038-.202-.076.05.026.278-.063.316-.025.063 0-.139-.025-.139-.038.038.013.025.227.05.253-.037-.038-.113.164-.05.164.076.038.467-.152.53-.114-.05-.076-.454-.202-.517-.278-.152-.138.252-.151.139-.265-.051-.025-.165.05-.19 0 .063.038-.114.177-.1.177-.039-.038.05-.416.075-.416a.91.91 0 01.113.189c.026.013.152-.19.19-.19.1.051 0 .026.088.076-.05-.05-.063.467-.29.316-.013 0-.177-.253-.177-.278 0-.025.303-.177.328-.177.013 0 .19.341.19.329 0 0-.177-.19-.164-.19.012-.012.025-.176.139-.151-.013-.025-.051.202-.051.19.088.05-.013.315.088.353.026-.013.026-.101 0-.127.026 0 .089-.164.114-.176-.025-.05-.24.063-.278.038 0 0 .24-.38.227-.392-.025 0 0 .354.013.341.05.013.05-.227.101-.164 0-.025-.202.227-.252.19-.076-.026.05-.19-.038-.228-.038-.038-.025-.05 0-.1 0-.026-.025.214-.025.226.29.063-.051-.505.189-.48-.025-.025-.05.076-.088.051.025-.013.025.038.1.038.026 0 .152-.025.165-.05-.038-.089-.202.088-.152.063.038 0 .177-.14.19-.127 0-.025.063-.063.088-.063-.013-.025-.152 0-.177-.025 0 0-.215-.29-.202-.29.05-.038.152.05.152-.026.126.05.038-.202.214-.138.063-.013-.063.265 0 .24.013.012-.038.113-.025.126.063 0 .151-.316.1-.341.026 0-.125.126-.1.139-.038-.038-.05-.026-.088-.064.012 0 .151-.05.189-.025-.126-.075.038-.176-.088-.24a5.1 5.1 0 01.202.076c.012 0 .227.126.227.114a6.6 6.6 0 00-.316-.379c.089.025.089.114.101.126.05-.012-.063.152-.139.089-.038-.013.038-.114 0-.127-.025-.012-.088.152-.063.14.038 0-.1.226-.076.24.05 0 .228-.544.24-.582-.038-.025-.404.468-.441.442-.026-.012.176-.618.201-.618.14.063-.037.404.14.505.1-.026-.215-.467-.203-.518.026-.025.202.48.228.492.037-.012-.266-.24-.303-.29.025.013.34.038.366.05 0-.025.1-.163.075-.227.026.026-.265.114-.252.127.013.012.215-.367.24-.367.139.064-.14.48.05.581-.063-.038.038-.631-.075-.669-.089-.025-.089.29-.089.278.013 0 .24-.152.265-.152-.075-.1 0-.025-.063-.113.038.012-.252-.202-.227-.202.076-.038.025-.126-.013-.227.177.075 0 .58.19.669-.013-.089-.05-.619-.114-.745.29.1-.088.126.164.19-.1-.039-.151.012-.139 0 .076.037.29-.304.341-.266-.076-.063-.265.253-.088.354-.164-.089-.076-.215-.19-.29.076 0 .316-.342.38-.354-.114-.038-.165.076-.203.038.013.012-.038.025-.013.025.101.038-.1.013-.025.025.038.013.29-.214.303-.214-.076-.05-.442.404-.328.429 0 .012.139-.265.177-.253-.101-.151.025-.164-.101-.328 0-.076.227-.227.29-.214.215.025-.43-.026-.379-.064.114-.088.518.038.48-.139-.012 0-.126.089-.139.089 0 0 .227-.366.215-.379-.025-.013-.227.518-.19.518.228.025-.063-.379.266-.278-.089-.101.075-.164-.063-.316.063.013.416-.063.441-.075-.025-.064-.214-.026-.252-.064-.177-.15.176.026.088-.1.05.025 0 .227 0 .201-.038-.012.24-.34.19-.353-.064-.1-.165.24-.165.177.063.05.038.1.14.139-.064-.038-.14-.341-.177-.392.012-.05-.089.013-.038 0-.076-.063-.038.05-.164 0 .025-.05.277-.265.303-.34v.214c.037.013.126-.215.164-.19.012-.025.088-.062.088-.088.025.038.177-.037.215-.037-.076-.064-.29-.127-.367-.19.076 0 .026.505.102.518-.013-.025.138-.442.075-.442.026-.05-.265.303-.202.265.038 0 .038-.265.076-.265-.013-.038 0 .076.088.088-.025-.012-.088-.19-.126-.202-.088-.075.139.038.139.026.013 0 .025-.038.063-.026-.025-.075-.038-.05-.05-.126.063.038.353-.19.303-.24-.026-.012-.101.038-.114.038-.013-.012-.24.202-.215.202.089 0 .152.114.215.076.063-.038-.101-.038-.063-.101.038-.063-.076.227 0 .24-.025-.038.012-.063.012-.089.102-.025.215-.48.354-.48-.252-.1-.391 0-.568-.075.214.013.404.088.48.038.012 0-.026 0 0 0 .126.012-.14-.341-.076-.354.013 0-.025.278 0 .29.151 0-.05-.113-.139-.201.038.025.152.037.152 0-.038-.026-.089-.038-.026-.038.013.012.038 0 0-.026-.038-.05.303-.063.303-.126.101-.025-.214-.088-.252-.177a.96.96 0 01.202.026c0-.063-.026-.328-.026-.379.076 0 0 .505.064.53.012 0 .063-.315.063-.328.126 0-.076-.19-.05-.215.088.026-.039.43.05.455.113 0 .088-.442 0-.492-.152-.127.34.1.24-.013-.076-.05-.455.114-.53.076.063-.026.163 0 .227-.038.252.076-.076.076.164.139.025.012-.114.012-.076.038.139.025.151-.354.303-.303.038-.013.063.063.038.025-.026-.013-.026-.076-.038-.088-.114-.102-.202.164-.303.088.025.025.24.025.265.025 0-.025-.265-.303-.303-.34.088.025.492.012.467-.039-.025-.012-.404.24-.43.215-.037-.05.127-.05.215-.038-.025-.025 0 0-.088-.05.038.012.025-.05.063-.05-.025-.026.063-.152.05-.165.051.025.253.265.354.29-.088-.05-.24-.265-.416-.353.05 0 .05.025.088 0 .025 0-.025.139-.013.151-.088-.088.089-.037-.088-.151.24.1.101-.253.303-.114 0-.025-.063-.189-.101-.214.177.075-.05.012.063.05-.063-.038-.34.089-.353.063.012 0 .265.101.303.127-.063-.05.075-.152.176-.14-.05-.05-.391.127-.467.076.05 0 .24.064.316.089-.076-.076.088-.24 0-.303.012 0-.202.038-.152.05-.05-.025-.012.164.076.19h-.013c.038.025.354-.152.341-.202-.012-.063-.467-.164-.429-.227.152.012.568.302.758.39.012 0 .126-.176.138-.163.064.025.013.19.026.176.038.013.429.19.441.228-.037.05-.454-.417-.517-.392.151 0 .252.24.265.303l.038.013zm-1.236.618s.19.102.227.127c.101.038.227-.278.227-.29-.038-.026-.29.113-.353.088.038.025.063.05.063.063.012 0 0-.19.05-.164-.126 0-.214.202-.214.177zm-.05.38s-.064.252-.039.277c0-.013.076-.354.038-.379-.012.013 0 .101 0 .101zm-2.26 5.945s.025.139.063.151c-.038-.037.038-.189-.013-.227-.012 0-.05.063-.038.076h-.012zm-.493.505s.064-.05.089-.025c.088.025-.038.063-.089.025z" fill="#3F5146"/><path d="M95.813 86.855s.025-.025.038-.013c0 .013 0 .025-.013.038l-.025-.025zm4.04 5.882s.12.027.133.054c-.053 0-.107-.014-.133-.054z" fill="#487B5A"/><path d="M94.021 66.62s.076.163.088.176c.013-.025 0-.139.026-.139-.013-.012-.089-.05-.114-.038zm2.12 19.806l-.075-.14v.09c-.038.037.316.264.353.239 0-.013-.265-.177-.277-.19zm3.472-8.206s-.164-.075-.19-.063c.013.013.215.14.253.127 0-.013-.05-.064-.063-.064zm-5.276-12.068s-.05-.151-.05-.139c-.014 0-.026.101-.039.101-.025.05.253.354.303.354-.012-.025-.214-.29-.214-.316zm-.316.467s.076.165.088.177c.013-.025 0-.139.026-.139-.013-.012-.089-.05-.114-.038zm0 0s.076.165.088.177c.013-.025 0-.139.026-.139-.013-.012-.089-.05-.114-.038zm2.12 19.807l-.075-.14v.09c-.038.037.316.264.353.239 0-.013-.265-.177-.277-.19zm3.472-8.206s-.164-.075-.19-.063c.013.013.215.14.253.127 0-.013-.05-.064-.063-.064zm-5.276-12.068s-.14-.1-.14-.088c-.025.05.19.202.24.202-.012-.025.215-.164.215-.19 0 0-.29.064-.303.064l-.012.012zm-.29.505s.126.05.15.05c-.012-.012-.214-.125-.24-.113.014.025.09.063.102.076l-.013-.013zm20.159 26.99c-.366-.645-.821-.38-1.199-1.023-.379-.644-.051-.833-.417-1.465-.366-.63-.681-.467-1.048-1.098-.366-.631-.366-.644-.732-1.287-.366-.644.038-.871-.328-1.515-.366-.644-.48-.58-.846-1.212-.366-.631-.681-.454-1.06-1.098-.379-.644.151-.947-.215-1.578-.366-.631-.643-.48-1.01-1.124-.366-.644-.239-.72-.605-1.35-.367-.632-.758-.417-1.124-1.06-.366-.645-.025-.834-.404-1.478s-.341-.656-.707-1.3c-.366-.644-.379-.644-.745-1.275-.366-.631-.34-.656-.707-1.3-.366-.644-.694-.455-1.06-1.098-.366-.644-.391-.632-.77-1.275-.379-.644-.227-.72-.593-1.364-.366-.644-.227-.72-.594-1.363-.366-.644-.656-.48-1.022-1.111s.076-.909-.29-1.54c-.367-.631-.682-.455-1.06-1.098-.38-.644-.177-.745-.556-1.389-.379-.644-.631-.492-1.01-1.136-.379-.644-.404-.631-.77-1.262s-.063-.82-.43-1.465c-.365-.643-.719-.442-1.085-1.073-.366-.63 0-.858-.366-1.502s-.77-.416-1.149-1.06c-.379-.644-.088-.808-.454-1.465-.366-.656-.455-.593-.833-1.25-.253-.454-.72-.517-1.15-.668-.454-.164-.807-.253-1.261-.089-.455.164-.632.442-.884.884-.379.656-.505.568-.884 1.225-.378.656-.303.694-.681 1.35-.38.657-.594.53-.96 1.187-.366.656-.076.833-.442 1.477-.366.643-.782.416-1.161 1.073-.379.656-.101.808-.48 1.464-.378.657-.391.644-.757 1.3-.366.657-.593.518-.972 1.174-.379.657-.43.631-.808 1.275-.379.644-.114.808-.492 1.465-.379.656-.518.58-.897 1.237-.378.656-.441.555-.441 1.313 0 .757.315.504.694 1.148.379.644 0 .871.366 1.528.366.656.34.681.707 1.325.366.644.644.505 1.022 1.149.38.644 0 .87.367 1.527.365.657.782.417 1.16 1.06.38.645.468.594.847 1.25.378.657.126.796.505 1.452.378.657.39.644.757 1.3.366.657.442.619.82 1.263.38.644.14.795.518 1.451.379.657.783.417 1.161 1.073.38.657.089.82.467 1.477.38.657.442.619.808 1.263.367.644.53.568.91 1.224.378.657 0 .871.378 1.528.379.656.757.441 1.136 1.098.379.656.101.82.48 1.477.303.53.391.997.29 1.527-.1.556-.278 1.073-.707 1.44-.416.353-.921.365-1.54.365.745 0 .745.455 1.49.455s.745-.29 1.49-.29c.744 0 .744-.127 1.476-.127s.745.253 1.477.253c.732 0 .745.038 1.49.038s.745.012 1.49.012c.744 0 .744.177 1.489.177.745 0 .745-.202 1.489-.202.745 0 .745-.278 1.49-.278s.745-.113 1.49-.113c.744 0 .744.505 1.489.505.745 0 .745-.266 1.49-.266s.745-.24 1.489-.24c.745 0 .745.291 1.49.291s.745-.025 1.489-.025c.518 0 1.01-.114 1.364-.404.366-.303.883-.732.972-1.212.076-.442-.089-1.11-.354-1.565l.013.012zM95.157 68.74s-.19.202-.202.227c-.114-.025.114-.48 0-.505.038.013.164.089.202.076-.063-.063-.24.126-.29.05.038-.025.075.076 0 .051-.026.013-.013 0-.013.025-.025 0-.025-.214-.025-.24.025-.063.202-.063.177-.126-.013-.05-.417.19-.442.14-.025-.051.29-.115.328-.152-.038-.026-.088 0-.088-.026a1.216 1.216 0 01.025-.429c-.177.076-.076 0-.202.063.063-.176-.164-.277-.202-.442 0-.012 0 0 .013-.025.037-.1-.253-.012-.253-.1 0 0 .227.1.24.088.05-.14-.101-.53-.215-.568.038 0 0 .126-.025.1-.038 0-.316.089-.316.026.026 0 .24.025.24 0-.05-.013.064-.038.038-.088-.012-.14-.202-.177-.315-.266.012-.037.126-.075.164-.088-.076-.088-.29-.126-.354-.215 0-.05-.126-.227-.088-.265a7.18 7.18 0 01.404.227c.025-.126-.454-.1-.492-.189.038-.05.113 0 .164-.05.025-.089-.038 0-.114.025-.177 0 .202-.278.038-.328-.063.012-.177.265-.24.277-.025-.1.114-.063.101-.164.126-.126-.126-.012 0-.164.038-.012-.088 0-.05-.025.05-.101-.101-.025 0-.088 0-.05.202.113.126.075.076-.038.076.089.151 0 0-.025-.138-.088-.164-.088.026-.013 0-.038 0-.025.063-.05-.075.34-.088.315-.025.013.076-.025.038 0-.126.013-.215-.075-.316-.075.013-.013-.012-.29 0-.303-.012-.038-.316.025-.366 0 .038-.05.404-.064.328-.114-.025 0-.088.139-.113.139-.076-.038-.14 0-.089-.101-.1.025.202-.215.05-.139.077-.076.064-.114.102-.19-.063.064.012.127-.076.19.101-.076.278-.19.354-.303-.089.013-.341.24-.442.316.012-.038-.064-.316-.076-.354 0 .013.025.089.038.089-.114-.026-.29-.341-.455-.29.164-.09.05-.316.228-.354-.013-.025.075.315.037.328.114-.076-.303-.101-.252-.177-.076.026.114-.113.05-.113.026 0-.075.227-.037.202-.076 0 .378-.354.429-.417-.076-.025-.328.088-.417.101 0-.063 0 .24.025.202-.075-.013-.025-.265-.1-.265 0-.025-.026.038 0 0 0-.013-.29-.063-.29-.089 0-.037.138.228.113.203-.038-.051.126-.152.1-.203.039-.138.203-.29.329-.366.025 0 .038-.113.076-.113.037-.025.227.202.214.19.025-.026-.025-.064.013-.039.05.101-.038 0-.025.089.063.05.037.05.1.088.026.025.051.164.026.19-.013.025.076.075.088.075-.063.038-.113.202-.1.24.037 0 .037-.177.062-.177.202.013-.037 0 .076.038.063 0 .19-.05.227 0 .038.038.026.101.026.152.075 0-.164-.026-.152.038-.025.302.303.39.34.656-.024.252.392.088.317.328v.063c.063.063-.127.253-.14.341.089-.05.152-.1.203-.063-.013 0 .265.1.24.1-.013.026-.215.039-.177.051.177-.037-.038-.088.05-.025-.063.05.152.089.063.19.026-.013.316-.14.367-.152-.026.05-.064.353 0 .353-.013-.025-.367-.088-.367-.113 0 0 .253-.177.24-.19 0 0-.164.19-.164.177-.013-.012-.1-.277-.088-.29.05-.063.214-.05.303-.114.012.038.139.366.113.392 0-.013.038-.05.026-.05 0 .012-.228-.077-.24-.077.012.013.202-.025.214 0l.164-.075c.013.012-.277.214-.277.227.012 0 .075-.05.063-.038-.013.013-.19-.013-.19 0-.012.076.468.354.543.366-.126.013-.19-.038-.265 0 0-.012-.126-.151-.164-.202-.013 0 .202.063.177.089-.05.088-.19-.064-.19.05-.012 0 .341.101.316.126 0 .038-.316-.176-.278-.19-.063.051.089.367.14.38.075 0 .277-.038.29.012-.013.026-.013.05-.038.063-.013.064-.303-.189-.303-.138-.013 0 .227-.013.227 0 .063.05.151-.089.278-.102.037.026-.505.14-.518.19.076.025.631.227.518.29.151-.1-.14.076-.114.114-.013-.013.151-.14.139-.14.151.039.038.24.1.342-.024.063-.29-.126-.327-.063.037.05.34-.05.366.012-.026.038.24.114.24.164.075.089-.303.026-.278.114-.013.038-.038-.013-.05.025.05.013.277.152.328.152-.152.176.227.252.063.492 0 .088.151-.215.227-.215.025.05.139.316.038.392 0 0 .038.075.025.088-.114.063-.038-.114-.038-.063.013.013-.076 0-.063-.038-.013.164.088.328 0 .48.114.088.454.139.505.278 0 0-.202-.064-.202-.05 0 .05.467.277.353.34.076.088.303.114.303.252-.012.026-.328-.252-.353-.24-.013.038.038.316.05.316 0 .013.064-.114.051-.1-.025.05.215.176.227.201-.012.013-.328-.24-.328-.227-.038.139.619.265.656.391-.025-.012-.34.152-.353.164.164-.012.467.177.53.202-.013.038-.34-.214-.315-.19.138.051-.114.43.025.48.05 0-.164-.466-.126-.492 0 .038.252.164.302.126-.012.064.127.19.152.266-.038.025-.316-.05-.353 0-.038.075-.177 0-.202.075l.088.038c-.013 0-.013-.012 0 0 .177-.088.063.316.227.177.076.126-.063.101.063.19-.139.126.379.479.164.58.026.063-.126-.278 0-.278 0 0 0-.151.013-.151.038.012.076.366.088.391-.063-.013-.139-.088-.24-.088.051.05.152.088.203.1-.038.064-.417-.037-.43.039.101.012.278.429.43.429.012 0 .1-.455.113-.442.038.101-.076.164-.025.24 0 .025.126.063.113.076 0 .037.051-.064-.037 0-.026 0 .037-.24 0-.24-.089.038.075.303.037.34.038.038-.277-.075-.24-.075-.063.05.114.1.038.114.051.05.165.264.278.264 0 .013.202-.088.19-.075.012.076.176.265.138.328l-.164-.139c-.088.101.152.101-.025.202-.025.038-.303-.252-.366-.164-.025.114.404.088.379.19-.013 0 .063-.013.05-.013.026.05.076.164.114.214-.114.14-.139-.038-.303.114.05-.05.328.151.353.151 0 0-.126.064-.138.064.012.025.025-.038.063-.038-.05.038.441-.114.416-.063.038-.026-.177.252-.164.277-.076-.038-.126-.025-.19-.025.013.088.53.139.53.24-.012.05-.44.025-.39.05.126-.037.164-.214.202-.24-.026.026.214.43.151.442.038.026-.379-.24-.303-.252.025-.013-.114.139-.114.164 0 .126.341-.05.303.063-.075.063-.176-.114-.252-.063-.05.076.467.48.379.555.05-.037-.177-.492-.101-.48 0-.025 0 .253-.013.215.063 0-.013.064 0 0 .025-.063 0 .026 0-.05.088.025.101-.088.164-.126.076.037-.038.202.05.24-.012.037-.34.214-.365.252.075.038.201-.063.252-.05-.013 0 0 .05-.025.05.025.025-.025.025.025 0 .013-.013.025 0 .038 0 0 .025.353-.05.328.025.05.013-.202.076-.202.05 0 .013-.088.038-.139.038.026.089.467.064.417.177h-.088c-.013.025-.089 0-.076 0-.038-.063-.063-.012-.076-.113-.088.05-.252.34-.278.378.076.026.493-.467.543-.467-.025.013-.05.53-.05.556.037-.013-.013-.14.025-.152 0 .025.025-.252.05-.24-.025-.012-.1.089-.126.114.013.05-.063.114.038.151-.038-.012.139-.1.126-.037.063.05-.19.151-.227.214.038.063-.24-.012-.24.114.013 0 .025.013.038-.013 0 .089.114-.038.088.063 0-.025.467.164.505.19-.063.012.05-.164.025-.114 0 .025-.037.063-.037.088-.038.038-.127-.138-.152-.151.013 0-.19.227-.202.214-.038-.025.152-.189.152-.126.063.05-.253.19-.228.164 0 .101.606.038.581.127 0 .012-.53.315-.53.378.101 0 .328-.265.416-.265-.176.164.026.038-.05.215-.038.038-.151-.202-.202-.177.013.025.088.177.114.215.038-.013.151.19.189.177.025.012.063-.038-.025-.026.075.026.164.278.139.316-.013 0-.417-.366-.467-.379-.026.088.265.227.302.265-.037.013-.176.076-.176.101.076.025-.101.177-.05.227 0 0 .492-.189.492-.176.037.05-.14.189-.14.252 0 .05.013-.139.076-.1 0 0-.328.062-.315.062.013 0 .328.328.34.328.076-.063-.138 0-.088 0-.025.013.038.076.05.102.09-.038.291-.253.342-.253-.026.05-.48.24-.442.303.025.013.316-.063.353-.076-.038.025-.416-.05-.416-.012-.026 0 .227.24.214.24-.05.012.101.088.038.113 0 0-.151-.353-.139-.353-.012 0-.1-.089-.113-.089-.013.013.139.392.151.404-.038 0-.24-.025-.277 0 .088.063.05 0 .138-.012-.037.1.127-.127.152-.076-.025.038.328.353.303.378.012.026-.126-.201-.089-.201.026 0-.138-.05-.151-.026-.038-.012-.05.013-.114.038.038.038.215.341.329.303 0 0 .025-.139.012-.139-.012.076.164.265.126.278.026.025-.39.215-.353.252.013.013.19.064.227.051.038.025-.151.063 0 .038-.05.076.114-.05.025-.038-.05.076-.037-.177-.189-.088.05.025.278.214.29.202-.037.05-.025.025-.075.1.075-.012.075-.163.151-.15-.025.012-.1.037-.1.05.05 0-.051-.101-.09-.064-.075.101-.264.089-.302.202.126.026.48.026.568.089-.076.076-.215-.076-.24.012h.278c.025.026-.088.215-.05.228-.013 0 .176.063.163.075-.05.064.064.14.026.215-.038-.013-.164-.53-.19-.505.063.025 0 .24 0 .303s.101.177.05.215c.013.063.114-.064-.024.05-.026 0-.05-.063-.076-.063-.05-.025-.025-.101-.076-.126.038 0-.227-.202-.19-.202.026-.063.354.214.329.19.025-.026-.379.176-.354.176-.05-.025.076-.43.101-.492.064-.026.177.138.215.1-.088-.063-.177-.164-.278-.227-.176-.038-.063.127-.202.101-.038.013-.214-.227-.277-.265.075-.025.227.101.252.089-.126 0 .05-.354-.038-.367.025 0-.139.076-.126.038l.19.278c.075-.025-.026-.568.113-.543-.164-.025-.05.013-.29.038-.013 0 .025-.151.012-.151-.012 0-.164.265-.164.252.013-.025.126 0 .126-.025 0-.038 0-.063.076-.152.025.013.227.354.253.367.063-.064-.278-.341-.303-.392.063-.025.265.24.34.202 0-.038-.504-.366-.53-.391 0-.013.379.214.392.202.05-.114-.19.038-.089-.063-.025.012-.24-.114-.252-.101.025-.038.24-.341.303-.303-.013-.026-.089.277-.14.277-.037.05-.024-.075-.088-.038-.063-.025-.29.14-.315.089.013 0 .1-.265.1-.253.152-.202.14.089.317-.151-.051.038-.064-.391-.127-.391 0-.05-.366 0-.34-.064.012-.012.189.102.176.076-.088-.088-.139-.164-.139-.24-.025 0 0-.126.026-.113-.101-.025-.026-.354-.19-.316 0 0 .392.303.392.29-.013-.113-.606-.189-.657-.302.076-.064-.038-.076.063-.14.013-.088.215.039.215-.075.013.013-.215-.063-.202-.05.025-.114-.126.025-.139-.051.05-.013.139.278.151.252-.037-.012.051-.05 0-.05h.089c-.101 0-.101-.19-.19-.19.026-.012.127-.163.177-.176 0 0 .265 0 .265-.013 0-.038-.593-.113-.63-.126.05-.05.113-.126.138-.114 0-.075.215.341.139.303-.038.013-.063-.315-.101-.328-.05 0-.152.089-.139.038 0-.038.126.076.151.063.013-.05-.138.114-.164.063-.025 0 .05-.366.026-.366-.038 0-.202.114-.177.076.114-.038.025-.088.177-.101.012-.139-.19-.038-.24-.126.012.012.366.025.391.025 0-.076-.227-.404-.303-.417.038 0-.088.24-.05.228-.026-.076.24-.013.176-.064.064 0-.151-.088-.138-.126-.038.013-.101.215-.127.202.253-.025.164.063.329.025-.051 0-.43-.517-.505-.467 0 0 .24.24.227.253-.063.025-.43-.076-.442-.101.013.013.303.05.316.05-.101-.088-.164-.164-.278-.265.025 0 .202-.063.215-.1-.013-.127-.064-.14-.165-.253.127-.063-.29.038-.151-.013-.089-.113-.05-.19-.177-.29.19-.126-.24-.177-.126-.328-.063.038.05.05.025 0 .063-.013.088.113.126.113-.075-.012 0-.24.152-.29a3.153 3.153 0 01-.404.076c.025-.076-.063-.013-.05-.101-.064.05.063-.379.025-.392 0 .013-.026.038 0 .038.063-.05.138.114.164.063.025-.037-.114-.202-.114-.24-.063.026-.379-.227-.328-.303.013.026.025.493.05.493-.164-.126-.176-.43-.378-.543-.025-.038.429-.05.467-.088.076-.164-.202-.127-.227-.215-.05-.278-.266-.43-.442-.631-.025-.013.366-.139.353-.126.013-.026-.202.025-.24.025-.025 0-.24-.05-.227-.088.088-.165 0-.202.177-.392-.126-.063.076-.416-.101-.48.025-.063-.076.228-.088.165-.064-.05-.076 0-.152-.026-.164-.063-.114-.265-.265-.353.038-.013.202-.088.177-.101-.026 0-.101.114-.127.139-.113-.089-.088-.366-.138-.455.063.013-.038-.088.025-.126-.05 0 .076.05 0 .013-.05-.076-.152-.063-.152-.14-.075 0 .089-.327 0-.29-.037-.088-.442.152-.492.051l.265-.05c-.088 0-.063-.089-.1-.089.024-.012.39-.151.416-.164 0-.025-.278.076-.278.05.05 0 .038-.025.025-.063-.012 0 .089.064.089.076 0 0 .1-.139.1-.151-.025-.025-.416.19-.429.24-.05-.114-.29-.367-.328-.468 0-.037.316.064.328.026-.038-.038.026-.089.063-.164l.114.05zm5.176 23.215s-.076-.177-.126-.164c0 .025.012.265.025.29.038 0 .063.19.101.177.012.025-.278-.328-.366-.341.063.038.429.454.391.48h-.164c-.013 0-.076-.43-.088-.442-.051.038.277.24.303.277-.038 0-.468.19-.468.202.076.026.442-.265.48-.227 0 0-.416.076-.416.089.025.063-.177.1-.177.164 0 .012.189.139.202.164 0 0-.076-.391-.076-.404.013 0 .114.517.114.517.088.013-.152-.328-.114-.29-.013.025.101.177.126.202.076.013-.214 0-.176 0-.038.025-.038-.013-.038.025 0 .013.277.341.315.341-.05 0-.088-.013-.113 0 0-.013.113-.492.113-.505-.05-.013-.176.417-.24.404v-.24a.522.522 0 00-.037.202c.063.013-.038-.227 0-.214-.063.037.202 0 .202.037-.051 0-.026.316-.076.303.012.026-.227.051-.19.076 0 .013.278-.24.253-.24-.025-.025-.025.177-.088.152.012.038-.05-.013.063.025 0 0-.114-.303-.127-.303-.05.025-.29.316-.328.303.025.05.215.202.316.24.025.038-.089-.038.038.05-.076 0-.19.303-.265.265-.076-.012.1.013-.05-.05.012.013.088-.177.1-.177-.05 0 .126.14.063.127.05.05-.353.05-.303.1-.038-.012.025.127 0 .14.038.037.366-.304.316-.316-.126-.038-.139.088-.265.1.075.102.05-.239.05-.163-.1-.038.127.227.038.24.025-.013-.013.075-.025.05 0 .025.227.025.227.05 0 .013-.19-.201-.202-.201-.063-.026.063.037 0 .025-.013-.025-.454.277-.48.265.026.05.392-.025.341-.025-.063 0-.24.075-.278.025-.012-.05.392-.417.442-.404.038.038-.113.316-.063.328 0-.076.076-.328.05-.404-.088-.126-.012 0-.088-.076-.012-.012.026.177.013.165.025 0 .063-.341.076-.329-.089-.075-.29.341-.354.29a.833.833 0 00.19.064c.075.038.315-.43.429-.328-.114-.101.025-.152-.177-.278 0 0-.151.278-.164.278l.05.164c.026 0-.05-.202-.037-.215.025-.013 0 .076.113.088l.05.026c.09 0-.05-.05-.05-.076.063.025.013.278.101.29.013-.012-.025-.126-.038-.139.026 0 .026-.176.05-.176.102-.026-.15-.05 0-.05.039-.013 0-.177-.024-.203.05 0-.089.278-.05.328 0-.025.188-.555.15-.568-.063-.012.089.101.013.089-.025-.025-.492.113-.48.076 0-.026.29.138.29.151.24-.038-.125-.215.14-.252h-.24c.012-.026.151-.076.19-.089.024 0-.14-.063-.14-.076-.038-.075 0-.252.038-.302.038-.013.164.025.177.037-.076-.037.088.114-.088.101.012-.063.176 0 .151-.075.101-.026-.278-.278-.164-.303.038-.05-.05-.026 0-.101.013.012-.076-.089-.063-.101.063-.064.202.391.214.353.05-.013-.126-.19-.088-.202-.038-.012-.215-.126-.177-.151.038-.038.455.151.455.1-.101-.012-.253-.227-.366-.227.025-.012.164.278.202.266l-.265-.253c0-.013.252.164.227.152.063-.026.101-.026.113-.026.026-.038-.227-.328-.29-.353-.025 0-.025.48-.05.467-.038 0 .113-.164.126-.19.012-.025-.038.114 0 .114.025-.038-.152-.076-.152-.114-.038 0 0-.29-.038-.29-.025 0-.113.076-.088.063.114-.025.202.29.34.278.039-.076-.365-.278-.39-.34 0 .012.189-.039.202-.039.012-.038-.089 0-.152 0 .038 0 0-.088.013-.1-.013-.038-.127.012-.177 0 .05-.013.316.15.316.138.1-.05-.064-.164.088-.214-.05.012-.152-.038-.24.012-.038.013-.126-.1-.126-.113a.528.528 0 00.126-.05c-.1-.026-.164.024-.24-.026.025 0-.05-.038-.038-.063-.012-.089-.088-.14-.176-.19.126-.063-.101-.025.037-.075-.063-.064 0 0-.113-.05.177-.127-.025 0 .088-.127-.063.038-.265-.164-.29-.177.063-.025.177.354.215.328-.064.013 0-.202.063-.265-.038 0-.202.089-.265.114.025-.063.1-.48.113-.543-.076.063-.063 0-.088 0 .012 0 .076.328.088.316.063-.05-.391-.215-.366-.253.013-.025.29.05.29.038-.05.038-.252-.076-.201-.139.012.013.15.127.164.127-.14-.026-.253-.013-.417-.013-.038-.025-.025-.366 0-.404.05-.139.101.215.076.151a.5.5 0 00-.316-.34s.025.126 0 .126c0-.013.126-.063.114-.05-.025.025.038-.051.038-.077.05-.15-.467-.088-.341-.302-.114.012 0-.367-.152-.329.013-.05.101-.038.101-.063-.063-.012-.063.392-.113.404-.164.076-.089-.404-.215-.404.025-.025.025-.252 0-.252-.025.012 0 .025-.025.05-.114-.012-.227.126-.29.101.063-.025.252-.063.303-.113-.051.025-.203.24-.266.24-.038-.026.05-.543.026-.594-.064.038-.05.467-.114.543-.05-.038-.025-.316-.076-.366 0-.013-.076.076-.088.076-.076.05.139-.177.1-.177.026-.025-.05-.025-.024-.05-.013-.013-.013-.089-.038-.102.025-.012.139.038.139 0-.013.013-.215.076-.228.089 0-.013.114-.038.101-.05-.025 0-.126.012-.139.062-.05-.05.127.05.089-.012 0-.038-.34-.063-.328-.101-.038-.013.126-.013.151-.076-.025.013-.025.177-.038.19-.012.012.05-.102.05-.114.013-.038-.201-.063-.201-.076.012 0 .025.164.05.152-.063 0-.05-.14-.113-.165.025-.037.088-.088.038-.075-.026.012-.089-.101-.089-.089-.012 0 .278.177.29.165.013-.051-.416-.026-.441-.076-.025-.05-.076.202-.114.164-.038-.038.202-.278.215-.328-.038 0 .126.075.113.05-.012-.088-.088.215-.063.101-.139.139.076-.543-.025-.454.038-.152-.366.05-.417-.063 0-.013-.151-.127-.138-.14.025-.088.126.215.113.14 0-.026.202.1.215.075.025-.113-.328-.441-.442-.441.025 0-.038.265-.038.252-.013 0-.025-.063-.038-.063.013-.013.126.05.101.05-.05.013 0-.1-.05-.139 0-.113-.265.026-.354-.025a.93.93 0 01.152-.164c-.063-.05.227-.076.176-.139 0-.05-.429-.151-.403-.202-.026 0-.038.114.012.038.013-.025-.038-.025 0-.038.038-.1-.05.063-.076 0 .038-.05.253.177.303.14.038-.077-.202-.152-.265-.127-.164 0 .19-.278.05-.303-.062.013 0 .05-.05.063 0-.076-.24 0-.24-.088.152-.101.076.088.215-.013.038 0 .05.29.076.278.076-.089 0-.101.113-.152.013-.05-.113-.113-.164-.139.076-.037-.025 0 .076-.05.013 0 .177.29.19.29.062-.038-.114-.505-.127-.53-.038.013-.139.139-.19.164-.125 0-.037-.088-.138-.088.025-.013.202.126.215.113 0-.025-.468-.113-.505-.138.05-.038.366-.05.315-.089-.038 0-.126-.038-.164-.038.025 0-.038.19-.025.177-.063-.038-.19 0-.127-.05-.088-.013.304-.089.152-.076.101-.025.139-.101.215-.139-.076.025-.127.025-.19.025.089-.012-.063-.088.038-.151-.076-.013.076-.202-.038-.202.025-.013-.113.025-.1 0 0 0 .252.063.264.063-.088-.063-.139-.101-.29-.152.177.026.038.14.202.202-.013-.025 0-.441-.05-.454.138.025.063.088.164.088-.076-.038.05-.214.012-.252.013.012-.038.139 0 .151-.05-.05-.177-.277-.113-.29-.013-.013.126.252.113.252-.012-.012.026-.088.013-.1-.025-.038-.215 0-.202-.038.012-.038.215.24.252.227-.025-.025-.303-.038-.227-.038.013 0 0-.076 0-.063.025.025 0-.089 0-.126 0-.05-.151-.177-.114-.228.127-.025.493.228.632.303.012 0 .113-.113.126-.1.05.012-.038.466-.025.466.025 0 .1-.227.113-.202-.025.05 0-.063-.05-.025 0 .05.05.013.063.063 0 .026-.164 0-.19 0-.037 0 .064-.176.064-.164-.063-.025-.19.48-.215.505.038.013.164-.265.202-.252.139.088-.164.063-.088.126.05.025-.152.088-.14.139 0 .05 0-.316-.037-.29.05.025.353.328.316.365-.165.14.113.215.05.367.013 0-.1-.076-.088-.089-.215.19.429.215.277.391 0 0-.05-.15-.05-.138.038.037-.126.025-.164.088.1-.05-.013.278.025.29-.013 0 0-.429-.013-.429-.025.025-.025-.063 0-.05.152-.05.19.315.253.328-.05.05-.152.025-.24.139.025-.013.366-.127.417-.152-.038.038-.228.177-.19.152 0-.013.114-.076.101-.089l-.063.089c-.013-.013-.088-.063-.076-.076.038-.05.19.164.253.088.013.026-.101-.24-.126-.214l.075.075c-.012.013-.025.392-.037.392.012 0 .164-.467.176-.455.013.013-.1.114-.1.14.012-.013.227.037.227.062 0 0-.278-.025-.29-.025-.013 0 .201.076.189.088-.013.051-.114-.088-.051-.113-.101.05-.126.025-.19.076 0-.013.013.24 0 .214-.025 0 .304.025.278.05-.037.077-.126-.163-.138-.088 0 .013-.177-.05-.215-.025 0 .025.215.101.265.076-.063.05-.076.202-.025.19.05-.026.038-.152.05-.127-.012.025.05.076.038.101 0 .038.114-.063.126-.05-.012.012-.151-.102-.151-.089.05 0 .05.328.151.265.05 0-.227-.19-.227-.139.063-.012.48.063.404.14.114-.127-.063-.09-.038-.064-.012 0 .025.114.013.126.126-.038.24 0 .303.063 0 .064-.493-.113-.53-.063.025.026.315.05.366.05 0 .026-.19.077-.177.102.063.025.404-.038.43.025-.014.05-.077.013-.09.063.051-.025.19.05.24.025-.113.19.102 0 0 .228 0 .088-.1-.228-.025-.278a1.2 1.2 0 01.127.215c0 .012.012.037 0 .075-.101.089.088-.038.088-.012.025 0 0 .025.013 0 0 .126-.127.227-.19.366.101.025.493-.063.556.012 0 0 .176 0 .176.013 0 .038-.214.05-.315.139.063.025.593.038.606.126 0 .025-.227-.038-.253-.013 0 .038.038-.025.063-.025 0 .025-.012.038-.025.05-.025.051.114.051.139.051 0 .025-.139-.05-.151-.025-.026.114.1.076.138.139-.025 0 .114.139.089.151.139-.088-.025-.151.038-.151 0 .038.025.126.063.139.126-.026-.164-.026-.038-.05.038-.026.303.201.328.15 0 .026-.151-.163-.088-.227-.013.05.126.177.151.215-.025.038-.505-.088-.53-.038-.025.063.202.139.177.215 0 .025-.164-.215-.126-.19.138-.139.189.19.315.038.076.05-.038.265.088.265-.113.14.341.19.152.366.038.038.013.013.114-.025a.598.598 0 00-.089-.151c.038-.013 0-.038.013 0-.063.012.1.189.025.24.038.012.177-.026.215-.026-.013.05.012.089 0 .14.025 0-.467-.304-.354-.354 0 0 .089.404.101.416.038.05.43-.227.48-.19 0 .026-.24.039-.253.051 0 .038.24.228.165.316-.026 0-.076-.063-.102-.05-.063.063.152-.19.127-.152 0 .013-.253 0-.24 0 .05.013.05-.088.164-.126-.013.012.303.214.303.24.013.038.013.075-.025.139l-.19-.152c-.075.101.329.19.164.328-.025.038.089-.05.026.026-.013.088-.127-.19-.14-.114-.012 0 .039.038.026.038.025.025.05.139.088.151l.316.126c-.1.127.089.114-.05.278.038-.05-.165-.467-.14-.48 0 0 .076.14.09.152.024 0-.165.013-.14 0-.038.038.202.076.202.088.026 0 .076.265.089.278-.063 0-.278-.29-.341-.265.012.05.353.05.353.114-.025.037-.164.176-.113.189.113-.05.139 0 .176-.025-.025.025.177.088.101.113.038.013-.277-.177-.214-.202.012 0-.127.164-.114.19 0 .075.265-.228.202-.14-.076.051.164.417.088.468-.037.05-.1-.164-.113-.126.025-.013 0-.165.05-.165 0-.025.013.14 0 .114.063 0 .177.126.228.088.037-.037.113-.1.113-.151.089 0-.24-.025-.177-.063.076.013-.075.139 0 .151-.012.026-.214.114-.24.152.064.013.152-.076.19-.038h.025c.025.025-.113.025-.063 0 0 0 .215.227.227.215 0 .012.026-.165 0-.114.026 0-.05.126-.025.114-.013.012 0-.101-.025-.101.012.063.139-.064.076.025 0 0-.165-.063-.177-.063 0 .025.139.126.151.139-.025-.05-.176.189-.164.113-.088.038.253-.278.215-.24.076 0-.051-.063 0-.063-.025 0-.025-.076-.025-.05.025 0 .012.29.05.303 0 .038-.151.19-.076.227-.025-.013.228-.215.19-.177.063.038-.53.076-.581.114.038.038.631.088.593.164 0 .012.013-.076.038-.089-.025.051 0 .202-.05.266.012-.026.101-.05.138-.026-.05 0-.252-.012-.277.026-.013 0 .063-.316.05-.316.013-.013-.164.379-.176.366-.038-.012-.152-.088-.165-.05.038.025.101-.026.139-.038-.038.063.089-.101.038-.038 0 .012.227-.038.215 0 .076.012-.19.114-.114.114-.177.088.215.214.089.315l.025-.088zm-6.3-25.298s.127.05.152.05c-.013-.012-.215-.125-.24-.113.013.025.089.063.101.076l-.012-.013zm-.012-.038s.076.165.088.177c.013-.025 0-.139.026-.139-.013-.012-.089-.05-.114-.038zm.316-.467s-.05-.151-.05-.139c-.014 0-.026.101-.039.101-.025.05.253.354.303.354-.012-.025-.214-.29-.214-.316zm5.276 12.068s-.164-.075-.19-.063c.013.013.215.14.253.127 0-.013-.05-.064-.063-.064zm-3.471 8.206l-.076-.14v.09c-.038.037.316.264.353.239 0-.013-.265-.177-.277-.19zM94.02 66.619s.076.165.088.177c.013-.025 0-.139.026-.139-.013-.012-.089-.05-.114-.038zm2.12 19.807l-.075-.14v.09c-.038.037.316.264.353.239 0-.013-.265-.177-.277-.19z" fill="#487B5A"/><path d="M69.418 92.763s.012-.013.025 0h-.025zm.423.673s-.093-.027-.12-.053c0 0-.013-.014-.013-.027h.04c.107.04.04.04.093.08zm.145-.547s.04.013.066.013c-.014 0-.014.013-.014.026-.026-.013-.052-.026-.052-.04zm1.906-4.368v.025s0-.012-.013-.025h.013zm.114-.694l-.038-.05c.076.025.153.05.166.089a.371.371 0 01-.103-.051l-.012.012h-.013z" fill="#1E462C"/><path d="M69.809 94.315s-.24-.139-.202-.126c.013 0-.038.139-.025.139.126.025.252-.05.227 0v-.013zm-.505-1.704s.252.19.252.202c.051 0 .064-.114.013-.139v.19c-.013 0-.164-.05-.164-.038 0 .012.126 0 .126.012 0 .013-.076.101-.076.089-.113-.127-.138-.316-.138-.316h-.013zm22.861.518c-.379-.657-.404-.632-.783-1.288-.378-.656-.353-.669-.732-1.313-.378-.644-.593-.53-.972-1.186-.378-.657-.517-.568-.896-1.225-.379-.656.076-.909-.303-1.565-.379-.657-.404-.631-.782-1.288-.38-.656-.442-.618-.808-1.262-.367-.644-.619-.518-.998-1.174-.378-.657-.126-.795-.492-1.452-.366-.656-.644-.505-1.023-1.149-.378-.643-.29-.707-.669-1.363-.378-.656-.492-.593-.858-1.25-.366-.656-.353-.669-.732-1.325-.379-.657-.063-.833-.442-1.477-.379-.644-.316-.694-.694-1.35-.379-.657-.694-.48-1.073-1.137-.379-.656-.089-.82-.467-1.477-.379-.656-.253-.997-1.01-1.022-.758-.026-.43.442-.796 1.073-.366.63-.113.782-.48 1.413-.365.632-.264.682-.63 1.326s-.379.631-.745 1.262-.656.467-1.023 1.099c-.366.63-.139.757-.505 1.388-.366.631-.517.543-.883 1.174-.366.631-.404.606-.77 1.237l-.732 1.263c-.367.63-.468.58-.834 1.211-.366.632 0 .846-.366 1.477-.366.632-.808.38-1.174 1.023-.366.644.076.896-.29 1.527-.366.631-.505.556-.871 1.187s-.53.543-.896 1.174c-.366.631-.467.58-.833 1.212-.366.631-.05.82-.417 1.451-.366.632-.379.632-.745 1.276-.366.643-.492.567-.858 1.211-.265.455-.593.934-.518 1.376.089.467.631.758.998 1.06.353.291.706.796 1.224.796.732 0 .732.1 1.477.1.745 0 .732-.163 1.477-.163.745 0 .732.177 1.477.177.745 0 .732-.493 1.464-.493s.732.127 1.465.127h1.477c.744 0 .732.366 1.476.366.745 0 .733-.354 1.477-.354.745 0 .745.303 1.477.303.733 0 .733-.543 1.477-.543.745 0 .745.404 1.477.404h1.477c.732 0 .732-.24 1.477-.24.745 0 .745-.189 1.477-.189.732 0 .745.215 1.477.215.732 0 .745.126 1.477.126.618 0 .985-.48 1.401-.82.442-.367.694-.72.795-1.276.101-.555.367-1.161.064-1.691l.012.038zM72.7 87.27s-.202.202-.19.202c-.012 0-.1.152-.113.152.088.063.075-.126.139-.076-.013-.013-.076-.088-.089-.076-.025 0-.025.114-.038.114-.088-.05.038-.088-.063-.177.114.101-.05 0 .152.127 0 0-.05.264-.063.264-.026.013 0-.29-.101-.315-.013-.013.025.038 0 .013-.038-.013-.29.138-.278.189-.013 0 .139-.05.114-.05 0 .012.05-.038.063 0-.026 0-.063.264-.089.252-.05 0-.139.076-.1.1 0 0 .088-.1.075-.1.025.013.139-.379.164-.366-.038-.013-.151.315-.19.278 0 .012.064-.038.102 0 .05.012.126-.089.214-.064.026.026-.063.152-.063.177-.012 0-.113.19-.113.177-.215-.025.164-.038-.101-.076.063.013.038.063.063.088-.025.013-.05.152-.089.152-.025 0-.012-.151-.012-.126.025.076.038-.152 0-.126-.025 0-.038.24-.05.227 0 .025-.102-.101.037-.038l-.126.063c-.038.038.202.454.202.518-.088-.038-.063-.228-.19-.266-.05.013.013.051-.025.076-.012-.012-.037 0-.037 0-.076.013.126.114.1.14-.012-.014-.063-.14-.075-.14 0 .013-.076.05-.063.076-.013 0-.076-.063-.101-.063.025.038.025.151.088.19-.025 0 0-.203-.025-.215-.013 0 .139.05.139.063 0 .012-.165-.177-.14-.164-.075-.013-.062.315-.075.303-.038.025.114-.24.164-.202.025 0-.215.366-.202.378.013.013.202-.151.177-.139-.025 0-.139.24-.164.228-.038 0 .177-.253.164-.24.025.012-.063.139-.038.151.025.013.114.114.088.114-.1-.05-.025-.215-.138-.278-.076.025.113.227.1.278 0-.013-.1-.19-.113-.202-.038.013.164.126.214.177-.037-.013-.063.176-.088.176 0 .026.177-.088.19-.05-.013-.013-.051-.24-.064-.24.026.013-.1.101-.088.114-.227-.127-.303.328-.48.227.05.025.202-.05.303-.025 0 0 .227-.14.227-.127.05.076-.037.19-.012.265-.013-.012-.139.266-.164.266-.063.037-.063-.076-.038 0-.139-.05.013.063-.114 0a.9.9 0 00.076.29c-.227-.063.013-.013-.151-.05.063.037.1-.165.1-.14-.05-.037.051 0 .013-.025.05.05-.088-.05-.215-.113.127.063-.1.315 0 .366-.063 0 .051.038 0 .05.076.026 0-.038 0-.025 0 0-.025.379-.037.379-.076-.025.1.063.05.05-.038 0 .076-.543.063-.543.063.026-.038.442-.126.43 0-.013-.114-.101-.126-.114.063.126.05.101.139.227 0 .05-.114.202-.164.19-.152-.013.1-.253.075-.228-.1.089-.176.253-.151.38.012.024-.089.113-.038.138-.025 0-.063-.05 0 0 .025.013.139.19.114.19-.165-.026.037.05-.202 0 .063.075-.316.025-.215.126-.05 0-.063-.076-.088-.064.025.05.441-.176.467-.139.075.102-.442.228-.442.29 0 .013-.025.152-.013.165-.038-.025-.038-.139-.025-.126.025.012-.063.075-.025.088.025.076-.025-.24-.025-.19-.038-.025.138.253.1.253.026.013 0 0 0 .038-.012.038-.214.139-.252.152.063.038.253-.076.34-.038-.012.038.051.19.026.24 0 0-.038-.127-.038-.114a.973.973 0 00-.126-.152c-.013-.012.076.215.05.215 0 .013-.214 0-.214.025-.025-.012.063-.025.025-.025 0 0-.025-.038-.025-.025 0 0-.202.012-.202.025.025.025.34.063.379.05-.026.051-.038.29-.076.329-.038 0-.025.076-.05.076 0 .037-.013 0-.076 0 .025 0 .214-.43.24-.43 0 0-.177.265-.177.278-.013 0 .025-.126.012-.126-.012-.013.177-.025.165-.038.025.05-.442.164-.442.215-.05-.013.252-.202.277-.165.026.013.038.05.05.05 0 0-.15.405-.176.405-.063 0 .152-.114.101-.076-.038.038-.025-.19-.025-.126 0 .05-.076-.316-.126-.328 0 .025.151.48.151.492-.076.038-.227-.076-.328-.076.164.076-.076-.038.038.038-.152 0-.127-.05-.19 0 0 0 .026.48.013.48-.088-.013.19-.303.139-.29-.013 0 0-.038-.013-.038-.1 0 .114.1.164.164 0 0-.366.139-.366.151-.012-.012.025.114.013.114.025.025.227-.114.227-.076-.076.025.063.101.076.177-.025 0-.152.1-.19.076 0 .05-.126-.051-.126 0-.025.012-.012-.114-.038-.114 0 .013.265.139.278.151l-.278-.012c-.012 0 0-.114-.025-.14-.1.013.126 0 .088.039-.063-.013-.088.088-.138.063-.076 0 .038.088.1.126.114.101-.214-.076-.138.025.05.026.164.026.214.063-.038.026-.063-.025-.113 0-.177-.05.126-.126-.038-.176-.025-.013-.025.164-.038.151-.1-.012-.076.215-.19.177-.037.013.039-.114.051-.076 0 0-.1.14-.1.152.1.075.138-.076.226-.026-.025-.012-.063-.037-.088-.037 0 .012.139.151.152.189-.064-.013.05-.29.075-.252.013.012-.366.366-.34.378.037.05.252-.126.176-.126.063.038-.038-.088 0-.063-.025-.013-.151.076-.202.063.05.025.101-.088.14-.05-.064-.038-.026.138-.127.126.063.038-.063.151.063.202-.025 0 0-.164 0-.152-.013 0 .063-.076.05-.088.064.063-.113.404.013.492-.151-.088 0-.303-.139-.391 0 .013.063.038.089.063-.127-.063-.114.088-.202.063.05.038.126.164.138.19-.012.012.14.15.127.15 0 .014-.089-.05-.14-.062.026.038.14-.29.203-.253-.038 0-.278.076-.316.05.063.051.19-.1.24-.05-.013 0-.24.253-.29.24.012 0 0 .126.025.139-.038 0 .227-.114.202-.076-.025.038-.19-.139-.151-.113 0 0 0 .038-.013.038-.114 0-.152-.228-.29-.303 0 0 .025-.063 0-.076-.051-.013-.215.467-.228.467-.038 0-.164-.354-.176-.379.025-.05.1.076.138.063 0-.05-.164 0-.176-.05 0-.025.24-.278.265-.278v.379c.038.012-.114 0-.089 0-.025-.013.076-.164.05-.177-.113-.114.014.164-.05.088-.037-.037.392-.214.392-.277 0-.05-.253.1-.202.1-.038-.037-.152-.378-.101-.39.19-.026.113.063.252.012-.012-.013-.038-.114-.05-.114.227 0-.152-.48.063-.48.013 0-.253.114-.24.102 0-.05.227.265.29.265-.1-.05-.113-.114-.138-.152.025.013.164-.176.176-.164.025 0 .114.076.126.076-.138-.101-.201.038-.227-.038.076.025.152-.126.265-.088-.025-.025-.151.075-.202.05.05 0 .038.126 0 .089 0 .012.228.037.215.05-.013 0-.48-.177-.48-.164 0 .013.14 0 .14.013 0 .012.163.1.15.1-.075-.012-.113 0-.201-.037.012-.013.126-.366.176-.354.013 0-.037.303-.025.303.013 0 .076-.088.088-.1 0 0-.012.062-.012.05 0 0-.076-.025-.063-.025.012.012.113.252.126.252.038-.013-.215-.227-.265-.265.1.063.379-.354.454-.303.026.025-.404.164-.429.215.013 0 .19.315.215.328.1.012.012-.303.076-.316.012 0-.152-.19-.127-.177-.012-.025.076.316.063.303.076.026 0 0-.025-.037-.05-.038.063-.152.088-.165.026 0 .076-.227.102-.214.063 0-.064-.14 0-.14.025 0-.19.317-.177.317-.025-.038 0-.127-.076-.177 0-.038.126-.076.164-.089-.038-.05-.05-.138.063-.075-.177-.063-.139-.026-.126-.05 0 .012-.101.252-.088.264-.089-.1.24-.176.252-.227.076 0 .063-.038.126-.025 0-.025-.252.025-.252 0 .038 0-.038-.404 0-.417 0-.05.126.063.177.025.05 0 .025.101.075.101-.038-.037 0-.151-.038-.176.228.05-.037.151.228.202.088-.026-.253 0-.316-.038.013-.013.025-.063.139-.013.025.013.202-.088.215-.1 0-.026-.24 0-.253 0-.013-.026.05-.405.013-.405.113-.012.176.278.34.303-.025-.076-.265-.454-.201-.505l.063-.139c.037-.012.088.505.227.556 0-.05-.19-.328-.101-.366.038 0 .038.113.063.113-.013-.038-.025-.315-.038-.328.025 0 .05.126.076.126 0 0 .19.164.19.152 0-.013-.19.038-.178.038.102-.013-.113-.505-.063-.543 0 .013.29-.139.316-.139-.126-.076-.252.43-.29.391.037 0 .138-.265.113-.303-.076-.088.14-.012.063-.1-.038-.026-.139.227-.176.214.012-.013 0-.227 0-.24.025 0 .126-.113.138-.126.051.013.026.19.076.202.063 0 .063.19.126.19.013 0 .127-.367.127-.392-.177-.076-.076.114-.253.063.013-.076.19.24.14.139.176.063.037-.555.264-.442.013-.038-.202.328-.29.265 0 .013.202-.328.202-.315-.05-.038-.177.202-.177.189.05.038.139-.025.227.025-.012-.038-.025-.328-.037-.366.063.013.063.43.126.404-.076-.063-.101.088-.202 0-.013 0 .214-.252.202-.265.025-.038-.329-.34-.329-.391.026-.013.177.227.203.227.025-.013-.203.177-.089.215 0 0 .278-.354.278-.341.076.038-.05.088 0 .1 0-.012-.227.316-.24.304 0 0 .164-.215.177-.215-.013-.038.088-.19 0-.252.012 0-.05.113-.038.113.025-.025-.088-.177-.013-.164 0 0-.063.24-.05.24.113.025-.05-.227.139-.152.037.013.025-.366.126-.34.076-.013-.164.075-.101.075a.766.766 0 00-.164-.037c0-.026.19.088.176.05.177.038.013-.101.215-.063-.063-.013-.063-.025-.088-.038-.013-.025.24-.215.227-.227a.557.557 0 00.025.126c0-.013-.19-.139-.19-.152.026.038-.062.253 0 .29.026-.024-.163-.302-.113-.327.05 0 .164.126.139.088-.114-.063-.088-.29-.139-.303.038.013.063.05.126.076-.025-.026.127-.026.05-.063 0 0-.087.252-.075.24.063-.026-.151-.051-.063-.051.088.025.19-.265.278-.227.076.012-.24-.127-.19-.127-.025-.012.076.341.038.316v.038c-.05-.038.063-.391 0-.404-.038 0 0 .29-.025.303-.05-.05-.063.025-.151 0-.038-.038.05-.114.05-.151.025 0 .43.075.48.075-.05-.05-.24.038-.278 0 0 0 .038.05.063.063-.013-.012.05-.265 0-.29 0 0-.063.43-.076.43 0 0-.025-.279-.037-.279 0-.025.025-.037.063-.05-.026-.013-.38-.038-.392-.05.013 0 .379.063.392.063.025-.038-.215-.366-.114-.366.013.012 0-.101 0-.101l.164.151c.025.025-.215.353-.265.379.101.038.417-.19.454-.19-.037-.025-.1-.328-.138-.353 0 0-.278.454-.265.442-.013 0 0 .126 0 .126-.013 0 .037-.316.037-.328v-.164c.013 0 .026.126.038.139.013 0 .026.1-.025.025.025.012.164 0 .202 0-.025-.05.227.24.278.24 0-.038-.328-.329-.265-.354.012-.025 0 0-.038 0 .05-.025.025-.113.088-.113-.013 0-.05.05-.063.037.025 0 .063-.265.076-.265 0 0 0 .19.012.19.013 0-.126.088-.113.1-.013 0 .252-.062.24-.062.025.025-.076.1-.038.1-.025-.05-.05-.075-.089-.088.05-.012-.1 0-.037-.012.012 0 .416-.101.441-.127-.037-.037-.328-.252-.353-.252.1 0-.19.391-.063.391.063.013.038-.088.1-.063.013 0 .14-.316.127-.34-.025 0-.076.15-.114.138-.012-.025-.012-.063.05-.025-.05-.05.014-.316.051-.316.026 0 .038.19.064.215.05-.013.113.316.1.29.038.013.24-.151.24-.19-.05-.05-.075.026-.1-.012 0-.012-.442-.076-.442-.088-.026-.063.252.215.176.139-.1-.025-.088-.24-.126-.278.025.013.353-.252.366-.252-.088-.038-.24.151-.278.126.038 0-.075.05-.063.025-.012-.025.24.114.202.101.05.013.089-.416.101-.43 0 0-.24.43-.24.443.026.025.152-.253.177-.24-.013-.025.114.038.126.038-.038-.013.026.24 0 .227.076-.013-.1-.417-.1-.442.037 0-.038.303 0 .316a.497.497 0 00-.114-.14s.227-.403.227-.39c.025.025-.063.58 0 .605-.013-.025-.038-.24-.126-.277.05-.013.176-.076.214-.05-.012-.039.19-.215.164-.253 0-.013-.202.429-.227.429 0 0-.139-.252-.139-.265-.025-.038.064.126-.075.05.075.013.328-.416.416-.378.076.012-.227.366-.076.429-.012-.025 0-.126.026-.126.037 0 .088-.063.151-.063-.025-.026-.404-.127-.416-.14.012 0 .277.114.277.102.076.012.025-.177.089-.215-.076-.076.012.303-.013.24.101.025-.126-.442-.05-.455 0 .013-.215.177-.19.202 0-.025.391-.075.391-.088 0-.013-.227.316-.214.328.076.013.076-.404.164-.391.013.025.038.278.076.278l-.19.075c.026.038.316-.378.253-.378-.05-.026.126.277.076.265.037.05-.114 0-.076.063.113.114.088-.164.164-.076l-.025.025zm-3.27 5.832s.14-.252.126-.24c-.012 0-.176-.037-.176-.025 0 .013.19 0 .19.013v.114a.587.587 0 00-.039-.114c.05 0-.076.278-.113.252h.012zm.379 1.225s-.24-.139-.202-.126c.013 0-.038.139-.025.139.126.025.252-.051.227 0v-.013z" fill="#1E462C"/></svg>