<svg width="260" height="40" viewBox="0 0 260 40" fill="none" xmlns="http://www.w3.org/2000/svg"><path d="M20.926 19.095s-.049-.018-.055-.03c.018.006.049.018.055.03zm-.002-.018l.032.025s-.02 0-.025-.007c-.007-.006-.019-.018-.007-.018zm.076-.43s-.005 0-.005-.012c.018 0 .03.006.006.012zm1.05-3.06h-.025s0-.007.006-.013c.007 0 .013 0 .02.013zm.275.011s-.006.005-.011.005v-.011s.005.006.011.006z" fill="#3F5146"/><path d="M22.249 15.657s.023-.036.04-.024c.013 0-.129-.1-.129-.088-.011.04.1.112.089.112zm-.866 2.26s.095-.047.089-.047a.517.517 0 00-.06.159.66.66 0 00-.029-.112zm-.376.99s.03.058.03.052c0-.006.087.024.087.024 0-.042-.117-.077-.117-.077zm-1.26 9.571l.341-.589c.171-.294.118-.323.289-.624.17-.3.082-.347.253-.641.17-.295.324-.206.489-.507.164-.3-.012-.4.158-.694.171-.295.318-.206.489-.5.17-.295.006-.39.177-.683.17-.295.264-.242.435-.536.171-.295.289-.23.46-.524.17-.294-.018-.406.152-.7.171-.295.224-.266.395-.56.17-.294.094-.341.265-.636.17-.294.277-.235.447-.53.17-.294.23-.259.4-.559.171-.3.136-.318.307-.612.17-.294.147-.312.318-.606.17-.295.264-.242.435-.542.17-.3.124-.324.294-.624.171-.3.165-.27.165-.612 0-.341-.082-.27-.259-.577-.176-.306-.23-.27-.406-.577-.177-.306-.082-.359-.259-.665-.177-.306-.17-.312-.347-.612-.177-.3-.165-.312-.342-.613-.176-.3-.047-.376-.223-.682-.177-.307-.177-.3-.354-.607-.176-.306-.37-.194-.547-.5-.177-.306-.065-.371-.241-.671-.177-.3-.248-.265-.424-.565-.177-.3-.124-.336-.3-.642-.177-.306-.1-.353-.277-.653-.177-.3-.353-.206-.53-.513-.177-.306-.006-.4-.183-.706-.176-.306-.247-.265-.423-.571-.177-.306-.148-.324-.324-.63-.177-.306-.312-.23-.489-.536-.176-.306-.212-.288-.388-.594-.142-.247-.253-.436-.489-.524a1.04 1.04 0 00-.742 0c-.247.094-.565.153-.706.4-.177.306-.077.36-.253.665-.177.307-.147.318-.324.624-.177.307-.177.307-.347.607-.17.3-.33.212-.506.518-.177.306-.024.394-.2.694-.177.3-.242.271-.413.571-.17.3-.194.295-.37.6-.177.307 0 .407-.177.713s-.283.242-.46.548c-.176.306-.2.288-.376.594-.177.306-.041.383-.218.683-.176.3-.335.212-.512.518-.177.306-.059.371-.236.677-.176.306-.129.33-.306.636-.176.306-.212.282-.388.589-.177.306-.371.194-.548.5-.176.306-.14.324-.317.63s-.236.27-.413.577c-.176.306.042.43-.135.736-.177.306-.13.33-.306.635-.177.306-.306.23-.477.536-.17.306-.124.336-.3.642-.177.306-.218.282-.395.582-.176.3-.14.324-.312.63-.17.306-.217.283-.388.589-.17.306-.3.236-.477.542-.177.306-.041.382-.218.688-.176.306-.188.3-.365.6-.176.301-.159.319-.335.625-.177.306-.195.294-.371.6-.177.306-.077.365-.253.671-.177.306-.248.26-.424.566-.177.306-.27.253-.448.559-.176.306-.064.37-.24.677-.177.306-.195.294-.378.606-.182.312-.2.294-.376.6-.142.248-.236.513-.189.76.047.259.142.595.342.765.2.17.53.03.812.03.341 0 .341.259.683.259.341 0 .341-.053.683-.053h.683c.341 0 .341-.071.683-.071.341 0 .341-.03.682-.03.342 0 .342-.117.683-.117.342 0 .342.088.683.088.342 0 .342.17.683.17s.341.007.677.007.341-.018.683-.018c.341 0 .341-.23.683-.23.341 0 .341-.023.683-.023.341 0 .341.047.682.047.342 0 .342.2.683.2.342 0 .342-.147.683-.147.342 0 .342-.088.683-.088s.341.212.683.212c.341 0 .341-.2.683-.2.341 0 .341.259.683.259.341 0 .341-.207.688-.207.348 0 .342.095.69.095-.242 0-.378-.195-.543-.33-.17-.141-.417-.247-.459-.465-.035-.206.112-.406.23-.618l.006-.006zm.93-8.942s-.006-.024.018-.024c-.012-.029-.095.012-.112-.029-.047-.053.076-.03.041-.07-.012-.007.035.035.03.029.017.006.011-.094.017-.094-.03-.036.106-.1.077-.124.011.006-.083.177-.071.177.041.017.059-.2.112-.154-.053-.047.023.065-.07.012 0 0 .046-.059.04-.059v.1c.012-.005-.03-.117-.017-.117 0 0 .04.094.04.088.007-.012.013-.135.048-.13.006.012-.059.213-.047.224.041 0 0-.259.006-.27.03.011 0 .182.035.194.012-.006-.012-.106-.012-.118.006 0 .024.112.03.112.047-.012-.077-.077-.012-.07.018 0 .041-.119.03-.13.017 0-.06.112-.042.135 0-.006.03-.047.012-.065-.023 0 .012-.03-.023-.04-.012-.019.017-.007.017-.03.006 0-.018.147-.018.153.106-.006-.053-.3.077-.3-.03-.006.03.035.012.023.017-.012-.018-.124 0-.13.012 0 .1.124.1.112-.012-.047-.136-.111-.112-.13.012 0-.047-.017-.041-.01 0-.019.159.029.094 0 0 0-.041-.013-.035-.019.023-.029.03-.029.035-.076.047.012-.012.141.047.153.024-.018-.112-.26-.082-.283-.012-.006.07-.106.07-.111.024.005 0 .182.018.182-.012-.012.059-.1.047-.112.006 0-.106.183-.088.189-.041-.03.153-.265.112-.295.011.006-.006.106.011.112.006 0-.123.03-.123.024 0-.012.117 0 .112-.012.023 0 .094.059.1.059.017-.018 0-.147-.03-.177 0-.017-.13.053-.123.041-.012-.006-.012-.017-.024-.023-.012-.006 0-.088.006-.088.053.017.018.076.082.105.036-.023-.117-.164-.117-.194 0-.012.1 0 .106 0 .017-.012.117-.094.088-.112.012.006-.124.041-.112.047.012-.017-.024.053-.03.024.006.006-.029.006-.023.006-.006-.006.082-.041.082-.047.1.053-.005.1.071.141-.017-.012-.012-.13-.053-.135l.047-.024c-.023-.047.041-.053.024-.106.012.006-.065.012-.053 0 .03-.035.012-.047 0-.094.065.024.023.147.088.177 0-.042-.023-.148-.041-.212.106.023-.035-.077.053-.077-.035-.012-.047-.053-.041-.07.023.017.135-.107.153-.095-.024-.017-.077.13-.036.136-.023-.018.012-.112-.017-.136.023-.006-.006-.047.017-.059-.035-.011.03.03.03.018 0 0-.047-.112-.047-.106.035.006-.047.065-.024.059.018 0 .065-.035.07-.047-.023-.006-.07-.077-.035-.077 0 .006-.14.112-.129.118-.03-.07.153-.153.118-.23 0-.023.047.053.076.06.07-.018-.04-.06-.023-.089.047-.065.04-.13.035-.212-.006-.006.17-.012.17-.018 0-.005-.135.089-.14.083-.012 0 .017-.035.029-.041.076-.012-.047-.206.07-.195-.029-.04.16-.047.112-.105.024-.006-.13.076-.117.058 0-.03.07-.047.058-.07-.047-.053.177-.095.136-.153 0 0-.082.058-.077.058.012.012-.023.107-.029.1-.012-.005.059-.123.041-.123-.017-.047-.006-.024 0-.053.024.023 0-.082.041-.07-.023-.018.077.017.06-.012.005-.024.058-.06.076-.083a.491.491 0 00-.112-.047c.012-.03-.13-.053-.118-.088v.153c-.035-.018.1-.124.1-.136.012 0-.064 0-.053.012 0-.012.218-.012.218-.023.012.011-.07.04-.059.03-.006-.007-.1-.007-.1-.019 0-.005.03-.04.03-.047 0-.011 0 .018-.018.024.012-.035.03.018.053-.012.012 0 0 .041.018.035 0-.017-.024-.17 0-.17-.012-.006-.036.011-.047.006-.03-.024.111.058.111.053.006 0 .071-.1.077-.095-.006-.03-.189.006-.189-.023.018.006.077.023.065 0-.012-.006.024-.053.018-.047a.251.251 0 01-.03-.077c.03 0 .012.088.024.065.012-.024-.023.006-.012-.018.006-.023.03.153.06.153-.007-.017.01-.1.01-.106.042-.029-.111 0-.064-.017-.082-.03.141-.124.082-.147.077-.018.077-.042.112-.083 0 0-.04-.147-.035-.147.041-.006-.065.03-.041.012.006 0 .012.094.023.094.053-.018.024-.118-.006-.159.006.006-.011.024 0 .024-.017-.012 0 .035.018.023.006.006.047-.112.06-.112-.019-.017-.066.053-.066.03.041-.03.212-.053.2-.1.018 0-.206-.06-.194-.053 0-.03.053-.065.053-.095.03-.011.024-.07.053-.07 0-.018-.059.1-.012.1.006 0-.006-.094.012-.082.047-.018-.035.088-.023.064.029 0 .011.053.04.06.042-.007-.046-.042-.082-.06-.059-.047.047.053.006 0-.023-.012.053-.106.024-.117.023-.024.03.017.053-.006.018.005.023-.071.03-.06.017.018-.066.042-.03.042 0 .018.006-.012.023 0 .047-.006.012-.035.065-.024.012-.005-.082.03-.088.012.006 0 .088-.059.106-.059.006 0-.06.13-.06.136.007 0 .154-.071.16-.071-.006-.012-.012-.053-.018-.065-.012-.011-.106 0-.13 0 0 0-.046.024-.046.03 0 0 0 .059-.012.053-.012-.006.17-.136.165-.142-.024-.035-.065-.029-.1-.059.011.006.1.124.105.124 0-.012-.182-.118-.188-.135.03 0 .083.059.077.035-.012-.006-.071.03-.083.024-.012-.024.053-.053.094-.06-.04-.023-.029.054-.1.03.047.006.112-.053.147-.059-.029-.005-.04-.023-.07-.04.035.01 0 0 .053 0-.035-.018 0-.018-.053-.042.018-.006.035.141.047.135.006 0 .03-.153.035-.153-.03-.03-.03-.094-.1-.13.077.03.036.06.106.107 0-.012.018-.2 0-.212.065.023-.03.082.012.082-.035-.012 0 0-.018-.023.006.005.006.011.03.017-.024-.023-.024-.059.011-.059-.017-.017 0 .03-.029.012 0-.011.077.018.077 0 0-.017-.024.006-.018-.011 0-.018-.024.058 0 .052 0 0-.018-.047-.012-.053.018 0-.053.006-.053-.005 0-.024.124.017.136 0 .058-.018.047-.065.117-.042.012 0 .041-.035.047-.03.024.007.018.195.024.19.012 0 .024-.071.03-.054-.018.03.052-.03.029-.011 0 .023-.077.023-.07.053 0 .011-.036-.053-.048-.053-.012 0 .018.13 0 .13-.03-.013-.041-.013-.047 0 .012.01.065-.066.076-.054.053.053-.164.112-.14.153.023.024.176-.041.176-.012 0 .024-.083.06-.106.065.023.018.088.053.07.07-.1.042.018.16-.052.213a1.293 1.293 0 00-.106-.195c-.112.024.117.3.023.33-.006 0-.03-.118-.035-.112 0 .03.082-.07.053-.059.047.012.047.106.053.13-.006 0-.189.118-.189.112-.017-.006.053-.165.06-.153.07.04.105.188.117.218-.035-.006-.147.058-.206.052.012.006.106-.1.13-.088-.024 0-.06.053-.042.065.012 0-.088-.065-.082-.077 0 0-.041.012-.041.006s.111.03.106.03c.035 0 .023-.024.059-.012 0 .012.017-.018-.012-.03 0 .006.094.165.082.165.006.006 0 0 0 .006l-.106.006c-.006 0 .018-.053.012-.047-.024.012.024-.07.047-.047-.047-.03-.082.053-.118.041-.012-.012-.088.041-.076.024-.006-.012.076-.136.064-.136-.047.006.036.124 0 .142-.005 0-.017-.077-.035-.083-.012.006.018.041.035.053-.035-.012.018-.035.03-.018.024.018-.047.165-.053.177-.012 0 .006-.17-.006-.177-.012.006-.112.118-.106.142a1.146 1.146 0 01.2-.006c.006.023-.123.041-.07.07.011.024 0 .042-.024.042.018.017.041.011.018.011.059.018-.042 0-.047.018 0-.006-.071.1-.083.094.047.053.1-.006.094.03-.035.006-.035-.053-.07-.053 0 .017.094 0 .094.017-.018 0 .018.089.006.1a.16.16 0 01-.047.1c-.018 0-.024-.035-.041-.035.011.018 0-.117.017-.1-.106-.012.06.26-.059.26-.035.023-.017.011.012.029-.006.011.03 0-.035-.012 0 0 .023-.03.018-.03-.048-.017-.124.042-.124.053.006.018.141.03.153.03-.053.023 0 .141-.077.141.012.047.112.13.089.17l-.077.007c-.017.012-.047.076-.106.053 0 .035.047-.065.012-.036-.018 0 .012-.053 0-.059-.012.006.1.018.112.03-.006 0-.13-.053-.136-.059-.023.006.006.247.012.26-.012 0 0-.03-.018-.03-.052.017.083.064.06.1-.006-.006-.036-.194-.048-.194.065.035 0 .2 0 .217 0 .006-.153-.1-.153-.094 0 .024.06.006.088.053.018.012-.017.082 0 .082-.011.006-.04.018 0 .024-.029.006-.047-.135-.064-.118-.018-.006.047.218.017.218-.023 0-.053-.177-.076-.17-.006 0 0-.012 0-.012s.03-.036.035-.024c.083.03-.1.2-.012.212-.005.047-.07-.082-.047-.035-.082-.012.018.159-.094.117-.006.012.106-.035.118-.017-.006-.006-.018.076-.024.07 0 .024-.07.024-.058.042-.03 0-.053-.071-.083-.053.035.03.03-.053.077-.018.006 0-.047.094-.042.1-.011.03.018.012.018.047-.012.012.024-.059.006-.059-.012.006.047.1-.012.095-.006 0 0 .011-.006 0-.04-.012-.059 0-.076 0 0 .005.041-.03.047-.03.006.024-.088.088-.059.124-.018.017.094-.077.059-.065v.082c-.053-.006.012.183-.083.153-.023.006.024-.123-.023-.13-.035.018.059-.023.023-.01a.39.39 0 01.018.087c-.006.018-.023.012-.018.03-.076 0-.011.118-.088.118.012.005.153-.012.16 0-.007.011-.225.023-.213.029-.012 0 .147-.018.153-.012 0 .006.006.018.006.03.006.005-.035.023-.035.035a.451.451 0 00-.088-.094c-.018.023.1.17.076.194-.018.006-.135-.03-.13-.012.053.024.089 0 .106.006-.017 0-.023.053-.058.041.011.012 0-.147.035-.13.012 0-.041.066-.047.072-.035.023.082.047.041.058-.047-.006-.047.018-.088.006-.041.006.03.106 0 .106.017.006.065-.159.082-.141.006-.006-.012.012-.012 0 .024.012-.07.012-.04.006.023 0-.03.082-.018.065.023.023.117-.06.153-.053.017.029-.089.1-.065.13-.012.005.012-.019-.006-.019.023.03-.053-.064-.035-.04 0 0-.071.093-.089.093.006.012-.017.012 0 .03.006 0-.059.047-.053.053-.006.012.024-.141 0-.136.006.006.189.053.195.065 0 0-.1.06-.106.06-.006.023.07.087.023.093-.006 0 .041.041.036.041-.006.006-.171-.082-.171-.076 0-.024.106-.053.13-.077-.048-.011.029.03.011.036.024.017-.041.04-.023.053-.006 0 .029-.112.023-.106.018.006-.07.247-.053.253 0 .006.065-.141.07-.136-.005-.005-.052.118-.058.118-.012.006-.065-.082-.035-.053-.006-.011.011-.035-.012-.03.011.03.059.095.03.1 0 .024.064.03.035.054 0 .006-.077-.088-.065-.088-.024.011 0 .035-.012.052.006 0 .012.077.012.083-.018 0-.083-.165-.094-.159a.379.379 0 00.029.088c.006 0-.041.03-.047.024l.035-.018c-.006 0-.059.018-.064.018-.018-.024.105-.065.094-.053.005.023-.183-.018-.165-.018-.024.018.165.035.135.047-.006.006-.012.041-.023.06.035.023.011.076.04.1-.111-.012.024.111-.052.129-.024 0 0-.153-.024-.165a.396.396 0 00-.035.088c.012 0 .012.006.03.012.005.012-.024-.006-.053-.03.029.036.123-.064.105-.052.012-.018-.07.023-.088 0-.03.011.024.217.03.24a1.03 1.03 0 00-.189-.064c.03.024-.023-.059-.006-.035 0 .012.089.017.083.023.006.03.076.047.076.077 0 .006-.176.076-.17.082 0 0 .064-.176.07-.176 0 0-.006.147 0 .147.047.012.106 0 .118.018-.012 0-.035-.1-.024-.089.024.012.012.148.018.165-.018 0-.059-.07-.065-.053.006.012-.035.077-.017.083-.024-.006-.042-.118-.053-.106-.006-.012-.012.076-.018.064-.024-.011-.018.095-.041.083-.006.006.023-.112 0-.106.012.012.059.023.07.03-.035.011 0-.036 0-.018-.017 0-.04.2-.064.2.006.011.094-.142.111-.13 0 0-.053.077-.058.077-.012-.012 0 .023-.036.012.006.017-.1-.018-.058 0-.03.011.094.1.07.088.006.017-.165.012-.159.023 0 0 .065-.006.065 0 .006 0 .023-.135.03-.135.005 0 .105.047.111.053.006.018-.265.1-.2.135-.041 0 .053 0 .018-.017-.036 0 .035.111-.042.088.006.012-.035-.224-.029-.224-.018.006.03.106-.012.106.018.012-.035.1-.023.112a.766.766 0 01.088-.059c.018.012.053.012.03.012-.053 0-.095-.153-.148-.135.036.04.047.058.053.094-.047-.012.083.188.041.194 0-.006-.17-.059-.182-.065a.27.27 0 00.03.065s.135-.077.129-.077c-.035-.005.012.006-.018.012-.006-.012.012-.023-.006-.023.018.023.024.094 0 .106a.173.173 0 01-.094.017c-.012.012.089.012 0-.011-.006 0 .07-.053.065-.06 0 0 .012-.046 0-.046-.012-.018-.088.058-.094.04.012.013.012.125.023.13.024-.005-.076-.223-.07-.235.011 0-.036.088-.024.094-.012-.018.088 0 .118-.006l.047.065zm-8.995 2.843s-.088-.017-.106-.023a.988.988 0 00-.141.04.66.66 0 00.117-.01c-.017 0 .012.023 0 .035.012.011-.047.094-.029.105.082.065-.041-.105-.006-.058.03.023 0 .023 0 .058 0 .03.018-.011-.018-.006.03.024.071-.047.042-.035-.124.006-.006.236-.1.26.005 0-.006-.048 0-.048-.13 0 .13.13 0 .118-.012 0-.048-.03-.053-.024 0 .03.023.018-.018.018.053.023-.035.047-.03.065-.005 0 .118-.089.112-.094a.404.404 0 00-.13.105c.1.053.113.065.13.1-.04-.017-.094-.129-.17-.147.017.006-.071.077-.041.095-.036 0 .094-.018.117 0 .012 0 .1.076.1.07l-.135.012c-.006 0-.07.07-.07.065a.55.55 0 01.093-.024c.047.012-.017.03.036.06-.006.005.106-.195.082-.201 0 0-.065.124-.065.118-.005-.006.012-.03 0-.024.006.006-.064-.076-.07-.07-.006.005.159.082.153.082.006.006-.083.065-.088.065 0 0-.012-.036-.018-.036-.006-.006 0 .06-.012.06-.018 0 .07.058.106.088a2.125 2.125 0 00-.188-.077c.006 0-.071-.076-.065-.088-.006 0 .1.035.082.03-.058-.007.053.07 0 .076-.006 0-.035-.024-.053-.036-.017.006.042-.053.071-.04-.047-.018-.094 0-.076.023.035.023.04.07.029.082-.018 0-.035.065-.053.059-.035 0 .07-.012.041-.006 0-.006-.17-.082-.182-.082.011.023.282-.071.353-.03.023.024-.106.177-.136.183.024.03.048.017-.023-.012.118.041.1.065.094.076 0-.005-.041-.1-.053-.106.059.053-.047.095-.059.124-.041 0-.047.047-.088.041.024.024.053-.058.077-.035-.006.012.064.035.052.047 0 .03-.011-.047-.035-.035-.03 0-.035-.065-.065-.065.018.024.042.024.06.041-.142-.041 0 .083-.166.053-.053.012.047.189.095.218-.006.012-.018.118-.1.094 0 0 .023-.064.023-.07-.077-.036.094.04.07.04.007.013-.035-.158-.017-.152-.065.006-.047.065-.141.04.017.048.1.19.076.225 0 0 .018.117.012.117-.018.006-.053-.035-.141-.076.006.035.112.106.064.118-.017 0 .024-.142.012-.148-.011 0 .07.053.083.065-.006 0-.13.1-.136.1-.035-.006 0 .024.012.03-.018 0 .012-.124 0-.13-.065-.006-.012.053-.041.077-.006-.012.076-.047.059-.047.094.053.011.064.023.082-.017-.006-.106.094-.094.112.047.053-.1-.012-.053.041.024.018.03.047.059.053-.018 0 .053-.07.094-.047a.284.284 0 00-.13.023c-.023-.011-.011-.052-.046-.058-.042 0-.06.13-.1.123-.006-.006-.024-.065-.018-.059.118.053.047-.07.17-.03-.005.036-.117.072-.076.13-.124-.04-.065.142-.212.077-.012.012.047-.053.1-.018l-.041.089c.018.011.03 0 .024.011-.03-.029-.036-.064-.083-.094.006.018.077-.023.094 0-.04-.012-.04.006-.082.018.047.041-.147.088-.077.13.012.005-.023-.077-.017-.065-.012.017.123-.13.123-.1-.017.005.047.076.036.07 0 .006-.077.065-.065.077-.006 0 .076-.018.059-.024 0 0-.088.112-.094.106-.053-.023 0-.012-.036-.017 0 .005-.047-.036-.03-.024-.005 0-.07-.07-.082-.077.012.024.042.148.083.183l.065-.094c0 .017.13-.024.088-.036 0 0-.047.13-.053.13-.077-.018.082-.012-.047-.065-.024 0 0 .03-.07.012-.03.006-.013.035.01.059a.85.85 0 00.024.17c-.111-.029.053-.188-.076-.223.024.006.082.094.094.106 0 .006.024.03.036.047 0 .006-.118.112-.118.123.023.012.03.024.023.036-.023-.03-.017-.094-.053-.124-.023.018.1-.041.07-.03-.028 0-.123.13-.11.154.07.035.052 0 .082.012-.03-.006 0-.024-.036-.042.012.012-.041.036 0 .06.012 0-.047-.095-.053-.09-.041.013.165.101.106.095-.059-.023-.065 0-.123-.023-.042-.006.047.17.017.17.012.006-.012-.106.018-.088 0-.006.065-.124.065-.13.029.024-.053.13-.018.136.024 0-.018.035 0 .023.035.03.082-.135.13-.117.029.03-.165.135-.13.17-.018-.005-.065-.047-.094-.047.03.024-.03-.006-.03 0h.071c.006.012-.035-.076 0-.059 0 0 .018.047.024.047-.006.006-.012.054-.048.06.012.005.106 0 .118.011-.006 0-.076.094-.082.088 0 .006-.07.006-.053.03-.006 0 .135-.13.135-.124-.018-.017-.147.06-.123.047-.053-.023-.124.083-.136.083.036.03.23-.065.253-.047-.017-.006-.059 0-.07 0 .023.011.011.04.03.053 0 0-.048.094-.048.1-.006 0 .082-.26.077-.26-.012.007-.183.177-.154.219-.011-.012.042-.083.012-.083.018.03-.041.012-.076 0 0 .018.112.03.07.047-.006.024 0 .024.018.024-.024.006.006.047-.012.059 0 0-.082-.1-.076-.095-.012 0 .03-.094.017-.094 0 0 0 .06-.005.06-.012 0-.165.082-.171.076.006 0 .223.006.223 0-.005-.006-.1.035-.111.035-.03-.024.082-.112.07-.106.018.024-.159 0-.135.012-.035.012.194.259.153.265-.03 0-.03-.153-.053-.153.006 0-.012.111.012.123-.142-.04.059.06-.024.047-.035-.011.012-.153-.023-.165-.006.006 0 0 0 .012.017.006 0 .024.023.03.012.011.036.117-.012.088.042.041 0-.053-.023-.047.012-.012-.012-.035-.041-.065-.036.006-.06.077-.053.094-.018-.011-.124.089-.13.089.035.03.218-.036.236-.012 0 .012-.012.018-.012.024.012.029-.147-.006-.147.011 0 .006-.153.094-.136.106 0 0 .153-.112.153-.106a.413.413 0 01-.035.053c.059.018 0 .047.03.065-.012-.006.07-.165.064-.165.053.03-.041.147-.018.165-.023-.006-.211-.07-.217-.053 0 .006.164.012.188.023a.08.08 0 00-.065 0c-.006-.005.06-.035.065-.04-.024-.012-.07 0-.094-.007.006.006 0 .06.012.077.017.012-.018-.1-.006-.094-.041.006.023.318.023.33-.03-.006 0-.136-.03-.148.007.006.107-.064.124-.053 0 0-.047-.011-.053-.011-.017-.018-.052.035-.1.011.006.018.042.012.095.047-.03 0-.071.16-.089.148.006.017-.1-.042-.088-.024 0 .006.13-.135.141-.13 0 0-.035.1-.03.107 0 0-.005-.012 0-.012.013.017-.023-.071.054-.024-.047-.012-.124.07-.177.047-.023-.006-.035.018-.023.041-.006 0 .011-.1 0-.1-.024 0-.124.083-.165.077.035.023.112.094.147.13.012.011.053.058.035.058-.076-.023-.047-.076-.123-.076.047.047.088-.041.106 0-.06-.024.07-.053.011-.06 0-.005-.117-.035-.135-.04-.006 0 .083.07.07.07-.046-.011-.029.23-.076.224-.006-.012-.035-.147-.053-.153.024.03.112 0 .077.012-.041.011-.07.088-.112.076-.012.006.1.094-.006.047-.006 0 .147-.212.141-.218a.524.524 0 00-.159-.011c-.006-.006-.011.07-.011.059.017.011.029-.03.053-.012-.012-.012-.071-.018-.095-.035.024.011.13-.03.148-.012.029 0-.065-.012-.065-.018.017.006.012.106.023.118-.017-.018-.053.076-.023.076.035.018.218-.07.247-.053-.024-.035-.212-.094-.241-.13-.07-.064.117-.07.064-.123-.023-.012-.076.024-.088 0 .03.018-.053.083-.047.083-.018-.018.024-.195.035-.195 0-.006.06.089.053.089.012.006.071-.089.089-.089.047.024 0 .012.04.036-.023-.024-.029.218-.135.147a.697.697 0 01-.082-.13c0-.011.141-.082.153-.082.006 0 .088.159.088.153 0 0-.082-.088-.076-.088.006-.006.012-.083.065-.07-.006-.013-.024.093-.024.087.041.024-.006.148.041.165.012-.006.012-.047 0-.059.012 0 .041-.076.053-.082-.011-.024-.112.03-.13.018 0 0 .113-.177.107-.183-.012 0 0 .165.006.159.023.006.023-.106.047-.076 0-.012-.094.105-.118.088-.035-.012.024-.088-.018-.106-.017-.018-.011-.024 0-.047 0-.012-.011.1-.011.106.135.03-.024-.236.088-.224-.012-.012-.024.035-.041.024.011-.006.011.017.047.017.011 0 .07-.011.076-.023-.017-.041-.094.04-.07.03.017 0 .082-.066.088-.06 0-.011.03-.03.041-.03-.006-.011-.07 0-.082-.011 0 0-.1-.135-.094-.135.023-.018.07.023.07-.012.059.023.018-.094.1-.065.03-.006-.03.124 0 .112.006.006-.017.053-.012.059.03 0 .071-.147.048-.16.011 0-.06.06-.048.066-.017-.018-.023-.012-.04-.03.005 0 .07-.023.088-.012-.06-.035.017-.082-.042-.111.018.005.065.023.095.035.005 0 .105.059.105.053 0-.006-.135-.165-.147-.177.041.012.041.053.047.06.024-.007-.029.07-.064.04-.018-.006.017-.053 0-.059-.012-.005-.042.071-.03.065.018 0-.047.106-.035.112.023 0 .106-.253.112-.27-.018-.012-.189.217-.206.205a1.273 1.273 0 01.094-.288c.065.03-.018.188.065.235.047-.011-.1-.217-.095-.241.012-.012.095.224.106.23.018-.006-.123-.112-.14-.136.01.006.158.018.17.024 0-.012.047-.077.035-.106.012.012-.123.053-.118.059.006.006.1-.171.112-.171.065.03-.064.224.024.27-.03-.017.018-.294-.036-.311-.04-.012-.04.135-.04.13.005 0 .111-.071.123-.071-.035-.047 0-.012-.03-.053.018.006-.117-.095-.105-.095.035-.017.011-.058-.006-.105.082.035 0 .27.088.311-.006-.04-.024-.288-.053-.347.135.047-.041.059.076.088-.047-.017-.07.006-.064 0 .035.018.135-.14.159-.123-.036-.03-.124.118-.042.165-.076-.042-.035-.1-.088-.136.036 0 .147-.159.177-.165-.053-.017-.077.036-.094.018.005.006-.018.012-.006.012.047.017-.047.006-.012.012.018.005.135-.1.141-.1-.035-.024-.206.188-.153.2 0 .006.065-.124.083-.118-.048-.07.011-.077-.048-.153 0-.035.107-.106.136-.1.1.012-.2-.012-.177-.03.053-.04.242.018.224-.064-.006 0-.059.04-.065.04 0 0 .106-.17.1-.176-.011-.006-.106.242-.088.242.106.011-.03-.177.124-.13-.042-.047.035-.076-.03-.147.03.006.194-.03.206-.035-.011-.03-.1-.012-.117-.03-.083-.07.082.012.04-.047.024.012 0 .106 0 .094-.017-.006.113-.159.089-.165-.03-.047-.077.112-.077.083.03.023.018.047.065.065-.03-.018-.065-.16-.082-.183.006-.023-.041.006-.018 0-.035-.03-.018.024-.076 0 .011-.023.13-.123.14-.159v.1c.019.006.06-.1.077-.088.006-.012.042-.03.042-.041.011.017.082-.018.1-.018-.036-.03-.136-.059-.171-.088.035 0 .012.235.047.241-.006-.012.065-.206.035-.206.012-.023-.123.141-.094.124.018 0 .018-.124.036-.124-.006-.018 0 .035.04.041-.011-.006-.04-.088-.058-.094-.041-.035.065.018.065.012.005 0 .011-.018.03-.012-.013-.035-.019-.023-.024-.059.029.018.164-.088.14-.112-.011-.005-.046.018-.052.018a.387.387 0 00-.1.094c.041 0 .07.053.1.036.03-.018-.047-.018-.03-.047.018-.03-.035.105 0 .111-.011-.017.006-.03.006-.04.047-.013.1-.225.165-.225-.118-.047-.182 0-.265-.035.1.006.189.041.224.018.006 0-.012 0 0 0 .059.006-.065-.16-.035-.165.006 0-.012.13 0 .135.07 0-.024-.053-.065-.094.018.012.07.018.07 0-.017-.012-.04-.018-.011-.018.006.006.017 0 0-.011-.018-.024.141-.03.141-.06.047-.01-.1-.04-.118-.082.024 0 .077.006.094.012 0-.03-.011-.153-.011-.176.035 0 0 .235.03.247.005 0 .028-.147.028-.153.06 0-.035-.088-.023-.1.041.012-.018.2.023.212.053 0 .042-.206 0-.23-.07-.059.16.047.112-.006-.035-.023-.212.053-.247.036.03-.012.077 0 .106-.018.118.035-.035.035.077.065.011.006-.053.006-.036.017.065.012.07-.165.142-.141.017-.006.029.03.017.012-.011-.006-.011-.036-.017-.041-.053-.048-.095.076-.142.04a.44.44 0 00.124.012c0-.011-.124-.14-.141-.158.04.011.23.005.218-.018-.012-.006-.189.112-.2.1-.018-.024.058-.024.1-.018-.012-.012 0 0-.042-.023.018.006.012-.024.03-.024-.012-.012.029-.07.023-.076.024.012.118.123.165.135-.041-.024-.112-.123-.194-.165.023 0 .023.012.04 0 .013 0-.01.065-.005.07-.041-.04.041-.017-.041-.07.112.047.047-.117.141-.053a.267.267 0 00-.047-.1c.082.036-.024.006.03.024-.03-.018-.16.041-.165.03.005 0 .123.046.14.058-.028-.024.036-.07.083-.065-.023-.023-.182.06-.217.036.023 0 .111.03.147.04-.036-.035.04-.111 0-.14.006 0-.095.017-.071.023-.024-.012-.006.077.035.088h-.005c.017.012.164-.07.158-.094-.005-.03-.217-.076-.2-.106.07.006.265.142.353.183.006 0 .06-.083.065-.077.03.012.006.088.012.083.018.005.2.088.206.106-.018.023-.212-.195-.241-.183.07 0 .117.112.123.141l.018.006zm-.577.289s.088.047.106.059c.047.017.106-.13.106-.136-.018-.012-.135.053-.165.041.018.012.03.024.03.03.005 0 0-.088.023-.077-.059 0-.1.095-.1.083zm-.024.176s-.029.118-.017.13c0-.006.035-.165.018-.177-.006.006 0 .047 0 .047zm-1.053 2.773s.012.065.03.07c-.018-.017.017-.088-.007-.105-.006 0-.023.03-.017.035h-.006zm-.23.235s.03-.023.041-.011c.042.011-.017.03-.04.011z" fill="#3F5146"/><path d="M34.281 25.211s.012-.012.018-.006c0 .006 0 .012-.006.018l-.012-.012zm1.884 2.743s.054.012.06.024c-.024 0-.048-.006-.06-.024z" fill="#487B5A"/><path d="M33.445 15.774s.036.077.042.083c.005-.012 0-.065.011-.065-.005-.006-.04-.024-.053-.018zm.99 9.237l-.036-.065v.041c-.018.018.147.124.165.112 0-.006-.124-.082-.13-.088zm1.618-3.827s-.076-.035-.088-.03c.006.007.1.066.118.06 0-.006-.024-.03-.03-.03zm-2.46-5.627s-.024-.071-.024-.065c-.006 0-.012.047-.018.047-.011.024.118.165.142.165-.006-.012-.1-.136-.1-.147zm-.148.217s.036.077.042.083c.005-.012 0-.065.011-.065-.005-.006-.04-.024-.053-.018zm0 0s.036.077.042.083c.005-.012 0-.065.011-.065-.005-.006-.04-.024-.053-.018zm.99 9.237l-.036-.065v.041c-.018.018.147.124.165.112 0-.006-.124-.082-.13-.088zm1.618-3.827s-.076-.035-.088-.03c.006.007.1.066.118.06 0-.006-.024-.03-.03-.03zm-2.46-5.627s-.065-.048-.065-.042c-.012.024.088.095.112.095-.006-.012.1-.077.1-.089 0 0-.136.03-.142.03l-.005.006zm-.136.235s.06.024.07.024a.39.39 0 00-.111-.053c.006.011.041.029.047.035l-.006-.006zm9.401 12.586c-.17-.3-.382-.177-.559-.477-.176-.3-.023-.388-.194-.683-.17-.294-.318-.218-.489-.512-.17-.294-.17-.3-.341-.6-.17-.3.017-.407-.153-.707-.17-.3-.224-.27-.395-.565-.17-.294-.317-.212-.494-.512-.177-.3.07-.441-.1-.736-.17-.294-.3-.224-.471-.524-.17-.3-.112-.335-.283-.63-.17-.294-.353-.194-.524-.494-.17-.3-.011-.389-.188-.689-.177-.3-.159-.306-.33-.606-.17-.3-.176-.3-.347-.595-.17-.294-.159-.306-.33-.606-.17-.3-.323-.212-.494-.512-.17-.3-.183-.295-.36-.595-.176-.3-.105-.335-.276-.636-.17-.3-.106-.335-.277-.635-.17-.3-.306-.224-.476-.518-.171-.295.035-.424-.136-.719-.17-.294-.318-.212-.494-.512-.177-.3-.083-.347-.26-.647-.176-.3-.294-.23-.47-.53-.177-.3-.189-.294-.36-.589-.17-.294-.029-.383-.2-.683-.17-.3-.335-.206-.506-.5-.17-.294 0-.4-.17-.7-.171-.3-.36-.195-.536-.495-.177-.3-.041-.377-.212-.683-.17-.306-.212-.277-.389-.583-.117-.212-.335-.241-.535-.312-.212-.076-.377-.117-.589-.04-.212.076-.294.205-.412.411-.177.306-.235.265-.412.571-.177.306-.141.324-.318.63-.177.306-.277.247-.447.553-.171.306-.036.389-.206.69-.171.3-.365.193-.542.5-.177.306-.047.376-.224.682-.176.306-.182.3-.353.607-.17.306-.277.241-.453.547-.177.306-.2.295-.377.595s-.053.377-.23.683c-.176.306-.24.27-.418.577-.176.306-.206.259-.206.612s.148.235.324.536c.177.3 0 .406.17.712.172.306.16.318.33.618.171.3.3.235.477.536.177.3 0 .406.171.712.17.306.365.194.542.494.176.3.218.277.394.583.177.306.059.371.236.677.176.306.182.3.353.607.17.306.206.288.383.588.176.3.064.371.24.677.177.306.366.194.542.5.177.307.042.383.218.69.177.305.206.288.377.588.17.3.247.265.424.57.176.307 0 .407.176.713.177.306.354.206.53.512.177.306.047.383.224.69.141.246.182.464.135.711-.047.26-.13.5-.33.671-.194.165-.43.171-.718.171.348 0 .348.212.695.212s.347-.135.695-.135c.347 0 .347-.06.689-.06.34 0 .347.119.688.119.342 0 .348.017.695.017s.347.006.694.006c.348 0 .348.083.695.083s.347-.095.695-.095c.347 0 .347-.13.694-.13.348 0 .348-.052.695-.052s.347.235.695.235c.347 0 .347-.123.694-.123.348 0 .348-.112.695-.112s.347.135.695.135c.347 0 .347-.012.694-.012.242 0 .471-.052.636-.188.17-.141.412-.341.453-.565.036-.206-.04-.518-.165-.73l.006.006zm-8.883-11.615s-.088.095-.094.106c-.053-.011.053-.223 0-.235.018.006.077.041.094.035-.03-.03-.112.059-.135.024.017-.012.035.035 0 .023-.012.006-.006 0-.006.012-.012 0-.012-.1-.012-.112.012-.03.094-.03.083-.059-.006-.023-.195.089-.206.065-.012-.023.135-.053.153-.07-.018-.012-.042 0-.042-.012a.565.565 0 01.012-.2c-.082.035-.035 0-.094.029.03-.082-.077-.13-.094-.206 0-.006 0 0 .006-.012.017-.047-.118-.006-.118-.047 0 0 .106.047.112.041.023-.064-.047-.247-.1-.265.017 0 0 .06-.012.047-.018 0-.147.042-.147.012.012 0 .112.012.112 0-.024-.006.03-.017.017-.041-.006-.065-.094-.082-.147-.124.006-.017.059-.035.077-.04-.036-.042-.136-.06-.165-.1 0-.024-.059-.107-.041-.125-.006-.005.194.106.188.106.012-.058-.212-.047-.23-.088.018-.023.053 0 .077-.023.012-.042-.018 0-.053.011-.082 0 .094-.13.018-.153-.03.006-.083.124-.112.13-.012-.047.053-.03.047-.077.059-.059-.059-.006 0-.076.018-.006-.041 0-.024-.012.024-.047-.047-.012 0-.041 0-.024.094.053.06.035.035-.018.035.041.07 0 0-.012-.065-.041-.077-.041.012-.006 0-.018 0-.012.03-.023-.035.16-.04.147-.013.006.034-.011.017 0-.06.006-.1-.035-.147-.035.006-.006-.006-.135 0-.141-.006-.018-.148.011-.171 0 .017-.024.188-.03.153-.053-.012 0-.041.065-.053.065-.035-.018-.065 0-.041-.048-.047.012.094-.1.023-.064.036-.036.03-.053.047-.089-.029.03.006.06-.035.089.047-.036.13-.089.165-.142-.041.006-.159.112-.206.148a.828.828 0 00-.036-.165c0 .006.012.04.018.04-.053-.01-.135-.158-.212-.134.077-.042.024-.148.106-.165-.006-.012.036.147.018.153.053-.036-.141-.047-.118-.083-.035.012.053-.053.024-.053.011 0-.036.106-.018.095-.035 0 .177-.165.2-.195-.035-.011-.153.041-.194.047 0-.03 0 .112.012.095-.036-.006-.012-.124-.047-.124 0-.012-.012.018 0 0 0-.006-.136-.03-.136-.041 0-.018.065.106.053.094-.017-.024.06-.07.047-.094.018-.065.094-.136.153-.171.012 0 .018-.053.036-.053.017-.012.106.094.1.088.012-.011-.012-.03.006-.017.023.047-.018 0-.012.04.03.024.017.024.047.042.012.012.023.077.012.088-.006.012.035.036.04.036-.029.017-.052.094-.046.112.017 0 .017-.083.03-.083.093.006-.018 0 .035.018.029 0 .088-.024.106 0 .017.017.011.047.011.07.036 0-.076-.011-.07.018-.012.141.141.183.159.306-.012.118.182.041.147.153v.03c.03.03-.06.117-.065.159.041-.024.07-.048.094-.03-.006 0 .124.047.112.047-.006.012-.1.018-.082.024.082-.018-.018-.041.023-.012-.03.024.07.041.03.088.011-.005.147-.064.17-.07-.011.023-.03.165 0 .165-.005-.012-.17-.042-.17-.053 0 0 .117-.083.111-.089 0 0-.076.089-.076.083a.593.593 0 01-.041-.136c.023-.03.1-.023.141-.053.006.018.065.171.053.183 0-.006.018-.024.012-.024 0 .006-.106-.035-.112-.035.006.006.094-.012.1 0l.077-.035c.005.005-.13.1-.13.106.006 0 .035-.024.03-.018-.006.006-.089-.006-.089 0-.006.035.218.165.253.17-.059.006-.088-.017-.123 0 0-.005-.06-.07-.077-.094-.006 0 .094.03.083.042-.024.04-.089-.03-.089.023-.006 0 .16.047.147.059 0 .018-.147-.082-.13-.088-.029.023.042.17.066.176.035 0 .13-.017.135.006-.006.012-.006.024-.018.03-.006.03-.14-.089-.14-.065-.007 0 .105-.006.105 0 .03.023.07-.041.13-.047.017.012-.236.065-.242.088.036.012.295.106.242.136.07-.048-.065.035-.053.053-.006-.006.07-.065.064-.065.071.017.018.112.048.159-.012.03-.136-.06-.154-.03.018.024.16-.023.171.006-.012.018.112.053.112.077.035.04-.141.011-.13.053-.005.017-.017-.006-.023.011.024.006.13.071.153.071-.07.082.106.118.03.23 0 .04.07-.1.105-.1.012.023.065.147.018.182 0 0 .018.035.012.041-.053.03-.018-.053-.018-.03.006.007-.035 0-.03-.017-.005.077.042.153 0 .224.054.041.213.065.236.13 0 0-.094-.03-.094-.024 0 .023.218.13.165.159.035.041.141.053.141.117-.006.012-.153-.117-.165-.111a.516.516 0 00.024.147c0 .006.03-.053.023-.047-.011.023.1.082.106.094-.005.006-.153-.112-.153-.106-.017.065.289.124.306.183a.837.837 0 00-.164.076c.076-.006.217.082.247.094-.006.018-.16-.1-.147-.088.064.023-.053.2.011.224.024 0-.076-.218-.058-.23 0 .018.117.076.14.059-.005.03.06.088.072.123-.018.012-.148-.023-.165 0-.018.036-.083 0-.094.036l.04.018c-.005 0-.005-.006 0 0 .083-.042.03.147.107.082.035.059-.03.047.03.088-.066.059.176.224.076.271.011.03-.06-.13 0-.13 0 0 0-.07.006-.07.017.006.035.17.04.182-.029-.006-.064-.04-.111-.04.023.023.07.04.094.046-.018.03-.194-.017-.2.018.047.006.13.2.2.2.006 0 .047-.212.053-.206.018.047-.035.077-.012.112 0 .012.06.03.053.035 0 .018.024-.03-.017 0-.012 0 .017-.112 0-.112-.042.018.035.142.017.16.018.017-.13-.036-.112-.036-.03.023.053.047.018.053.024.023.077.123.13.123 0 .006.094-.04.088-.035.006.035.082.124.065.153l-.077-.064c-.041.047.07.047-.012.094-.011.017-.141-.118-.17-.077-.012.053.188.041.176.088-.006 0 .03-.005.024-.005.011.023.035.076.053.1-.053.064-.065-.018-.142.053.024-.024.154.07.165.07 0 0-.059.03-.065.03.006.012.012-.018.03-.018-.024.018.206-.053.194-.03.018-.011-.082.118-.076.13-.036-.018-.06-.012-.089-.012.006.041.248.065.248.112-.006.024-.206.012-.183.024.059-.018.077-.1.094-.112-.011.012.1.2.07.206.019.012-.176-.112-.14-.118.011-.006-.053.065-.053.077 0 .059.159-.024.141.03-.035.029-.082-.054-.118-.03-.023.035.218.223.177.259.023-.018-.083-.23-.047-.224 0-.012 0 .118-.006.1.03 0-.006.03 0 0 .012-.03 0 .012 0-.023.041.011.047-.042.076-.06.036.018-.017.095.024.113-.006.017-.159.1-.17.117.035.018.093-.03.117-.023-.006 0 0 .023-.012.023.012.012-.012.012.012 0 .006-.006.012 0 .018 0 0 .012.164-.023.153.012.023.006-.095.035-.095.024 0 .005-.04.017-.064.017.011.041.217.03.194.083h-.041c-.006.011-.041 0-.035 0-.018-.03-.03-.006-.036-.053-.041.023-.118.159-.13.176.036.012.23-.218.254-.218a1.837 1.837 0 00-.024.26c.018-.006-.006-.065.012-.071 0 .012.012-.118.023-.112-.011-.006-.047.041-.058.053.006.024-.03.053.017.07-.017-.005.065-.046.06-.017.029.023-.09.07-.107.1.018.03-.112-.006-.112.053.006 0 .012.006.018-.006 0 .041.053-.017.041.03 0-.012.218.076.236.088-.03.006.023-.077.011-.053 0 .012-.017.03-.017.041-.018.018-.059-.065-.07-.07a.5.5 0 01-.095.1c-.018-.012.07-.089.07-.06.03.024-.117.089-.105.077 0 .047.282.018.27.06 0 .005-.247.146-.247.176.047 0 .153-.124.194-.124-.082.077.012.018-.023.1-.018.018-.07-.094-.094-.082.006.012.041.082.053.1.017-.006.07.088.088.082.012.006.03-.017-.012-.012.036.012.077.13.065.148-.006 0-.194-.171-.218-.177-.012.041.124.106.142.124-.018.005-.083.035-.083.047.035.011-.047.082-.024.106 0 0 .23-.089.23-.083.018.024-.065.089-.065.118 0 .024.006-.065.036-.047l-.148.03c.006 0 .154.152.16.152.035-.029-.065 0-.042 0-.011.006.018.036.024.047.041-.017.135-.117.159-.117-.012.023-.224.112-.206.141a.918.918 0 00.165-.035c-.018.012-.195-.024-.195-.006-.011 0 .106.112.1.112-.023.006.047.04.018.053 0 0-.07-.165-.065-.165-.006 0-.047-.041-.053-.041-.006.005.065.182.07.188-.017 0-.11-.012-.129 0 .042.03.024 0 .065-.006-.017.047.059-.059.07-.035-.011.017.154.165.142.176.006.012-.059-.094-.041-.094.012 0-.065-.023-.07-.012-.018-.006-.024.006-.054.018.018.018.1.159.153.141 0 0 .012-.064.006-.064-.006.035.077.123.06.13.01.01-.183.1-.166.117.006.006.089.03.106.023.018.012-.07.03 0 .018-.023.035.053-.023.012-.018-.024.036-.018-.082-.088-.04.023.011.13.1.135.093-.018.024-.012.012-.035.047.035-.005.035-.076.07-.07-.011.006-.047.017-.047.023.024 0-.023-.047-.04-.029-.036.047-.124.041-.142.094.059.012.223.012.265.041-.036.036-.1-.035-.112.006h.13c.011.012-.042.1-.024.106-.006 0 .082.03.076.035-.023.03.03.065.012.1-.018-.005-.076-.247-.088-.235.03.012 0 .112 0 .141 0 .03.047.083.023.1.006.03.053-.029-.011.024-.012 0-.024-.03-.036-.03-.023-.011-.012-.047-.035-.058.018 0-.106-.095-.088-.095.011-.029.165.1.153.089a1.084 1.084 0 00-.165.082c-.024-.011.035-.2.047-.23.03-.011.082.065.1.048-.041-.03-.082-.077-.13-.106-.082-.018-.029.059-.094.047-.017.006-.1-.106-.13-.124.036-.012.107.047.119.041-.06 0 .023-.164-.018-.17.012 0-.065.035-.059.017l.088.13c.036-.012-.011-.265.053-.253-.076-.012-.023.006-.135.017-.006 0 .012-.07.006-.07s-.077.123-.077.118c.006-.012.06 0 .06-.012 0-.018 0-.03.035-.07.011.005.105.164.117.17.03-.03-.13-.16-.141-.183.03-.011.124.112.159.095 0-.018-.236-.171-.247-.183 0-.006.176.1.182.094.024-.053-.088.018-.041-.03-.012.007-.112-.052-.118-.046.012-.018.112-.16.142-.142-.006-.011-.042.13-.065.13-.018.024-.012-.035-.041-.018-.03-.012-.136.065-.148.041.006 0 .047-.123.047-.117.071-.094.065.041.148-.07-.024.017-.03-.183-.06-.183 0-.024-.17 0-.158-.03.006-.006.088.047.082.035-.041-.04-.065-.076-.065-.111-.011 0 0-.06.012-.053-.047-.012-.012-.165-.088-.147 0 0 .182.14.182.135-.005-.053-.282-.088-.306-.141.036-.03-.017-.036.03-.065.006-.041.1.018.1-.035.006.005-.1-.03-.094-.024.011-.053-.06.012-.065-.024.023-.005.065.13.07.118-.017-.006.024-.023 0-.023h.042c-.047 0-.047-.089-.089-.089.012-.006.06-.076.083-.082 0 0 .123 0 .123-.006 0-.018-.276-.053-.294-.059.024-.023.053-.059.065-.053 0-.035.1.16.065.142-.018.005-.03-.148-.048-.154-.023 0-.07.042-.064.018 0-.018.059.035.07.03.006-.024-.064.053-.076.029-.012 0 .023-.17.012-.17-.018 0-.095.052-.083.035.053-.018.012-.042.083-.047.005-.065-.089-.018-.112-.06.006.006.17.012.182.012 0-.035-.106-.188-.141-.194.018 0-.041.112-.023.106-.012-.035.111-.006.082-.03.03 0-.07-.04-.065-.058-.017.006-.047.1-.059.094.118-.012.077.03.153.012-.023 0-.2-.242-.235-.218 0 0 .112.112.106.118a.533.533 0 01-.206-.047c.006.005.141.023.147.023-.047-.041-.077-.076-.13-.123.012 0 .095-.03.1-.048-.005-.058-.029-.064-.076-.117.059-.03-.135.017-.07-.006-.042-.053-.024-.088-.083-.136.088-.058-.112-.082-.059-.153-.03.018.024.024.012 0 .03-.006.041.053.059.053-.036-.006 0-.112.07-.135a1.46 1.46 0 01-.188.035c.012-.035-.03-.006-.024-.047-.029.024.03-.177.012-.182 0 .005-.012.017 0 .017.03-.023.065.053.077.03.012-.018-.053-.095-.053-.112-.03.012-.177-.106-.153-.141.006.011.011.23.023.23-.076-.06-.082-.201-.176-.254-.012-.018.2-.024.217-.041.036-.077-.094-.059-.105-.1-.024-.13-.124-.2-.207-.295a.78.78 0 01.165-.058c.006-.012-.094.011-.112.011-.011 0-.111-.023-.106-.04.042-.077 0-.095.083-.183-.059-.03.035-.195-.047-.224.011-.03-.036.106-.041.076-.03-.023-.036 0-.071-.011-.077-.03-.053-.124-.124-.165.018-.006.095-.041.083-.047-.012 0-.047.053-.06.065-.052-.042-.04-.171-.064-.212.03.005-.018-.042.012-.06-.024 0 .035.024 0 .007-.024-.036-.07-.03-.07-.065-.036 0 .04-.153 0-.135-.018-.042-.207.07-.23.023l.123-.023c-.041 0-.03-.042-.047-.042.012-.006.183-.07.194-.076 0-.012-.13.035-.13.023.025 0 .019-.012.013-.03-.006 0 .04.03.04.036 0 0 .048-.065.048-.07-.012-.012-.194.088-.2.111-.024-.053-.136-.17-.153-.217 0-.018.147.029.153.011-.018-.017.012-.04.03-.076l.052.023zM36.39 27.59s-.036-.082-.059-.076c0 .011.006.123.012.135.017 0 .03.088.047.082.006.012-.13-.153-.17-.159.029.018.2.212.182.224h-.077c-.006 0-.035-.2-.041-.206-.024.018.13.112.141.13a1.52 1.52 0 00-.218.094c.036.012.206-.124.224-.106 0 0-.194.035-.194.041.012.03-.083.047-.083.077 0 .006.089.064.095.076 0 0-.036-.182-.036-.188.006 0 .053.241.053.241.041.006-.07-.153-.053-.135-.006.012.047.082.06.094.034.006-.101 0-.083 0-.018.012-.018-.006-.018.012 0 .006.13.159.147.159-.023 0-.041-.006-.053 0 0-.006.053-.23.053-.236-.023-.006-.082.194-.112.189v-.112a.245.245 0 00-.017.094c.03.006-.018-.106 0-.1-.03.017.094 0 .094.017-.024 0-.012.148-.035.142.005.012-.106.023-.089.035 0 .006.13-.112.118-.112-.012-.012-.012.083-.041.07.006.018-.024-.005.03.013 0 0-.054-.142-.06-.142-.023.012-.135.148-.153.142.012.023.1.094.148.111.011.018-.042-.017.017.024-.035 0-.088.141-.124.124-.035-.006.048.006-.023-.024.006.006.041-.082.047-.082-.024 0 .059.064.03.059.023.023-.165.023-.142.047-.017-.006.012.058 0 .064.018.018.17-.14.147-.147-.059-.017-.064.041-.123.047.035.047.023-.111.023-.076-.047-.018.06.106.018.112.012-.006-.006.035-.012.023 0 .012.106.012.106.024 0 .006-.088-.094-.094-.094-.03-.012.03.017 0 .011-.006-.011-.212.13-.224.124.012.023.183-.012.16-.012-.03 0-.113.035-.13.012-.006-.024.182-.194.206-.188.017.017-.053.147-.03.153 0-.036.036-.153.024-.189-.041-.059-.006 0-.041-.035-.006-.006.011.082.005.076.012 0 .03-.159.036-.153-.041-.035-.136.16-.165.136a.38.38 0 00.088.03c.036.017.148-.2.2-.154-.053-.047.012-.07-.082-.13 0 0-.07.13-.077.13l.024.077c.012 0-.023-.095-.018-.1.012-.006 0 .035.053.04l.024.013c.041 0-.024-.024-.024-.036.03.012.006.13.047.136.006-.006-.011-.06-.017-.065.012 0 .012-.082.023-.082.047-.012-.07-.024 0-.024.018-.006 0-.082-.011-.094.023 0-.042.13-.024.153 0-.012.088-.26.07-.265-.029-.006.042.047.007.041-.012-.012-.23.053-.224.035 0-.011.135.065.135.071.112-.018-.059-.1.065-.118h-.112a.304.304 0 01.089-.04c.011 0-.065-.03-.065-.036-.018-.035 0-.118.017-.141.018-.006.077.011.083.017-.035-.017.041.053-.041.047.005-.03.082 0 .07-.035.047-.012-.13-.13-.076-.141.017-.024-.024-.012 0-.047.006.005-.036-.042-.03-.048.03-.029.094.183.1.165.024-.005-.059-.088-.04-.094-.018-.006-.1-.059-.083-.07.017-.018.212.07.212.047-.047-.006-.118-.106-.171-.106.012-.006.076.13.094.123l-.124-.117c0-.006.118.076.106.07.03-.012.048-.012.053-.012.012-.017-.105-.153-.135-.164-.012 0-.012.223-.024.217-.017 0 .053-.076.06-.088.005-.012-.018.053 0 .053.011-.018-.071-.035-.071-.053-.018 0 0-.135-.018-.135-.012 0-.053.035-.041.03.053-.013.094.134.159.129.017-.036-.17-.13-.183-.16 0 .007.089-.017.094-.017.006-.018-.04 0-.07 0 .017 0 0-.041.006-.047-.006-.018-.06.006-.083 0 .024-.006.147.07.147.065.048-.024-.029-.077.042-.1-.024.005-.07-.018-.112.005-.018.006-.059-.047-.059-.052a.245.245 0 00.059-.024c-.047-.012-.077.012-.112-.012.012 0-.023-.017-.018-.03-.005-.04-.04-.064-.082-.088.059-.029-.047-.011.018-.035-.03-.03 0 0-.053-.023.082-.06-.012 0 .04-.06-.029.018-.123-.076-.135-.082.03-.012.083.165.1.153-.029.006 0-.094.03-.123-.018 0-.094.041-.124.053.012-.03.047-.224.053-.253-.035.029-.03 0-.04 0 .005 0 .034.153.04.147.03-.024-.182-.1-.17-.118.006-.012.135.024.135.018-.024.017-.118-.036-.094-.065.006.006.07.059.076.059-.064-.012-.117-.006-.194-.006-.018-.012-.012-.17 0-.188.024-.065.047.1.035.07a.233.233 0 00-.147-.159s.012.06 0 .06c0-.007.06-.03.053-.024-.012.011.018-.024.018-.036.023-.07-.218-.041-.16-.141-.052.006 0-.17-.07-.153.006-.024.047-.018.047-.03-.03-.005-.03.183-.053.189-.076.035-.04-.189-.1-.189.012-.011.012-.117 0-.117-.011.006 0 .012-.011.023-.053-.006-.106.06-.136.047.03-.011.118-.03.141-.053-.023.012-.094.112-.123.112-.018-.012.023-.253.012-.276-.03.017-.024.217-.053.253-.024-.018-.012-.148-.036-.171 0-.006-.035.035-.041.035-.035.024.065-.082.047-.082.012-.012-.023-.012-.012-.024-.005-.006-.005-.04-.017-.047.012-.006.065.018.065 0-.006.006-.1.036-.107.041 0-.005.054-.017.048-.023-.012 0-.06.006-.065.03-.024-.024.059.023.041-.007 0-.017-.159-.029-.153-.047-.018-.005.059-.005.07-.035-.011.006-.011.082-.017.088-.006.006.023-.047.023-.053.006-.017-.094-.03-.094-.035.006 0 .012.077.024.07-.03 0-.024-.064-.053-.076.012-.017.041-.041.018-.035-.012.006-.042-.047-.042-.041-.005 0 .13.082.136.076.006-.023-.194-.012-.206-.035-.012-.024-.036.094-.053.076-.018-.017.094-.13.1-.153-.018 0 .059.036.053.024-.006-.041-.041.1-.03.047-.064.065.036-.253-.011-.212.017-.07-.171.024-.195-.03 0-.005-.07-.058-.064-.064.011-.041.058.1.053.065 0-.012.094.047.1.035.011-.053-.153-.206-.206-.206.011 0-.018.123-.018.118-.006 0-.012-.03-.018-.03.006-.006.06.024.047.024-.023.006 0-.047-.023-.065 0-.053-.124.012-.165-.012a.431.431 0 01.07-.076c-.029-.024.107-.036.083-.065 0-.024-.2-.07-.188-.094-.012 0-.018.053.006.017.005-.011-.018-.011 0-.017.017-.047-.024.03-.036 0 .018-.024.118.082.141.064.018-.035-.094-.07-.123-.058-.077 0 .088-.13.023-.142-.029.006 0 .024-.023.03 0-.036-.112 0-.112-.041.07-.048.035.04.1-.006.018 0 .024.135.035.13.036-.042 0-.048.053-.072.006-.023-.053-.053-.076-.064.035-.018-.012 0 .035-.024.006 0 .083.136.088.136.03-.018-.053-.236-.058-.248-.018.006-.065.065-.089.077-.059 0-.017-.041-.064-.041.011-.006.094.059.1.053 0-.012-.218-.053-.236-.065.024-.018.17-.024.147-.041-.017 0-.058-.018-.076-.018.012 0-.018.088-.012.082-.03-.017-.088 0-.059-.023-.041-.006.142-.041.07-.035.048-.012.066-.047.1-.065a.23.23 0 01-.087.012c.04-.006-.03-.042.017-.071-.035-.006.036-.094-.017-.094.011-.006-.053.012-.047 0 0 0 .117.03.123.03-.041-.03-.065-.048-.135-.071.082.011.017.064.094.094-.006-.012 0-.206-.024-.212.065.012.03.041.077.041-.035-.018.023-.1.006-.118.006.006-.018.065 0 .071-.024-.024-.083-.13-.053-.135-.006-.006.059.117.053.117-.006-.006.012-.04.006-.047-.012-.017-.1 0-.094-.017.005-.018.1.111.117.105-.012-.011-.141-.017-.106-.017.006 0 0-.035 0-.03.012.012 0-.04 0-.058 0-.024-.07-.083-.053-.106.06-.012.23.105.295.14.005 0 .053-.052.059-.046.023.006-.018.218-.012.218.011 0 .047-.106.053-.095-.012.024 0-.029-.024-.011 0 .023.024.005.03.03 0 .01-.077 0-.089 0-.017 0 .03-.083.03-.077-.03-.012-.089.223-.1.235.017.006.076-.124.094-.118.065.041-.077.03-.041.06.023.01-.071.04-.065.064 0 .023 0-.147-.018-.136.024.012.165.154.147.171-.076.065.053.1.024.17.006 0-.047-.034-.041-.04-.1.088.2.1.13.182 0 0-.024-.07-.024-.065.017.018-.06.012-.077.042.047-.024-.006.13.012.135-.006 0 0-.2-.006-.2-.012.012-.012-.03 0-.024.07-.023.088.148.118.153-.024.024-.07.012-.112.065.012-.006.17-.059.194-.07-.018.017-.106.082-.088.07 0-.006.053-.035.047-.041l-.03.041c-.005-.006-.04-.03-.035-.035.018-.024.088.076.118.041.006.012-.047-.112-.059-.1l.035.035c-.006.006-.011.183-.017.183.006 0 .076-.218.082-.212.006.006-.047.053-.047.065.006-.006.106.017.106.03l-.135-.013c-.006 0 .094.036.088.042-.006.023-.053-.042-.024-.053-.047.023-.059.011-.088.035 0-.006.006.112 0 .1-.012 0 .141.012.13.023-.018.036-.06-.076-.065-.04 0 .005-.083-.024-.1-.012 0 .011.1.047.123.035-.029.023-.035.094-.011.088.023-.012.017-.07.023-.059-.006.012.024.035.018.047 0 .018.053-.03.059-.023-.006.006-.071-.047-.071-.041.024 0 .024.153.07.123.024 0-.105-.088-.105-.065.03-.006.223.03.188.065.053-.059-.03-.041-.018-.03-.005 0 .012.054.006.06a.142.142 0 01.142.03c0 .028-.23-.054-.248-.03a.744.744 0 00.171.023c0 .012-.088.035-.082.047.03.012.188-.017.2.012-.006.024-.035.006-.041.03.023-.012.088.023.111.011-.052.088.048 0 0 .106 0 .041-.047-.106-.011-.13a.558.558 0 01.059.1c0 .007.005.018 0 .036-.047.041.04-.018.04-.006.013 0 0 .012.007 0 0 .06-.06.106-.089.17.047.013.23-.029.26.007 0 0 .082 0 .082.006 0 .017-.1.023-.147.064.029.012.276.018.282.06 0 .011-.106-.018-.118-.007 0 .018.018-.011.03-.011 0 .011-.006.017-.012.023-.012.024.053.024.065.024 0 .012-.065-.024-.07-.012-.013.053.046.035.064.065-.012 0 .053.065.041.07.065-.04-.012-.07.018-.07 0 .017.012.059.03.065.058-.012-.077-.012-.018-.024.017-.012.14.094.153.07 0 .012-.071-.076-.041-.105-.006.023.058.082.07.1-.012.017-.235-.041-.247-.018-.012.03.094.065.082.1 0 .012-.076-.1-.059-.088.065-.065.089.088.148.017.035.024-.018.124.04.124-.052.065.16.088.071.17.018.018.006.007.053-.011a.277.277 0 00-.04-.07c.017-.007 0-.018.005 0-.03.005.047.088.012.111.017.006.082-.012.1-.012-.006.024.006.042 0 .065.012 0-.218-.141-.165-.165 0 0 .041.189.047.195.018.023.2-.106.224-.089 0 .012-.112.018-.118.024 0 .018.112.106.077.147-.012 0-.036-.03-.047-.024-.03.03.07-.088.059-.07 0 .006-.118 0-.112 0 .023.006.023-.041.076-.059-.006.006.141.1.141.112.006.017.006.035-.011.065l-.089-.071c-.035.047.153.088.077.153-.012.018.041-.023.012.012-.006.041-.06-.088-.065-.053-.006 0 .018.018.012.018.011.011.023.064.04.07l.148.059c-.047.059.041.053-.024.13.018-.024-.076-.218-.064-.224 0 0 .035.065.04.07.013 0-.076.006-.064 0-.017.018.094.036.094.042.012 0 .036.123.042.13-.03 0-.13-.136-.16-.125.007.024.166.024.166.053-.012.018-.077.083-.054.089.053-.024.065 0 .083-.012-.012.012.082.041.047.053.018.006-.13-.082-.1-.094.006 0-.059.076-.053.088 0 .035.124-.106.094-.065-.035.024.077.195.041.218-.017.024-.047-.076-.053-.059.012-.006 0-.076.024-.076 0-.012.006.065 0 .053.03 0 .082.059.106.041.017-.018.053-.047.053-.07.041 0-.112-.012-.083-.03.036.006-.035.065 0 .07-.005.012-.1.053-.111.071.029.006.07-.035.088-.017h.012c.011.011-.053.011-.03 0 0 0 .1.105.106.1 0 .005.012-.077 0-.053.012 0-.023.058-.012.053-.005.005 0-.047-.011-.047.005.029.064-.03.035.011 0 0-.077-.03-.082-.03 0 .013.064.06.07.066-.012-.024-.082.088-.076.053-.041.017.117-.13.1-.112.035 0-.024-.03 0-.03-.012 0-.012-.035-.012-.023.012 0 .006.135.023.141 0 .018-.07.088-.035.106-.012-.006.106-.1.089-.082.029.017-.248.035-.271.053.017.017.294.04.276.076 0 .006.006-.035.018-.041-.012.023 0 .094-.023.123.005-.011.047-.023.064-.011-.023 0-.117-.006-.13.011-.005 0 .03-.147.024-.147a1.125 1.125 0 01-.082.171c-.018-.006-.07-.041-.077-.024.018.012.047-.011.065-.017-.018.03.041-.047.018-.018 0 .006.106-.017.1 0 .035.006-.089.053-.053.053-.083.041.1.1.041.147l.012-.04zm-2.94-11.798s.06.024.071.024a.39.39 0 00-.112-.053c.006.011.041.029.047.035l-.006-.006zm-.006-.018s.036.077.042.083c.005-.012 0-.065.011-.065-.005-.006-.04-.024-.053-.018zm.148-.217s-.024-.071-.024-.065c-.006 0-.012.047-.018.047-.011.024.118.165.142.165-.006-.012-.1-.136-.1-.147zm2.46 5.627s-.076-.035-.088-.03c.006.007.1.066.118.06 0-.006-.024-.03-.03-.03zm-1.619 3.827l-.035-.065v.041c-.018.018.147.124.165.112 0-.006-.124-.082-.13-.088zm-.989-9.237s.036.077.042.083c.005-.012 0-.065.011-.065-.005-.006-.04-.024-.053-.018zm.99 9.237l-.036-.065v.041c-.018.018.147.124.165.112 0-.006-.124-.082-.13-.088z" fill="#487B5A"/><path d="M21.972 27.966s.006-.006.012 0h-.012zm.196.313s-.042-.012-.055-.024c0 0-.005-.006-.005-.012h.018c.048.018.018.018.042.036zm.069-.254s.018.006.03.006c-.006 0-.006.006-.006.012-.012-.006-.024-.012-.024-.018zm.889-2.037v.011s0-.005-.006-.011h.006zm.054-.324l-.019-.023c.036.012.072.023.078.041a.175.175 0 01-.048-.024l-.006.006h-.006z" fill="#1E462C"/><path d="M22.155 28.69s-.112-.065-.095-.059c.006 0-.017.065-.011.065.059.012.117-.024.106 0v-.006zm-.236-.795s.118.088.118.094c.023 0 .03-.053.006-.064v.088c-.006 0-.077-.024-.077-.018 0 .006.06 0 .06.006s-.036.047-.036.041c-.053-.059-.065-.147-.065-.147h-.006zm10.661.242c-.176-.307-.188-.295-.365-.6-.177-.307-.165-.313-.341-.613-.177-.3-.277-.247-.454-.553-.176-.307-.241-.265-.418-.572-.176-.306.036-.423-.14-.73-.177-.306-.19-.294-.366-.6s-.206-.288-.377-.589c-.17-.3-.288-.241-.465-.547-.176-.306-.058-.37-.23-.677-.17-.306-.3-.235-.476-.536-.177-.3-.136-.33-.312-.636-.177-.306-.23-.276-.4-.582-.171-.306-.165-.312-.342-.618-.176-.306-.03-.389-.206-.69-.176-.3-.147-.323-.324-.629-.176-.306-.323-.224-.5-.53-.177-.306-.041-.383-.218-.689-.176-.306-.117-.465-.47-.476-.354-.012-.2.206-.372.5-.17.294-.053.365-.223.66-.171.294-.124.317-.295.617-.17.3-.176.295-.347.589-.17.294-.306.218-.477.512-.17.294-.064.353-.235.648-.171.294-.242.253-.412.547-.171.294-.189.283-.36.577l-.34.589c-.172.294-.219.27-.39.565-.17.294 0 .394-.17.689-.17.294-.377.176-.548.476-.17.3.036.418-.135.713-.17.294-.235.259-.406.553-.17.294-.247.253-.418.548-.17.294-.218.27-.389.565-.17.294-.023.382-.194.677-.17.294-.177.294-.347.594-.17.3-.23.265-.4.565-.124.212-.277.436-.242.642.041.218.294.353.465.495.165.135.33.37.571.37.342 0 .342.048.689.048.347 0 .341-.077.689-.077.347 0 .341.082.688.082.348 0 .342-.23.683-.23.342 0 .342.06.683.06h.689c.347 0 .341.17.689.17.347 0 .341-.164.688-.164.348 0 .348.14.69.14.34 0 .34-.252.688-.252.347 0 .347.188.689.188h.688c.342 0 .342-.112.69-.112.347 0 .347-.088.688-.088.341 0 .347.1.689.1.341 0 .347.059.688.059.289 0 .46-.224.654-.383.206-.17.324-.335.37-.594.048-.26.172-.542.03-.79l.006.019zm-9.077-2.732s-.095.094-.089.094c-.006 0-.047.07-.053.07.042.03.036-.058.065-.034-.006-.006-.035-.042-.041-.036-.012 0-.012.053-.018.053-.04-.023.018-.041-.03-.082.054.047-.023 0 .072.059 0 0-.024.123-.03.123-.012.006 0-.135-.047-.147-.006-.006.012.018 0 .006-.018-.006-.135.065-.13.088-.005 0 .065-.023.053-.023 0 .006.024-.018.03 0-.012 0-.03.123-.041.117-.024 0-.065.036-.047.048 0 0 .04-.047.035-.047.012.005.065-.177.076-.171-.017-.006-.07.147-.088.13 0 .005.03-.018.047 0 .024.005.06-.042.1-.03.012.012-.03.07-.03.082-.005 0-.052.089-.052.083-.1-.012.076-.018-.047-.036.03.006.017.03.03.042-.013.005-.024.07-.042.07-.012 0-.006-.07-.006-.059.012.036.018-.07 0-.058-.012 0-.018.111-.023.105 0 .012-.047-.047.017-.017l-.059.03c-.017.017.095.211.095.24-.042-.017-.03-.105-.089-.123-.023.006.006.024-.012.035-.005-.006-.017 0-.017 0-.036.006.059.053.047.065-.006-.006-.03-.065-.035-.065 0 .006-.036.024-.03.036-.006 0-.035-.03-.047-.03.012.018.012.07.041.088-.012 0 0-.094-.012-.1-.005 0 .065.024.065.03a.375.375 0 01-.065-.077c-.035-.006-.029.148-.035.142-.017.011.053-.112.077-.095.011 0-.1.171-.095.177a.333.333 0 00.083-.065c-.012 0-.065.112-.077.106-.017 0 .083-.117.077-.112.012.006-.03.065-.018.071.012.006.053.053.041.053-.047-.023-.011-.1-.064-.13-.036.012.053.107.047.13a.758.758 0 00-.053-.094c-.018.006.076.059.1.082-.018-.006-.03.083-.041.083 0 .011.082-.042.088-.024-.006-.006-.024-.112-.03-.112.012.006-.047.047-.04.053-.107-.059-.142.153-.224.106.023.012.094-.023.14-.012 0 0 .107-.064.107-.058.023.035-.018.088-.006.123-.006-.006-.065.124-.076.124-.03.017-.03-.035-.018 0-.065-.024.006.03-.053 0a.42.42 0 00.035.135c-.106-.03.006-.006-.07-.023.029.017.047-.077.047-.065-.024-.018.023 0 .006-.012.023.024-.042-.023-.1-.053.058.03-.048.147 0 .17-.03 0 .023.018 0 .024.035.012 0-.017 0-.011 0 0-.012.176-.018.176-.036-.012.047.03.023.024-.017 0 .036-.253.03-.253.03.011-.018.206-.06.2 0-.006-.052-.047-.058-.053.03.059.024.047.065.106 0 .023-.053.094-.077.088-.07-.006.047-.118.036-.106-.048.041-.083.118-.071.177.006.011-.041.053-.018.064-.011 0-.03-.023 0 0 .012.006.065.089.053.089-.076-.012.018.023-.094 0 .03.035-.147.012-.1.059-.024 0-.03-.036-.041-.03.011.024.206-.082.218-.064.035.047-.207.105-.207.135 0 .006-.011.07-.005.076-.018-.011-.018-.064-.012-.058.012.005-.03.035-.012.04.012.036-.012-.111-.012-.088-.017-.011.065.118.047.118.012.006 0 0 0 .018-.006.018-.1.065-.117.07.03.018.117-.035.159-.017-.006.017.023.088.011.112 0 0-.017-.06-.017-.053a.449.449 0 00-.06-.071c-.005-.006.036.1.024.1 0 .006-.1 0-.1.012-.011-.006.03-.012.012-.012 0 0-.012-.018-.012-.012 0 0-.094.006-.094.012a.58.58 0 00.177.024c-.012.023-.018.135-.036.153-.017 0-.011.035-.023.035 0 .018-.006 0-.035 0 .011 0 .1-.2.111-.2 0 0-.082.124-.082.13-.006 0 .012-.06.006-.06-.006-.005.082-.011.076-.017.012.023-.206.076-.206.1-.023-.006.118-.094.13-.077.012.006.018.024.023.024 0 0-.07.188-.082.188-.03 0 .07-.053.047-.035-.017.018-.012-.088-.012-.059 0 .024-.035-.147-.058-.153 0 .012.07.224.07.23-.035.017-.106-.036-.153-.036.077.036-.035-.017.018.018-.07 0-.06-.023-.089 0 0 0 .012.224.006.224-.04-.006.089-.142.065-.136-.006 0 0-.017-.006-.017-.047 0 .053.047.077.076 0 0-.171.065-.171.07-.006-.005.012.054.006.054.012.012.106-.053.106-.035-.036.011.03.047.035.082-.012 0-.07.047-.088.035 0 .024-.059-.023-.059 0-.012.006-.006-.053-.018-.053 0 .006.124.065.13.07l-.13-.005c-.006 0 0-.053-.011-.065-.047.006.058 0 .04.018-.029-.006-.04.041-.064.03-.035 0 .018.04.047.058.053.047-.1-.035-.065.012.024.012.077.012.1.03-.017.011-.029-.012-.053 0-.082-.024.06-.06-.017-.083-.012-.006-.012.076-.018.07-.047-.005-.035.1-.088.083-.018.006.017-.053.023-.035 0 0-.047.065-.047.07.047.036.065-.035.106-.011-.012-.006-.03-.018-.041-.018 0 .006.065.07.07.088-.029-.006.024-.135.036-.117.006.005-.17.17-.159.176.018.024.118-.059.082-.059.03.018-.017-.041 0-.03-.011-.005-.07.036-.094.03.024.012.047-.041.065-.023-.03-.018-.012.064-.059.058.03.018-.03.071.03.095-.012 0 0-.077 0-.07-.006 0 .029-.036.023-.042.03.03-.053.188.006.23-.07-.042 0-.142-.065-.183 0 .006.03.018.041.03-.058-.03-.052.04-.094.029a.37.37 0 01.065.088c-.006.006.065.07.059.07 0 .007-.041-.023-.065-.029.012.018.065-.135.094-.117-.017 0-.13.035-.147.023.03.024.088-.047.112-.023-.006 0-.112.117-.135.111.006 0 0 .06.011.065-.017 0 .106-.053.095-.035-.012.018-.089-.065-.071-.053 0 0 0 .018-.006.018-.053 0-.07-.106-.135-.142 0 0 .011-.03 0-.035-.024-.006-.1.218-.106.218-.018 0-.077-.165-.083-.177.012-.023.047.036.065.03 0-.024-.076 0-.082-.024a.66.66 0 01.123-.13v.177c.018.006-.053 0-.041 0-.012-.006.035-.076.024-.082-.053-.053.006.076-.024.041-.018-.018.183-.1.183-.13 0-.023-.118.047-.095.047-.017-.017-.07-.176-.047-.182.089-.012.053.03.118.006-.006-.006-.018-.053-.024-.053.106 0-.07-.224.03-.224a.92.92 0 01-.112.047c0-.023.106.124.135.124-.047-.024-.053-.053-.064-.07.011.005.076-.083.082-.077.012 0 .053.035.059.035-.065-.047-.094.018-.106-.017.035.011.07-.06.124-.042-.012-.012-.071.036-.095.024.024 0 .018.059 0 .041 0 .006.106.018.1.024-.005 0-.223-.083-.223-.077 0 .006.065 0 .065.006s.076.047.07.047c-.035-.006-.053 0-.094-.018.006-.006.059-.17.082-.165.006 0-.017.142-.011.142.006 0 .035-.041.04-.047 0 0-.005.03-.005.023 0 0-.035-.012-.03-.012.006.006.053.118.06.118.017-.006-.1-.106-.124-.123.047.029.176-.165.212-.142.011.012-.189.077-.2.1.005 0 .088.148.1.154.047.005.006-.142.035-.148.006 0-.07-.088-.059-.082-.006-.012.035.147.03.141.035.012 0 0-.012-.018-.024-.017.03-.07.041-.076.012 0 .035-.106.047-.1.03 0-.03-.065 0-.065.012 0-.088.147-.082.147-.012-.017 0-.059-.036-.082 0-.018.06-.035.077-.041-.018-.024-.024-.065.03-.036-.083-.03-.066-.011-.06-.023 0 .006-.047.117-.04.123-.042-.047.111-.082.117-.105.035 0 .03-.018.059-.012 0-.012-.118.011-.118 0 .018 0-.018-.189 0-.195 0-.023.059.03.082.012.024 0 .012.047.036.047-.018-.017 0-.07-.018-.082.106.023-.018.07.106.094.041-.012-.118 0-.147-.018.006-.006.012-.029.065-.006.011.006.094-.04.1-.047 0-.011-.112 0-.118 0-.006-.011.024-.188.006-.188.053-.006.082.13.159.141-.012-.035-.124-.212-.094-.235l.03-.065c.017-.006.04.236.105.26 0-.024-.088-.154-.047-.172.018 0 .018.053.03.053-.007-.017-.012-.147-.018-.153.011 0 .023.06.035.06 0 0 .088.076.088.07a.34.34 0 00-.082.017c.047-.005-.053-.235-.03-.253 0 .006.136-.064.148-.064-.06-.036-.118.2-.136.182.018 0 .065-.123.053-.141-.035-.041.065-.006.03-.047-.018-.012-.065.106-.083.1.006-.006 0-.106 0-.112.012 0 .06-.053.065-.059.024.006.012.088.035.094.03 0 .03.089.06.089.005 0 .058-.171.058-.183-.082-.035-.035.053-.118.03.006-.036.089.111.065.064.082.03.018-.259.124-.206.006-.017-.094.153-.136.124 0 .006.095-.153.095-.147-.024-.018-.083.094-.083.088.024.018.065-.012.106.012-.006-.018-.012-.153-.018-.17.03.005.03.2.06.187-.036-.029-.048.042-.095 0-.006 0 .1-.117.094-.123.012-.018-.153-.16-.153-.183.012-.006.083.106.094.106.012-.006-.094.083-.04.1 0 0 .129-.165.129-.159.035.018-.024.042 0 .047 0-.005-.106.148-.112.142 0 0 .076-.1.082-.1-.006-.018.041-.089 0-.118.006 0-.023.053-.017.053.011-.012-.042-.082-.006-.077 0 0-.03.112-.024.112.053.012-.023-.106.065-.07.018.006.012-.171.059-.16.035-.005-.077.036-.047.036a.358.358 0 00-.077-.018c0-.011.088.042.083.024.082.018.006-.047.1-.03-.03-.005-.03-.011-.041-.017-.006-.012.111-.1.105-.106a.264.264 0 00.012.059c0-.006-.088-.065-.088-.07.012.017-.03.117 0 .135.012-.012-.077-.142-.053-.154.024 0 .076.06.065.042-.053-.03-.041-.136-.065-.142.018.006.03.024.059.036-.012-.012.059-.012.023-.03 0 0-.04.118-.035.112.03-.012-.07-.024-.03-.024.042.012.089-.123.13-.105.035.006-.112-.06-.088-.06-.012-.005.035.16.017.148v.017c-.023-.017.03-.182 0-.188-.017 0 0 .136-.011.141-.024-.023-.03.012-.071 0-.018-.017.024-.052.024-.07.011 0 .2.035.223.035-.023-.023-.112.018-.13 0 0 0 .018.024.03.03-.006-.006.024-.124 0-.136 0 0-.03.2-.035.2 0 0-.012-.13-.018-.13 0-.011.012-.017.03-.023-.012-.006-.177-.017-.183-.023l.183.03c.011-.018-.1-.172-.053-.172.006.006 0-.047 0-.047l.076.071c.012.012-.1.165-.123.177.047.017.194-.089.212-.089-.018-.012-.048-.153-.065-.165 0 0-.13.212-.124.207-.006 0 0 .058 0 .058-.006 0 .018-.147.018-.153v-.076c.006 0 .012.059.017.064.006 0 .012.048-.011.012.011.006.076 0 .094 0-.012-.023.106.112.13.112 0-.017-.154-.153-.124-.165.006-.011 0 0-.018 0 .024-.011.012-.053.041-.053-.006 0-.023.024-.03.018.013 0 .03-.124.036-.124 0 0 0 .089.006.089s-.059.04-.053.047c-.006 0 .118-.03.112-.03.012.012-.035.047-.018.047-.011-.023-.023-.035-.04-.04.023-.007-.048 0-.019-.007.006 0 .195-.047.206-.058a1.246 1.246 0 00-.164-.118c.047 0-.089.182-.03.182.03.006.018-.041.047-.03a.638.638 0 00.06-.158c-.013 0-.036.07-.054.065-.006-.012-.006-.03.024-.012-.024-.024.006-.147.023-.147.012 0 .018.088.03.1.023-.006.053.147.047.135.017.006.112-.07.112-.088-.024-.024-.036.012-.047-.006 0-.006-.206-.035-.206-.041-.012-.03.117.1.082.064-.047-.011-.041-.111-.059-.129.012.006.165-.118.17-.118-.04-.017-.111.07-.129.06.018 0-.035.023-.03.01a.4.4 0 01.095.048c.024.006.041-.194.047-.2 0 0-.112.2-.112.206.012.012.07-.118.083-.112-.006-.012.053.018.059.018-.018-.006.011.111 0 .106.035-.006-.047-.195-.047-.206.017 0-.018.14 0 .147a.233.233 0 00-.053-.065s.105-.188.105-.183c.012.012-.029.271 0 .283-.005-.012-.017-.112-.058-.13.023-.005.082-.035.1-.023-.006-.018.088-.1.076-.118 0-.006-.094.2-.106.2 0 0-.064-.117-.064-.123-.012-.018.029.059-.036.023.035.006.153-.194.194-.176.036.006-.106.17-.035.2-.006-.012 0-.059.012-.059.017 0 .041-.03.07-.03-.011-.011-.188-.058-.194-.064.006 0 .13.053.13.047.035.006.011-.082.04-.1-.034-.035.007.141-.005.112.047.012-.059-.206-.024-.212 0 .006-.1.082-.088.094 0-.012.183-.035.183-.041a.98.98 0 00-.1.153c.035.006.035-.188.076-.183.006.012.018.13.035.13l-.088.035c.012.018.147-.176.118-.176-.024-.012.059.13.035.123.018.024-.053 0-.035.03.053.053.041-.077.076-.036l-.011.012zm-1.525 2.72s.065-.118.059-.112c-.006 0-.083-.018-.083-.012 0 .006.089 0 .089.006v.053a.276.276 0 00-.018-.053c.024 0-.035.13-.053.118h.006zm.177.57s-.112-.064-.095-.058c.006 0-.017.065-.011.065.059.011.117-.024.106 0v-.006z" fill="#1E462C"/><path d="M56.304 3.124c.306.147.1.388.318.647.217.26.382.124.6.389.218.265.065.388.283.647.217.26.27.218.488.477.218.26.324.17.542.43.218.259.153.318.37.577.218.259.295.194.513.459.218.265.159.306.377.565.217.259.076.377.294.636.218.259.253.235.47.494.219.26.213.265.43.524.218.26.224.253.442.512.218.26.377.13.595.389.217.259.176.294.394.56.218.264.07.388.283.647.211.259.276.212.488.47.212.26.295.2.512.466.218.265.23.253.454.512.223.259.3.2.518.459.218.259-.018.653.324.653.34 0 .117-.37.335-.635.218-.265.33-.165.547-.43.218-.265.171-.3.389-.56.218-.258.3-.188.518-.453.218-.264.165-.306.383-.565.217-.259.17-.3.388-.565.218-.265.17-.3.389-.56.218-.258.435-.076.653-.335.218-.259.212-.265.43-.524s.123-.341.341-.6c.218-.26.195-.283.412-.542.218-.259.23-.247.448-.512s.23-.253.447-.518c.218-.265.118-.341.336-.606.218-.265.259-.23.477-.489.217-.259.317-.176.535-.435.218-.26.277-.212.495-.471.218-.26.076-.377.294-.642.218-.265.23-.253.453-.518.224-.265.183-.265.495-.418.312-.153.27-.024.6-.024.33 0 .324.042.654.042s.323-.053.647-.053.324.047.654.047.33-.253.653-.253c.324 0 .33.241.654.241.323 0 .317-.235.541 0 .236.253.124.241.124.589 0 .347-.065.347-.065.694 0 .348.041.348.041.695s.1.347.1.695c0 .347-.094.347-.094.694 0 .348.053.348.053.695s.053.347.053.695c0 .347-.135.347-.135.694s.188.347.188.7c0 .354-.277.348-.277.695 0 .348.089.348.089.695s-.024.347-.024.695c0 .347.147.347.147.694 0 .348.065.348.065.695s-.159.347-.159.694c0 .348-.147.348-.147.701s.153.347.153.695c0 .347-.012.347-.012.694 0 .348-.041.348-.041.695s-.065.347-.065.7c0 .354.03.348.03.701s-.077.347-.077.695c0 .347.271.347.271.7s-.259.348-.259.7c0 .354.182.348.182.701 0 .354.012.348.012.7 0 .354-.206.348-.206.695v.7c0 .354.053.348.053.696 0 .347.183.347.183.694s-.047.347-.047.7v.701c0 .353.1.348.1.7 0 .354-.018.348-.018.701 0 .354-.047.348-.047.7 0 .354-.112.348-.112.701 0 .354-.041.354-.041.7 0 .348.377.501.123.743-.253.241-.4-.177-.765-.177s-.365.218-.73.218-.365-.218-.73-.218-.365.141-.73.141-.365-.17-.73-.17-.365.323-.736.323c-.37 0-.547.177-.818-.07-.253-.236.094-.43.094-.777 0-.348-.088-.342-.088-.69 0-.346.224-.34.224-.688 0-.347-.3-.341-.3-.689 0-.347.3-.347.3-.688 0-.342-.124-.342-.124-.69 0-.346-.012-.34-.012-.688 0-.347-.164-.341-.164-.689 0-.347.288-.347.288-.688 0-.342-.288-.348-.288-.69 0-.34.053-.34.053-.688 0-.347.047-.341.047-.689 0-.347.1-.347.1-.688 0-.342.053-.342.053-.69 0-.346.03-.34.03-.682 0-.341-.166-.341-.166-.689v-.689c0-.34.183-.34.183-.688 0-.348-.212-.342-.212-.689 0-.347-.047-.347-.047-.689 0-.341-.012-.347-.012-.689 0-.34.206-.347.206-.688 0-.342-.112-.348-.112-.689 0-.341-.07-.347-.07-.689 0-.341.123-.347.123-.688 0-.342-.194-.348-.194-.695 0-.348.294-.371.224-.707-.018-.076-.26-.147-.312-.1-.265.242-.195.33-.418.6-.224.272-.23.272-.454.542-.223.271-.247.254-.47.53-.224.277-.112.365-.336.642-.224.277-.247.253-.471.53-.224.276-.135.347-.36.624-.223.276-.376.153-.6.423-.223.271-.164.324-.388.601-.224.277-.147.335-.371.612-.224.277-.236.265-.46.542-.223.277-.293.218-.517.494-.224.277-.342.183-.565.454-.224.27-.012.453-.236.724-.224.27-.241.264-.465.535-.224.271-.259.248-.483.524-.223.277-.288.224-.518.5-.23.277-.135.371-.459.525-.323.153-.412.259-.736.105-.323-.152-.153-.376-.376-.647-.224-.27-.289-.218-.518-.495-.23-.276-.089-.388-.312-.659-.224-.27-.407-.123-.63-.4-.224-.277-.224-.27-.448-.548-.223-.276-.076-.394-.3-.67-.224-.277-.412-.124-.636-.395-.223-.27-.17-.318-.394-.595-.224-.276-.147-.335-.371-.612-.224-.277-.188-.306-.418-.577-.23-.27-.341-.176-.57-.453-.23-.277-.183-.312-.413-.583-.23-.27-.188-.306-.412-.577-.224-.27-.324-.194-.548-.47-.223-.277-.212-.29-.435-.566-.224-.277-.17-.324-.395-.6-.223-.277-.117-.395-.382-.63-.06-.053-.318-.018-.336.053-.076.335.07.365.07.712s.142.341.142.689c0 .347.059.341.059.689 0 .347-.236.341-.236.688v.69c0 .34.218.34.218.688 0 .347-.188.341-.188.689 0 .347-.065.341-.065.688 0 .348.112.348.112.69 0 .34.047.346.047.688 0 .341-.065.341-.065.689 0 .347.089.341.089.688 0 .348-.03.348-.03.69 0 .34-.035.34-.035.688 0 .347.088.341.088.683 0 .341-.082.341-.082.688 0 .348-.094.348-.094.69 0 .34.07.34.07.688 0 .347-.13.341-.13.689 0 .347.136.347.136.689 0 .34.03.347.03.688v.689c0 .341-.177.347-.177.689 0 .341.27.347.27.689 0 .34.019.347.019.688 0 .342-.26.348-.26.695s.265.335.012.577c-.265.253-.253.206-.618.206s-.365-.141-.73-.141-.365-.077-.73-.077-.365.194-.73.194-.365.083-.73.083-.365-.018-.736-.018c-.37 0-.553.218-.818-.035-.253-.242.177-.442.177-.79 0-.346.07-.346.07-.694 0-.347-.288-.347-.288-.694 0-.348.23-.348.23-.695s-.018-.347-.018-.695c0-.347-.236-.347-.236-.694 0-.348.2-.348.2-.695s-.14-.347-.14-.695c0-.347.182-.347.182-.7s-.124-.347-.124-.695c0-.347-.082-.347-.082-.694 0-.348.235-.348.235-.695s-.117-.347-.117-.695c0-.347-.053-.347-.053-.694 0-.348.04-.348.04-.695s-.14-.347-.14-.7c0-.354.2-.348.2-.695s-.1-.347-.1-.695c0-.347.152-.347.152-.694 0-.348.071-.348.071-.7 0-.354-.247-.348-.247-.701v-.695c0-.347.041-.347.041-.7 0-.354.124-.348.124-.701s-.153-.347-.153-.7c0-.354-.089-.348-.089-.701s.206-.348.206-.695.089-.347.089-.7c0-.354-.112-.348-.112-.695s.059-.347.059-.695c0-.347.023-.347.023-.7s-.141-.347-.141-.7c0-.354-.023-.348-.023-.701s-.107-.348-.107-.7c0-.354.307-.348.307-.701s-.224-.348-.224-.7c0-.354.041-.354.041-.701 0-.348-.135-.383.106-.636.224-.241.26-.03.589-.03.33 0 .33.112.66.112.329 0 .329-.017.658-.017.33 0 .33-.277.66-.277s.33.03.66.03c.329 0 .358.311.682.253.347-.065.359-.318.66-.177l-.024.018zm35.986 8.424c.253 0 .5-.006.747.005.247.012.489.142.736.171.247.03.506 0 .748.047.241.047.47.183.706.248.236.064.489.088.724.17.236.083.506.07.736.171.23.1.418.283.642.394.206.106.37.283.565.4.194.118.447.16.63.295.182.135.276.395.447.542.17.147.442.2.6.359.16.159.324.33.471.506.148.177.248.394.377.583.13.188.242.388.359.588.118.206.306.371.406.583.101.212.177.442.259.66.083.217.218.423.289.653.071.23-.012.489.041.718.053.23.177.442.206.677.03.236-.118.477-.1.718.018.242.23.46.23.695 0 .235-.094.483-.112.718-.018.236.123.5.094.736-.029.236-.235.453-.277.689-.041.235-.241.43-.3.66-.059.229.047.511-.035.735-.083.224-.259.406-.359.624-.1.218-.147.46-.265.665-.118.2-.371.3-.506.495-.136.194-.224.394-.371.57-.147.177-.283.354-.448.519-.165.165-.176.488-.353.641-.177.153-.46.16-.653.295-.195.135-.4.223-.6.347-.201.124-.354.306-.56.412-.194.1-.365.26-.565.347-.2.089-.412.16-.618.236-.206.076-.395.218-.607.276-.212.06-.465-.023-.677.024-.212.047-.424.124-.641.159-.218.035-.442-.012-.66.012-.217.023-.435-.053-.659-.041-.224.011-.43.294-.647.294-.218 0-.442-.147-.654-.159-.212-.012-.453.094-.665.07-.212-.023-.424-.152-.642-.188-.218-.035-.459.03-.67-.017-.213-.048-.395-.236-.607-.3-.212-.065-.418-.124-.624-.2-.206-.077-.442-.083-.642-.172-.2-.088-.294-.388-.488-.494-.207-.106-.466-.106-.66-.224-.194-.117-.353-.3-.535-.43-.183-.129-.513-.1-.683-.247-.171-.147-.306-.365-.465-.524a7.838 7.838 0 01-.471-.512c-.147-.176-.13-.477-.26-.665-.129-.188-.217-.394-.329-.595-.118-.205-.353-.347-.46-.565a7.184 7.184 0 01-.282-.659c-.082-.224-.306-.406-.37-.642-.065-.235-.095-.476-.142-.712-.047-.235-.076-.477-.112-.718-.035-.241.224-.495.212-.742-.012-.247-.212-.465-.212-.706 0-.242-.088-.489-.07-.718.017-.23.223-.46.253-.695.03-.235.117-.46.17-.689.053-.23-.035-.5.03-.724.065-.224.359-.37.447-.595.089-.223-.1-.559 0-.77.1-.213.407-.319.53-.524.118-.2.118-.471.253-.66.136-.188.354-.312.5-.489.148-.176.336-.311.501-.47.165-.16.194-.471.37-.619.177-.147.519-.082.707-.217.189-.136.336-.312.53-.43s.336-.341.542-.448c.218-.111.512-.058.741-.152.23-.095.43-.242.66-.318.23-.077.465-.148.7-.212.236-.065.465-.16.707-.206.241-.048.47-.16.718-.189.247-.03.506.183.753.171.248-.012.477-.23.73-.23l-.011-.011zm-4.757 9.177c0 .224.024.43.035.642.012.223-.07.447-.04.653.029.218.134.418.182.624.047.206.03.448.094.648.065.2.194.394.282.582.089.189.283.33.395.513.112.182.165.4.3.565.141.176.241.382.4.53.16.147.4.206.583.323.183.118.306.36.512.454.206.094.46.03.671.088.212.059.418.088.642.118.224.03.424.094.654.094.229 0 .459.006.67-.018.23-.023.436-.147.648-.194.212-.047.436-.094.636-.177.2-.082.37-.235.56-.347.188-.112.447-.13.617-.277.17-.147.265-.359.412-.535.147-.177.418-.248.536-.436.118-.188.041-.477.135-.683.095-.206.254-.365.318-.583.065-.206-.035-.453.012-.677.047-.206.247-.394.277-.618.03-.212.194-.424.206-.653.011-.218-.17-.448-.17-.671 0-.26.087-.512.07-.748-.018-.259-.124-.5-.16-.736-.04-.253.06-.541 0-.77-.07-.248-.205-.478-.3-.701-.1-.23-.235-.46-.364-.666-.13-.206-.466-.264-.63-.447-.153-.165-.189-.436-.36-.577-.17-.141-.335-.306-.523-.418-.189-.112-.43-.135-.636-.218-.206-.082-.43-.076-.648-.13a4.72 4.72 0 00-.641-.117c-.212-.024-.43.041-.66.041-.23 0-.441-.135-.653-.111-.224.029-.43.1-.636.152-.206.053-.441.06-.642.148-.2.088-.447.117-.63.235-.182.118-.188.465-.353.612-.164.148-.406.195-.553.36-.159.188-.2.453-.33.659-.13.206-.33.365-.43.594-.1.23-.076.483-.147.718-.07.236-.253.43-.3.677a6.163 6.163 0 00-.082.73c-.018.236.03.483.03.736l.011.012zm28.368-9.142c.212 0 .407.118.618.153.212.035.424-.012.63.053.206.065.383.17.577.259.177.082.377.147.571.265.171.1.43.1.613.224.164.111.323.27.494.4.159.123.247.347.418.489-.047.364-.13.34-.271.682-.141.342-.194.318-.329.66-.136.341-.083.365-.224.7-.141.336-.242.3-.377.636-.135.335-.071.37-.212.712-.141.342-.088.348-.335.618-.206-.153-.295-.265-.483-.394-.212-.147-.471-.2-.671-.318-.224-.13-.471-.165-.677-.259-.242-.112-.395-.383-.612-.442-.259-.07-.518-.194-.736-.194-.259 0-.518.183-.771.248a3.497 3.497 0 00-.73.264c-.218.112-.377.336-.595.507-.182.141-.5.13-.665.294-.165.165-.083.536-.224.718-.141.183-.43.247-.547.448-.118.2-.071.47-.171.682-.1.212-.389.336-.465.548-.077.212.088.506.029.724a4.895 4.895 0 00-.117.66c-.03.223-.183.435-.183.665 0 .335.024.335.024.67 0 .336.117.336.117.672 0 .335-.159.335-.159.67 0 .336.124.336.124.672s-.218.336-.218.671c0 .336.159.336.159.671 0 .336-.006.336-.006.671 0 .336-.088.336-.088.677 0 .342.035.336.035.671 0 .336.012.336.012.677 0 .342-.165.336-.165.677 0 .342.371.424.136.665-.236.242-.324-.111-.654-.111-.329 0-.335.194-.665.194s-.336-.13-.665-.13c-.33 0-.336.206-.665.206-.33 0-.336-.123-.666-.123-.329 0-.335-.124-.671-.124-.335 0-.4.312-.635.07-.236-.24.011-.305.011-.647 0-.341.012-.341.012-.677 0-.335-.029-.341-.029-.683 0-.341.088-.341.088-.682 0-.342-.118-.342-.118-.683 0-.342.006-.342.006-.677 0-.336.106-.342.106-.683 0-.342-.012-.342-.012-.683s.042-.341.042-.683c0-.341-.301-.341-.301-.683 0-.341.077-.341.077-.683 0-.341.07-.341.07-.683 0-.341-.035-.341-.035-.682 0-.342-.018-.342-.018-.677 0-.336-.053-.342-.053-.677 0-.336.201-.342.201-.683 0-.342-.224-.342-.224-.683s.159-.341.159-.683c0-.341-.053-.341-.053-.683 0-.341.129-.341.129-.683 0-.341-.259-.341-.259-.683 0-.341.312-.341.312-.682 0-.342-.058-.342-.058-.683v-.683c0-.342-.083-.342-.083-.683s-.359-.542-.118-.783c.242-.241.436.182.766.182.329 0 .335.018.665.018s.335.036.665.036.336-.248.665-.248c.33 0 .336.194.665.194.33 0 .336-.105.672-.105.335 0 .535-.312.777-.083.241.23-.165.436-.165.754s-.071.323-.071.641.124.318.124.642.023.324.023.642c0 .317.106.323.106.647v.648c0 .324-.323.347-.282.665 0 .035.323.106.353.076.1-.2.206-.423.306-.612.106-.194.124-.43.23-.612.111-.194.312-.324.423-.5.118-.189.224-.371.342-.542.129-.182.088-.477.218-.642.141-.176.347-.288.482-.441.153-.165.371-.242.524-.377.201-.177.371-.365.583-.5.224-.147.465-.206.701-.306.235-.1.412-.43.665-.477.253-.047.536.03.8.03l.006.017zm22.488.324c.241.223.012.37.012.7 0 .33.011.33.011.66s-.182.33-.182.659v.66c0 .329.394.47.147.682-.283.247-.4-.159-.777-.159s-.377.088-.759.088c-.383 0-.383-.017-.76-.017s-.441-.2-.806-.094c.147.182.229.576.353.747.135.189.388.289.489.471.111.206.317.371.388.56.1.258.053.588.1.87.047.283.124.56.124.848 0 .242-.094.483-.124.718-.029.236-.124.46-.188.69-.065.229.035.523-.059.741-.094.218-.271.406-.395.618-.123.212-.2.448-.347.642-.147.194-.359.33-.524.506-.147.159-.3.33-.483.471-.164.135-.417.159-.618.277-.182.111-.3.365-.506.465-.194.088-.394.212-.612.288-.2.07-.471-.03-.695.035-.206.06-.4.177-.624.23-.212.047-.453-.053-.683-.012-.212.036-.418.153-.641.183-.218.03-.401.241-.595.27-.224.036-.424.065-.612.1a7.61 7.61 0 00-.601.136c-.247.065-.518-.088-.659-.018a1.23 1.23 0 00-.447.395c-.106.153-.018.359-.018.57 0 .213-.112.472.035.619.118.118.389.106.607.188.206.083.465.118.771.195.23.058.465.235.759.288.242.047.495.194.777.241.236.036.489-.076.713-.035.223.041.465.07.688.118.224.047.483.017.701.07.23.06.447.16.665.224.23.065.471.082.689.153.23.077.412.253.624.336.224.088.453.147.653.241.218.1.389.277.583.389.212.117.453.164.636.294.194.135.265.412.43.565.176.159.512.165.653.336.141.17.188.447.3.647.112.2.23.412.301.63.07.218-.065.477-.03.712.035.236.171.43.171.671 0 .254.035.495.012.73-.03.248-.159.471-.218.7-.059.23-.165.454-.259.672-.094.218-.059.518-.189.724-.129.206-.247.442-.412.624-.165.183-.435.26-.624.418-.188.159-.441.2-.647.336-.189.123-.253.47-.459.577-.206.106-.489.029-.707.117-.218.088-.359.336-.583.406a13.7 13.7 0 01-.665.189c-.223.059-.488-.124-.718-.083-.23.042-.43.142-.659.177-.23.035-.43.247-.66.27-.229.024-.476-.264-.706-.246-.23.017-.442.182-.677.194-.235.012-.453-.065-.689-.065-.235 0-.459.224-.677.218-.218-.006-.447-.218-.665-.23-.218-.011-.447-.053-.665-.076-.218-.024-.448-.047-.665-.077-.218-.03-.442-.088-.66-.13-.217-.04-.482.089-.694.036-.212-.053-.448-.106-.654-.17-.206-.065-.406-.224-.612-.307-.206-.082-.383-.247-.583-.341-.2-.094-.482-.06-.671-.17-.2-.119-.241-.46-.418-.59-.188-.135-.477-.135-.636-.282-.17-.16-.241-.395-.376-.571-.136-.177-.395-.283-.501-.477a4.057 4.057 0 01-.294-.624c-.071-.212.053-.477.018-.7-.036-.224-.254-.43-.254-.66 0-.247.242-.465.277-.694.035-.23-.129-.53-.047-.748.082-.218.336-.377.459-.583.124-.206.218-.418.377-.6.159-.183.241-.436.43-.595.176-.147.406-.259.612-.394.194-.124.377-.3.6-.412.206-.106.46-.136.683-.23.212-.088.424-.218.66-.294.217-.077.5-.042.735-.106-.212-.095-.5-.047-.677-.153-.2-.112-.259-.43-.418-.554-.182-.141-.447-.182-.571-.341a2.056 2.056 0 01-.323-.589c-.071-.2.017-.441.017-.66 0-.246.065-.458.148-.676.082-.218.076-.5.241-.689.147-.165.388-.27.6-.412.183-.124.33-.383.565-.489.206-.088.448-.176.689-.253.218-.07.53.077.777.018.036-.018.047-.194.018-.218-.218-.059-.495.012-.695-.059-.2-.07-.318-.365-.512-.459-.194-.094-.5.012-.683-.1-.182-.112-.412-.194-.583-.33-.17-.135-.247-.388-.406-.541a5.523 5.523 0 01-.447-.471c-.159-.194-.336-.371-.465-.577-.13-.206-.124-.489-.224-.712-.1-.224-.406-.383-.471-.619-.065-.235.053-.518.024-.765-.03-.247-.083-.483-.083-.736 0-.223-.082-.453-.059-.665.024-.212.271-.406.312-.618.042-.212-.117-.483-.047-.689.071-.206.301-.359.389-.553.088-.194.188-.389.3-.577.112-.188.194-.394.336-.565.141-.17.188-.424.347-.583.159-.159.471-.13.648-.27.17-.142.264-.39.447-.513.182-.123.347-.294.547-.4.201-.106.454-.088.66-.177.206-.088.418-.147.63-.218.212-.07.423-.123.641-.176.218-.053.442-.012.665-.047.224-.036.418-.17.642-.194.224-.024.43-.183.659-.195.23-.011.448-.07.677-.07.354 0 .354.253.701.253s.347-.13.7-.13c.354 0 .354-.123.701-.123s.347.147.701.147c.353 0 .347-.018.7-.018s.353.047.701.047c.347 0 .353.13.7.13s.353-.189.701-.189c.347 0 .353.112.7.112s.353-.165.701-.165c.347 0 .353.124.7.124.348 0 .395.177.736.094.383-.088.453-.418.712-.176l-.023-.006zm-13.728 21.24c0 .264.035.482.118.706.082.223.223.406.406.582.165.16.265.454.5.577.2.106.448.206.707.283.217.065.5-.03.759.023.23.042.453.242.712.271.236.024.489-.047.748-.035.235.012.483.035.742.035.229 0 .459.094.677.083.229-.012.453-.083.665-.112.229-.03.418-.23.624-.277.223-.053.394-.218.588-.288.218-.077.46-.042.642-.148.23-.129.383-.306.548-.459.188-.176.382-.318.476-.524.095-.206.195-.453.195-.706 0-.277-.23-.471-.336-.695-.106-.223-.182-.441-.4-.618-.183-.153-.418-.223-.677-.341-.218-.1-.412-.26-.671-.33-.23-.065-.471-.106-.736-.153-.236-.041-.471-.2-.736-.224-.241-.023-.506.13-.771.118-.241-.012-.495.018-.754.018s-.524-.17-.765-.147c-.265.023-.506.13-.747.176-.26.053-.548-.017-.778.065-.247.088-.453.282-.665.406-.223.13-.288.418-.447.571a1.624 1.624 0 00-.389.524c-.1.218-.235.383-.235.63v-.012zm1.118-14.794c0 .223.012.43.047.63.042.217.106.406.189.6.082.194.029.477.159.66.129.182.276.353.441.5.165.153.436.17.618.282.183.112.312.371.518.448.206.076.454.053.671.088.218.035.436.07.66.07.224 0 .477.083.683.042.223-.035.447-.153.647-.23.2-.076.33-.33.512-.453.183-.124.259-.335.412-.494.159-.165.389-.242.507-.424.117-.183.165-.4.241-.607.077-.206.206-.388.241-.612.036-.212.101-.43.101-.66 0-.211-.201-.388-.242-.588-.041-.2-.023-.4-.106-.589-.082-.188-.229-.312-.353-.482-.124-.171-.183-.354-.341-.5a2.791 2.791 0 00-.513-.366c-.182-.106-.317-.317-.518-.388-.2-.07-.441.041-.653 0-.212-.041-.4-.018-.618-.018-.218 0-.453-.165-.66-.123-.206.04-.412.164-.612.247-.2.082-.471.059-.659.182-.188.124-.306.33-.471.489-.159.153-.141.43-.259.595a2.636 2.636 0 00-.477 1.089c-.041.206-.159.382-.159.6l-.006.012zm23.194-6.582c.236 0 .471-.265.695-.247.224.018.477-.018.7.006.224.024.436.224.66.27.223.048.471.042.683.1.211.06.429.19.641.272.212.082.448.135.654.235.206.1.382.26.577.377.194.118.294.37.476.512.183.141.465.153.63.306.165.153.318.33.477.5.159.171.318.33.453.507.136.176.248.377.371.57.124.195.342.33.448.53.106.2.117.448.206.66.088.212.059.459.129.671.071.212.271.389.33.606.059.218.082.442.129.671.047.23.053.448.083.677.029.23 0 .454.017.677.018.224-.064.448-.058.683.005.236.3.442.3.671 0 .354.006.354-.242.607-.247.253-.247.011-.594.011h-.695c-.347 0-.347.077-.694.077-.348 0-.348.035-.695.035s-.347.13-.695.13c-.347 0-.347-.094-.694-.094-.348 0-.348-.189-.695-.189s-.347-.006-.695-.006c-.347 0-.347.018-.694.018-.348 0-.348.253-.695.253s-.347.024-.695.024c-.347 0-.347-.047-.694-.047s-.347-.212-.695-.212c-.347 0-.347.159-.7.159-.354 0-.348.094-.695.094s-.347-.23-.7-.23c-.354 0-.348.212-.701.212s-.418-.388-.748-.27c.03.235.189.582.236.806.047.235.012.477.082.695.071.217.059.488.153.694.094.206.377.33.495.524s.153.465.3.642c.147.176.424.23.6.376.183.16.418.218.63.342.212.123.289.483.512.583.224.1.507.03.742.1.224.064.448.17.695.212.235.04.471.17.718.188.236.018.489-.253.742-.253.218 0 .435.076.653.065.218-.012.424-.112.636-.142.212-.03.424-.053.642-.1.217-.047.482.136.694.07.212-.064.406-.182.613-.258.223-.082.453-.17.682-.27.23-.1.342-.395.56-.513.217-.118.524-.047.735-.177.212-.13.342-.37.548-.506.206-.135.33-.159.53-.306.117.324.188.306.188.653 0 .348.053.348.053.695s-.212.347-.212.695c0 .347-.053.347-.053.694 0 .348.271.371.194.707-.182.13-.453.188-.641.306-.189.118-.418.153-.612.259-.195.106-.377.218-.577.312-.2.094-.301.424-.507.506-.206.083-.459.041-.671.112-.212.07-.447.035-.665.1-.218.065-.418.13-.636.177-.217.047-.429.076-.653.111-.224.036-.418.195-.642.224-.223.03-.435.136-.659.153-.224.018-.453-.23-.683-.223-.23.005-.436.029-.659.029-.224 0-.454.03-.677.018-.224-.012-.465.112-.689.088-.224-.024-.43-.206-.653-.241-.224-.036-.477.07-.695.017-.218-.053-.43-.159-.648-.23-.217-.07-.453-.082-.665-.164-.212-.082-.418-.189-.624-.289-.206-.1-.318-.365-.512-.476-.194-.112-.359-.26-.542-.389-.182-.13-.47-.118-.647-.259-.177-.141-.23-.418-.394-.571-.165-.159-.483-.159-.63-.324-.148-.165-.206-.418-.342-.594-.135-.177-.388-.283-.506-.471-.118-.189-.289-.365-.394-.565a8.364 8.364 0 01-.289-.624c-.088-.206-.012-.483-.082-.695-.071-.212-.259-.394-.318-.618-.059-.224-.018-.46-.059-.683-.041-.224-.047-.447-.071-.671a13.454 13.454 0 01-.053-.677c-.011-.23.041-.447.041-.677 0-.247-.206-.494-.188-.73.018-.235.289-.465.318-.7.029-.236-.188-.524-.147-.754.041-.23.182-.465.241-.695.059-.23.23-.441.306-.665.077-.224.224-.43.324-.647.1-.218.041-.518.159-.73.118-.212.253-.418.389-.618.135-.2.335-.354.488-.542.153-.188.412-.27.583-.447.165-.171.212-.466.388-.619.177-.153.471-.164.666-.306.194-.141.406-.223.606-.347.2-.124.359-.306.571-.412.212-.106.453-.112.677-.194.224-.083.359-.395.589-.46.229-.064.471-.064.706-.111.236-.048.465-.089.701-.118.235-.03.482.13.718.118.235-.012.459-.018.7-.018l.006-.018zm4.133 7.294c-.024-.23-.212-.583-.248-.795-.041-.223-.141-.412-.206-.618-.064-.218.012-.47-.07-.665-.088-.206-.247-.365-.359-.547-.112-.183-.206-.389-.353-.554-.171-.188-.383-.318-.589-.453-.206-.136-.4-.294-.636-.389-.235-.094-.441-.3-.7-.341-.236-.035-.513.112-.778.112-.264 0-.523 0-.771.041a4.139 4.139 0 00-.741.206 3.748 3.748 0 00-.701.306c-.212.13-.335.377-.518.56-.159.158-.365.258-.5.447-.136.188-.348.318-.448.53-.094.2-.053.465-.129.688-.071.206-.153.418-.206.648-.047.212-.13.412-.159.647.312.118.329.06.665.06s.336.1.671.1c.336 0 .336-.29.671-.29.336 0 .336.284.671.284.336 0 .336-.054.671-.054h.671c.336 0 .336-.076.672-.076.335 0 .335-.035.676-.035.342 0 .336-.13.672-.13.335 0 .335.094.677.094.341 0 .317.1.647.183.377.094.442.147.759.035l-.011.006zm18.243-7.476c.247 0 .494-.03.73-.006.247.023.471.17.7.218.23.047.448.176.671.253.224.076.483.07.701.17.218.1.5.107.7.236.201.13.324.377.513.53.188.153.294.37.459.553.147.165.377.265.506.442.13.176.218.388.324.583.106.194.253.37.341.57.089.2.295.371.359.583.065.212-.135.495-.082.713.053.217.265.394.294.618.03.223.047.441.065.67.018.23-.059.442-.059.672 0 .353-.047.353-.047.7 0 .348.124.354.124.707s-.136.353-.136.7c0 .348.083.354.083.707s.059.353.059.7c0 .348.076.354.076.707s-.188.353-.188.7c0 .348-.012.353-.012.7 0 .348.041.354.041.707s.071.353.071.7c0 .348.118.354.118.707s-.036.353-.036.706c0 .354.018.354.018.707s-.106.353-.106.706c0 .354.094.354.094.707s.13.47-.112.73c-.223.241-.359.07-.688.07-.33 0-.33.047-.666.047-.335 0-.329-.117-.665-.117-.335 0-.33-.03-.665-.03-.336 0-.33-.094-.665-.094-.336 0-.336-.03-.666-.03-.329 0-.523.46-.759.224-.235-.235.082-.43.082-.765s-.035-.335-.035-.677c0-.341-.065-.335-.065-.671 0-.335-.011-.335-.011-.671s.194-.336.194-.671c0-.336-.183-.336-.183-.677 0-.342.1-.336.1-.671 0-.336-.129-.336-.129-.671 0-.336.283-.336.283-.677 0-.342-.112-.336-.112-.677 0-.342-.153-.336-.153-.677 0-.342.141-.336.141-.677 0-.342-.053-.336-.053-.677 0-.342-.13-.336-.13-.677 0-.342-.005-.342-.005-.677 0-.336.141-.342.141-.677 0-.253-.035-.495-.059-.724-.029-.253-.141-.465-.206-.689-.065-.241.041-.542-.065-.748-.112-.223-.312-.394-.465-.576-.141-.171-.341-.26-.506-.383-.165-.124-.324-.265-.518-.347-.194-.083-.395-.095-.612-.13-.201-.035-.401-.012-.619-.012-.241 0-.512-.241-.747-.194-.236.047-.465.194-.683.288-.218.095-.371.318-.571.454-.188.13-.359.294-.565.47-.177.154-.324.348-.506.542-.165.171-.442.253-.613.454-.153.182-.306.4-.465.606-.059.341-.011.353-.011.694 0 .342.017.348.017.69 0 .34-.123.347-.123.694s.058.347.058.694c0 .348.236.342.236.69 0 .347-.259.347-.259.688 0 .341-.018.347-.018.695 0 .347.118.347.118.688 0 .342.135.348.135.69 0 .34-.223.346-.223.694 0 .347.223.347.223.695 0 .347-.164.347-.164.694s.123.347.123.695c0 .347.041.347.041.694 0 .348-.029.348-.029.695s-.029.347-.029.695c0 .347.223.488-.018.741-.242.253-.383-.106-.712-.106-.33 0-.336.095-.666.095-.329 0-.335.094-.665.094s-.335-.177-.665-.177-.336.041-.665.041c-.33 0-.336-.094-.671-.094-.336 0-.536.436-.772.195-.235-.242.03-.442.03-.778 0-.335.035-.341.035-.677 0-.335-.053-.341-.053-.682 0-.342.171-.342.171-.683 0-.342-.2-.342-.2-.683 0-.342.223-.342.223-.677 0-.336-.052-.342-.052-.683s-.154-.341-.154-.683c0-.341-.023-.341-.023-.683 0-.341.224-.341.224-.683 0-.341-.153-.341-.153-.683 0-.34-.071-.34-.071-.682s.277-.342.277-.683c0-.342-.083-.342-.083-.677 0-.336.035-.342.035-.677 0-.336-.135-.342-.135-.683s.059-.341.059-.683c0-.341.129-.341.129-.683 0-.341-.023-.341-.023-.683 0-.341-.183-.341-.183-.683 0-.34.212-.34.212-.682s-.006-.342-.006-.683c0-.342-.117-.342-.117-.683s.006-.341.006-.683c0-.341-.124-.341-.124-.683 0-.341-.188-.465.047-.712.236-.247.359-.065.695-.065.335 0 .335.077.665.077s.335.094.665.094.336.041.665.041c.33 0 .336-.082.666-.082.329 0 .335.1.671.1.335 0 .494-.442.741-.212.23.212.047.388.047.7 0 .312-.2.312-.2.618v.624c0 .312-.035.33.071.624.153-.182.247-.423.4-.588.165-.171.459-.2.624-.348.177-.159.206-.482.383-.618.188-.147.483-.123.677-.241.2-.124.306-.418.506-.518.23-.112.518-.1.76-.183.241-.082.518-.011.765-.064.247-.053.459-.33.712-.353.253-.024.518.07.771.07l.024.018zm27.126.335c.242.224-.141.36-.141.69 0 .329.188.329.188.659s-.094.33-.094.659c0 .33-.071.33-.071.66 0 .329.324.423.071.64-.283.248-.359.171-.742.171-.382 0-.376-.153-.759-.153s-.383-.047-.759-.047c-.377 0-.383-.023-.748.083.147.182.177.377.3.547.136.189.23.377.33.56.112.206.247.37.318.559.1.259.335.488.382.77.047.283.13.572.13.86 0 .242-.165.483-.194.713-.03.23.011.494-.053.724-.065.23-.377.37-.471.588-.095.218-.065.483-.189.695-.123.212-.176.453-.324.648a8.18 8.18 0 01-.459.559c-.147.159-.365.253-.541.394-.165.136-.401.177-.595.295-.182.111-.377.188-.583.282-.194.088-.341.3-.553.383-.2.07-.412.153-.63.218-.206.059-.453-.018-.671.029-.212.047-.43.059-.653.094-.212.035-.401.26-.63.289-.218.03-.424.064-.618.094-.224.035-.442-.006-.63.03-.23.04-.412.182-.589.229-.247.065-.441.1-.589.165-.194.094-.353.176-.453.323-.106.154-.312.33-.312.536 0 .206.141.46.294.607.118.117.418.011.636.1.206.082.395.323.701.4.229.059.488.159.777.218.241.047.541-.083.824-.036.235.036.453.153.677.195.224.04.441.176.665.223.224.047.471.047.689.106.229.06.465.077.683.136.229.064.418.247.63.318.229.076.441.153.647.235.224.088.453.124.659.218.218.1.36.318.554.43.212.117.547.011.73.14.194.136.341.342.506.495.177.16.406.277.548.454.141.176.153.465.264.665.112.2.312.37.389.594.077.224 0 .477.029.713.03.235.012.447.012.683 0 .253.141.506.118.741-.03.248 0 .518-.059.748-.059.23-.277.436-.371.66-.094.223-.282.394-.412.6-.129.206-.2.453-.365.636-.165.182-.388.288-.583.447-.194.159-.335.347-.547.483-.189.123-.359.288-.565.394-.206.106-.401.224-.618.312-.218.088-.43.147-.654.224-.223.076-.477-.036-.706.023-.23.06-.43.124-.66.171-.229.047-.441.076-.671.112-.229.035-.441.117-.671.141-.229.024-.453.006-.683.024-.229.017-.447.17-.682.176-.236.006-.46-.23-.689-.23-.23 0-.453.071-.671.065-.218-.005-.448-.094-.666-.111-.217-.018-.465.147-.682.123-.218-.023-.448-.065-.666-.094-.217-.03-.459 0-.677-.047-.217-.047-.429-.153-.647-.206-.218-.053-.465-.035-.671-.1-.206-.065-.395-.26-.595-.336-.2-.076-.424-.159-.618-.253s-.43-.153-.618-.265c-.2-.117-.359-.294-.536-.424-.188-.135-.259-.388-.424-.535-.17-.16-.4-.23-.541-.407-.141-.176-.353-.317-.459-.512-.106-.194-.089-.453-.159-.67-.071-.219-.306-.395-.342-.619-.035-.224.047-.465.047-.694 0-.248.036-.483.077-.713a3.92 3.92 0 01.171-.695c.082-.217.147-.465.265-.67.117-.207.312-.366.471-.548.158-.183.353-.3.541-.46a6.38 6.38 0 01.571-.411c.194-.124.4-.23.618-.342.206-.106.395-.247.624-.341.212-.088.401-.277.63-.36.218-.076.583-.04.818-.111-.212-.094-.535-.17-.712-.27-.2-.113-.43-.183-.589-.313-.182-.141-.17-.459-.294-.618-.141-.177-.335-.288-.406-.483-.071-.194-.259-.412-.259-.63 0-.247.153-.494.235-.712.083-.218.277-.37.442-.56.147-.164.247-.417.459-.558.183-.124.453-.142.689-.248.206-.088.4-.253.641-.33.218-.07.495-.023.742-.082.035-.017-.047-.053-.082-.07a6.72 6.72 0 01-.612-.189c-.207-.076-.436-.13-.63-.223-.195-.095-.424-.171-.607-.283-.182-.112-.229-.453-.4-.583-.171-.13-.465-.123-.624-.276-.159-.154-.23-.389-.371-.56-.159-.194-.424-.318-.553-.524a5.524 5.524 0 01-.342-.677c-.1-.223-.229-.465-.294-.7-.065-.236-.012-.512-.041-.76-.03-.247-.112-.494-.112-.747 0-.224-.012-.46.006-.671.018-.212.118-.442.159-.654.041-.212.212-.406.282-.612.071-.206.036-.465.13-.66.094-.193.165-.423.282-.611.118-.189.377-.277.518-.448.142-.17.259-.347.418-.506.159-.159.342-.27.513-.412.17-.141.235-.447.418-.571.182-.124.394-.236.594-.347.2-.112.424-.171.63-.26.206-.088.436-.123.653-.194.218-.07.465 0 .683-.047.218-.047.412-.177.636-.218.224-.04.424-.188.653-.212.23-.023.46.16.689.148.23-.012.442-.106.671-.106.354 0 .354.082.701.082s.347-.018.7-.018c.354 0 .354-.182.701-.182s.347.065.7.065c.354 0 .348.176.701.176s.353-.011.7-.011c.348 0 .354-.236.701-.236s.353.153.701.153c.347 0 .353-.094.7-.094s.353.094.701.094c.347 0 .353.059.7.059s.395.153.742.077c.377-.089.441-.418.694-.177l.018.023zm-13.734 21.228c0 .265-.1.548-.011.765.088.218.382.33.565.512.164.16.3.371.535.495.201.106.412.265.666.342.217.064.476.064.735.111.23.041.495-.1.754-.076.235.023.465.194.718.206.236.012.483.059.742.059.229 0 .447-.095.665-.106.23-.012.465.117.677.088.23-.03.459-.053.665-.1.224-.053.436-.165.636-.236.218-.076.347-.323.53-.423.229-.13.371-.3.536-.454.188-.176.435-.265.529-.477.094-.211.059-.453.059-.706 0-.277.183-.6.071-.83-.112-.23-.406-.37-.618-.547-.183-.153-.448-.212-.707-.33a4.31 4.31 0 00-.706-.253c-.23-.065-.453-.2-.718-.247-.236-.042-.477-.177-.742-.2-.241-.024-.5-.065-.765-.077-.242-.012-.507.123-.766.123s-.518.024-.759.048c-.265.023-.542-.077-.783-.024-.259.053-.53.094-.759.182-.248.089-.401.377-.613.5-.223.13-.4.278-.553.43-.182.177-.377.324-.471.53-.1.218-.094.454-.094.701l-.018-.006zm1.119-14.793c0 .223-.13.459-.094.659.041.218.282.37.365.565.082.194.106.424.229.6.124.177.218.39.377.542.165.153.383.241.565.36.183.117.447.052.653.129.207.076.36.276.577.312.218.035.424.1.654.1.229 0 .441-.106.647-.142.224-.035.477.048.677-.035.2-.082.43-.176.613-.3.182-.124.329-.312.488-.471.159-.165.165-.436.283-.624.117-.188.159-.388.235-.595.077-.206.271-.364.312-.588.036-.212-.041-.43-.041-.665 0-.212.23-.448.188-.648-.041-.2-.247-.377-.329-.565-.083-.188-.259-.312-.383-.483-.124-.17-.247-.3-.406-.447-.159-.147-.277-.336-.453-.448-.177-.111-.342-.3-.542-.376a3.885 3.885 0 00-.63-.195c-.212-.04-.435.089-.659.089-.224 0-.442.03-.654.07-.212.042-.476-.03-.677.053-.2.083-.435.165-.618.289-.182.123-.235.412-.4.57-.159.154-.277.319-.4.484-.124.176-.295.317-.377.512-.082.194-.053.418-.094.63-.041.212-.1.4-.1.612l-.006.006zm25.407-6.823c.212 0 .4.212.612.241.212.03.407.036.607.094.2.06.382.136.577.224.176.082.453.006.647.124.171.1.253.37.436.494.165.112.312.26.488.395.159.123.277.164.448.306-.047.365.07.394-.065.736-.135.341-.318.264-.453.606-.136.341-.153.33-.295.671-.141.341.018.406-.117.742-.136.335-.289.276-.43.618-.141.341.088.477-.165.748-.206-.154-.359-.454-.547-.583-.212-.148-.542-.095-.736-.206-.224-.13-.395-.324-.601-.418-.241-.112-.488-.136-.7-.195a2.7 2.7 0 00-.707-.111c-.259 0-.494.064-.747.13-.242.064-.548 0-.783.129-.218.111-.412.312-.63.476-.183.142-.3.354-.465.513a5.43 5.43 0 00-.453.512c-.148.182-.342.318-.465.512-.124.194-.148.436-.248.647-.1.212-.141.436-.217.648-.077.212-.159.424-.218.642-.059.217-.006.453-.036.677-.029.223-.135.435-.135.665 0 .335-.047.335-.047.67 0 .336.129.336.129.672 0 .335-.047.335-.047.671s-.123.336-.123.671c0 .336.135.336.135.671 0 .336-.253.336-.253.671v.671c0 .336.082.336.082.677 0 .342.195.336.195.672 0 .335-.165.335-.165.677 0 .34.112.335.112.677 0 .34.147.435-.089.676-.235.242-.335.118-.665.118s-.335.012-.665.012-.336-.17-.665-.17c-.33 0-.336.076-.665.076-.33 0-.336.053-.666.053h-.671c-.335 0-.353.059-.588-.177-.236-.235-.089-.265-.089-.6 0-.336.13-.342.13-.677V27.6c0-.342-.212-.342-.212-.683s.082-.341.082-.683c0-.341.089-.341.089-.677v-.683c0-.341-.136-.341-.136-.683 0-.341.112-.341.112-.683 0-.34-.147-.34-.147-.682s.218-.342.218-.683c0-.342-.236-.342-.236-.683s.183-.341.183-.683c0-.341-.095-.341-.095-.677 0-.335.118-.341.118-.677 0-.335-.041-.341-.041-.683 0-.341.047-.341.047-.683 0-.341-.029-.341-.029-.683 0-.34-.1-.34-.1-.682s.047-.342.047-.683c0-.342.017-.342.017-.683s.106-.341.106-.683c0-.341-.2-.341-.2-.683 0-.341.106-.341.106-.683 0-.341-.147-.341-.147-.683 0-.341-.071-.365.171-.612.241-.247.253-.082.588-.082.336 0 .336-.07.666-.07.329 0 .335.082.665.082.329 0 .335-.042.665-.042s.335.083.665.083.336.117.671.117c.336 0 .512-.476.754-.24.241.235.082.405.082.73 0 .323-.118.323-.118.64 0 .319-.135.319-.135.643 0 .323.236.323.236.641s-.289.324-.289.648c0 .323.177.323.177.647s.059.312.094.63c0 .035-.059.059-.035.03.1-.2.288-.348.382-.536.106-.194.194-.389.3-.571.112-.194.077-.465.189-.642.118-.188.259-.359.382-.53.13-.182.254-.359.383-.524.141-.176.359-.27.495-.423.153-.165.182-.448.335-.583.2-.177.459-.295.671-.43.224-.147.542-.077.777-.177.236-.1.412-.417.665-.47.254-.053.53-.06.795-.06v.042zm10.526.482c.241.248.006.271.006.613 0 .341.07.341.07.683 0 .341-.153.341-.153.682 0 .342.306.342.306.683 0 .342-.135.342-.135.683 0 .342.082.342.082.683s-.206.341-.206.683c0 .341.071.341.071.683 0 .341.106.341.106.688 0 .348.029.342.029.683 0 .342-.159.342-.159.683 0 .342.212.342.212.689 0 .347-.106.341-.106.683v.689c0 .347.1.341.1.688 0 .348-.164.342-.164.69 0 .246 0 .488.029.712.029.247 0 .506.065.718.07.235.129.494.241.694.118.212.33.377.495.548.147.153.412.159.588.276.177.118.33.23.53.306.2.077.365.212.583.248.2.03.412.153.636.153.27 0 .571 0 .83-.059s.512-.224.759-.33c.236-.106.353-.441.583-.594.188-.124.477-.106.647-.253.171-.148.307-.33.46-.507.153-.176.164-.424.288-.618.124-.194.212-.33.318-.535.041-.342.282-.33.282-.677 0-.348-.053-.348-.053-.69 0-.34-.129-.346-.129-.688 0-.341-.047-.347-.047-.689 0-.341.012-.341.012-.688 0-.348-.053-.342-.053-.69 0-.346.023-.346.023-.688 0-.341.047-.347.047-.689 0-.341.189-.347.189-.689 0-.34-.018-.347-.018-.688 0-.342-.153-.348-.153-.689 0-.341.071-.347.071-.689 0-.341-.065-.347-.065-.694 0-.348-.112-.348-.112-.69 0-.34-.012-.346-.012-.694 0-.347.124-.347.124-.694 0-.348-.318-.524-.077-.777.242-.254.418-.024.754-.024.335 0 .335-.047.665-.047s.336.012.665.012c.33 0 .336.053.665.053.33 0 .336.206.666.206.329 0 .335-.136.671-.136.335 0 .5-.288.736-.053.235.236-.095.406-.095.748 0 .341-.135.341-.135.677s.029.341.029.683c0 .341.095.341.095.683 0 .341.159.341.159.682 0 .342-.23.342-.23.678 0 .335-.012.34-.012.682s.171.342.171.683c0 .342.065.342.065.683s-.106.341-.106.683c0 .341-.006.341-.006.683 0 .341-.094.341-.094.683 0 .341.153.341.153.683 0 .341-.041.341-.041.677 0 .335-.065.341-.065.677v.682c0 .342-.094.342-.094.683 0 .342.064.342.064.683 0 .342.03.342.03.683s.082.341.082.683c0 .341.118.341.118.683 0 .341-.159.341-.159.683 0 .341.129.341.129.683 0 .34-.194.34-.194.682s-.053.342-.053.683c0 .342.312.395.071.636s-.283.088-.618.088h-.665c-.33 0-.336-.053-.666-.053-.329 0-.335-.053-.665-.053s-.335.136-.665.136-.336-.206-.671-.206c-.336 0-.577.494-.789.235-.259-.306.029-.5.029-.906 0-.407.089-.4.089-.801 0-.4.176-.436.076-.824-.159.176-.424.335-.588.494-.165.16-.418.236-.589.383-.171.147-.347.306-.53.442-.182.135-.224.518-.424.635-.2.118-.429.23-.635.33-.207.1-.519-.012-.736.065-.218.076-.395.33-.618.382-.224.053-.501-.17-.736-.147-.236.024-.448.324-.683.324-.247 0-.489-.212-.724-.236-.236-.023-.471-.111-.707-.153-.235-.04-.482-.053-.712-.123-.23-.07-.547.035-.765-.065-.218-.1-.3-.465-.507-.595-.206-.13-.37-.282-.559-.435-.188-.153-.429-.23-.594-.412-.153-.16-.2-.4-.33-.571-.129-.171-.277-.324-.394-.518-.118-.195-.46-.26-.548-.46-.088-.2-.159-.423-.229-.635-.071-.212.111-.489.058-.707-.053-.218-.3-.382-.335-.606-.035-.224.071-.447.053-.677-.018-.23.029-.436.029-.66 0-.352.053-.352.053-.706 0-.353-.011-.353-.011-.706s-.177-.353-.177-.707c0-.353.212-.353.212-.706s-.088-.353-.088-.706c0-.354-.112-.354-.112-.707s.047-.353.047-.706.159-.353.159-.707c0-.353-.012-.353-.012-.712s-.147-.353-.147-.706c0-.354-.047-.354-.047-.707s-.112-.353-.112-.712c0-.36.047-.353.047-.707 0-.353.112-.353.112-.712s-.077-.353-.077-.712c0-.36-.07-.36.177-.618.224-.242.229.053.559.053.33 0 .33-.077.665-.077.336 0 .33-.1.666-.1.335 0 .329.17.665.17.335 0 .329-.087.665-.087.335 0 .335-.012.665-.071s.365-.159.595.082v-.005zm0-7.31c.3 0 .559.01.812.117.253.106.524.2.736.412.212.212.229.512.335.771.106.26.454.483.454.783 0 .3-.189.589-.301.848-.111.259-.206.559-.417.777-.212.218-.566.212-.819.324-.253.111-.5.223-.8.223-.301 0-.613.047-.872-.064-.259-.112-.535-.265-.747-.483-.212-.218-.253-.548-.365-.8-.112-.254-.371-.519-.371-.82 0-.3.165-.605.271-.859.106-.253.276-.512.494-.724.218-.212.436-.476.695-.582.259-.106.6.082.901.082l-.006-.006zm7.582 0c.306 0 .559.01.818.117.259.106.524.206.742.418.212.212.235.512.341.765.106.253.459.477.459.777 0 .3-.194.595-.3.854-.106.259-.218.565-.435.777-.218.212-.566.206-.825.312-.259.106-.5.223-.8.223-.3 0-.601.048-.854-.058a2.48 2.48 0 01-.747-.46c-.148-.14-.148-.394-.248-.559-.1-.165-.37-.282-.418-.477-.047-.182.03-.412.03-.618 0-.3.053-.606.159-.86.106-.252.206-.582.418-.794.212-.212.559-.253.818-.359.259-.106.536-.065.836-.065l.006.006zm19.226 6.916c.247 0 .489-.018.724 0 .247.024.465.177.695.224.229.047.506-.024.73.047.223.07.429.23.641.33.212.1.454.164.66.3.206.135.335.347.518.506.182.159.441.23.606.412.147.165.247.377.377.553.129.177.241.371.353.566.112.194.182.394.277.6.094.206.218.389.288.6.071.213.041.442.094.666.053.223.047.43.077.653.029.224.118.424.135.654.018.23.094.435.094.665 0 .353-.123.353-.123.7 0 .348-.024.354-.024.707s.189.353.189.7c0 .348-.177.353-.177.707 0 .353.165.353.165.7 0 .348.1.353.1.707 0 .353-.259.353-.259.7 0 .348-.041.353-.041.7 0 .348.012.354.012.707s.158.353.158.7c0 .348-.035.354-.035.707s-.118.353-.118.706c0 .354.218.354.218.707s-.041.353-.041.706c0 .354-.041.354-.041.707s.282.512.041.765c-.224.241-.394.065-.724.065-.33 0-.33-.053-.665-.053-.336 0-.33.053-.666.053-.335 0-.329-.083-.665-.083-.335 0-.329.036-.665.036-.335 0-.335-.024-.665-.024s-.406.153-.636-.082c-.229-.236-.047-.306-.047-.648 0-.341-.018-.335-.018-.677 0-.341-.088-.335-.088-.67 0-.337.053-.337.053-.672 0-.336.23-.336.23-.671 0-.336-.324-.336-.324-.677s.047-.336.047-.671c0-.336.159-.336.159-.671 0-.336-.118-.336-.118-.677 0-.342.03-.336.03-.677 0-.342.029-.336.029-.677 0-.342-.082-.336-.082-.677 0-.342.182-.336.182-.677 0-.342-.112-.336-.112-.677 0-.342.094-.342.094-.677 0-.336.048-.342.048-.677 0-.253 0-.512-.03-.742a5.387 5.387 0 00-.124-.736c-.064-.241-.235-.459-.341-.665-.112-.224-.412-.3-.565-.489-.141-.17-.224-.347-.389-.476-.164-.13-.347-.195-.547-.277-.2-.082-.324-.365-.542-.406-.2-.035-.429-.077-.653-.077-.241 0-.489.112-.724.16-.236.046-.412.252-.636.347-.224.094-.441.153-.642.294-.188.13-.382.277-.582.453-.177.153-.46.224-.642.418-.165.17-.153.512-.324.712-.153.183-.347.3-.506.507-.059.341.012.335.012.683 0 .347-.13.347-.13.688 0 .342-.041.348-.041.695s.247.347.247.695c0 .347-.288.341-.288.688 0 .348.112.348.112.69v.694c0 .347-.042.347-.042.689 0 .34.124.347.124.688 0 .342-.024.348-.024.695s-.029.347-.029.695c0 .347.141.347.141.694 0 .348-.212.348-.212.695s.118.347.118.694c0 .348-.035.348-.035.695s.1.347.1.695c0 .347.129.447-.112.694-.241.248-.336-.106-.665-.106-.33 0-.336.183-.665.183-.33 0-.336-.006-.666-.006-.329 0-.335-.1-.665-.1-.329 0-.335.059-.665.059s-.336-.177-.671-.177c-.336 0-.336.294-.571.059-.236-.235.059-.241.059-.583 0-.341-.1-.341-.1-.677 0-.335.011-.341.011-.683 0-.341-.041-.341-.041-.682 0-.342-.17-.342-.17-.683 0-.342.011-.342.011-.677 0-.336.224-.342.224-.683 0-.342.035-.342.035-.683s.024-.341.024-.683c0-.341-.118-.341-.118-.683 0-.341.065-.341.065-.683 0-.341-.153-.341-.153-.683 0-.34.088-.34.088-.682s-.047-.342-.047-.677c0-.336.053-.342.053-.677 0-.336-.177-.342-.177-.683 0-.342.283-.342.283-.683s-.259-.341-.259-.683v-.683c0-.341.177-.341.177-.683 0-.341-.148-.341-.148-.683 0-.34.077-.34.077-.682s.129-.342.129-.683c0-.342-.064-.342-.064-.683s-.036-.341-.036-.683c0-.341-.265-.424-.023-.671.241-.247.318 0 .647 0 .33 0 .336.118.666.118.329 0 .335-.053.665-.053.329 0 .335-.036.665-.036s.336-.147.665-.147c.33 0 .336.088.671.088.336 0 .53-.317.777-.094.23.212-.07.424-.07.736s-.077.312-.077.618.206.312.206.624-.294.342-.188.63c.153-.182.365-.335.518-.5.165-.17.312-.342.477-.495.176-.159.288-.382.465-.524.188-.147.365-.306.553-.424.2-.123.43-.206.63-.306.23-.111.5-.123.742-.206.241-.082.459-.247.706-.306.247-.059.506-.082.76-.106.253-.023.506.047.765.047l.041.012z" fill="#37473D"/></svg>