<svg width="18" height="18" viewBox="0 0 18 18" fill="none" xmlns="http://www.w3.org/2000/svg"><path d="M3.813 12.917s.04-.06.047-.053c.025.007-.032.064-.047.053zm.792-1.892s.07-.046.081-.043c.029.011 0 .029 0 .025-.01-.007-.05.097-.067.09.01.007.032-.097.032-.093.003 0-.01.053.007.06-.029 0-.057-.032-.057-.042l.004.003zm-.638 1.721s.021.022.032.025c-.01-.01-.043.014-.054.007-.003 0 .018-.032.022-.032zm.556-1.5s.092-.15.1-.142c0 0-.05.082-.061.075-.004.003-.036.064-.04.064v.003z" fill="#1E462C"/><path d="M17.137 14.246c-.064-.11-.079-.103-.143-.213-.064-.11-.007-.143-.068-.253-.06-.11-.128-.075-.192-.186-.064-.11-.029-.128-.093-.238-.064-.11-.092-.097-.156-.207-.065-.11-.022-.135-.082-.246-.061-.11-.125-.075-.19-.185-.063-.11-.035-.129-.099-.239-.064-.11-.06-.114-.121-.22-.06-.108-.054-.118-.114-.229-.06-.11-.09-.092-.153-.203-.065-.11-.025-.132-.09-.242-.064-.11-.046-.122-.11-.232-.064-.11-.096-.093-.16-.203-.064-.11-.096-.093-.16-.203-.065-.11-.004-.146-.068-.257-.065-.11-.054-.117-.118-.228-.064-.11-.153-.06-.217-.17-.064-.111.017-.158-.047-.272-.064-.114-.142-.067-.206-.178-.064-.11-.11-.082-.175-.196-.064-.114.057-.181-.007-.292-.064-.11-.046-.121-.107-.232-.06-.11-.068-.11-.132-.22s-.139-.068-.203-.179c-.064-.11-.046-.12-.11-.231-.065-.11-.011-.143-.075-.257-.064-.114-.168-.053-.232-.164-.064-.11-.046-.12-.11-.235-.064-.114-.047-.121-.11-.232-.065-.11-.097-.092-.161-.203-.064-.11-.082-.1-.146-.21-.064-.11-.04-.125-.103-.235-.065-.11-.09-.096-.154-.207-.064-.11-.025-.132-.089-.242-.064-.11-.078-.103-.142-.214-.064-.11-.054-.117-.118-.228-.064-.11-.018-.135-.082-.246-.064-.11-.089-.096-.153-.206-.064-.11-.071-.107-.136-.218-.064-.11-.103-.085-.167-.196-.064-.11-.04-.124-.103-.235-.064-.11.043-.174-.022-.285-.064-.11-.213-.025-.278-.135-.064-.11-.042-.125-.107-.236-.064-.11.011-.153-.053-.263-.064-.11-.117-.079-.182-.19-.064-.11-.05-.12-.114-.23-.064-.111-.05-.118-.114-.232-.064-.114-.103-.09-.167-.2-.064-.11.021-.16-.043-.27-.064-.111-.117-.083-.182-.193-.064-.11-.021-.135-.085-.25-.064-.114-.043-.124-.107-.235-.064-.11-.057-.114-.125-.228s-.057-.117-.121-.228c-.064-.11-.103-.089-.167-.203-.065-.114-.164-.053-.229-.167-.05-.086-.067-.157-.138-.21-.075-.058-.15-.065-.24-.083-.088-.017-.18-.142-.274-.124a.745.745 0 00-.281.114c-.071.053-.114.167-.164.25-.064.11 0 .149-.06.26-.061.11-.09.096-.154.206l-.128.22c-.064.111-.132.072-.196.183-.064.11.046.174-.018.285-.064.11-.096.092-.16.203-.064.11-.06.114-.125.224-.064.11-.125.075-.185.186-.06.11-.082.1-.146.21-.064.11.053.178-.011.288-.064.11-.2.033-.26.143-.06.11-.01.139-.075.25l-.128.22c-.064.11-.082.1-.146.21-.064.111-.007.143-.072.254-.064.11-.074.103-.139.213-.064.11-.078.104-.142.214-.064.11 0 .15-.06.26-.061.11-.165.054-.229.164-.064.11-.01.143-.071.253-.06.11-.078.103-.143.214-.064.11-.017.139-.081.25-.065.11-.114.081-.179.192-.064.11-.114.082-.178.192-.064.11.022.16-.043.271-.064.11-.067.11-.131.221-.065.11-.11.082-.175.192-.064.11-.036.129-.1.24-.064.11-.146.063-.214.174-.067.11-.057.114-.12.228-.065.114-.076.103-.14.217-.064.114-.014.14-.078.25-.064.11-.071.106-.135.217-.065.11-.047.121-.11.232-.065.11.013.156-.05.267-.065.11-.072.107-.136.217-.064.11-.168.05-.232.16-.064.111-.078.1-.142.21-.065.111-.075.104-.14.215-.063.11-.01.142-.074.252-.064.111-.096.093-.16.204-.065.11.007.153-.054.263-.06.11-.107.086-.171.2-.064.114-.043.125-.107.235-.064.11-.089.096-.153.21-.064.114.018.157-.046.271-.065.114-.196.036-.26.146-.065.11.056.182-.011.292-.068.11-.068.11-.132.221-.064.11-.146.064-.214.175-.068.11.004.153-.06.264-.065.11-.1.089-.164.203-.065.114-.125.075-.19.188-.063.114-.035.129-.099.24-.064.11-.05.12-.114.23-.064.111-.057.119-.121.229-.064.11-.06.114-.125.228-.064.114-.117.082-.185.192-.05.086-.057.204-.068.293-.01.092.021.2.05.285.028.085.139.124.2.192.06.068.096.153.185.193.082.035.167-.018.267-.018.128 0 .128.064.253.064s.128.043.253.043.128-.11.253-.11.128.102.253.102h.253c.125 0 .128-.01.253-.01s.128-.054.253-.054.128-.018.253-.018.128.022.253.022.128.05.253.05.128-.054.257-.054c.128 0 .128.007.253.007.124 0 .128.093.253.093h.253c.124 0 .124-.064.253-.064.128 0 .124.078.253.078.128 0 .128-.11.253-.11.124 0 .128.021.253.021.124 0 .128.022.256.022s.128-.079.253-.079.128.157.253.157.128-.04.253-.04.128-.06.257-.06h.256c.128 0 .128-.01.257-.01.128 0 .128.007.256.007.129 0 .129-.018.257-.018s.128.075.256.075c.129 0 .129.046.257.046s.128-.036.256-.036c.129 0 .129-.142.257-.142s.128.125.257.125c.128 0 .128-.068.256-.068s.128-.046.257-.046c.128 0 .128.153.256.153.129 0 .129-.146.257-.146s.128.085.256.085c.129 0 .129-.064.257-.064s.128.014.257.014c.128 0 .128.086.256.086s.128-.103.257-.103c.128 0 .128.014.256.014.129 0 .129-.007.257-.007s.128.085.256.085c.129 0 .129.014.257.014s.128-.039.256-.039c.129 0 .129.05.257.05s.128-.135.26-.135.128-.008.257-.008c.128 0 .128.058.256.058s.128.103.26.103.129-.11.26-.11c.132 0 .129.039.26.039.132 0 .129.014.257.014s.128-.11.26-.11.129.078.26.078c.132 0 .132.085.26.085.129 0 .132-.057.26-.057.1 0 .2-.025.279-.06.085-.04.192-.079.253-.146a.766.766 0 00.131-.264c.029-.09 0-.189-.007-.285a.67.67 0 00-.075-.267l.015.018zm-12.265-3.37h-.01l-.061-.008.064.018c-.011 0-.022.014-.029.022.007.007.032-.022.043-.018.05.039-.1.039-.078.064.017.014.089-.029.089-.007 0 .018-.047-.021-.064-.018.017.014.046.021.028.025-.071.003-.021.057-.075.071.004 0 .01.036.014.036-.074 0 .082.036.008.028-.008 0-.057-.014-.061-.01 0 .018.014.053-.007.053.032.014.057.01.06.021 0 0 .011-.042.008-.046a.38.38 0 00-.093.093c.057.032.1.021.11.043-.025-.011-.067-.097-.114-.107.011.003.05.082.068.092-.021 0-.04-.092-.025-.082.007 0 .05.097.054.09v-.068s-.008.003-.008 0a.291.291 0 00-.046.025c.029.007.018.028.05.043-.004.003.021-.05.01-.054 0 0-.067.086-.067.082a.212.212 0 01.06-.014c.004.003-.014-.004-.017 0-.004.003.032-.004.028-.004a.328.328 0 01-.046.075l-.021-.032c-.004 0 .01.028.007.028-.011 0 .021-.024.042-.007-.028-.014-.064.004-.089-.007 0 0-.003-.043 0-.05-.003 0 .025-.025.015-.028-.036-.004.017.053-.011.057-.004 0-.014.007-.025 0-.01.003-.007.06.01.068-.028-.011-.01-.104 0-.093.022.014.022-.04.015-.032-.01 0-.043.164-.054.16h.029a.292.292 0 00-.043-.071c.007.014.071-.007.11.014.011.01-.039.036-.056.04.042.017.014.017 0 0 .067.024.06.078.057.085 0-.004-.082-.018-.09-.021.036.031.022.01.015.028-.025 0-.018-.068-.043-.068.014.014.007.05.021.064-.003.008.011-.042 0-.039 0 .018.043.004.029.01-.018 0-.025.03-.043.03.01.014-.007.131.004.142-.082-.025.05.021-.047 0-.032.007.057-.093.082-.079-.003.008-.007.026-.053.011 0 0 .018-.007.014-.007-.046-.021-.05.05-.064.05a.59.59 0 00.068.096c-.04.004-.029.018-.086.004.011.028.057.06.043.078 0 0-.018-.078-.021-.078-.011.003-.032.132-.082.11.003.022.064.022.035.029a.04.04 0 01-.028-.011c-.007 0-.014-.007-.007 0-.004 0 .028-.071.025-.071-.022-.004-.022.142-.018.146-.01 0 .025-.157.014-.16-.04-.004 0 .11-.018.124-.003-.007-.028.014-.039.014.054.033.054-.007.06.004-.01-.004-.014 0-.006.01.028.033-.079-.014-.05.019.014.01.01.014.028.02-.01 0 .064-.024.09-.013-.022-.004-.111-.025-.122-.018-.014-.007-.01.05-.032.046-.021 0-.021-.018-.046-.021-.004-.004.021-.057.025-.054.067.032-.029.068.042.093-.003.021-.067-.04-.042-.007-.072-.025-.022.128-.107.089-.007.007.039-.043.071-.021 0 0-.025.046-.025.05.01.007.014.01.01.017-.017-.018 0-.128-.028-.146a.29.29 0 00.04.06c-.026-.006-.061-.038-.086-.035.028.025-.04.104 0 .128.007.004-.007-.01-.004-.003-.007.01.064 0 .064.018-.007.003-.017.082-.024.082 0 .003.081-.068.085-.06 0 0-.032-.03-.043-.033 0 0 .007-.032 0-.036a.958.958 0 00-.107-.042s0 .106.008.114a.582.582 0 01-.058-.022c.008.014.086.007.111.029 0 0-.04.021-.04.025 0 .01.054.046.03.039 0 0 .006-.029.003-.029-.046-.01 0 .129-.075.097-.014 0 .043-.157 0-.168-.018.004.053.075.068.09-.004.01-.06.103-.057.113-.064-.018.018-.053-.057-.075a.18.18 0 01.05.036c0 .004-.025.032-.018.043 0 .003-.04.06-.04.067.015.008.083-.078.079-.07-.014-.019-.05-.004-.071-.022-.015.01.057.057.039.064-.018 0-.046-.004-.036.007.043.021-.043.021-.025.029-.018-.004.054-.043.032-.054.007.007-.035.06-.01.075a.22.22 0 01.064.025c-.025.007-.01.014-.046.014-.036-.01-.061.05-.093.036-.025-.004.053-.036.035-.036.008.004-.007.007.011.018 0-.004.05-.107.05-.11.018.014-.04.114-.018.117.014 0-.007-.018 0-.025.022.018 0 .007.025.018.018.018.007-.036.029-.014-.011-.004-.011.003-.029.003.018.015-.053.018-.053.025-.004 0-.054-.021-.057-.021.003.007.025-.029.046-.018 0 0 .014.014.018.014-.004.004-.025-.01-.046-.007.007.004-.011.09 0 .096-.004 0 .046-.024.042-.028 0 .004-.057.046-.046.06 0 0 .043-.007.043 0-.011-.01-.04-.039-.025-.046-.032-.014-.014 0-.022 0 .022.018.114-.01.129 0-.011-.003-.11.104-.118.104.014.007.032-.033.046-.026 0 0 .015-.024.015-.02-.004 0 0-.008-.004-.008-.007.004-.025-.036-.007-.014-.007-.007-.032 0-.046 0 .01.018-.022.025-.043.021 0 .01 0-.025-.025-.014-.004.01.014-.057.021-.057-.014.004 0 .05-.007.057l.096.11c-.007 0-.07-.096-.078-.096 0 0 0 .068-.004.068a.682.682 0 01-.089-.04c.004 0 .16.004.16 0-.003-.003-.117.058-.124.058-.018-.015-.021-.082-.028-.079.01.014.1.054.114.057-.022.007.01.047-.015.05-.018 0-.018-.089-.032-.089.004 0-.007.103.004.11-.082-.024.035.036-.014.03l-.043-.015c-.004.003-.01 0-.007.007.01.004.007.014.017.018.008.007 0-.047-.024-.064.024.025.067-.022.057-.018.007-.007-.068.114-.086.096-.021.004.05.01.053.021-.01-.007-.053-.089-.057-.089.022.018-.085.04-.074.054 0 .007.103 0 .1 0 .007.018-.072.007-.072.018 0 .003-.01.021 0 .028l.079-.071s-.057.053-.054.053c.036.01-.04.086-.025.096-.007-.003.022-.042.018-.042.032.018.007-.007.021.003-.014-.003-.071-.035-.075-.025 0 .004.072-.01.086 0-.018-.007-.032.032-.04.036A.474.474 0 014 12.771c-.014-.007-.096.136-.11.128.003.004.046-.085.05-.078.01.007.035.075.042.079-.025 0-.007-.079-.007-.072-.018-.003-.022.029-.04.022.004 0 .04 0 .05.007 0 0-.046.089-.05.085-.01-.01.004-.096-.02-.11.003.01.053-.007.085.01-.018 0-.09.093-.1.086.004.01.007-.025.014-.014 0 .003.022-.054.029-.05 0 0-.05.075-.047.075 0 0-.003.01 0 .01.008.011-.092.018-.046.047-.028-.007.06-.114.032-.129-.014-.003-.071.086-.064.097-.003 0 .032.042.025.042-.014 0 .036-.024.01-.028.022.014-.028 0-.006.021.007.007.05-.064.042-.067-.042-.015-.053-.05-.1-.054.03.029.036.068.047.09-.036-.015.014.149-.018.145a.449.449 0 00-.018-.117s.018.018.015.018c-.029-.008-.011.082-.036.078-.004-.007.04-.125.028-.128.015.018-.025-.018-.046-.011-.025.007.032.014.007 0-.007.004.032.118-.032.093-.003 0-.025.014-.028.01-.007-.007-.007-.01-.007-.007a.883.883 0 01-.008-.103c.011.007.018.025.032.032-.007-.007-.035.007-.046 0 .014.007.014.11.025.121.018 0 .01-.021.01-.025.011 0 .015-.064.022-.057-.01-.01-.018 0 0 0 .022.01.029-.01.046 0-.014-.021-.085.004-.103-.018-.043-.039.05 0 .018-.032-.014-.007.014-.064.007-.075.018.011-.032.047-.028.047-.011-.011.021-.104.028-.104 0-.003.086-.014.082-.014.007.004-.01-.007 0-.007.029.014-.004.028.021.043-.014-.014.057-.01-.007-.05-.003 0-.05.057-.05.05 0-.004.015-.054.018-.054.004 0 .018.064.018.06l.032.069c.004-.004-.036-.011 0 0a.577.577 0 01-.014-.068c.025.014.028-.068.057-.057a.317.317 0 01-.025.1c.007 0 .057 0 .06-.008-.007-.014-.078-.042-.085-.05 0 0-.018.03-.021.03-.008 0 .014-.058.017-.061.015 0 .043.01.057.028 0-.007.015-.064 0-.075-.021-.007-.057.068-.082.057-.007-.01.004-.032.008-.046 0-.007.01.036.01.04.079.017-.021-.058.047-.05-.008-.008.064-.061.053-.068.007-.004-.075.05-.057.05.007 0 .046-.022.046-.03-.01-.024-.057-.07-.042-.078.01 0-.043-.032-.04-.028 0-.007.086.06.093.06-.004-.007-.032.054-.04.05 0 0 .044-.035.044-.039.014-.01-.032-.01-.032-.032.035.014-.025-.018.02 0 .019 0 0-.085.015-.092.004.003.014 0 .018.007.018 0 0 .01-.01 0 .006 0 .024-.025.031-.022-.01-.01-.06.05-.07.04.003 0 .085-.082.095-.075-.035-.022-.082.114-.117.096.01.003.103-.103.117-.096a.155.155 0 01-.018.042c0-.003-.003.029-.01.022.025.007.025-.025.028-.022.015-.003.015-.106 0-.124-.01-.004-.007.021-.014.014a.36.36 0 01-.06-.04c.007 0 .057.019.064.019.014 0-.018.032-.015.025-.007-.008-.074.082-.085.074-.007-.003.018.011.025.011.039.018.039-.157.085-.128.029-.007-.018.053-.014.039.007-.007-.018.043-.01.046.01-.003.031-.085.02-.1.008.004-.063-.06-.056-.057 0-.007.082.061.075.043.007.007-.107.06-.104.064.004.004.054-.035.06-.035.04.018-.006.05.047.078-.018-.01.01-.167-.021-.178-.025-.007-.093-.01-.093-.014 0 0 0 .103.007.103-.021-.028.14-.075.125-.1.01.004-.057-.025-.05-.025.021-.01 0 .022-.007 0 .05.022-.004.047.046.072-.003-.025-.007-.025-.025-.057.079.028-.035-.04.032-.025-.028-.011-.025-.118-.021-.125.021.01.078-.021.093-.01-.022-.019-.082.053-.032.078-.047-.025-.015-.032-.047-.054.022 0 .022-.032.04-.035-.033-.011.05-.075.039-.086.003.004-.082.146-.079.146.029.01.007-.096.025-.092.01 0 .014.02.018.02-.021-.013.007-.127.036-.12 0 .003-.075.107-.064.11-.029-.042.085-.071.05-.117 0-.022.024-.022.042-.015.057.008-.021.057-.007.047.032-.025.135-.118.125-.164l-.057-.007s-.036.039-.04.035c-.007-.003-.02.057-.01.057.06.008-.018-.107.071-.082-.025-.028.029-.039-.01-.078.017.004-.026.046-.018.043-.008-.018.092-.082.078-.097-.05-.042.093.004.071-.028.015.007.029-.04.025-.046-.01-.004-.071.067-.082.064a.305.305 0 01-.021-.118c.018.014.036-.01.064 0-.018-.01-.01.06-.021.047.003-.015.078-.033.092-.036-.021-.018-.067-.01-.1-.025.008-.014.029 0 .036-.018 0-.007-.028.054-.028.05.01.004-.047-.096-.036-.089.004-.007.114.021.114.014.007.01.043-.014.053-.014-.02-.018-.081.121-.103.107.022 0 .018-.075.04-.068-.004-.007 0-.05-.015-.05.007-.014-.046-.028-.032-.039.01 0 .01.04.021.04 0-.011 0-.03.025-.026-.007-.003-.003-.042-.014-.046a.462.462 0 00.068.082c.003 0 .01-.078.021-.075-.007-.021-.068.004-.071-.018.018.011.064-.003.05-.018-.007-.003-.014-.01-.018-.01-.004-.004-.043.078-.036.078.022 0 .079.032.097.018.014-.01-.018-.04-.008-.057.011-.018-.046-.096-.028-.093-.007-.01-.043.061-.043.054.029-.007.043-.025.082-.025-.068-.029-.04-.029-.085-.05.057.004.089.014.11 0 .004 0 0-.068.007-.068.036.004-.05-.021-.032-.025.004 0-.007.072 0 .072.043 0 .004-.047-.021-.072.01.008.12-.05.12-.057-.01-.007-.113 0-.095 0 .003.004.007.06 0 .05-.011-.014-.072-.014-.072-.032.029-.007.193-.007.182-.032.014 0-.057-.007-.046 0 0-.018-.014-.075-.014-.089.02 0 0 .11.02.118.005 0 .022-.025.022-.029.036 0-.05-.025-.042-.032.02.007.05-.09.07-.082.033 0-.013.014-.038 0-.043-.036.103.014.074-.018-.02-.014-.01.01-.032 0 .018-.007-.064-.071-.046-.082.068.022-.028.107.036.125.007.004-.032.007-.025.01.039.008.035-.07.075-.056.01-.004.025-.007.017-.018-.007 0-.06.043-.064.04-.032-.03.064-.115.036-.136.007.007-.06.046-.054.046 0-.007 0 .014-.014 0 .025.007.047.028.04.014a.06.06 0 01-.022-.018c-.01-.014.01-.046.036-.042-.007-.008.05-.022.028-.032.01.003.007.05.014.05a13.15 13.15 0 01-.032-.033c.015.007.004.025.032.032-.025-.014.004-.042-.042-.064.014 0 .014.007.021.004.007 0-.028.06-.025.064-.025-.025.046-.1 0-.128.064.028.057-.06.114-.025 0-.007-.05.018-.06.01.05.022 0 .022.028.029-.018-.01-.096 0-.1-.01.004 0 .054.042.064.05-.017-.015.047-.04.075-.036-.014-.015-.103.007-.124-.008.014 0 .142-.067.163-.06-.021-.021-.032-.021-.057-.036.004 0 0 .06.011.064-.014-.007-.021-.089.004-.082 0 0-.05.082-.047.086.011.007-.01.025-.014.014-.003-.018.007-.021.018-.035.043.003.128-.029.182 0h.01c.018.007-.007.092 0 .089.011.003.075.017.079.028-.011.014-.04-.014-.057-.007-.007.018-.04-.004-.032.014l.039-.01zm5.31-1.682s0-.004.006 0c-.007-.011-.021.039 0 .035.014.004.018-.046.032-.046-.007-.018 0-.043-.01-.068-.029-.032.014-.007-.008-.032-.007-.003-.014.04-.017.036.01.003-.011-.029-.007-.029-.018-.021.039-.028.02-.042.008.003.012.017.019.017.025.011.018.008.05.036-.032-.028.014-.04-.04-.071l.025-.032s.007.075.011.075c.007-.004-.028-.033-.021-.033l-.007-.035c.003-.007-.004.05.017.053.004.007.007.025.015.032.025 0 0-.124 0-.131.018.007 0 .103.018.11.007-.004-.015-.1-.015-.107.004 0 .01-.053.014-.053.029-.007-.028.114.011.117.01 0 .032-.103.025-.11.01 0-.068.096-.057.11 0-.003.036-.043.025-.05-.014 0 0-.014-.021-.021-.008-.01.06-.01.06-.025a.311.311 0 00-.053-.043c.06-.003-.032-.046.043-.046-.018 0-.025.025-.036.018.01-.007.028-.068.043-.071.007 0-.065.05-.065.042-.007-.028.036-.078.05-.089.008 0-.039.01-.035.014 0-.01.107.05.068.033 0 0-.033-.043-.029-.043.014-.018.007-.05.01-.075.03.007.015.06.05.068.015-.011-.014-.057.004-.072-.007 0-.007-.021-.007-.025.014.004-.028.068-.021.068-.008-.007.014-.021.007-.028.003 0 .096-.093.103-.09-.025-.017-.1.115-.125.1.008.004.093-.12.104-.117.003 0 .01.06.01.057a.359.359 0 00-.046-.057c.014 0 .018.01.021.01.011-.01-.007.018-.021 0 0-.01-.025.018-.021.011-.008-.003.039-.078.032-.085-.007-.004-.04.007-.032.007.032.01.01.039.046.057.021-.015.046-.054.046-.072 0-.007-.032.043-.028.047.01-.007.035-.14.021-.15.007.004-.028.09-.021.093.007-.01-.11-.043-.114-.06a.203.203 0 00.043.003c-.004-.004.07-.064.07-.068.058.032-.028.107.019.132-.011-.007.017-.153-.007-.157v.054c-.015-.029-.061-.022-.072-.05a.16.16 0 00.057-.011c.018-.021 0-.046-.01-.075.039.014.02.1.06.114 0-.025-.05-.17-.06-.207.06.015.007 0 .06 0-.021-.007-.018-.017-.014-.028.014.01.04.014.05.021-.014-.01-.007.036.018.04-.015-.011-.097-.043-.114-.057.014-.004.146-.072.16-.079-.021-.007-.064.025-.064.018 0 0-.014.01-.014.014.02.004 0 0 .01 0s0-.01 0-.018c-.014-.003-.007-.06.014-.06 0 .003.008.021.015.025-.018-.043-.047-.075-.068-.121 0-.015.078.064.096.067.043-.01-.053-.085-.043-.1.029-.039.1-.056.097-.106-.004-.004-.057 0-.057-.004 0-.003.06 0 .057-.007-.008 0 0 .053.003.05.046-.007-.043-.16.029-.153-.018-.025.007.025-.022-.011.015-.004.075 0 .082-.007 0-.014-.035-.004-.043-.018-.028-.032.154-.086.129-.121 0 0-.11.103-.107.103a.657.657 0 00.11-.132c-.007 0-.035.05-.046.05-.01-.028-.028.018-.025 0 .014.014.018-.025.04-.018-.015-.01-.108-.01-.115-.028 0-.014.04-.007.05-.018-.018-.01.096-.071.071-.078.008-.018.018.042.025.021v-.107c-.021-.01-.025.071-.025.064.008 0 .054-.01.061-.007 0-.007-.093-.007-.093-.014.008.007.082.028.09.021-.004-.003-.036-.007-.036-.014 0-.003.025.018.028.014a.471.471 0 00-.128-.014c.007-.021.1.014.114 0 .007 0-.036-.121-.028-.125 0-.01 0-.021.017-.021l.022.01c-.018-.014-.036.004-.036 0 .004 0 .036.033.04.036-.004-.018.06-.014.06-.032.01.004.004-.028 0-.043-.007-.003-.032.008-.036.011-.003-.003-.021.018-.018.014.018 0 .029.015.036 0 .007-.014.029.015.036 0 .003-.014-.054.029-.036.029-.003-.01-.018-.05-.018-.054.025-.017-.025.011 0 .004-.05-.018.043-.068.007-.082.047-.01-.01-.107.011-.132l.057.05c.025-.003-.032.018-.018.007.004 0-.01-.103-.003-.103.032-.01.039.028.021.007.004.004.018.007.025.007-.01-.007-.046.01-.036.004.004 0-.024.025-.017.025-.011-.011-.054-.04-.05-.05.025-.018.075-.036.067-.064a.46.46 0 01.075.017c0-.017-.039-.089-.039-.106.014-.004.025.014.043.01 0-.01-.04.072-.01.072.003 0 .006.01.017.017.028-.01-.032-.085-.025-.1.018 0 0 .09.018.093.025 0-.018-.064-.036-.075-.035-.028.075-.01.054-.042-.015-.008 0-.018-.022-.025.014-.015-.043-.082-.028-.097.01.004-.018.129-.015.132.011.011.022-.042.043-.042 0 .01.025-.022.036-.015.028-.003 0 .011.028.018.008-.003-.025 0-.028-.01 0 0 .032-.015.04-.015.003 0 .031-.007.031 0 .004 0 .018.025.021.025 0-.007.033-.053.029-.06a.627.627 0 00-.121-.015l.1.054s-.065-.025-.068-.029c-.004-.003-.053.043-.057.04-.014-.022-.014.014-.036 0 .007.003.125-.03.129-.03 0-.006-.136-.113-.14-.124.018 0 .1.068.097.054-.007 0-.064.032-.071.028-.008-.014.01-.035.035-.039-.025-.014.082-.043.043-.057.028.004-.064.014-.043.01-.018-.003.014-.02 0-.031.022.007.01.028.04.028-.022-.01.031-.036 0-.046.01-.004 0 .085.006.082.004 0 .015-.064.018-.064-.018-.018.029.039-.01.017.046.018.01-.146.053-.12 0-.008-.025-.033-.036-.04.04.014-.02.053.004.053-.021-.007.064-.064.054-.074.003.003-.075.074-.065.078-.014-.014.036-.007.057-.007-.01-.01-.01-.007-.025-.018 0-.007-.089 0-.089-.007 0-.01.057-.004.06-.014 0-.011.033.082.044.082l-.015-.06c.008 0 .036-.019.033-.03 0-.014 0 .022.007.011.035-.01.007.015.046.029.007 0 .021-.029.025-.025.014.003.043.078.046.075.007 0 .096-.029.1-.018-.01.018-.121-.032-.136-.022 0 .015.061 0 .065.018 0 .007-.057-.046-.065-.046-.007 0 .008.043 0 .043-.017-.007.015 0 .011.003.007.007.018-.014.025-.01.032.032-.107.082-.092.107.01.014.135-.015.135 0 0 .014-.093.017-.107.02.014.012.04.019.028.03-.056.024.025.124-.017.153a.57.57 0 00-.047-.068c-.064.014.05.064-.007.082-.003 0-.05-.029-.05-.025 0 .018-.025.075-.042.082.028.007.046-.025.05-.01-.004 0 .003.042.003.038-.01-.003.022-.082.025-.074.043.025 0 .067.01.085-.02-.003-.031-.057-.067-.06.007.003-.068.085-.053.092-.015 0 .1.05.11.057.007 0-.1-.064-.1-.071l.104.014c0-.003-.022.007-.025.007.021 0 .053-.06.074-.053 0 .007-.046.139-.064.132 0 .003-.053-.118-.06-.118.003.004.025.025.025.029l.039.053s.01.021.007.025c-.014.007-.003.028.01.043-.028-.018-.07 0-.092-.007-.007-.008.007-.029.014-.04-.003-.007.032-.007.025-.007-.028.004-.021-.071-.043-.06 0 0 .025 0 .015-.007-.007.003.01.096.021.103-.021-.007-.06.01-.053.021.014.011.042 0 .039.007-.007 0-.018.054-.025.05-.007.004.082-.057.086-.042a.283.283 0 00-.079-.004c.004.014.064-.01.093.007.007.01-.068.075-.082.075.01.01.064-.093.05-.093.035.011.039.136.035.146a.457.457 0 00-.05-.074c.029.032-.064.007-.067.028-.022.004 0 .06-.025.06 0 .011.075.079.075.09-.011 0-.029-.075-.036-.072 0 .022 0-.046-.018-.032h-.014c.007.011.007.068.014.079-.06-.007.05.135-.021.135-.022.01-.043 0-.022.014-.003.008.054-.089.018-.096 0 0-.028.082-.032.082-.028-.01.06-.032.06-.025.004.01-.035.032-.028.032-.032.015-.025.057-.068.057.008.029 0 .029-.017.054 0 0 .046.057.042.057-.01.007-.035 0-.07-.014 0 .02.038.014.017.032-.007 0 .007-.004 0-.008-.007 0-.075.072-.068.079-.003 0 .06-.075.057-.079-.014.004 0 .029.007.036-.007 0-.003.04-.014.04-.032.01.068.092.054.113a.77.77 0 00-.086-.064.27.27 0 01.086.086c0 .003-.097-.057-.1-.054 0 .015-.05.072-.032.096.01.008.039-.02.05-.02-.008.003.021-.033.042-.03a.129.129 0 00-.053.03c-.01-.004-.01-.04-.028-.04-.015 0-.022-.021-.036-.018v.071s-.04.029-.036.036c.05.018.079-.118.132-.11-.003.028-.071.153-.057.181-.05-.007-.04 0-.103-.021-.004.007-.04.036-.032.046-.004-.003.01-.032.007-.035 0 .014.039-.036.046-.025-.018 0-.05 0-.068.007.022.018.047-.015.075.007.004 0 .05.057.05.06-.007.018-.082.018-.082.036-.003.004.018.09.01.09-.006 0 .058-.118.026-.122-.004 0-.075.121-.079.118-.025-.008 0-.093-.014-.093 0 .004-.046.068-.043.068.004.014.032.01.05.032-.01.01.057.114.036.117l.01-.153c-.031-.003.025.025-.028.007-.014.004-.014.05-.043.047-.021.01.032-.033.011-.025 0-.004-.036.042-.04.042-.003.011.069.143.072.154-.046 0-.025.032-.071.032a.461.461 0 00-.054-.064c-.003.007.132.014.14.017a.314.314 0 00-.072.015c0 .003-.018.021-.018.025.004 0 .082-.057.082-.05-.01-.018-.082-.029-.096-.04-.01.015.064.129.05.143-.01.004-.118-.007-.11.007.031.014.053-.014.063-.01-.01 0 .018.028 0 .02.008.008-.014-.013.008-.003.007 0-.047-.071-.05-.064-.022.014.096.025.071.032-.025-.003-.036.064-.06.06-.026 0 .017.047 0 .047.01.004.039-.089.05-.078.003-.004-.011.014-.011.007.014.007-.018.078 0 .075.014 0-.047-.04-.04-.05.015.014 0 .1.022.103.01.018-.064-.032-.05-.014-.007.003.014-.025 0-.025.014.018.014-.01.025 0 0 0-.079-.029-.086-.029a.4.4 0 00.079.082c.003 0 .014-.039.018-.039-.004.007.046.075.032.079 0 .003-.079-.025-.075-.018 0 0-.004-.054-.007-.054-.004.014.103-.028.075-.025-.004 0 0 .086-.004.086-.004.003-.071 0-.071.007 0-.014-.04.032-.025.018-.029-.007.032-.029.021-.025.014.01 0 .06.014.068a.191.191 0 01.033-.025c.01.003.003.028.014.028 0 .004.067-.093.071-.089 0-.004-.068.107-.075.107-.007.003-.071-.018-.057 0-.003-.007-.046-.086-.06-.082.007.018 0-.04-.022-.036 0 .015.096.075.079.09 0 .003-.022-.03-.015-.03-.014.008.036.058.025.069.004 0-.007-.025-.007-.022-.01 0-.01.014-.018.018 0 0 .015.029.015.025a.393.393 0 00.05-.082l-.065-.007c-.003 0 .008.053.004.053-.01-.014-.071-.01-.079 0 .004.015.029.018.04.018-.015.01.039-.018.021-.01a3.03 3.03 0 00-.096.11c.021.014.082-.128.1-.114-.064-.007.028.2-.015.21-.014 0 0-.1-.014-.107a.213.213 0 00-.021.05c.007 0 .028-.06.039-.06.003.007-.046.06-.064.046.018.021-.007.053-.018.06.007-.01.029.004.018-.01-.018.007-.014-.05-.01-.04-.012-.007.01 0 .006.008.018.014-.096.014-.089.028 0 .007.104.036.104.04.003.017-.04.01-.04.028 0 .003.022-.036.025-.032l-.039.117v-.089a.12.12 0 01.06.043c-.006 0-.11.036-.103.043.014.007.022-.06.025-.05-.01 0-.032.01-.035.021a.465.465 0 00.067.079c-.014 0-.025-.096-.032-.09-.003-.006.043-.006.04-.01-.015-.007-.036-.021-.05-.029-.004.004.067.086.057.09a.62.62 0 01-.061-.043c-.021.007.025.01.021.021-.01 0-.018.082-.028.082.003.007-.029-.007-.021 0 0 0 .046.014.042.014-.007-.007-.032-.117-.05-.124 0 .01.047.085.072.096-.018.007-.075.032-.086.028.004.011.021.015.025.022h-.007s-.007-.018-.004-.018c.004 0-.046.064-.042.068.003.01-.018-.011.017.01-.024 0 .008.004-.014-.007-.021 0 .025.029-.018.014.004.008-.003-.035 0-.035-.01 0 .025.064 0 .064.011.007.043-.036.05-.029-.003 0-.025-.01-.028-.007.01.007.007.136-.007.132-.033 0-.015-.071-.047-.064.022.025.04-.01.043.01-.029-.006.007.093-.018.097 0 0 .05-.093.043-.096 0 .007-.064.007-.06.014 0 0-.004.06-.008.06-.021 0 .029-.128.011-.124 0-.007-.096.1-.107.1.01.014.09-.05.071-.043-.018.007-.021.085-.039.082-.007.007.068-.04.018-.054-.004 0-.05.029-.053.025 0 0 .042-.021.039-.021-.007-.01-.065-.071-.068-.082.007.007.068-.01.075-.007.014-.004-.01.068-.007.06l-.004-.01zm1.606 3.499s.014-.01.018-.01c-.004 0-.043.056-.046.056.025.018.035-.053.053-.039-.004-.004-.018-.018-.021-.014-.007 0-.007.028-.014.028-.026-.014-.043.025-.072 0 .032.029.029-.039.082-.007 0 0-.021.018-.025.018-.007.004.007 0-.021-.004-.004-.003.007-.014.003-.021-.01 0-.014.025-.01.036-.004 0-.029-.04-.036-.04 0 .004.025-.014.029-.007-.008 0 0 .032-.004.032-.014 0 .01.025.021.032 0 0-.05.047-.053.047.007 0 .05-.096.057-.093-.01-.003-.054.09-.064.079 0 .003.003.032.014.039.014.003.053-.075.075-.068.007.007.068.032.068.04 0 0-.09-.054-.09-.058-.057-.007.033.032-.039.022.018.003-.064.078-.057.085-.007.004.057.032.047.032-.008 0-.004-.032-.008-.025.008.022.011-.025 0-.018-.007 0 .04.1.036.097 0 .007-.078-.075-.039-.057v.035c-.01.01.014.079.014.096-.025-.01-.021.011-.053 0-.014 0 .021 0 .01.004-.003-.004-.017.025-.017.021-.022 0 .032-.035.025-.028 0-.004.021-.046.017-.046 0 .003-.003.007 0 .01-.003 0-.06.01-.067.01.007.012.028.008.046.019-.007 0-.043.01-.05.007 0 0 .068-.018.068-.014 0 .003-.06.05-.054.053-.021-.003-.042-.117-.046-.121-.01.007.068.014.082.025.007 0 .021.032.028.036.008.003-.046.035-.05.035-.006 0-.014.05-.02.046-.011 0 .035-.039.031-.035.007.003.007.01.015.018.007.003.003.075 0 .075-.029-.015 0-.093-.036-.111-.021.007.021.082.018.096a.287.287 0 00-.025-.046c-.01 0-.05.078-.036.089-.01 0-.003-.082-.01-.082 0 .007-.015.057-.011.068a.194.194 0 01.039.018c.007.003-.007.056-.004.06-.06-.035-.014-.035-.06-.06.014.007.082-.072.107-.065 0 0-.079.093-.079.097.015.021-.028.014-.021.035-.004-.003.05-.05.043-.05-.018.011.032.104.039.125-.04-.014-.007-.046-.043-.064 0 .021.007.043.018.068-.06-.018.01-.05-.036-.06.018.01.004.142.004.149-.014-.011.028-.086.018-.093.014.014-.014.01-.05-.007.036.018-.036.06-.01.075-.019 0-.019.035-.033.039.021.007.114.036.114.04l-.04-.13c-.02-.006-.003.076-.017.072-.01 0-.032.025-.036.025.018.007.05-.025.029-.028 0 0 .003.021 0 .017.018.036-.036.057-.014.093 0 .014-.025-.014-.04-.018-.042-.003.09.086.082.093-.028.025-.17-.007-.163.028.003.008.064-.021.078-.014-.007 0-.043 0-.029.01.008.004.018.072.011.072-.046-.007.007-.007-.057-.025.018.021-.082.04-.053.068-.015 0 .067-.054.06-.05.007.014 0 .004.011.018.021.028-.1.039-.1.057l.018.018c-.01-.007-.064.05-.06.053.007.004 0-.021.007-.018.007.022.017-.089.017-.075-.01-.007.011.047 0 .047.008 0 0 .028 0 .035 0 .011 0 .022-.014.025.018.011.082-.039.104-.028-.004.01 0 .11-.008.124 0 0-.103-.014-.1-.01.011.01.03-.093.03-.09 0-.003-.094.065-.1.065 0 .003.07 0 .07.007-.007-.004-.039-.05-.046-.05 0 0 .064.06.064.064 0 0-.046-.025-.046-.021a.126.126 0 00.06.014c-.007.014-.007.014-.017.025-.007 0-.004.086-.014.086 0 .01-.004-.136-.022-.136.007 0 .046.04.054.04 0 0 .028.05.028.056-.003 0-.053-.039-.057-.039l.007.01c.007.015-.025.03-.025.044-.014-.004-.096.046-.089.057.007.003.043-.018.046-.018 0 0 .04-.043.036-.043-.018 0-.032-.007-.043 0-.01.01.025.01.025.025 0 .014.004-.078-.007-.078v.06c-.021.01-.021.05-.05.05.047.021.054.032.086.05-.043 0-.075.007-.093.021 0 0-.025.068-.028.068-.025-.003.053-.04.039-.036-.004 0 0-.046-.004-.046-.028 0 .054 0 .068.018 0 0-.085.053-.085.057 0-.004-.008.01-.011.01.007.008.025-.014.021 0-.021.008.007.026.01.047-.006 0-.013.028-.024.025 0 .014-.004.025-.004.04-.007.003-.028-.047-.035-.047 0 .003.046.018.05.021-.004 0-.047.036-.05.036-.004 0 .003-.1-.007-.107-.029 0 .032.021.025.028-.018-.003-.032.047-.047.043-.021 0-.035.075-.018.086.033.028.008-.1.029-.072.014.007.01.029.025.04-.01.007 0 .01-.014.017-.05-.014-.032.068-.079.054-.007-.004.093-.14.086-.143-.029 0-.032.022-.06.011-.011.004.013.068.017.078 0 0-.01-.01-.007-.01.028.021.007.014.028.028-.007-.003-.014.032-.021.032 0 .004.032.032.036.043-.018-.003-.093-.028-.086-.018.004.004-.018.047-.01.05.01.014.003-.078-.018-.078.017.01.114-.04.124-.032-.007 0-.107.06-.12.057a.312.312 0 01.06.057c-.018-.011.021.01-.007.007.017.01-.06.025-.029.039-.007 0 .014.004.01.007-.003 0-.013-.068-.017-.071.018.018 0 .064.036.089-.043-.025-.025-.004-.068-.029 0 .004.05-.06.057-.053-.036-.018-.01.1-.036.093.015.01.025-.011.029 0-.004.003 0 0-.007 0 0 .003-.072-.06-.086-.064.007.01.004.07.022.082-.011 0 .01-.026 0-.033.014.015-.018.05 0 .065-.004 0 0 .007-.008.003.004 0 .018.014.022.018-.01 0 .014-.082.01-.071-.003.01-.06.064-.053.07 0 0 .064-.031.06-.031-.031 0-.067-.06-.103-.079 0 0 .007-.017 0-.017-.014-.004-.035.103-.039.103-.01 0-.043-.11-.046-.118.007-.014.132.004.142 0 0-.014-.067 0-.071-.014 0-.007-.018.029-.014.029v.028c.01.004.021-.092.028-.096-.007-.004-.032.036-.039.028-.032-.032.114-.064.096-.085-.01-.01-.167.05-.167.036 0-.015.096 0 .11 0-.01-.011-.043-.068-.028-.072.053-.007.046.05.085.036a.227.227 0 00-.032-.036c.06 0-.046-.12.01-.12.004 0-.042.01-.038.006 0-.014.071.029.089.029-.029-.014-.125-.007-.132-.018.007.004.1-.021.103-.018.007 0-.01.054-.007.054-.039-.029-.06-.132-.067-.15.02.007.092.078.124.089-.007-.007-.007-.018-.021-.025.014 0 .01-.06 0-.068 0 .004-.068 0-.071.004a.303.303 0 00.014.053s.089 0 .089.004-.054.04-.057.04c-.022-.004 0-.054-.025-.065.003-.004-.025.068-.014.071.003 0 .021.018.025.018.003 0 .05-.089.053-.093 0 0-.107-.06-.107-.064 0 0 .05.079.054.079.003 0 .017-.007.021-.007.01 0 .007-.097-.007-.107.028.018.043.018.064.028.007.007-.128.029-.135.04.003 0 .078.085.085.088.029.004 0-.089.018-.092.003 0-.018-.01-.01-.007-.004-.008.017-.018.013-.022.022.007-.01.079-.017.068-.015-.01.025-.1.032-.103.007 0 0 .032.007.032.018 0-.036.085-.021.085.007 0 .092-.103.096-.103-.007-.01-.093.007-.114-.007 0-.01.028.043.039.039-.01-.014-.043-.06-.01-.046-.05-.018-.065-.075-.061-.082 0 0 0 .1.007.103-.025-.029.064-.075.067-.089.018 0 .029-.046.05-.043 0-.007-.06-.035-.06-.039.01 0-.032-.01-.025-.014 0-.014.043-.018.053-.025.014 0 .004.039.018.039-.01-.01-.018.096-.028.09.06.013-.008-.122.064-.108.025-.007-.05.043-.068.032.004-.003.018-.05.05-.035.007.003.075.057.082.053 0-.007 0-.107-.004-.11-.003-.008-.075.042-.085.042.032 0-.01-.117.032-.11-.007-.021.018.06.032.046l-.029.018c.011-.004.025-.103.061-.089 0-.014-.04-.078-.018-.086.007 0 0 .068.007.068-.003-.01-.007-.01-.01-.014.007 0 .032.05.039.05 0 0-.046-.072-.043-.072.004 0 .021.015.025.015.028-.004 0-.01.018-.022 0 0 .018-.035.025-.035-.036-.022-.032.06-.04.05.011 0 .057-.075.05-.086-.021-.025.022.004 0-.018-.01-.007-.032.043-.042.04a.592.592 0 00-.054-.09c.007 0 .079.065.082.061.014.004.01-.057.025-.053.018 0 .014.103.032.103a.659.659 0 00.036-.1c-.05-.021-.01.018-.06 0 .003-.021.014-.01 0-.04.05.019.028-.028.088 0 .004-.01-.007-.006-.032-.024 0 0 .014-.018.014-.014-.014-.011-.01-.025-.01-.029.014.01-.01.132.01.146-.003-.01.015-.188.011-.196.018.004-.021.057-.003.05-.022-.018.042.057.014.036-.004 0 .032-.01.028-.014.008-.011-.053 0-.053-.011.007-.004-.018.068-.007.068.007-.004-.046-.043-.014-.032 0 0 .092-.118.096-.118.021.01-.029-.014-.018-.01 0-.004.021.053.018.05l-.09.024c-.003-.01.111-.089.086-.107l-.068-.007c.008-.007-.01.071.008.075 0 0-.008.032-.004.032.032.007-.014-.06.04-.04.01.004.01-.106.039-.099.02-.004-.047.121-.03.121.005 0 .058-.01.062-.007 0-.007-.054-.053-.057-.064.05.01-.011.028.042.04-.018-.005.04-.133.032-.136 0-.008-.12.082-.124.078a.493.493 0 01-.011-.064c0-.004.032.04.032.036.007.01.071-.09.09-.079.006-.007-.054.036-.04.029.014 0 .064-.015.057-.025-.032-.018-.05-.072-.064-.075.01.003.018.132.035.139-.007-.007 0-.04-.017-.05 0 0 .046.04.05.04.017-.008-.082-.072-.057-.072.024.007.042-.046.064-.036.021.004-.022.007-.008.007-.007-.003.022-.085.011-.092 0 .003.021.025.018.028-.014-.007-.05.047-.068.043-.01 0 .025.036.014.04-.014-.015-.06.042-.081.035-.011-.01.017-.118.017-.125.008 0 .061.046.075.046-.014-.014 0 .029-.01.018 0 0 .028.047.035.05-.003-.003.025-.16.01-.167 0 0-.028.035-.031.035 0 0-.014.047-.018.047 0-.008.075.018.085.014a.361.361 0 01-.056-.046l-.029-.004c.007-.01-.032-.09-.007-.09.003.005-.004.126 0 .126.003 0-.04-.015-.04-.011.008.007.019.021 0 .028.03.011.072-.06.083-.06-.011-.007-.061.04-.072.032 0 0 0 .018.004.014-.004 0 .032-.092.028-.092-.003 0 .043-.032.04-.032 0-.004-.054.07-.057.064.003 0-.025.025-.022.025.004 0 .132-.068.118-.086a.612.612 0 01-.096.032c-.007-.014.114.068.128.068 0-.01-.007-.025.01-.032.004-.007-.01.018-.017.018.014-.008-.06-.075-.043-.075-.004 0 .028.028.025.025.007 0-.025-.047-.022-.047 0 0 0 .029.004.029s-.01-.021-.007-.018c-.004 0-.01.01-.014.01.007.008.142.03.153.03-.007-.015-.053-.011-.064-.015.014-.004-.1-.043-.082-.046a.351.351 0 00.075-.018c-.011-.01-.04.032-.047.032.029 0-.05-.01-.014-.01.014 0-.007.02.007.028.004 0 .068-.157.064-.164-.007 0-.057.15-.067.146-.004-.007.046-.064.064-.053-.014-.015-.022-.015-.01-.015.006 0 .01-.06.017-.053.014-.004.01.06.007.053.01 0-.036 0-.036-.014-.014-.014.011-.04.008-.05 0 0 .067.025.067.021-.007-.017 0 .011-.025-.01-.028-.007.079-.079.068-.09.007.004-.075.075-.071.075-.025-.01-.014-.039-.025-.046.01 0-.01.014-.007.007-.004-.007.042.064.032.06.014.005.025-.081.028-.085 0 0 .032-.01.032-.007.007.007.022.071.029.075a.713.713 0 01-.029-.096c-.01-.004-.018.068-.025.064.022-.004-.007-.121-.007-.128.01 0-.01.103 0 .107 0 0 .05-.068.04-.075 0 0-.061.078-.058.082.008.007.029-.107.047-.1-.004-.007.039.021.014.01.014-.003.018.054.028.061-.003-.01-.053-.039-.06-.046 0-.004.036-.075.028-.075 0 0-.028.057-.028.054-.007-.011.128-.058.093-.079.021.004-.043.018-.022.029.022.003-.039.021 0 .039 0-.007-.01-.04-.003-.04.01 0-.011 0 0 0-.008-.007-.029.004-.032 0 0 0 .028.058.028.054.021.004.043-.014.06-.025-.02-.021-.056-.057-.064-.071.029.007-.007-.018.015-.022 0 .004.039.029.046.036 0-.007-.053 0-.053-.003 0-.004.039-.057.042-.054.022.004-.007 0 .015.004.003.007.003-.036.014-.036 0 0 .028.06.032.06.007.011-.025.054-.04.054-.014-.007.072 0 .058 0 .01.014 0-.036.01-.018.033.032-.082.06-.06.082l.014-.021z" fill="#1E462C"/></svg>