<svg width="18" height="18" viewBox="0 0 18 18" fill="none" xmlns="http://www.w3.org/2000/svg">
<path d="M3.81348 12.9174C3.81348 12.9174 3.85267 12.8568 3.8598 12.8639C3.88474 12.8711 3.82773 12.9281 3.81348 12.9174Z" fill="#1E462C"/>
<path d="M4.60452 11.0253C4.60452 11.0253 4.67578 10.9789 4.68647 10.9825C4.71498 10.9932 4.68647 11.011 4.68647 11.0074C4.67578 11.0003 4.63659 11.1036 4.61877 11.0965C4.62946 11.1036 4.65084 11.0003 4.65084 11.0039C4.6544 11.0039 4.64015 11.0573 4.65796 11.0645C4.62946 11.0645 4.60095 11.0324 4.60095 11.0217L4.60452 11.0253Z" fill="#1E462C"/>
<path d="M3.96672 12.7463C3.96672 12.7463 3.9881 12.7677 3.99879 12.7713C3.9881 12.7606 3.95604 12.7855 3.94535 12.7784C3.94178 12.7784 3.96316 12.7463 3.96672 12.7463Z" fill="#1E462C"/>
<path d="M4.52271 11.2462C4.52271 11.2462 4.61535 11.0965 4.62248 11.1036C4.62248 11.1036 4.57259 11.1856 4.5619 11.1785C4.55834 11.182 4.52627 11.2426 4.52271 11.2426V11.2462Z" fill="#1E462C"/>
<path d="M17.1367 14.2465C17.0725 14.136 17.0583 14.1431 16.9941 14.0327C16.93 13.9222 16.987 13.8901 16.9264 13.7797C16.8658 13.6692 16.7981 13.7048 16.734 13.5944C16.6699 13.4839 16.7055 13.4661 16.6414 13.3556C16.5772 13.2452 16.5487 13.2594 16.4846 13.149C16.4204 13.0385 16.4632 13.0136 16.4026 12.9031C16.342 12.7926 16.2779 12.8283 16.2138 12.7178C16.1496 12.6073 16.1781 12.5895 16.114 12.4791C16.0498 12.3686 16.0534 12.365 15.9928 12.2581C15.9323 12.1512 15.9394 12.1406 15.8788 12.0301C15.8182 11.9196 15.7897 11.9375 15.7256 11.827C15.6615 11.7165 15.7006 11.6951 15.6365 11.5847C15.5724 11.4742 15.5902 11.4635 15.526 11.3531C15.4619 11.2426 15.4298 11.2604 15.3657 11.15C15.3016 11.0395 15.2695 11.0573 15.2054 10.9469C15.1412 10.8364 15.2018 10.8008 15.1376 10.6903C15.0735 10.5798 15.0842 10.5727 15.0201 10.4623C14.9559 10.3518 14.8668 10.4017 14.8027 10.2912C14.7386 10.1808 14.8205 10.1344 14.7564 10.0204C14.6922 9.90638 14.6138 9.9527 14.5497 9.84224C14.4856 9.73178 14.4392 9.76029 14.3751 9.64626C14.311 9.53224 14.4321 9.46453 14.368 9.35407C14.3038 9.24361 14.3217 9.23292 14.2611 9.12246C14.2005 9.012 14.1934 9.012 14.1292 8.90153C14.0651 8.79107 13.9903 8.83383 13.9261 8.72337C13.862 8.61291 13.8798 8.60222 13.8157 8.49176C13.7515 8.3813 13.805 8.34923 13.7408 8.2352C13.6767 8.12118 13.5734 8.18175 13.5092 8.07129C13.4451 7.96083 13.4629 7.95014 13.3988 7.83611C13.3346 7.72209 13.3524 7.71496 13.2883 7.6045C13.2242 7.49404 13.1921 7.51185 13.128 7.40139C13.0638 7.29093 13.046 7.30162 12.9819 7.19116C12.9177 7.0807 12.9427 7.06644 12.8785 6.95598C12.8144 6.84552 12.7894 6.85977 12.7253 6.74931C12.6612 6.63885 12.7004 6.61747 12.6362 6.50701C12.5721 6.39655 12.5578 6.40367 12.4937 6.29321C12.4296 6.18275 12.4402 6.17562 12.3761 6.06516C12.312 5.9547 12.3583 5.92976 12.2941 5.81929C12.23 5.70883 12.2051 5.72309 12.1409 5.61262C12.0768 5.50216 12.0697 5.50573 12.0055 5.39526C11.9414 5.2848 11.9022 5.30975 11.838 5.19928C11.7739 5.08882 11.7989 5.07457 11.7347 4.96411C11.6706 4.85365 11.7775 4.78951 11.7133 4.67904C11.6492 4.56858 11.4995 4.6541 11.4354 4.54364C11.3713 4.43318 11.3926 4.41892 11.3285 4.30846C11.2644 4.198 11.3392 4.15524 11.275 4.04478C11.2109 3.93432 11.1575 3.96639 11.0933 3.85593C11.0292 3.74546 11.0434 3.73477 10.9793 3.62431C10.9152 3.51385 10.9294 3.50672 10.8653 3.3927C10.8011 3.27867 10.7619 3.30362 10.6978 3.19316C10.6337 3.08269 10.7192 3.03281 10.655 2.92235C10.5909 2.81188 10.5375 2.84039 10.4733 2.72993C10.4092 2.61947 10.4519 2.59452 10.3878 2.4805C10.3237 2.36647 10.345 2.35578 10.2809 2.24532C10.2168 2.13486 10.2239 2.1313 10.1562 2.01727C10.0885 1.90325 10.0992 1.89968 10.035 1.78922C9.97089 1.67876 9.93169 1.70014 9.86755 1.58612C9.80341 1.47209 9.70364 1.53267 9.6395 1.41864C9.58962 1.33312 9.5718 1.26186 9.50054 1.20841C9.42571 1.15139 9.35088 1.14427 9.2618 1.12645C9.17271 1.10864 9.08007 0.98392 8.98742 1.00174C8.89478 1.01955 8.78431 1.05875 8.70592 1.11576C8.63466 1.16921 8.5919 1.28324 8.54201 1.36519C8.47787 1.47565 8.54201 1.51485 8.48144 1.62531C8.42086 1.73577 8.39235 1.72152 8.32821 1.83198C8.26408 1.94244 8.26408 1.94244 8.19994 2.05291C8.1358 2.16337 8.0681 2.12417 8.00396 2.23463C7.93982 2.34509 8.05028 2.40923 7.98614 2.5197C7.922 2.63016 7.88993 2.61234 7.82579 2.7228C7.76165 2.83326 7.76522 2.83683 7.70108 2.94729C7.63694 3.05775 7.57636 3.02212 7.51579 3.13258C7.45521 3.24304 7.43383 3.23235 7.36969 3.34281C7.30555 3.45328 7.42314 3.52098 7.359 3.63144C7.29486 3.7419 7.15946 3.66351 7.09888 3.77397C7.03831 3.88443 7.08819 3.91294 7.02405 4.0234C6.95991 4.13386 6.95991 4.13386 6.89577 4.24432C6.83164 4.35479 6.81382 4.3441 6.74968 4.45456C6.68554 4.56502 6.74255 4.59709 6.67841 4.70755C6.61428 4.81801 6.60359 4.81089 6.53945 4.92135C6.47531 5.03181 6.46105 5.02468 6.39692 5.13514C6.33278 5.24561 6.39692 5.2848 6.33634 5.39526C6.27576 5.50573 6.17243 5.44871 6.10829 5.55918C6.04415 5.66964 6.0976 5.70171 6.03702 5.81217C5.97645 5.92263 5.95863 5.9155 5.89449 6.02597C5.83035 6.13643 5.87668 6.16493 5.81254 6.2754C5.7484 6.38586 5.69851 6.35735 5.63437 6.46781C5.57023 6.57827 5.52035 6.54977 5.45621 6.66023C5.39207 6.77069 5.47759 6.82058 5.41345 6.93104C5.34931 7.0415 5.34575 7.0415 5.28161 7.15196C5.21747 7.26242 5.17115 7.23392 5.10701 7.34438C5.04287 7.45484 5.07137 7.47266 5.00724 7.58312C4.9431 7.69358 4.86114 7.64726 4.79344 7.75772C4.72574 7.86818 4.73643 7.87175 4.67229 7.98577C4.60815 8.0998 4.59746 8.08911 4.53332 8.20313C4.46918 8.31716 4.51907 8.3421 4.45493 8.45256C4.39079 8.56302 4.38366 8.55946 4.31952 8.66992C4.25538 8.78038 4.2732 8.79107 4.20906 8.90153C4.14492 9.012 4.22331 9.05832 4.15917 9.16878C4.09503 9.27924 4.08791 9.27568 4.02377 9.38614C3.95963 9.4966 3.8563 9.43603 3.79216 9.54649C3.72802 9.65695 3.71376 9.64626 3.64962 9.75672C3.58549 9.86718 3.5748 9.86006 3.51066 9.97052C3.44652 10.081 3.49997 10.1131 3.43583 10.2235C3.37169 10.334 3.33962 10.3162 3.27548 10.4266C3.21134 10.5371 3.28261 10.5798 3.22203 10.6903C3.16145 10.8008 3.11513 10.7758 3.05099 10.8898C2.98685 11.0039 3.00823 11.0146 2.94409 11.125C2.87996 11.2355 2.85501 11.2212 2.79087 11.3353C2.72673 11.4493 2.80869 11.492 2.74455 11.6061C2.68041 11.7201 2.54857 11.6417 2.48443 11.7522C2.42029 11.8626 2.54144 11.9339 2.47374 12.0443C2.40604 12.1548 2.40604 12.1548 2.3419 12.2653C2.27776 12.3757 2.19581 12.3294 2.1281 12.4399C2.0604 12.5503 2.13167 12.5931 2.06753 12.7036C2.00339 12.814 1.96776 12.7926 1.90362 12.9067C1.83948 13.0207 1.7789 12.9815 1.71476 13.0955C1.65062 13.2095 1.67913 13.2238 1.61499 13.3343C1.55085 13.4447 1.5651 13.4554 1.50097 13.5659C1.43683 13.6763 1.44395 13.6835 1.37981 13.7939C1.31567 13.9044 1.31924 13.9079 1.2551 14.022C1.19096 14.136 1.13751 14.1039 1.06981 14.2144C1.01992 14.2999 1.0128 14.4175 1.00211 14.5066C0.991416 14.5992 1.02349 14.7061 1.05199 14.7916C1.0805 14.8772 1.19096 14.9164 1.25154 14.9841C1.31211 15.0518 1.34774 15.1373 1.43683 15.1765C1.51878 15.2121 1.6043 15.1587 1.70407 15.1587C1.83235 15.1587 1.83235 15.2228 1.95707 15.2228C2.08178 15.2228 2.08534 15.2656 2.21006 15.2656C2.33477 15.2656 2.33834 15.1551 2.46305 15.1551C2.58777 15.1551 2.59133 15.2584 2.71604 15.2584C2.84076 15.2584 2.84432 15.2584 2.96904 15.2584C3.09375 15.2584 3.09732 15.2477 3.22203 15.2477C3.34675 15.2477 3.35031 15.1943 3.47502 15.1943C3.59974 15.1943 3.6033 15.1765 3.72802 15.1765C3.85273 15.1765 3.85629 15.1979 3.98101 15.1979C4.10572 15.1979 4.10929 15.2477 4.234 15.2477C4.35872 15.2477 4.36228 15.1943 4.49056 15.1943C4.61884 15.1943 4.61884 15.2014 4.74355 15.2014C4.86827 15.2014 4.87183 15.2941 4.99655 15.2941C5.12126 15.2941 5.12482 15.2941 5.24954 15.2941C5.37425 15.2941 5.37425 15.2299 5.50253 15.2299C5.63081 15.2299 5.62725 15.3083 5.75552 15.3083C5.8838 15.3083 5.8838 15.1979 6.00852 15.1979C6.13323 15.1979 6.1368 15.2192 6.26151 15.2192C6.38623 15.2192 6.38979 15.2406 6.51807 15.2406C6.64635 15.2406 6.64635 15.1622 6.77106 15.1622C6.89578 15.1622 6.89934 15.319 7.02405 15.319C7.14877 15.319 7.15233 15.2798 7.27705 15.2798C7.40176 15.2798 7.40532 15.2192 7.5336 15.2192C7.66188 15.2192 7.66188 15.2192 7.79016 15.2192C7.91844 15.2192 7.91844 15.2085 8.04672 15.2085C8.17499 15.2085 8.17499 15.2157 8.30327 15.2157C8.43155 15.2157 8.43155 15.1979 8.55983 15.1979C8.68811 15.1979 8.68811 15.2727 8.81638 15.2727C8.94466 15.2727 8.94466 15.319 9.07294 15.319C9.20122 15.319 9.20122 15.2834 9.3295 15.2834C9.45778 15.2834 9.45778 15.1408 9.58605 15.1408C9.71433 15.1408 9.71433 15.2656 9.84261 15.2656C9.97089 15.2656 9.97089 15.1979 10.0992 15.1979C10.2274 15.1979 10.2274 15.1515 10.3557 15.1515C10.484 15.1515 10.484 15.3048 10.6123 15.3048C10.7406 15.3048 10.7406 15.1587 10.8688 15.1587C10.9971 15.1587 10.9971 15.2442 11.1254 15.2442C11.2537 15.2442 11.2537 15.18 11.3819 15.18C11.5102 15.18 11.5102 15.1943 11.6385 15.1943C11.7668 15.1943 11.7668 15.2798 11.8951 15.2798C12.0233 15.2798 12.0233 15.1765 12.1516 15.1765C12.2799 15.1765 12.2799 15.1907 12.4082 15.1907C12.5365 15.1907 12.5365 15.1836 12.6647 15.1836C12.793 15.1836 12.793 15.2691 12.9213 15.2691C13.0496 15.2691 13.0496 15.2834 13.1778 15.2834C13.3061 15.2834 13.3061 15.2442 13.4344 15.2442C13.5627 15.2442 13.5627 15.2941 13.691 15.2941C13.8192 15.2941 13.8192 15.1587 13.9511 15.1587C14.0829 15.1587 14.0794 15.1515 14.2076 15.1515C14.3359 15.1515 14.3359 15.2085 14.4642 15.2085C14.5925 15.2085 14.5925 15.3119 14.7243 15.3119C14.8561 15.3119 14.8526 15.2014 14.9844 15.2014C15.1163 15.2014 15.1127 15.2406 15.2445 15.2406C15.3764 15.2406 15.3728 15.2549 15.5011 15.2549C15.6294 15.2549 15.6294 15.1444 15.7612 15.1444C15.8931 15.1444 15.8895 15.2228 16.0213 15.2228C16.1532 15.2228 16.1532 15.3083 16.2815 15.3083C16.4097 15.3083 16.4133 15.2513 16.5416 15.2513C16.6414 15.2513 16.7411 15.2264 16.8195 15.1907C16.905 15.1515 17.0119 15.1123 17.0725 15.0446C17.1331 14.9769 17.1758 14.87 17.2044 14.781C17.2329 14.6919 17.2044 14.5921 17.1972 14.4959C17.1865 14.4068 17.1723 14.3142 17.1224 14.2286L17.1367 14.2465ZM4.87183 10.8756C4.87183 10.8756 4.87183 10.8756 4.86114 10.8756C4.85758 10.8756 4.80056 10.8685 4.80056 10.8685C4.80056 10.8685 4.86827 10.8863 4.8647 10.8863C4.85401 10.8863 4.84332 10.9005 4.8362 10.9077C4.84332 10.9148 4.86827 10.8863 4.87896 10.8898C4.92884 10.929 4.77919 10.929 4.80056 10.954C4.81838 10.9682 4.88965 10.9255 4.88965 10.9469C4.88965 10.9647 4.84332 10.9255 4.82551 10.929C4.84332 10.9433 4.87183 10.9504 4.85401 10.954C4.78275 10.9575 4.83263 11.011 4.77919 11.0253C4.78275 11.0253 4.78987 11.0609 4.79344 11.0609C4.71861 11.0609 4.87539 11.0965 4.80056 11.0894C4.79344 11.0894 4.74355 11.0751 4.73999 11.0787C4.73999 11.0965 4.75424 11.1321 4.73286 11.1321C4.76493 11.1464 4.78987 11.1428 4.79344 11.1535C4.79344 11.1535 4.80413 11.1108 4.80056 11.1072C4.79344 11.1036 4.70436 11.1927 4.70792 11.1999C4.76493 11.2319 4.80769 11.2212 4.81838 11.2426C4.79344 11.2319 4.75068 11.1464 4.70436 11.1357C4.71505 11.1393 4.75424 11.2177 4.77206 11.2284C4.75068 11.2284 4.73286 11.1357 4.74712 11.1464C4.75424 11.1464 4.797 11.2426 4.80056 11.2355V11.1678C4.80056 11.1678 4.79344 11.1713 4.79344 11.1678C4.79344 11.1642 4.74712 11.1927 4.74712 11.1927C4.77562 11.1999 4.76493 11.2212 4.797 11.2355C4.79344 11.239 4.81838 11.1856 4.80769 11.182C4.80769 11.182 4.73999 11.2676 4.73999 11.264C4.73643 11.2604 4.80769 11.2462 4.80056 11.2497C4.80413 11.2533 4.78631 11.2462 4.78275 11.2497C4.77919 11.2533 4.81482 11.2462 4.81125 11.2462C4.81482 11.2497 4.7685 11.321 4.76493 11.321L4.74355 11.2889C4.73999 11.2889 4.75424 11.3174 4.75068 11.3174C4.73999 11.3174 4.77206 11.2925 4.79344 11.3103C4.76493 11.2961 4.7293 11.3139 4.70436 11.3032C4.70436 11.3032 4.70079 11.2604 4.70436 11.2533C4.70079 11.2533 4.7293 11.2284 4.71861 11.2248C4.68298 11.2212 4.73643 11.2782 4.70792 11.2818C4.70436 11.2818 4.69367 11.2889 4.68298 11.2818C4.67229 11.2854 4.67585 11.3424 4.69367 11.3495C4.66516 11.3388 4.68298 11.2462 4.69367 11.2569C4.71505 11.2711 4.71505 11.2177 4.70792 11.2248C4.69723 11.2248 4.66516 11.3887 4.65447 11.3851C4.63309 11.3851 4.70079 11.3851 4.68298 11.3851C4.68298 11.3816 4.64734 11.3139 4.64022 11.3139C4.64734 11.3281 4.71148 11.3068 4.75068 11.3281C4.76137 11.3388 4.71148 11.3638 4.69367 11.3673C4.73643 11.3851 4.70792 11.3851 4.69367 11.3673C4.76137 11.3923 4.75424 11.4457 4.75068 11.4528C4.75068 11.4493 4.66872 11.435 4.6616 11.4315C4.69723 11.4635 4.68298 11.4422 4.67585 11.46C4.65091 11.46 4.65803 11.3923 4.63309 11.3923C4.64734 11.4065 4.64022 11.4422 4.65447 11.4564C4.65091 11.4635 4.66516 11.4136 4.65447 11.4172C4.65447 11.435 4.69723 11.4208 4.68298 11.4279C4.66516 11.4279 4.65803 11.4564 4.64022 11.4564C4.65091 11.4707 4.63309 11.5882 4.64378 11.5989C4.56182 11.574 4.69367 11.6203 4.59746 11.5989C4.56539 11.6061 4.65447 11.5063 4.67941 11.5205C4.67585 11.5277 4.67229 11.5455 4.62596 11.5312C4.62596 11.5312 4.64378 11.5241 4.64022 11.5241C4.59389 11.5027 4.59033 11.574 4.57608 11.574C4.57964 11.5811 4.63309 11.6666 4.64378 11.6702C4.60458 11.6738 4.61527 11.688 4.55826 11.6738C4.56895 11.7023 4.61527 11.7343 4.60102 11.7522C4.60102 11.7522 4.5832 11.6738 4.57964 11.6738C4.56895 11.6773 4.54757 11.8056 4.49769 11.7842C4.50125 11.8056 4.56182 11.8056 4.53332 11.8127C4.52263 11.8127 4.51194 11.8092 4.50481 11.802C4.49769 11.802 4.49056 11.7949 4.49769 11.802C4.49412 11.802 4.52619 11.7308 4.52263 11.7308C4.50125 11.7272 4.50125 11.8733 4.50481 11.8769C4.49412 11.8769 4.52976 11.7201 4.51907 11.7165C4.47987 11.713 4.51907 11.827 4.50125 11.8412C4.49769 11.8341 4.47274 11.8555 4.46205 11.8555C4.5155 11.8876 4.5155 11.8484 4.52263 11.8591C4.51194 11.8555 4.50838 11.8591 4.5155 11.8697C4.54401 11.9018 4.43711 11.8555 4.46562 11.8876C4.47987 11.8983 4.47631 11.9018 4.49412 11.9089C4.48343 11.9089 4.55826 11.884 4.5832 11.8947C4.56183 11.8911 4.47274 11.8697 4.46205 11.8769C4.4478 11.8697 4.45136 11.9268 4.42998 11.9232C4.4086 11.9232 4.4086 11.9054 4.38366 11.9018C4.3801 11.8983 4.40504 11.8448 4.4086 11.8484C4.47631 11.8804 4.3801 11.9161 4.45136 11.941C4.4478 11.9624 4.38366 11.9018 4.4086 11.9339C4.33734 11.9089 4.38722 12.0622 4.30171 12.023C4.29458 12.0301 4.3409 11.9802 4.37297 12.0016C4.37297 12.0016 4.34803 12.0479 4.34803 12.0515C4.35872 12.0586 4.36228 12.0622 4.35872 12.0693C4.3409 12.0515 4.35872 11.941 4.33021 11.9232C4.33377 11.9339 4.35872 11.9731 4.36941 11.9838C4.34446 11.9766 4.30883 11.9446 4.28389 11.9481C4.3124 11.9731 4.24469 12.0515 4.28389 12.0764C4.29102 12.08 4.27676 12.0657 4.28033 12.0729C4.2732 12.0835 4.34446 12.0729 4.34446 12.0907C4.33734 12.0942 4.32665 12.1726 4.31952 12.1726C4.31952 12.1762 4.40148 12.1049 4.40504 12.1121C4.40504 12.1121 4.37297 12.0835 4.36228 12.08C4.36228 12.08 4.36941 12.0479 4.36228 12.0443C4.33021 12.0301 4.2732 12.0052 4.25538 12.0016C4.25538 12.0016 4.25538 12.1085 4.26251 12.1156C4.25895 12.1156 4.21262 12.0978 4.2055 12.0942C4.21262 12.1085 4.29102 12.1014 4.31596 12.1227C4.31596 12.1227 4.27676 12.1441 4.27676 12.1477C4.27676 12.1584 4.33021 12.194 4.30527 12.1869C4.30527 12.1869 4.3124 12.1584 4.30883 12.1584C4.26251 12.1477 4.30883 12.2867 4.234 12.2546C4.21975 12.2546 4.27676 12.0978 4.234 12.0871C4.21619 12.0907 4.28745 12.1619 4.30171 12.1762C4.29814 12.1869 4.24113 12.2795 4.24469 12.2902C4.18055 12.2724 4.26251 12.2368 4.18768 12.2154C4.20193 12.219 4.23044 12.2439 4.23757 12.251C4.23757 12.2546 4.21262 12.2831 4.21975 12.2938C4.21975 12.2973 4.18055 12.3544 4.18055 12.3615C4.19481 12.3686 4.26251 12.2831 4.25895 12.2902C4.24469 12.2724 4.20906 12.2867 4.18768 12.2688C4.17343 12.2795 4.24469 12.3258 4.22688 12.333C4.20906 12.333 4.18055 12.3294 4.19124 12.3401C4.234 12.3615 4.14848 12.3615 4.1663 12.3686C4.14848 12.365 4.21975 12.3258 4.19837 12.3152C4.2055 12.3223 4.16274 12.3757 4.18768 12.39C4.19481 12.39 4.25538 12.4114 4.25182 12.4149C4.22688 12.4221 4.24113 12.4292 4.2055 12.4292C4.16986 12.4185 4.14492 12.4791 4.11285 12.4648C4.08791 12.4613 4.1663 12.4292 4.14848 12.4292C4.15561 12.4327 4.14136 12.4363 4.15917 12.447C4.15917 12.4434 4.20906 12.3401 4.20906 12.3365C4.22688 12.3508 4.16986 12.4506 4.19124 12.4541C4.2055 12.4541 4.18412 12.4363 4.19124 12.4292C4.21262 12.447 4.19124 12.4363 4.21619 12.447C4.234 12.4648 4.22331 12.4114 4.24469 12.4327C4.234 12.4292 4.234 12.4363 4.21619 12.4363C4.234 12.4506 4.16274 12.4541 4.16274 12.4613C4.15917 12.4613 4.10929 12.4399 4.10572 12.4399C4.10929 12.447 4.13067 12.4114 4.15205 12.4221C4.15205 12.4221 4.1663 12.4363 4.16986 12.4363C4.1663 12.4399 4.14492 12.4256 4.12354 12.4292C4.13067 12.4327 4.11285 12.5183 4.12354 12.5254C4.11998 12.5254 4.16986 12.5005 4.1663 12.4969C4.1663 12.5005 4.10929 12.5432 4.11998 12.5575C4.11998 12.5575 4.16274 12.5503 4.16274 12.5575C4.15205 12.5468 4.12354 12.5183 4.13779 12.5111C4.10572 12.4969 4.12354 12.5111 4.11641 12.5111C4.13779 12.529 4.23044 12.5005 4.24469 12.5111C4.234 12.5076 4.13423 12.6145 4.1271 12.6145C4.14136 12.6216 4.15917 12.5824 4.17343 12.5895C4.17343 12.5895 4.18768 12.5646 4.18768 12.5682C4.18412 12.5682 4.18768 12.561 4.18412 12.561C4.17699 12.5646 4.15917 12.5254 4.17699 12.5468C4.16986 12.5396 4.14492 12.5468 4.13067 12.5468C4.14136 12.5646 4.10929 12.5717 4.08791 12.5682C4.08791 12.5788 4.08791 12.5432 4.06297 12.5539C4.0594 12.5646 4.07722 12.4969 4.08435 12.4969C4.07009 12.5005 4.08435 12.5468 4.07722 12.5539C4.07722 12.5539 4.16986 12.6608 4.17343 12.6644C4.1663 12.6644 4.10216 12.5682 4.09503 12.5682C4.09503 12.5682 4.09504 12.6359 4.09147 12.6359C4.08435 12.6359 4.00595 12.6002 4.00239 12.5967C4.00595 12.5967 4.16274 12.6002 4.16274 12.5967C4.15917 12.5931 4.04515 12.6537 4.03802 12.6537C4.02021 12.6394 4.01664 12.5717 4.00952 12.5753C4.02021 12.5895 4.10929 12.6287 4.12354 12.6323C4.10216 12.6394 4.13423 12.6786 4.10929 12.6822C4.09147 12.6822 4.09147 12.5931 4.07722 12.5931C4.08078 12.5931 4.07009 12.6964 4.08078 12.7036C3.99883 12.6786 4.11641 12.7392 4.06653 12.7321C4.04515 12.7249 4.04515 12.7249 4.02377 12.7178C4.02021 12.7214 4.01308 12.7178 4.01664 12.7249C4.02733 12.7285 4.02377 12.7392 4.03446 12.7428C4.04159 12.7499 4.03446 12.6964 4.00952 12.6786C4.03446 12.7036 4.07722 12.6572 4.06653 12.6608C4.07366 12.6537 3.99883 12.7748 3.98101 12.757C3.95963 12.7606 4.0309 12.7677 4.03446 12.7784C4.02377 12.7713 3.98101 12.6893 3.97745 12.6893C3.99883 12.7071 3.89193 12.7285 3.90262 12.7428C3.90262 12.7499 4.00595 12.7428 4.00239 12.7428C4.00952 12.7606 3.93112 12.7499 3.93112 12.7606C3.93112 12.7641 3.92043 12.782 3.93112 12.7891L4.00952 12.7178C4.00952 12.7178 3.9525 12.7713 3.95607 12.7713C3.9917 12.7819 3.91687 12.8568 3.93112 12.8675C3.924 12.8639 3.9525 12.8247 3.94894 12.8247C3.98101 12.8425 3.95607 12.8176 3.97032 12.8283C3.95607 12.8247 3.89905 12.7926 3.89549 12.8033C3.89549 12.8069 3.96676 12.7926 3.98101 12.8033C3.96319 12.7962 3.94894 12.8354 3.94181 12.839C3.93825 12.8354 3.99526 12.7748 3.99883 12.7713C3.98457 12.7641 3.90262 12.9067 3.88836 12.8995C3.89193 12.9031 3.93469 12.814 3.93825 12.8211C3.94894 12.8283 3.97388 12.896 3.98101 12.8995C3.95607 12.8995 3.97388 12.8211 3.97388 12.8283C3.95607 12.8247 3.9525 12.8568 3.93469 12.8497C3.93825 12.8497 3.97388 12.8497 3.98457 12.8568C3.98457 12.8568 3.93825 12.9459 3.93469 12.9423C3.924 12.9316 3.93825 12.8461 3.91331 12.8318C3.91687 12.8425 3.96676 12.8247 3.99883 12.8425C3.98101 12.8425 3.90974 12.9352 3.89905 12.928C3.90262 12.9387 3.90618 12.9031 3.91331 12.9138C3.91331 12.9174 3.93469 12.8603 3.94181 12.8639C3.94181 12.8639 3.89193 12.9387 3.89549 12.9387C3.89549 12.9387 3.89193 12.9494 3.89549 12.9494C3.90262 12.9601 3.80285 12.9672 3.84917 12.9957C3.82066 12.9886 3.90974 12.8817 3.88124 12.8675C3.86698 12.8639 3.80997 12.953 3.8171 12.9637C3.81354 12.9637 3.84917 13.0064 3.84204 13.0064C3.82779 13.0064 3.87767 12.9815 3.85273 12.9779C3.87411 12.9922 3.82423 12.9779 3.84561 12.9993C3.85273 13.0064 3.89549 12.9352 3.88836 12.9316C3.8456 12.9174 3.83492 12.8817 3.78859 12.8782C3.8171 12.9067 3.82423 12.9459 3.83492 12.9672C3.79928 12.953 3.84917 13.1169 3.8171 13.1133C3.8171 13.1098 3.80997 12.9993 3.79928 12.9957C3.79928 12.9957 3.8171 13.0136 3.81354 13.0136C3.78503 13.0064 3.80285 13.0955 3.7779 13.092C3.77434 13.0848 3.8171 12.9672 3.80641 12.9637C3.82066 12.9815 3.78147 12.9459 3.76009 12.953C3.73514 12.9601 3.79216 12.9672 3.76721 12.953C3.76009 12.9566 3.79928 13.0706 3.73514 13.0456C3.73158 13.0456 3.7102 13.0599 3.70664 13.0563C3.69951 13.0492 3.69951 13.0456 3.69951 13.0492C3.69595 13.0492 3.69238 12.953 3.69238 12.9459C3.70307 12.953 3.7102 12.9708 3.72445 12.9779C3.71733 12.9708 3.68882 12.9851 3.67813 12.9779C3.69238 12.9851 3.69238 13.0884 3.70307 13.0991C3.72089 13.0991 3.71376 13.0777 3.71376 13.0741C3.72445 13.0741 3.72802 13.01 3.73514 13.0171C3.72445 13.0064 3.71733 13.0171 3.73514 13.0171C3.75652 13.0278 3.76365 13.0064 3.78147 13.0171C3.76721 12.9957 3.69595 13.0207 3.67813 12.9993C3.63537 12.9601 3.72802 12.9993 3.69595 12.9672C3.68169 12.9601 3.7102 12.9031 3.70307 12.8924C3.72089 12.9031 3.671 12.9387 3.67457 12.9387C3.66388 12.928 3.69595 12.8354 3.70307 12.8354C3.70307 12.8318 3.78859 12.8211 3.78503 12.8211C3.79216 12.8247 3.77434 12.814 3.78503 12.814C3.81354 12.8283 3.78147 12.8425 3.80641 12.8568C3.79216 12.8425 3.86342 12.8461 3.79928 12.8069C3.79572 12.8069 3.7494 12.8639 3.7494 12.8568C3.7494 12.8532 3.76365 12.8033 3.76721 12.8033C3.77078 12.8033 3.78503 12.8675 3.78503 12.8639L3.8171 12.9316C3.82066 12.928 3.78147 12.9209 3.8171 12.9316C3.81354 12.9245 3.80285 12.8675 3.80285 12.8639C3.82779 12.8782 3.83135 12.7962 3.85986 12.8069C3.86698 12.8033 3.83848 12.9138 3.83492 12.9067C3.84204 12.9067 3.89193 12.9067 3.89549 12.8995C3.88836 12.8853 3.8171 12.8568 3.80997 12.8497C3.80997 12.8497 3.79216 12.8782 3.78859 12.8782C3.78147 12.8782 3.80285 12.8211 3.80641 12.8176C3.82066 12.8176 3.84917 12.8283 3.86342 12.8461C3.86342 12.839 3.87767 12.7819 3.86342 12.7713C3.84204 12.7641 3.80641 12.839 3.78147 12.8283C3.77434 12.8176 3.78503 12.7962 3.78859 12.782C3.78859 12.7748 3.79928 12.8176 3.79928 12.8211C3.87767 12.839 3.7779 12.7641 3.84561 12.7713C3.83848 12.7641 3.90974 12.7107 3.89905 12.7036C3.90618 12.7 3.82423 12.7534 3.84204 12.7534C3.84917 12.7534 3.88836 12.7321 3.88836 12.7249C3.87767 12.7 3.83135 12.6537 3.84561 12.6465C3.85629 12.6465 3.80285 12.6145 3.80641 12.618C3.80641 12.6109 3.89193 12.6786 3.89905 12.6786C3.89549 12.6715 3.86698 12.7321 3.85986 12.7285C3.85986 12.7285 3.90262 12.6929 3.90262 12.6893C3.91687 12.6786 3.87055 12.6786 3.87055 12.6572C3.90618 12.6715 3.84561 12.6394 3.89193 12.6572C3.90974 12.6572 3.89193 12.5717 3.90618 12.5646C3.90974 12.5682 3.92043 12.5646 3.924 12.5717C3.94181 12.5717 3.924 12.5824 3.91331 12.5717C3.92043 12.5717 3.93825 12.5468 3.94538 12.5503C3.93469 12.5396 3.8848 12.6002 3.87411 12.5895C3.87767 12.5895 3.95963 12.5076 3.97032 12.5147C3.93469 12.4933 3.88836 12.6287 3.85273 12.6109C3.86342 12.6145 3.95607 12.5076 3.97032 12.5147C3.97388 12.5147 3.9525 12.561 3.9525 12.5575C3.9525 12.5539 3.94894 12.586 3.94181 12.5788C3.96676 12.586 3.96676 12.5539 3.97032 12.5575C3.98457 12.5539 3.98457 12.4506 3.97032 12.4327C3.95963 12.4292 3.96319 12.4541 3.95607 12.447C3.94894 12.4434 3.88836 12.4078 3.89549 12.4078C3.90262 12.4078 3.9525 12.4256 3.95963 12.4256C3.97388 12.4256 3.94181 12.4577 3.94538 12.4506C3.93825 12.4434 3.87055 12.5325 3.85986 12.5254C3.85273 12.5218 3.87767 12.5361 3.8848 12.5361C3.924 12.5539 3.924 12.3793 3.97032 12.4078C3.99883 12.4007 3.9525 12.4613 3.95607 12.447C3.96319 12.4399 3.93825 12.4898 3.94538 12.4933C3.95607 12.4898 3.97745 12.4078 3.96676 12.3936C3.97388 12.3971 3.90262 12.333 3.90974 12.3365C3.90974 12.3294 3.9917 12.3971 3.98457 12.3793C3.9917 12.3864 3.87767 12.4399 3.88124 12.4434C3.8848 12.447 3.93469 12.4078 3.94181 12.4078C3.98101 12.4256 3.93469 12.4577 3.98814 12.4862C3.97032 12.4755 3.99883 12.3187 3.96676 12.308C3.94181 12.3009 3.87411 12.2973 3.87411 12.2938C3.87411 12.2938 3.87411 12.3971 3.88124 12.3971C3.85986 12.3686 4.02021 12.3223 4.00595 12.2973C4.01664 12.3009 3.94894 12.2724 3.95607 12.2724C3.97745 12.2617 3.95607 12.2938 3.94894 12.2724C3.99883 12.2938 3.94538 12.3187 3.99526 12.3437C3.9917 12.3187 3.98814 12.3187 3.97032 12.2867C4.04871 12.3152 3.93469 12.2475 4.00239 12.2617C3.97388 12.251 3.97745 12.1441 3.98101 12.137C4.00239 12.1477 4.0594 12.1156 4.07366 12.1263C4.05228 12.1085 3.9917 12.1798 4.04159 12.2047C3.99526 12.1798 4.02733 12.1726 3.99526 12.1512C4.01664 12.1512 4.01664 12.1192 4.03446 12.1156C4.00239 12.1049 4.08435 12.0408 4.07366 12.0301C4.07722 12.0337 3.9917 12.1762 3.99526 12.1762C4.02377 12.1869 4.00239 12.08 4.02021 12.0835C4.0309 12.0835 4.03446 12.1049 4.03802 12.1049C4.01664 12.0907 4.04515 11.9766 4.07366 11.9838C4.07366 11.9873 3.99883 12.0907 4.00952 12.0942C3.98101 12.0515 4.09503 12.023 4.0594 11.9766C4.0594 11.9553 4.08435 11.9553 4.10216 11.9624C4.15917 11.9695 4.08078 12.0194 4.09503 12.0087C4.1271 11.9838 4.23044 11.8911 4.21975 11.8448C4.21619 11.8448 4.1663 11.8377 4.16274 11.8377C4.16274 11.8377 4.1271 11.8769 4.12354 11.8733C4.11641 11.8697 4.10216 11.9303 4.11285 11.9303C4.17343 11.9375 4.09503 11.8234 4.18412 11.8484C4.15917 11.8199 4.21262 11.8092 4.17343 11.77C4.19124 11.7735 4.14848 11.8163 4.15561 11.8127C4.14848 11.7949 4.24826 11.7308 4.234 11.7165C4.18412 11.6738 4.32665 11.7201 4.30527 11.688C4.31952 11.6951 4.33377 11.6488 4.33021 11.6417C4.31952 11.6381 4.25895 11.7094 4.24826 11.7058C4.23044 11.6773 4.22688 11.6061 4.22688 11.5883C4.24469 11.6025 4.26251 11.5776 4.29102 11.5883C4.2732 11.5776 4.28033 11.6488 4.26964 11.6346C4.2732 11.6203 4.34803 11.6025 4.36228 11.5989C4.3409 11.5811 4.29458 11.5882 4.26251 11.574C4.26964 11.5597 4.29102 11.574 4.29814 11.5562C4.29814 11.5491 4.26964 11.6096 4.26964 11.6061C4.28033 11.6096 4.22331 11.5099 4.234 11.517C4.23757 11.5099 4.34803 11.5384 4.34803 11.5312C4.35515 11.5419 4.39079 11.517 4.40148 11.517C4.3801 11.4992 4.31952 11.6381 4.29814 11.6239C4.31952 11.6239 4.31596 11.5491 4.33734 11.5562C4.33377 11.5491 4.33734 11.5063 4.32308 11.5063C4.33021 11.492 4.27676 11.4778 4.29102 11.4671C4.30171 11.4671 4.30171 11.5063 4.3124 11.5063C4.3124 11.4956 4.3124 11.4778 4.33734 11.4814C4.33021 11.4778 4.33377 11.4386 4.32308 11.435C4.29814 11.4136 4.39079 11.5205 4.39079 11.517C4.39435 11.517 4.40148 11.4386 4.41217 11.4422C4.40504 11.4208 4.34446 11.4457 4.3409 11.4243C4.35872 11.435 4.40504 11.4208 4.39079 11.4065C4.38366 11.403 4.37653 11.3958 4.37297 11.3958C4.36941 11.3923 4.33021 11.4742 4.33734 11.4742C4.35872 11.4742 4.41573 11.5063 4.43355 11.492C4.4478 11.4814 4.41573 11.4528 4.42642 11.435C4.43711 11.4172 4.3801 11.3388 4.39791 11.3424C4.39079 11.3317 4.35515 11.403 4.35515 11.3958C4.38366 11.3887 4.39791 11.3709 4.43711 11.3709C4.36941 11.3424 4.39791 11.3424 4.35159 11.321C4.4086 11.3246 4.44067 11.3353 4.46205 11.321C4.46562 11.321 4.46205 11.2533 4.46918 11.2533C4.50481 11.2569 4.41929 11.2319 4.43711 11.2284C4.44067 11.2284 4.42998 11.2996 4.43711 11.2996C4.47987 11.2996 4.44067 11.2533 4.41573 11.2284C4.42642 11.2355 4.53688 11.1785 4.53688 11.1713C4.52619 11.1642 4.42286 11.1713 4.44067 11.1713C4.44424 11.1749 4.4478 11.2319 4.44067 11.2212C4.42998 11.207 4.36941 11.207 4.36941 11.1892C4.39791 11.182 4.56183 11.182 4.55114 11.1571C4.56539 11.1571 4.49412 11.15 4.50481 11.1571C4.50481 11.1393 4.49056 11.0823 4.49056 11.068C4.51194 11.068 4.49056 11.1785 4.51194 11.1856C4.5155 11.1856 4.53332 11.1607 4.53332 11.1571C4.56895 11.1571 4.48343 11.1321 4.49056 11.125C4.51194 11.1321 4.54045 11.0359 4.56182 11.0431C4.59389 11.0431 4.54757 11.0573 4.52263 11.0431C4.47987 11.0074 4.62596 11.0573 4.59746 11.0253C4.57608 11.011 4.58677 11.0359 4.56539 11.0253C4.5832 11.0181 4.50125 10.954 4.51907 10.9433C4.58677 10.9647 4.49056 11.0502 4.5547 11.068C4.56182 11.0716 4.52263 11.0751 4.52976 11.0787C4.56895 11.0858 4.56539 11.0074 4.60458 11.0217C4.61527 11.0181 4.62953 11.0146 4.6224 11.0039C4.61527 11.0039 4.56182 11.0466 4.55826 11.0431C4.52619 11.0146 4.6224 10.929 4.59389 10.9077C4.60102 10.9148 4.53332 10.954 4.54045 10.954C4.54045 10.9469 4.54045 10.9682 4.52619 10.954C4.55113 10.9611 4.57251 10.9825 4.56539 10.9682C4.55826 10.9647 4.55114 10.9575 4.54401 10.9504C4.53332 10.9362 4.5547 10.9041 4.57964 10.9077C4.57251 10.9005 4.62953 10.8863 4.60815 10.8756C4.61884 10.8792 4.61527 10.9255 4.6224 10.9255C4.61527 10.9184 4.59389 10.897 4.59033 10.8934C4.60458 10.9005 4.59389 10.9184 4.6224 10.9255C4.59746 10.9112 4.62596 10.8827 4.57964 10.8613C4.59389 10.8613 4.59389 10.8685 4.60102 10.8649C4.60815 10.8649 4.57251 10.9255 4.57608 10.929C4.55114 10.9041 4.6224 10.8293 4.57608 10.8008C4.64022 10.8293 4.63309 10.7402 4.6901 10.7758C4.6901 10.7687 4.64022 10.7936 4.62953 10.7865C4.67941 10.8079 4.62953 10.8079 4.65803 10.815C4.64022 10.8043 4.56182 10.815 4.55826 10.8043C4.56182 10.8043 4.61171 10.8471 4.6224 10.8542C4.60458 10.84 4.66872 10.815 4.69723 10.8186C4.68298 10.8043 4.59389 10.8257 4.57251 10.8115C4.58677 10.8115 4.71505 10.7438 4.73643 10.7509C4.71505 10.7295 4.70436 10.7295 4.67941 10.7152C4.68298 10.7152 4.67941 10.7758 4.6901 10.7794C4.67585 10.7723 4.66872 10.6903 4.69367 10.6974C4.69367 10.6974 4.64378 10.7794 4.64734 10.7829C4.65803 10.7901 4.63665 10.8079 4.63309 10.7972C4.62953 10.7794 4.64022 10.7758 4.65091 10.7616C4.69367 10.7651 4.77919 10.7331 4.83263 10.7616C4.8362 10.7616 4.83976 10.7616 4.84332 10.7616C4.86114 10.7687 4.8362 10.8542 4.84332 10.8507C4.85401 10.8542 4.91815 10.8685 4.92172 10.8792C4.91103 10.8934 4.88252 10.8649 4.8647 10.872C4.85758 10.8898 4.82551 10.8685 4.83263 10.8863L4.87183 10.8756ZM10.1811 9.19372C10.1811 9.19372 10.1811 9.19016 10.1882 9.19372C10.1811 9.18303 10.1669 9.23292 10.1882 9.22936C10.2025 9.23292 10.2061 9.18303 10.2203 9.18303C10.2132 9.16522 10.2203 9.14027 10.2096 9.11533C10.1811 9.08326 10.2239 9.1082 10.2025 9.08326C10.1954 9.0797 10.1882 9.12246 10.1847 9.11889C10.1954 9.12246 10.174 9.09039 10.1776 9.09039C10.1597 9.06901 10.2168 9.06188 10.1989 9.04763C10.2061 9.05119 10.2096 9.06545 10.2168 9.06545C10.2417 9.07614 10.2346 9.07257 10.2666 9.10108C10.2346 9.07257 10.2809 9.06188 10.2274 9.02981L10.2524 8.99774C10.2524 8.99774 10.2595 9.07257 10.2631 9.07257C10.2702 9.06901 10.2346 9.0405 10.2417 9.0405C10.2417 9.0405 10.2346 9.00843 10.2346 9.00487C10.2381 8.99774 10.231 9.05476 10.2524 9.05832C10.256 9.06545 10.2595 9.08326 10.2666 9.09039C10.2916 9.09039 10.2666 8.96567 10.2666 8.95855C10.2845 8.96567 10.2666 9.06188 10.2845 9.06901C10.2916 9.06545 10.2702 8.96924 10.2702 8.96211C10.2738 8.96211 10.2809 8.90866 10.2845 8.90866C10.313 8.90153 10.256 9.02269 10.2951 9.02625C10.3058 9.02625 10.3272 8.92291 10.3201 8.91579C10.3308 8.91579 10.2524 9.012 10.2631 9.02625C10.2631 9.02269 10.2987 8.98349 10.288 8.97636C10.2738 8.97636 10.288 8.96211 10.2666 8.95498C10.2595 8.94429 10.3272 8.94429 10.3272 8.93004C10.3308 8.93004 10.2738 8.88372 10.2738 8.88728C10.3343 8.88372 10.2417 8.84096 10.3165 8.84096C10.2987 8.84096 10.2916 8.8659 10.2809 8.85878C10.2916 8.85165 10.3094 8.79107 10.3237 8.78751C10.3308 8.78751 10.2595 8.8374 10.2595 8.83027C10.2524 8.80176 10.2951 8.75188 10.3094 8.74119C10.3165 8.74119 10.2702 8.75188 10.2738 8.75544C10.2738 8.74475 10.3807 8.80533 10.3415 8.78751C10.3415 8.78751 10.3094 8.74475 10.313 8.74475C10.3272 8.72693 10.3201 8.69486 10.3237 8.66992C10.3522 8.67705 10.3379 8.7305 10.3735 8.73762C10.3878 8.72693 10.3593 8.68061 10.3771 8.66636C10.37 8.66636 10.37 8.64498 10.37 8.64141C10.3842 8.64498 10.3415 8.70912 10.3486 8.70912C10.3415 8.70199 10.3628 8.68774 10.3557 8.68061C10.3593 8.68061 10.4519 8.58797 10.4591 8.59153C10.4341 8.57371 10.3593 8.70555 10.3343 8.6913C10.3415 8.69486 10.427 8.57015 10.4377 8.57371C10.4412 8.57371 10.4484 8.63429 10.4484 8.63072C10.4484 8.6236 10.4056 8.57728 10.402 8.57371C10.4163 8.57371 10.4199 8.5844 10.4234 8.5844C10.4341 8.57371 10.4163 8.60222 10.402 8.5844C10.402 8.57371 10.3771 8.60222 10.3807 8.59509C10.3735 8.59153 10.4199 8.5167 10.4127 8.50957C10.4056 8.50601 10.3735 8.5167 10.3807 8.5167C10.4127 8.52739 10.3914 8.5559 10.427 8.57371C10.4484 8.55946 10.4733 8.52026 10.4733 8.50245C10.4733 8.49532 10.4412 8.54521 10.4448 8.54877C10.4555 8.54164 10.4804 8.4098 10.4662 8.39911C10.4733 8.40267 10.4377 8.48819 10.4448 8.49176C10.4519 8.48107 10.3343 8.449 10.3308 8.43118C10.3343 8.43474 10.37 8.43474 10.3735 8.43474C10.37 8.43118 10.4448 8.37061 10.4448 8.36704C10.5018 8.39911 10.4163 8.47394 10.4626 8.49888C10.4519 8.49176 10.4804 8.34566 10.4555 8.3421C10.4555 8.3421 10.4555 8.39911 10.4555 8.39555C10.4412 8.36704 10.3949 8.37417 10.3842 8.34566C10.3914 8.34923 10.4341 8.33854 10.4412 8.33497C10.4591 8.31359 10.4412 8.28865 10.4306 8.26014C10.4697 8.2744 10.4519 8.35992 10.4911 8.37417C10.4911 8.34923 10.4412 8.20313 10.4306 8.1675C10.4911 8.18175 10.4377 8.1675 10.4911 8.1675C10.4697 8.16037 10.4733 8.14968 10.4769 8.13899C10.4911 8.14968 10.5161 8.15325 10.5268 8.16037C10.5125 8.14968 10.5196 8.196 10.5446 8.19957C10.5303 8.18888 10.4484 8.15681 10.4306 8.14256C10.4448 8.13899 10.5766 8.07129 10.5909 8.06416C10.5695 8.05704 10.5268 8.08911 10.5268 8.08198C10.5268 8.08198 10.5125 8.09267 10.5125 8.09623C10.5339 8.0998 10.5125 8.09623 10.5232 8.09623C10.5339 8.09623 10.5232 8.08554 10.5232 8.07842C10.5089 8.07485 10.5161 8.01784 10.5375 8.01784C10.5375 8.0214 10.5446 8.03922 10.5517 8.04278C10.5339 8.00002 10.5054 7.96795 10.484 7.92163C10.484 7.90738 10.5624 7.98577 10.5802 7.98933C10.623 7.97864 10.5268 7.90382 10.5375 7.88956C10.566 7.85037 10.6372 7.83255 10.6337 7.78266C10.6301 7.7791 10.5766 7.78266 10.5766 7.7791C10.5766 7.77554 10.6372 7.7791 10.6337 7.77197C10.6265 7.77197 10.6337 7.82542 10.6372 7.82186C10.6835 7.81473 10.5945 7.66151 10.6657 7.66864C10.6479 7.6437 10.6729 7.69358 10.6443 7.65795C10.6586 7.65439 10.7192 7.65795 10.7263 7.65082C10.7263 7.63657 10.6907 7.64726 10.6835 7.63301C10.655 7.60094 10.8368 7.54749 10.8118 7.51185C10.8118 7.51185 10.7014 7.61519 10.7049 7.61519C10.7121 7.62232 10.8189 7.48691 10.8154 7.48335C10.8083 7.48335 10.7798 7.53323 10.7691 7.53323C10.7584 7.50473 10.7406 7.55105 10.7441 7.53323C10.7584 7.54749 10.7619 7.50829 10.7833 7.51542C10.7691 7.50473 10.6764 7.50473 10.6693 7.48691C10.6693 7.47266 10.7085 7.47978 10.7192 7.46909C10.7014 7.4584 10.8154 7.39783 10.7904 7.3907C10.7976 7.37289 10.8083 7.43346 10.8154 7.41208C10.8154 7.41208 10.8154 7.30875 10.8154 7.30518C10.794 7.29449 10.7904 7.37645 10.7904 7.36932C10.7976 7.36932 10.8439 7.35863 10.851 7.3622C10.851 7.35507 10.7584 7.35507 10.7584 7.34794C10.7655 7.35507 10.8403 7.37645 10.8475 7.36932C10.8439 7.36576 10.8118 7.3622 10.8118 7.35507C10.8118 7.35151 10.8368 7.37289 10.8403 7.36932C10.8403 7.3622 10.7227 7.35151 10.7121 7.35507C10.7192 7.33369 10.8118 7.36932 10.8261 7.35507C10.8332 7.35507 10.7904 7.23392 10.7976 7.23035C10.7976 7.21966 10.7976 7.20898 10.8154 7.20898C10.8083 7.20541 10.8439 7.22323 10.8368 7.21967C10.8189 7.20541 10.8011 7.22323 10.8011 7.21967C10.8047 7.21967 10.8368 7.25173 10.8403 7.2553C10.8368 7.23748 10.9009 7.24105 10.9009 7.22323C10.9116 7.22679 10.9045 7.19472 10.9009 7.18047C10.8938 7.17691 10.8688 7.1876 10.8653 7.19116C10.8617 7.1876 10.8439 7.20898 10.8475 7.20541C10.8653 7.20541 10.876 7.21966 10.8831 7.20541C10.8902 7.19116 10.9116 7.21966 10.9187 7.20541C10.9223 7.19116 10.8653 7.23392 10.8831 7.23392C10.8795 7.22323 10.8653 7.18403 10.8653 7.18047C10.8902 7.16265 10.8403 7.19116 10.8653 7.18403C10.8154 7.16622 10.908 7.11633 10.8724 7.10208C10.9187 7.09139 10.8617 6.99518 10.8831 6.97024L10.9401 7.02012C10.965 7.01656 10.908 7.03794 10.9223 7.02725C10.9258 7.02725 10.9116 6.92391 10.9187 6.92391C10.9508 6.91322 10.9579 6.95242 10.9401 6.93104C10.9437 6.9346 10.9579 6.93817 10.965 6.93817C10.9544 6.93104 10.9187 6.94886 10.9294 6.94173C10.933 6.94173 10.9045 6.96667 10.9116 6.96667C10.9009 6.95598 10.8581 6.92748 10.8617 6.91679C10.8867 6.89897 10.9365 6.88115 10.9294 6.85265C10.9401 6.85265 10.9971 6.8669 11.0042 6.87046C11.0042 6.85265 10.965 6.78138 10.965 6.76356C10.9793 6.76 10.99 6.77782 11.0078 6.77425C11.0078 6.76357 10.9686 6.84552 10.9971 6.84552C11.0007 6.84552 11.0042 6.85621 11.0149 6.86334C11.0434 6.85265 10.9829 6.77782 10.99 6.76356C11.0078 6.76356 10.99 6.85265 11.0078 6.85621C11.0327 6.85621 10.99 6.79207 10.9722 6.78138C10.9365 6.75288 11.047 6.77069 11.0256 6.73862C11.0114 6.7315 11.0256 6.72081 11.0042 6.71368C11.0185 6.69943 10.9615 6.63172 10.9757 6.61747C10.9864 6.62103 10.9579 6.74575 10.9615 6.74931C10.9722 6.76 10.9829 6.70655 11.0042 6.70655C11.0042 6.71724 11.0292 6.68517 11.0399 6.6923C11.0684 6.68874 11.0399 6.70299 11.0684 6.71012C11.0755 6.70655 11.0434 6.71012 11.0399 6.69943C11.0399 6.69943 11.0719 6.68517 11.0791 6.68517C11.0826 6.68517 11.1111 6.67805 11.1111 6.68517C11.1147 6.68517 11.129 6.71012 11.1325 6.71012C11.1325 6.70299 11.1646 6.65667 11.161 6.64954C11.1539 6.64241 11.0541 6.63529 11.0399 6.63529L11.1396 6.68874C11.1396 6.68874 11.0755 6.66379 11.0719 6.66023C11.0684 6.65667 11.0185 6.70299 11.0149 6.69943C11.0007 6.67805 11.0007 6.71368 10.9793 6.69943C10.9864 6.70299 11.104 6.67092 11.1076 6.67092C11.1076 6.66379 10.9722 6.55689 10.9686 6.5462C10.9864 6.5462 11.0684 6.61391 11.0648 6.59965C11.0577 6.59965 11.0007 6.63172 10.9936 6.62816C10.9864 6.61391 11.0042 6.59253 11.0292 6.58896C11.0042 6.57471 11.1111 6.5462 11.0719 6.53195C11.1004 6.53551 11.0078 6.5462 11.0292 6.54264C11.0114 6.53908 11.0434 6.52126 11.0292 6.51057C11.0506 6.5177 11.0399 6.53908 11.0684 6.53908C11.047 6.52839 11.1004 6.50345 11.0684 6.49276C11.0791 6.48919 11.0684 6.57827 11.0755 6.57471C11.0791 6.57471 11.0898 6.51057 11.0933 6.51057C11.0755 6.49276 11.1218 6.54977 11.0826 6.52839C11.129 6.5462 11.0933 6.38229 11.1361 6.40724C11.1361 6.40011 11.1111 6.37517 11.1004 6.36804C11.1396 6.38229 11.0791 6.42149 11.104 6.42149C11.0826 6.41436 11.1682 6.35735 11.1575 6.34666C11.161 6.35022 11.0826 6.42149 11.0933 6.42505C11.0791 6.4108 11.129 6.41793 11.1503 6.41793C11.1396 6.40724 11.1396 6.4108 11.1254 6.40011C11.1254 6.39298 11.0363 6.40011 11.0363 6.39298C11.0363 6.38229 11.0933 6.38942 11.0969 6.37873C11.0969 6.36804 11.129 6.46069 11.1396 6.46069C11.1396 6.46069 11.1254 6.40367 11.1254 6.40011C11.1325 6.40011 11.161 6.38229 11.1575 6.3716C11.1575 6.35735 11.1575 6.39298 11.1646 6.38229C11.2002 6.3716 11.1717 6.39655 11.2109 6.4108C11.218 6.4108 11.2323 6.38229 11.2359 6.38586C11.2501 6.38942 11.2786 6.46425 11.2822 6.46069C11.2893 6.46069 11.3784 6.43218 11.3819 6.44287C11.3713 6.46069 11.2608 6.4108 11.2465 6.42149C11.2465 6.43574 11.3071 6.42149 11.3107 6.43931C11.3107 6.44643 11.2537 6.39298 11.2465 6.39298C11.2394 6.39298 11.2537 6.43574 11.2465 6.43574C11.2287 6.42862 11.2608 6.43574 11.2572 6.43931C11.2644 6.44643 11.275 6.42505 11.2822 6.42862C11.3142 6.46069 11.1753 6.51057 11.1895 6.53551C11.2002 6.54977 11.3249 6.52126 11.3249 6.53551C11.3249 6.54977 11.2323 6.55333 11.218 6.55689C11.2323 6.56758 11.2572 6.57471 11.2465 6.5854C11.1895 6.61034 11.2715 6.71012 11.2287 6.73862C11.2323 6.74219 11.186 6.67092 11.1824 6.67092C11.1183 6.68517 11.2323 6.73506 11.1753 6.75288C11.1717 6.75288 11.1254 6.72437 11.1254 6.72793C11.1254 6.74575 11.1004 6.80276 11.0826 6.80989C11.1111 6.81701 11.129 6.78494 11.1325 6.7992C11.129 6.7992 11.1361 6.84196 11.1361 6.83839C11.1254 6.83483 11.1575 6.75644 11.161 6.76356C11.2038 6.78851 11.161 6.83127 11.1717 6.84908C11.1503 6.84552 11.1396 6.79207 11.104 6.78851C11.1111 6.79207 11.0363 6.87403 11.0506 6.88115C11.0363 6.88115 11.1503 6.93104 11.161 6.93817C11.1682 6.93817 11.0613 6.87403 11.0613 6.8669L11.1646 6.88115C11.1646 6.87759 11.1432 6.88828 11.1396 6.88828C11.161 6.88828 11.1931 6.8277 11.2145 6.83483C11.2145 6.84196 11.1682 6.9738 11.1503 6.96667C11.1503 6.97024 11.0969 6.84908 11.0898 6.84908C11.0933 6.85265 11.1147 6.87403 11.1147 6.87759L11.1539 6.93104C11.1539 6.93104 11.1646 6.95242 11.161 6.95598C11.1468 6.96311 11.1575 6.98449 11.1717 6.99874C11.1432 6.98092 11.1004 6.99874 11.0791 6.99162C11.0719 6.98449 11.0862 6.96311 11.0933 6.95242C11.0898 6.94529 11.1254 6.94529 11.1183 6.94529C11.0898 6.94886 11.0969 6.87403 11.0755 6.88472C11.0755 6.88472 11.1004 6.88472 11.0898 6.87759C11.0826 6.88115 11.1004 6.9738 11.1111 6.98093C11.0898 6.9738 11.0506 6.99161 11.0577 7.0023C11.0719 7.01299 11.1004 7.0023 11.0969 7.00943C11.0898 7.00943 11.0791 7.06288 11.0719 7.05932C11.0648 7.06288 11.1539 7.00231 11.1575 7.01656C11.1575 7.01299 11.0826 7.00943 11.0791 7.01299C11.0826 7.02725 11.1432 7.00231 11.1717 7.02012C11.1788 7.03081 11.104 7.09495 11.0898 7.09495C11.1004 7.10564 11.1539 7.0023 11.1396 7.0023C11.1753 7.01299 11.1788 7.13771 11.1753 7.1484C11.1753 7.14484 11.1325 7.07713 11.1254 7.07357C11.1539 7.10564 11.0613 7.0807 11.0577 7.10208C11.0363 7.10564 11.0577 7.16265 11.0327 7.16265C11.0327 7.17334 11.1076 7.24104 11.1076 7.25173C11.0969 7.25173 11.0791 7.17691 11.0719 7.18047C11.0719 7.20185 11.0719 7.13415 11.0541 7.1484C11.0434 7.1484 11.0541 7.1484 11.0399 7.1484C11.047 7.15909 11.047 7.2161 11.0541 7.22679C10.9936 7.21967 11.104 7.3622 11.0327 7.3622C11.0114 7.37289 10.99 7.3622 11.0114 7.37645C11.0078 7.38358 11.0648 7.28737 11.0292 7.28024C11.0292 7.28024 11.0007 7.3622 10.9971 7.3622C10.9686 7.35151 11.0577 7.33013 11.0577 7.33725C11.0613 7.34794 11.0221 7.36932 11.0292 7.36932C10.9971 7.38358 11.0042 7.42634 10.9615 7.42634C10.9686 7.45484 10.9615 7.45484 10.9437 7.47978C10.9437 7.47978 10.99 7.5368 10.9864 7.5368C10.9757 7.54392 10.9508 7.5368 10.9152 7.52254C10.9152 7.54392 10.9544 7.5368 10.933 7.55461C10.9258 7.55461 10.9401 7.55105 10.933 7.54749C10.9258 7.54749 10.8581 7.61875 10.8653 7.62588C10.8617 7.62588 10.9258 7.55105 10.9223 7.54749C10.908 7.55105 10.9223 7.57599 10.9294 7.58312C10.9223 7.58312 10.9258 7.62232 10.9152 7.62232C10.8831 7.63301 10.9829 7.71496 10.9686 7.73634C10.965 7.73278 10.8902 7.6722 10.8831 7.6722C10.9223 7.69358 10.965 7.74703 10.9686 7.75772C10.9686 7.76128 10.8724 7.70071 10.8688 7.70427C10.8688 7.71853 10.8189 7.77554 10.8368 7.80048C10.8475 7.80761 10.876 7.7791 10.8867 7.7791C10.8795 7.78266 10.908 7.74703 10.9294 7.75059C10.9116 7.75416 10.8867 7.76841 10.876 7.7791C10.8653 7.77554 10.8653 7.7399 10.8475 7.7399C10.8332 7.7399 10.8261 7.71852 10.8118 7.72209V7.79335C10.8118 7.79335 10.7726 7.82186 10.7762 7.82899C10.8261 7.8468 10.8546 7.7114 10.908 7.71852C10.9045 7.74703 10.8368 7.87175 10.851 7.90025C10.8011 7.89313 10.8118 7.90025 10.7477 7.87887C10.7441 7.886 10.7085 7.91451 10.7156 7.9252C10.7121 7.92163 10.7263 7.89313 10.7227 7.88956C10.7227 7.90382 10.7619 7.85393 10.7691 7.86462C10.7512 7.86462 10.7192 7.86462 10.7014 7.87175C10.7227 7.88956 10.7477 7.85749 10.7762 7.87887C10.7798 7.87887 10.8261 7.93589 10.8261 7.93945C10.8189 7.95726 10.7441 7.95726 10.7441 7.97508C10.7406 7.97864 10.7619 8.06416 10.7548 8.06416C10.7477 8.06416 10.8118 7.94657 10.7798 7.94301C10.7762 7.94301 10.7049 8.06416 10.7014 8.0606C10.6764 8.05347 10.7014 7.96795 10.6871 7.96795C10.6871 7.97152 10.6408 8.03566 10.6443 8.03566C10.6479 8.04991 10.6764 8.04635 10.6942 8.06773C10.6835 8.07842 10.7512 8.18175 10.7299 8.18531L10.7406 8.03209C10.7085 8.02853 10.7655 8.05704 10.7121 8.03922C10.6978 8.04278 10.6978 8.08911 10.6693 8.08554C10.6479 8.09623 10.7014 8.05347 10.68 8.0606C10.68 8.05704 10.6443 8.10336 10.6408 8.10336C10.6372 8.11405 10.7085 8.24589 10.7121 8.25658C10.6657 8.25658 10.6871 8.28865 10.6408 8.28865C10.6479 8.29221 10.5838 8.21738 10.5873 8.22451C10.5838 8.23164 10.7192 8.23876 10.7263 8.24233C10.7192 8.24233 10.6515 8.25302 10.655 8.25658C10.655 8.26014 10.6372 8.27796 10.6372 8.28152C10.6408 8.28152 10.7192 8.22451 10.7192 8.23164C10.7085 8.21382 10.6372 8.20313 10.623 8.19244C10.6123 8.20669 10.6871 8.32072 10.6729 8.33497C10.6622 8.33854 10.5553 8.32785 10.5624 8.3421C10.5945 8.35635 10.6158 8.32785 10.6265 8.33141C10.6158 8.33141 10.6443 8.35992 10.6265 8.35279C10.6337 8.35992 10.6123 8.33854 10.6337 8.34923C10.6408 8.34923 10.5873 8.27796 10.5838 8.28509C10.5624 8.29934 10.68 8.31003 10.655 8.31716C10.6301 8.31359 10.6194 8.3813 10.5945 8.37773C10.5695 8.37773 10.6123 8.42405 10.5945 8.42405C10.6052 8.42762 10.6337 8.33497 10.6443 8.34566C10.6479 8.3421 10.6337 8.35992 10.6337 8.35279C10.6479 8.35992 10.6158 8.43118 10.6337 8.42762C10.6479 8.42762 10.5873 8.38842 10.5945 8.37773C10.6087 8.39199 10.5945 8.4775 10.6158 8.48107C10.6265 8.49888 10.5517 8.449 10.566 8.46681C10.5588 8.47038 10.5802 8.44187 10.566 8.44187C10.5802 8.45969 10.5802 8.43118 10.5909 8.44187C10.5909 8.44187 10.5125 8.41337 10.5054 8.41337C10.5054 8.42049 10.5695 8.48819 10.5838 8.49532C10.5873 8.49532 10.598 8.45612 10.6016 8.45612C10.598 8.46325 10.6479 8.53095 10.6337 8.53452C10.6337 8.53808 10.5553 8.50957 10.5588 8.5167C10.5588 8.5167 10.5553 8.46325 10.5517 8.46325C10.5481 8.4775 10.655 8.43474 10.6265 8.43831C10.623 8.43831 10.6265 8.52383 10.623 8.52383C10.6194 8.52739 10.5517 8.52383 10.5517 8.53095C10.5517 8.5167 10.5125 8.56302 10.5268 8.54877C10.4983 8.54164 10.5588 8.52026 10.5481 8.52383C10.5624 8.53452 10.5481 8.5844 10.5624 8.59153C10.5588 8.59153 10.598 8.56302 10.5945 8.56659C10.6052 8.57015 10.598 8.59509 10.6087 8.59509C10.6087 8.59866 10.6764 8.50245 10.68 8.50601C10.68 8.50245 10.6123 8.61291 10.6052 8.61291C10.598 8.61647 10.5339 8.59509 10.5481 8.61291C10.5446 8.60578 10.5018 8.52739 10.4876 8.53095C10.4947 8.54877 10.4876 8.49176 10.4662 8.49532C10.4662 8.50957 10.5624 8.57015 10.5446 8.5844C10.5446 8.58797 10.5232 8.5559 10.5303 8.5559C10.5161 8.56302 10.566 8.61291 10.5553 8.6236C10.5588 8.6236 10.5481 8.59866 10.5481 8.60222C10.5374 8.60222 10.5375 8.61647 10.5303 8.62004C10.5303 8.62004 10.5446 8.64854 10.5446 8.64498C10.5481 8.64498 10.598 8.56659 10.5945 8.56302L10.5303 8.5559C10.5268 8.5559 10.5375 8.60935 10.5339 8.60935C10.5232 8.59509 10.4626 8.59866 10.4555 8.60935C10.4591 8.6236 10.484 8.62716 10.4947 8.62716C10.4804 8.63785 10.5339 8.60935 10.5161 8.61647C10.5125 8.62004 10.427 8.71624 10.4199 8.72693C10.4412 8.74119 10.5018 8.59866 10.5196 8.61291C10.4555 8.60578 10.5481 8.81245 10.5054 8.82314C10.4911 8.82314 10.5054 8.72337 10.4911 8.71624C10.4876 8.71981 10.4697 8.759 10.4697 8.76613C10.4769 8.76613 10.4983 8.70555 10.5089 8.70555C10.5125 8.71268 10.4626 8.76613 10.4448 8.75188C10.4626 8.77326 10.4377 8.80533 10.427 8.81245C10.4341 8.80176 10.4555 8.81602 10.4448 8.80176C10.427 8.80889 10.4306 8.75188 10.4341 8.76257C10.4234 8.75544 10.4448 8.76257 10.4412 8.76969C10.4591 8.78395 10.345 8.78395 10.3522 8.7982C10.3522 8.80533 10.4555 8.83383 10.4555 8.8374C10.4591 8.85521 10.4163 8.84809 10.4163 8.8659C10.4163 8.86946 10.4377 8.83027 10.4412 8.83383L10.402 8.95142V8.86234C10.4306 8.86947 10.4555 8.89441 10.4626 8.9051C10.4555 8.9051 10.3522 8.94073 10.3593 8.94786C10.3735 8.95498 10.3807 8.88728 10.3842 8.89797C10.3735 8.89797 10.3522 8.90866 10.3486 8.91935C10.3522 8.92648 10.4056 8.99418 10.4163 8.99774C10.402 8.99774 10.3914 8.90153 10.3842 8.90866C10.3807 8.90153 10.427 8.90153 10.4234 8.89797C10.4092 8.89084 10.3878 8.87659 10.3735 8.86946C10.37 8.87303 10.4412 8.95498 10.4306 8.95855C10.4377 8.96567 10.3628 8.91222 10.37 8.91579C10.3486 8.92291 10.3949 8.92648 10.3914 8.93717C10.3807 8.93717 10.3735 9.01912 10.3628 9.01912C10.3664 9.02625 10.3343 9.012 10.3415 9.01912C10.3415 9.01912 10.3878 9.03338 10.3842 9.03338C10.3771 9.02625 10.3522 8.91579 10.3343 8.90866C10.3343 8.91935 10.3807 8.99418 10.4056 9.00487C10.3878 9.012 10.3308 9.03694 10.3201 9.03338C10.3237 9.04407 10.3415 9.04763 10.345 9.05476H10.3379C10.3379 9.05476 10.3308 9.03694 10.3343 9.03694C10.3379 9.03694 10.288 9.10108 10.2916 9.10464C10.2951 9.11533 10.2738 9.09395 10.3094 9.11533C10.2845 9.11533 10.3165 9.11889 10.2951 9.1082C10.2738 9.1082 10.3201 9.13671 10.2773 9.12246C10.2809 9.12958 10.2738 9.08683 10.2773 9.08683C10.2666 9.08683 10.3023 9.15096 10.2773 9.15096C10.288 9.15809 10.3201 9.11533 10.3272 9.12246C10.3237 9.12246 10.3023 9.11177 10.2987 9.11533C10.3094 9.12246 10.3058 9.25074 10.2916 9.24717C10.2595 9.24717 10.2773 9.17591 10.2453 9.18303C10.2666 9.20798 10.2845 9.17234 10.288 9.19372C10.2595 9.1866 10.2951 9.28637 10.2702 9.28993C10.2702 9.28993 10.3201 9.19729 10.313 9.19372C10.313 9.20085 10.2488 9.20085 10.2524 9.20798C10.2524 9.20798 10.2488 9.26855 10.2453 9.26855C10.2239 9.26855 10.2738 9.14027 10.256 9.14384C10.256 9.13671 10.1597 9.24361 10.1491 9.24361C10.1597 9.25786 10.2381 9.19372 10.2203 9.20085C10.2025 9.20798 10.1989 9.28637 10.1811 9.28281C10.174 9.28993 10.2488 9.24361 10.1989 9.22936C10.1954 9.22936 10.1491 9.25786 10.1455 9.2543C10.1455 9.2543 10.1882 9.23292 10.1847 9.23292C10.1776 9.22223 10.1205 9.16165 10.117 9.15096C10.1241 9.15809 10.1847 9.14027 10.1918 9.14384C10.2061 9.14027 10.1811 9.21154 10.1847 9.20441L10.1811 9.19372ZM11.7882 12.6929C11.7882 12.6929 11.8024 12.6822 11.806 12.6822C11.8024 12.6822 11.7632 12.7392 11.7597 12.7392C11.7846 12.757 11.7953 12.6857 11.8131 12.7C11.8095 12.6964 11.7953 12.6822 11.7917 12.6857C11.7846 12.6857 11.7846 12.7142 11.7775 12.7142C11.7525 12.7 11.7347 12.7392 11.7062 12.7142C11.7383 12.7428 11.7347 12.6751 11.7882 12.7071C11.7882 12.7071 11.7668 12.7249 11.7632 12.7249C11.7561 12.7285 11.7703 12.7249 11.7418 12.7214C11.7383 12.7178 11.749 12.7071 11.7454 12.7C11.7347 12.7 11.7311 12.7249 11.7347 12.7356C11.7311 12.7356 11.7062 12.6964 11.6991 12.6964C11.6991 12.7 11.724 12.6822 11.7276 12.6893C11.7205 12.6893 11.7276 12.7214 11.724 12.7214C11.7098 12.7214 11.7347 12.7463 11.7454 12.7534C11.7454 12.7534 11.6955 12.7998 11.692 12.7998C11.6991 12.7998 11.7418 12.7036 11.749 12.7071C11.7383 12.7036 11.6955 12.7962 11.6848 12.7855C11.6848 12.7891 11.6884 12.8176 11.6991 12.8247C11.7133 12.8283 11.7525 12.7499 11.7739 12.757C11.781 12.7641 11.8416 12.7891 11.8416 12.7962C11.8416 12.7962 11.7525 12.7428 11.7525 12.7392C11.6955 12.7321 11.7846 12.7713 11.7133 12.7606C11.7311 12.7641 11.6492 12.839 11.6563 12.8461C11.6492 12.8497 11.7133 12.8782 11.7026 12.8782C11.6955 12.8782 11.6991 12.8461 11.6955 12.8532C11.7026 12.8746 11.7062 12.8283 11.6955 12.8354C11.6884 12.8354 11.7347 12.9352 11.7312 12.9316C11.7312 12.9387 11.6528 12.8568 11.692 12.8746V12.9102C11.6813 12.9209 11.7062 12.9886 11.7062 13.0064C11.6813 12.9957 11.6848 13.0171 11.6528 13.0064C11.6385 13.0064 11.6741 13.0064 11.6634 13.01C11.6599 13.0064 11.6456 13.0349 11.6456 13.0314C11.6243 13.0314 11.6777 12.9957 11.6706 13.0029C11.6706 12.9993 11.692 12.9566 11.6884 12.9566C11.6884 12.9601 11.6848 12.9637 11.6884 12.9672C11.6848 12.9672 11.6278 12.9779 11.6207 12.9779C11.6278 12.9886 11.6492 12.9851 11.667 12.9957C11.6599 12.9957 11.6243 13.0064 11.6171 13.0029C11.6171 13.0029 11.6848 12.9851 11.6848 12.9886C11.6848 12.9922 11.6243 13.0385 11.6314 13.0421C11.61 13.0385 11.5886 12.9245 11.5851 12.9209C11.5744 12.928 11.6528 12.9352 11.667 12.9459C11.6741 12.9459 11.6884 12.9779 11.6955 12.9815C11.7026 12.9851 11.6492 13.0171 11.6456 13.0171C11.6385 13.0171 11.6314 13.067 11.6243 13.0635C11.6136 13.0635 11.6599 13.0243 11.6563 13.0278C11.6634 13.0314 11.6634 13.0385 11.6706 13.0456C11.6777 13.0492 11.6741 13.1205 11.6706 13.1205C11.6421 13.1062 11.6706 13.0278 11.6349 13.01C11.6136 13.0171 11.6563 13.092 11.6528 13.1062C11.6528 13.1026 11.6314 13.0634 11.6278 13.0599C11.6171 13.0599 11.5779 13.1383 11.5922 13.149C11.5815 13.149 11.5886 13.067 11.5815 13.067C11.5815 13.0741 11.5672 13.124 11.5708 13.1347C11.5672 13.1312 11.6136 13.1525 11.61 13.1525C11.6171 13.1561 11.6029 13.2095 11.6064 13.2131C11.5459 13.1775 11.5922 13.1775 11.5459 13.1525C11.5601 13.1597 11.6278 13.0813 11.6528 13.0884C11.6528 13.0884 11.5744 13.181 11.5744 13.1846C11.5886 13.206 11.5459 13.1989 11.553 13.2202C11.5494 13.2167 11.6029 13.1703 11.5957 13.1703C11.5779 13.181 11.6278 13.2737 11.6349 13.2951C11.5957 13.2808 11.6278 13.2487 11.5922 13.2309C11.5922 13.2523 11.5993 13.2737 11.61 13.2986C11.5494 13.2808 11.6207 13.2487 11.5744 13.2381C11.5922 13.2487 11.5779 13.3806 11.5779 13.3877C11.5637 13.377 11.6064 13.3022 11.5957 13.2951C11.61 13.3093 11.5815 13.3058 11.5459 13.2879C11.5815 13.3058 11.5102 13.3485 11.5352 13.3628C11.5174 13.3628 11.5174 13.3984 11.5031 13.402C11.5245 13.4091 11.6171 13.4376 11.6171 13.4412L11.5779 13.3129C11.5565 13.3058 11.5744 13.3877 11.5601 13.3841C11.5494 13.3841 11.528 13.4091 11.5245 13.4091C11.5423 13.4162 11.5744 13.3841 11.553 13.3806C11.553 13.3806 11.5565 13.402 11.553 13.3984C11.5708 13.434 11.5174 13.4554 11.5387 13.491C11.5387 13.5053 11.5138 13.4768 11.4995 13.4732C11.4568 13.4697 11.5886 13.5587 11.5815 13.5659C11.553 13.5908 11.4105 13.5587 11.4176 13.5944C11.4211 13.6015 11.4817 13.573 11.496 13.5801C11.4888 13.5801 11.4532 13.5801 11.4675 13.5908C11.4746 13.5944 11.4853 13.6621 11.4782 13.6621C11.4318 13.655 11.4853 13.655 11.4211 13.6371C11.439 13.6585 11.3392 13.6763 11.3677 13.7048C11.3534 13.7048 11.4354 13.6514 11.4283 13.655C11.4354 13.6692 11.4283 13.6585 11.439 13.6728C11.4603 13.7013 11.3392 13.712 11.3392 13.7298C11.3392 13.7298 11.3534 13.744 11.357 13.7476C11.3463 13.7405 11.2929 13.7975 11.2964 13.801C11.3036 13.8046 11.2964 13.7797 11.3036 13.7832C11.3107 13.8046 11.3214 13.6942 11.3214 13.7084C11.3107 13.7013 11.3321 13.7547 11.3214 13.7547C11.3285 13.7547 11.3214 13.7832 11.3214 13.7904C11.3214 13.801 11.3214 13.8117 11.3071 13.8153C11.3249 13.826 11.3891 13.7761 11.4105 13.7868C11.4069 13.7975 11.4105 13.8973 11.4033 13.9115C11.4033 13.9115 11.3 13.8973 11.3036 13.9008C11.3142 13.9115 11.3321 13.8082 11.3321 13.8117C11.3321 13.8082 11.2394 13.8759 11.2323 13.8759C11.2323 13.8794 11.3036 13.8759 11.3036 13.883C11.2964 13.8794 11.2644 13.8331 11.2572 13.8331C11.2572 13.8331 11.3214 13.8937 11.3214 13.8973C11.3214 13.8973 11.275 13.8723 11.275 13.8759C11.2822 13.883 11.3285 13.8937 11.3356 13.8901C11.3285 13.9044 11.3285 13.9044 11.3178 13.9151C11.3107 13.9151 11.3142 14.0006 11.3036 14.0006C11.3036 14.0113 11.3 13.8652 11.2822 13.8652C11.2893 13.8652 11.3285 13.9044 11.3356 13.9044C11.3356 13.9044 11.3641 13.9543 11.3641 13.9614C11.3606 13.9614 11.3107 13.9222 11.3071 13.9222C11.3036 13.9186 11.3178 13.9365 11.3142 13.9329C11.3214 13.9471 11.2893 13.9614 11.2893 13.9756C11.275 13.9721 11.1931 14.022 11.2002 14.0327C11.2073 14.0362 11.243 14.0148 11.2465 14.0148C11.2465 14.0148 11.2857 13.9721 11.2822 13.9721C11.2644 13.9721 11.2501 13.965 11.2394 13.9721C11.2287 13.9828 11.2644 13.9828 11.2644 13.997C11.2644 14.0113 11.2679 13.9186 11.2572 13.9186C11.2572 13.9258 11.2572 13.9757 11.2572 13.9792C11.2359 13.9899 11.2359 14.0291 11.2073 14.0291C11.2537 14.0505 11.2608 14.0612 11.2929 14.079C11.2501 14.079 11.218 14.0861 11.2002 14.1004C11.2002 14.1004 11.1753 14.1681 11.1717 14.1681C11.1468 14.1645 11.2252 14.1289 11.2109 14.1324C11.2073 14.1324 11.2109 14.0861 11.2073 14.0861C11.1788 14.0861 11.2608 14.0861 11.275 14.1039C11.275 14.1039 11.1895 14.1574 11.1895 14.1609C11.1895 14.1574 11.1824 14.1716 11.1788 14.1716C11.186 14.1788 11.2038 14.1574 11.2002 14.1716C11.1788 14.1788 11.2073 14.1966 11.2109 14.218C11.2038 14.218 11.1967 14.2465 11.186 14.2429C11.186 14.2571 11.1824 14.2678 11.1824 14.2821C11.1753 14.2857 11.1539 14.2358 11.1468 14.2358C11.1468 14.2393 11.1931 14.2536 11.1967 14.2571C11.1931 14.2571 11.1503 14.2928 11.1468 14.2928C11.1432 14.2928 11.1503 14.193 11.1396 14.1859C11.1111 14.1859 11.1717 14.2073 11.1646 14.2144C11.1468 14.2108 11.1325 14.2607 11.1183 14.2571C11.0969 14.2571 11.0826 14.332 11.1004 14.3427C11.1325 14.3712 11.1076 14.2429 11.129 14.2714C11.1432 14.2785 11.1396 14.2999 11.1539 14.3106C11.1432 14.3177 11.1539 14.3213 11.1396 14.3284C11.0898 14.3142 11.1076 14.3961 11.0613 14.3819C11.0541 14.3783 11.1539 14.2429 11.1468 14.2393C11.1183 14.2393 11.1147 14.2607 11.0862 14.25C11.0755 14.2536 11.1004 14.3177 11.104 14.3284C11.104 14.3284 11.0933 14.3177 11.0969 14.3177C11.1254 14.3391 11.104 14.332 11.1254 14.3462C11.1183 14.3427 11.1111 14.3783 11.104 14.3783C11.104 14.3819 11.1361 14.4104 11.1396 14.4211C11.1218 14.4175 11.047 14.3926 11.0541 14.4032C11.0577 14.4068 11.0363 14.4496 11.0434 14.4531C11.0541 14.4674 11.047 14.3747 11.0256 14.3747C11.0434 14.3854 11.1396 14.3355 11.1503 14.3427C11.1432 14.3427 11.0434 14.4032 11.0292 14.3997C11.0434 14.4068 11.0826 14.446 11.0898 14.4567C11.0719 14.446 11.1111 14.4674 11.0826 14.4638C11.1004 14.4745 11.0221 14.4888 11.0541 14.503C11.047 14.503 11.0684 14.5066 11.0648 14.5101C11.0613 14.5101 11.0506 14.4424 11.047 14.4389C11.0648 14.4567 11.047 14.503 11.0826 14.528C11.0399 14.503 11.0577 14.5244 11.0149 14.4995C11.0149 14.503 11.0648 14.4389 11.0719 14.446C11.0363 14.4282 11.0613 14.5458 11.0363 14.5386C11.0506 14.5493 11.0613 14.528 11.0648 14.5386C11.0613 14.5422 11.0648 14.5386 11.0577 14.5386C11.0577 14.5422 10.9864 14.4781 10.9722 14.4745C10.9793 14.4852 10.9757 14.5458 10.9936 14.5565C10.9829 14.5565 11.0042 14.5315 10.9936 14.5244C11.0078 14.5386 10.9757 14.5743 10.9936 14.5885C10.99 14.5885 10.9936 14.5957 10.9864 14.5921C10.99 14.5921 11.0042 14.6064 11.0078 14.6099C10.9971 14.6099 11.0221 14.528 11.0185 14.5386C11.0149 14.5493 10.9579 14.6028 10.965 14.6099C10.965 14.6099 11.0292 14.5778 11.0256 14.5778C10.9936 14.5778 10.9579 14.5173 10.9223 14.4995C10.9223 14.4995 10.9294 14.4816 10.9223 14.4816C10.908 14.4781 10.8867 14.585 10.8831 14.585C10.8724 14.585 10.8403 14.4745 10.8368 14.4674C10.8439 14.4531 10.9686 14.4709 10.9793 14.4674C10.9793 14.4531 10.9116 14.4674 10.908 14.4531C10.908 14.446 10.8902 14.4816 10.8938 14.4816V14.5101C10.9045 14.5137 10.9152 14.4175 10.9223 14.4139C10.9152 14.4104 10.8902 14.4496 10.8831 14.4424C10.851 14.4104 10.9971 14.3783 10.9793 14.3569C10.9686 14.3462 10.8118 14.4068 10.8118 14.3926C10.8118 14.3783 10.908 14.3926 10.9223 14.3926C10.9116 14.3819 10.8795 14.3249 10.8938 14.3213C10.9472 14.3142 10.9401 14.3712 10.9793 14.3569C10.9757 14.3534 10.9508 14.3213 10.9472 14.3213C11.0078 14.3213 10.9009 14.2001 10.9579 14.2001C10.9615 14.2001 10.9152 14.2108 10.9187 14.2073C10.9187 14.193 10.99 14.2358 11.0078 14.2358C10.9793 14.2215 10.8831 14.2286 10.876 14.218C10.8831 14.2215 10.9757 14.1966 10.9793 14.2001C10.9864 14.2001 10.9686 14.2536 10.9722 14.2536C10.933 14.2251 10.9116 14.1217 10.9045 14.1039C10.9258 14.1111 10.9971 14.1823 11.0292 14.193C11.0221 14.1859 11.0221 14.1752 11.0078 14.1681C11.0221 14.1681 11.0185 14.1075 11.0078 14.1004C11.0078 14.1039 10.9401 14.1004 10.9365 14.1039C10.933 14.1039 10.9508 14.1574 10.9508 14.1574C10.9508 14.1574 11.0399 14.1574 11.0399 14.1609C11.0399 14.1645 10.9864 14.2001 10.9829 14.2001C10.9615 14.1966 10.9829 14.1467 10.9579 14.136C10.9615 14.1324 10.933 14.2037 10.9437 14.2073C10.9472 14.2073 10.965 14.2251 10.9686 14.2251C10.9722 14.2251 11.0185 14.136 11.0221 14.1324C11.0221 14.1324 10.9152 14.0719 10.9152 14.0683C10.9152 14.0683 10.965 14.1467 10.9686 14.1467C10.9722 14.1467 10.9864 14.1396 10.99 14.1396C11.0007 14.1396 10.9971 14.0434 10.9829 14.0327C11.0114 14.0505 11.0256 14.0505 11.047 14.0612C11.0541 14.0683 10.9187 14.0897 10.9116 14.1004C10.9152 14.1004 10.99 14.1859 10.9971 14.1894C11.0256 14.193 10.9971 14.1004 11.0149 14.0968C11.0185 14.0968 10.9971 14.0861 11.0042 14.0897C11.0007 14.0825 11.0221 14.0719 11.0185 14.0683C11.0399 14.0754 11.0078 14.1467 11.0007 14.136C10.9864 14.1253 11.0256 14.0362 11.0327 14.0327C11.0399 14.0327 11.0327 14.0647 11.0399 14.0647C11.0577 14.0647 11.0042 14.1503 11.0185 14.1503C11.0256 14.1503 11.1111 14.0469 11.1147 14.0469C11.1076 14.0362 11.0221 14.054 11.0007 14.0398C11.0007 14.0291 11.0292 14.0825 11.0399 14.079C11.0292 14.0647 10.9971 14.0184 11.0292 14.0327C10.9793 14.0148 10.965 13.9578 10.9686 13.9507C10.9686 13.9507 10.9686 14.0505 10.9757 14.054C10.9508 14.0255 11.0399 13.9792 11.0434 13.965C11.0613 13.965 11.0719 13.9186 11.0933 13.9222C11.0933 13.9151 11.0327 13.8866 11.0327 13.883C11.0434 13.883 11.0007 13.8723 11.0078 13.8688C11.0078 13.8545 11.0506 13.8509 11.0613 13.8438C11.0755 13.8438 11.0648 13.883 11.0791 13.883C11.0684 13.8723 11.0613 13.9792 11.0506 13.9721C11.1111 13.9863 11.0434 13.8509 11.1147 13.8652C11.1396 13.8581 11.0648 13.9079 11.047 13.8973C11.0506 13.8937 11.0648 13.8474 11.0969 13.8616C11.104 13.8652 11.1717 13.9186 11.1788 13.9151C11.1788 13.9079 11.1788 13.8082 11.1753 13.8046C11.1717 13.7975 11.1004 13.8474 11.0898 13.8474C11.1218 13.8474 11.0791 13.7298 11.1218 13.7369C11.1147 13.7155 11.1396 13.7975 11.1539 13.7832L11.1254 13.801C11.1361 13.7975 11.1503 13.6977 11.186 13.712C11.186 13.6977 11.1468 13.6336 11.1682 13.6264C11.1753 13.6264 11.1682 13.6942 11.1753 13.6942C11.1717 13.6835 11.1682 13.6835 11.1646 13.6799C11.1717 13.6799 11.1967 13.7298 11.2038 13.7298C11.2038 13.7298 11.1575 13.6585 11.161 13.6585C11.1646 13.6585 11.1824 13.6728 11.186 13.6728C11.2145 13.6692 11.186 13.6621 11.2038 13.6514C11.2038 13.6514 11.2216 13.6158 11.2287 13.6158C11.1931 13.5944 11.1967 13.6763 11.1895 13.6656C11.2002 13.6656 11.2465 13.5908 11.2394 13.5801C11.218 13.5552 11.2608 13.5837 11.2394 13.5623C11.2287 13.5552 11.2073 13.6051 11.1967 13.6015C11.2002 13.5979 11.1468 13.516 11.1432 13.5124C11.1503 13.5124 11.2216 13.5766 11.2252 13.573C11.2394 13.5766 11.2359 13.516 11.2501 13.5195C11.2679 13.5195 11.2644 13.6229 11.2822 13.6229C11.2857 13.6229 11.3178 13.5302 11.3178 13.5231C11.2679 13.5017 11.3071 13.5409 11.2572 13.5231C11.2608 13.5017 11.2715 13.5124 11.2572 13.4839C11.3071 13.5017 11.2857 13.4554 11.3463 13.4839C11.3499 13.4732 11.3392 13.4768 11.3142 13.459C11.3142 13.459 11.3285 13.4412 11.3285 13.4447C11.3142 13.434 11.3178 13.4198 11.3178 13.4162C11.3321 13.4269 11.3071 13.5481 11.3285 13.5623C11.3249 13.5516 11.3428 13.3735 11.3392 13.3663C11.357 13.3699 11.3178 13.4233 11.3356 13.4162C11.3142 13.3984 11.3784 13.4732 11.3499 13.4518C11.3463 13.4518 11.3819 13.4412 11.3784 13.4376C11.3855 13.4269 11.3249 13.4376 11.3249 13.4269C11.3321 13.4233 11.3071 13.4946 11.3178 13.4946C11.3249 13.491 11.2715 13.4518 11.3036 13.4625C11.3036 13.4625 11.3962 13.3449 11.3998 13.3449C11.4211 13.3556 11.3713 13.3307 11.3819 13.3343C11.3819 13.3307 11.4033 13.3877 11.3998 13.3841C11.3998 13.3841 11.3071 13.4091 11.3107 13.4091C11.3071 13.3984 11.4211 13.32 11.3962 13.3022C11.3998 13.3022 11.3249 13.2951 11.3285 13.2951C11.3356 13.2879 11.3178 13.3663 11.3356 13.3699C11.3356 13.3699 11.3285 13.402 11.3321 13.402C11.3641 13.4091 11.3178 13.3414 11.3713 13.3628C11.3819 13.3663 11.3819 13.2559 11.4105 13.263C11.4318 13.2594 11.3641 13.3841 11.3819 13.3841C11.3855 13.3841 11.439 13.3735 11.4425 13.377C11.4425 13.3699 11.3891 13.3236 11.3855 13.3129C11.4354 13.3236 11.3748 13.3414 11.4283 13.3521C11.4105 13.3485 11.4675 13.2202 11.4603 13.2167C11.4603 13.2095 11.3392 13.2986 11.3356 13.2951C11.3321 13.2879 11.3249 13.2345 11.3249 13.2309C11.3249 13.2274 11.357 13.2701 11.357 13.2666C11.3641 13.2772 11.4283 13.1775 11.4461 13.1882C11.4532 13.181 11.3926 13.2238 11.4069 13.2167C11.4211 13.2167 11.471 13.2024 11.4639 13.1917C11.4318 13.1739 11.414 13.1205 11.3998 13.1169C11.4105 13.1205 11.4176 13.2487 11.4354 13.2559C11.4283 13.2487 11.4354 13.2167 11.4176 13.206C11.4176 13.206 11.4639 13.2452 11.4675 13.2452C11.4853 13.2381 11.3855 13.1739 11.4105 13.1739C11.4354 13.181 11.4532 13.1276 11.4746 13.1383C11.496 13.1418 11.4532 13.1454 11.4675 13.1454C11.4603 13.1418 11.4888 13.0599 11.4782 13.0528C11.4782 13.0563 11.4995 13.0777 11.496 13.0813C11.4817 13.0741 11.4461 13.1276 11.4283 13.124C11.4176 13.124 11.4532 13.1597 11.4425 13.1632C11.4283 13.149 11.3819 13.206 11.3606 13.1989C11.3499 13.1882 11.3784 13.0813 11.3784 13.0741C11.3855 13.0741 11.439 13.1205 11.4532 13.1205C11.439 13.1062 11.4532 13.149 11.4425 13.1383C11.4425 13.1383 11.471 13.1846 11.4782 13.1882C11.4746 13.1846 11.5031 13.0278 11.4888 13.0207C11.4888 13.0207 11.4603 13.0563 11.4568 13.0563C11.4568 13.0563 11.4425 13.1026 11.439 13.1026C11.439 13.0955 11.5138 13.1205 11.5245 13.1169C11.5174 13.1169 11.471 13.0741 11.4675 13.0706C11.471 13.0706 11.4354 13.067 11.439 13.067C11.4461 13.0563 11.4069 12.9779 11.4318 12.9779C11.4354 12.9815 11.4283 13.1026 11.4318 13.1026C11.4354 13.1026 11.3926 13.0884 11.3926 13.092C11.3998 13.0991 11.4105 13.1133 11.3926 13.1205C11.4211 13.1312 11.4639 13.0599 11.4746 13.0599C11.4639 13.0528 11.414 13.0991 11.4033 13.092C11.4033 13.092 11.4033 13.1098 11.4069 13.1062C11.4033 13.1062 11.439 13.0136 11.4354 13.0136C11.4318 13.0136 11.4782 12.9815 11.4746 12.9815C11.4746 12.9779 11.4211 13.0528 11.4176 13.0456C11.4211 13.0456 11.3926 13.0706 11.3962 13.0706C11.3998 13.0706 11.528 13.0029 11.5138 12.9851C11.5209 12.9886 11.4069 13.0207 11.4176 13.0171C11.4105 13.0029 11.5316 13.0848 11.5459 13.0848C11.5459 13.0741 11.5387 13.0599 11.5565 13.0528C11.5601 13.0456 11.5459 13.0706 11.5387 13.0706C11.553 13.0634 11.4782 12.9957 11.496 12.9957C11.4924 12.9957 11.5245 13.0243 11.5209 13.0207C11.528 13.0207 11.496 12.9744 11.4995 12.9744C11.4995 12.9744 11.4995 13.0029 11.5031 13.0029C11.5067 13.0029 11.4924 12.9815 11.496 12.9851C11.4924 12.9851 11.4853 12.9957 11.4817 12.9957C11.4888 13.0029 11.6243 13.0243 11.6349 13.0243C11.6278 13.01 11.5815 13.0136 11.5708 13.01C11.5851 13.0064 11.471 12.9672 11.4888 12.9637C11.4924 12.9637 11.5565 12.953 11.5637 12.9459C11.553 12.9352 11.5245 12.9779 11.5174 12.9779C11.5459 12.9779 11.4675 12.9672 11.5031 12.9672C11.5174 12.9672 11.496 12.9886 11.5102 12.9957C11.5138 12.9957 11.5779 12.839 11.5744 12.8318C11.5672 12.8318 11.5174 12.9815 11.5067 12.9779C11.5031 12.9708 11.553 12.9138 11.5708 12.9245C11.5565 12.9102 11.5494 12.9102 11.5601 12.9102C11.5672 12.9102 11.5708 12.8497 11.5779 12.8568C11.5922 12.8532 11.5886 12.9174 11.5851 12.9102C11.5957 12.9102 11.5494 12.9102 11.5494 12.896C11.5352 12.8817 11.5601 12.8568 11.5565 12.8461C11.5565 12.8461 11.6243 12.871 11.6243 12.8675C11.6171 12.8497 11.6243 12.8782 11.5993 12.8568C11.5708 12.8497 11.6777 12.7784 11.667 12.7677C11.6741 12.7713 11.5922 12.8425 11.5957 12.8425C11.5708 12.8318 11.5815 12.8033 11.5708 12.7962C11.5815 12.7962 11.5601 12.8105 11.5637 12.8033C11.5601 12.7962 11.6064 12.8675 11.5957 12.8639C11.61 12.8675 11.6207 12.7819 11.6243 12.7784C11.6243 12.7784 11.6563 12.7677 11.6563 12.7713C11.6634 12.7784 11.6777 12.8425 11.6848 12.8461C11.6813 12.839 11.6528 12.7499 11.6563 12.7499C11.6456 12.7463 11.6385 12.8176 11.6314 12.814C11.6528 12.8105 11.6243 12.6929 11.6243 12.6857C11.6349 12.6857 11.6136 12.7891 11.6243 12.7926C11.6243 12.7926 11.6741 12.7249 11.6634 12.7178C11.6634 12.7178 11.6029 12.7962 11.6064 12.7998C11.6136 12.8069 11.6349 12.6929 11.6528 12.7C11.6492 12.6929 11.692 12.7214 11.667 12.7107C11.6813 12.7071 11.6848 12.7641 11.6955 12.7713C11.692 12.7606 11.6421 12.7321 11.6349 12.7249C11.6349 12.7214 11.6706 12.6501 11.6634 12.6501C11.6634 12.6501 11.6349 12.7071 11.6349 12.7036C11.6278 12.6929 11.7632 12.6465 11.7276 12.6252C11.749 12.6287 11.6848 12.643 11.7062 12.6537C11.7276 12.6572 11.667 12.6751 11.7062 12.6929C11.7062 12.6857 11.6955 12.6537 11.7026 12.6537C11.7133 12.6537 11.692 12.6537 11.7026 12.6537C11.6955 12.6465 11.6741 12.6572 11.6706 12.6537C11.6706 12.6537 11.6991 12.7107 11.6991 12.7071C11.7205 12.7107 11.7418 12.6929 11.7597 12.6822C11.7383 12.6608 11.7026 12.6252 11.6955 12.6109C11.724 12.618 11.6884 12.5931 11.7098 12.5895C11.7098 12.5931 11.749 12.618 11.7561 12.6252C11.7561 12.618 11.7026 12.6252 11.7026 12.6216C11.7026 12.618 11.7418 12.5646 11.7454 12.5682C11.7668 12.5717 11.7383 12.5682 11.7597 12.5717C11.7632 12.5788 11.7632 12.5361 11.7739 12.5361C11.7739 12.5361 11.8024 12.5967 11.806 12.5967C11.8131 12.6073 11.781 12.6501 11.7668 12.6501C11.7525 12.643 11.838 12.6501 11.8238 12.6501C11.8345 12.6644 11.8238 12.6145 11.8345 12.6323C11.8666 12.6644 11.7525 12.6929 11.7739 12.7142L11.7882 12.6929Z" fill="#1E462C"/>
</svg>
